<?xml version="1.0" encoding="utf-8"?>
<!-- Generator: Adobe Illustrator 15.0.0, SVG Export Plug-In . SVG Version: 6.00 Build 0)  -->
<!DOCTYPE svg PUBLIC "-//W3C//DTD SVG 1.1//EN" "http://www.w3.org/Graphics/SVG/1.1/DTD/svg11.dtd">
<svg version="1.1" id="Layer_1" xmlns="http://www.w3.org/2000/svg" xmlns:xlink="http://www.w3.org/1999/xlink" x="0px" y="0px"
	 width="595.916px" height="254.905px" viewBox="0 0 595.916 254.905" enable-background="new 0 0 595.916 254.905"
	 xml:space="preserve">
<text transform="matrix(1 0 0 1 0.5669 39.3584)" fill="#EE0000" font-family="'STIXGeneral-Italic'" font-size="21">x</text>
<text transform="matrix(0.583 0 0 0.583 9.8906 46.3516)" fill="#EE0000" font-family="'STIXGeneral-Italic'" font-size="21">t</text>
<text transform="matrix(1 0 0 1 0.5669 121.8179)" fill="#BB0000" font-family="'STIXGeneral-Italic'" font-size="21">x</text>
<text transform="matrix(0.583 0 0 0.583 9.8906 128.811)" fill="#BB0000" font-family="'STIXGeneral-Italic'" font-size="21">t-τ</text>
<text transform="matrix(1 0 0 1 0.5669 204.2769)" fill="#880000" font-family="'STIXGeneral-Italic'" font-size="21">x</text>
<text transform="matrix(0.583 0 0 0.583 9.8906 211.27)" fill="#880000" font-family="'STIXGeneral-Italic'" font-size="21">t-2τ</text>
<line fill="none" stroke="#880000" stroke-width="2" stroke-miterlimit="10" x1="51.781" y1="224.87" x2="52.173" y2="224.971"/>
<path fill="none" stroke="#EE0000" stroke-width="2" stroke-miterlimit="10" d="M36.859,23.108l0.393,0.701l0.393,0.702l0.393,0.692
	l0.393,0.674 M33.325,18.594l0.393,0.229l0.393,0.313l0.393,0.393l0.393,0.467l0.393,0.533l0.393,0.588l0.393,0.634l0.393,0.668"/>
<path fill="none" stroke="#000000" stroke-miterlimit="10" d="M63.086,69.216H32.54 M32.54,15.515v53.702"/>
<path fill="none" stroke="#BB0000" stroke-width="2" stroke-miterlimit="10" d="M87.137,111.5l-0.017,0.017 M32.933,123.375
	l0.393,0.191l0.393,0.212l0.393,0.232l0.393,0.255l0.393,0.28l0.393,0.306l0.393,0.335l0.393,0.366l0.393,0.399l0.393,0.436
	l0.393,0.476l0.393,0.517l0.393,0.562l0.393,0.611l0.393,0.663l0.393,0.719l0.393,0.776L40,131.55l0.393,0.9l0.393,0.964
	l0.393,1.028l0.393,1.091l0.393,1.149l0.393,1.201l0.393,1.244l0.393,1.271l0.393,1.28l0.393,1.266l0.393,1.221l0.393,1.139
	l0.393,1.016l0.393,0.848l0.393,0.633l0.393,0.37l0.393,0.068l0.393-0.264l0.393-0.614l0.393-0.963l0.393-1.293l0.393-1.586
	l0.393-1.828l0.393-2.009l0.393-2.123l0.393-2.173l0.393-2.165l0.393-2.108l0.393-2.014l0.393-1.893l0.393-1.753l0.393-1.606
	l0.393-1.458l0.393-1.313l0.393-1.175l0.393-1.048l0.393-0.932l0.393-0.828l0.393-0.736l0.393-0.656l0.393-0.588l0.393-0.53
	l0.393-0.482l0.393-0.443l0.393-0.412l0.393-0.388l0.393-0.372l0.393-0.36l0.393-0.354l0.393-0.353l0.393-0.355l0.393-0.36
	l0.393-0.369l0.393-0.38l0.393-0.392l0.393-0.406l0.393-0.421l0.393-0.436l0.393-0.452l0.393-0.466l0.393-0.48l0.393-0.491
	l0.393-0.501l0.393-0.507l0.393-0.51l0.393-0.508l0.393-0.5l0.393-0.487l0.393-0.467l0.393-0.439l0.393-0.404l0.393-0.361
	l0.393-0.309l0.393-0.249l0.393-0.182l0.393-0.107l0.393-0.027l0.393,0.057l0.393,0.142l0.393,0.229l0.393,0.313l0.393,0.393
	l0.393,0.467l0.393,0.532l0.393,0.589l0.393,0.634l0.393,0.668l0.393,0.69l0.393,0.701l0.393,0.702l0.393,0.692l0.393,0.674
	l0.393,0.648l0.393,0.616l0.393,0.579l0.393,0.538l0.393,0.494l0.393,0.449l0.393,0.403l0.393,0.357l0.393,0.311l0.393,0.267
	l0.393,0.223l0.393,0.181l0.393,0.14l0.393,0.102l0.393,0.063l0.393,0.027l0.393-0.008l0.393-0.042l0.393-0.075l0.393-0.107
	l0.393-0.139l0.393-0.17l0.393-0.201l0.393-0.232l0.393-0.264l0.393-0.295l0.393-0.327l0.393-0.359"/>
<path fill="none" stroke="#000000" stroke-miterlimit="10" d="M70.903,82.959H32.54 M109.989,151.675H32.54 M32.54,82.959v68.716"/>
<polyline fill="none" stroke="#880000" stroke-width="2" stroke-miterlimit="10" points="32.933,213.194 33.325,212.651 
	33.718,212.149 34.111,211.692 34.503,211.28 34.896,210.914 35.289,210.592 35.681,210.315 36.074,210.082 36.467,209.891 
	36.859,209.741 37.252,209.63 37.645,209.558 38.037,209.522 38.43,209.521 38.823,209.555 39.215,209.622 39.608,209.721 
	40,209.853 40.393,210.016 40.786,210.209 41.179,210.435 41.571,210.692 41.964,210.98 42.356,211.299 42.749,211.652 
	43.142,212.037 43.535,212.454 43.927,212.905 44.32,213.39 44.712,213.909 45.105,214.46 45.498,215.045 45.891,215.663 
	46.283,216.31 46.676,216.984 47.068,217.683 47.461,218.401 47.854,219.132 48.247,219.872 48.639,220.607 49.032,221.331 
	49.424,222.03 49.817,222.69 50.21,223.297 50.603,223.835 50.995,224.288 "/>
<line fill="none" stroke="#000000" stroke-miterlimit="10" x1="117.807" y1="165.419" x2="32.54" y2="165.419"/>
<line fill="none" stroke="#880000" stroke-width="2" stroke-miterlimit="10" x1="51.388" y1="224.637" x2="51.781" y2="224.87"/>
<line fill="none" stroke="#EE0000" stroke-width="2" stroke-miterlimit="10" x1="32.933" y1="18.451" x2="33.325" y2="18.594"/>
<path fill="none" stroke="#880000" stroke-width="2" stroke-miterlimit="10" d="M129.825,186.548l-0.297,0.562 M52.173,224.971
	l0.393-0.041l0.393-0.19l0.393-0.341l0.393-0.491l0.393-0.632l0.393-0.762l0.393-0.874l0.393-0.968l0.393-1.037l0.393-1.087
	l0.393-1.11l0.393-1.116l0.393-1.1l0.393-1.069l0.393-1.024l0.393-0.969l0.393-0.906l0.393-0.839l0.393-0.769l0.393-0.698
	l0.393-0.629l0.393-0.562l0.393-0.498l0.393-0.438l0.393-0.382l0.393-0.329l0.393-0.281l0.393-0.238l0.393-0.199l0.393-0.163
	l0.393-0.131l0.393-0.102l0.393-0.075l0.393-0.051l0.393-0.029l0.393-0.009l0.393,0.01l0.393,0.027l0.393,0.044l0.393,0.06
	l0.393,0.076l0.393,0.091l0.393,0.106l0.393,0.122l0.393,0.139l0.393,0.155l0.393,0.173l0.393,0.191l0.393,0.211l0.393,0.232
	l0.393,0.256l0.393,0.279l0.393,0.307l0.393,0.335l0.393,0.365l0.393,0.399l0.393,0.437l0.393,0.475l0.393,0.518l0.393,0.562
	l0.393,0.611l0.393,0.663l0.393,0.718l0.393,0.777l0.393,0.837l0.393,0.9l0.393,0.964l0.393,1.028l0.393,1.091l0.393,1.149
	l0.393,1.202l0.393,1.243l0.393,1.271l0.393,1.281l0.393,1.266l0.393,1.22l0.393,1.14l0.393,1.016l0.393,0.848l0.393,0.632
	l0.393,0.37l0.393,0.069l0.393-0.265l0.393-0.613l0.393-0.963l0.393-1.293l0.393-1.587l0.393-1.828l0.393-2.009l0.393-2.122
	l0.393-2.174l0.393-2.165l0.393-2.108l0.393-2.014l0.393-1.893l0.393-1.753l0.393-1.606l0.393-1.457l0.393-1.313l0.393-1.175
	l0.393-1.048l0.393-0.933l0.393-0.828l0.393-0.736l0.393-0.656l0.393-0.588l0.393-0.529l0.393-0.482l0.393-0.442l0.393-0.412
	l0.393-0.389l0.393-0.371l0.393-0.36l0.393-0.354l0.393-0.353l0.393-0.354l0.393-0.36l0.393-0.369l0.393-0.379l0.393-0.393
	l0.393-0.406l0.393-0.421l0.393-0.436l0.393-0.452l0.393-0.466l0.393-0.479l0.393-0.491l0.393-0.501l0.393-0.507l0.393-0.51
	l0.393-0.508l0.393-0.501l0.393-0.486l0.393-0.468l0.393-0.439l0.393-0.404l0.393-0.36l0.393-0.31l0.393-0.249l0.393-0.182
	l0.393-0.107l0.393-0.027l0.393,0.057l0.393,0.143l0.393,0.229l0.393,0.313l0.393,0.393l0.393,0.467l0.393,0.533l0.393,0.588
	l0.393,0.634l0.393,0.668l0.393,0.69l0.393,0.702l0.393,0.701l0.393,0.692l0.393,0.674l0.393,0.647l0.393,0.616l0.393,0.578
	l0.393,0.538l0.393,0.494l0.393,0.449l0.393,0.403l0.393,0.356l0.393,0.312l0.393,0.267l0.393,0.224l0.393,0.181l0.393,0.141
	l0.393,0.102l0.393,0.063l0.393,0.027l0.393-0.008l0.393-0.042l0.393-0.075l0.393-0.106l0.393-0.139l0.393-0.17l0.393-0.201
	l0.393-0.232l0.393-0.264l0.393-0.295l0.393-0.327l0.393-0.359l0.393-0.393l0.393-0.425l0.393-0.46l0.393-0.493l0.393-0.527
	l0.393-0.562l0.393-0.595l0.393-0.627l0.393-0.658l0.393-0.686l0.393-0.71l0.393-0.729"/>
<path fill="none" stroke="#000000" stroke-miterlimit="10" d="M156.893,234.135H32.54 M32.54,165.419v68.716"/>
<line fill="none" stroke="#880000" stroke-width="2" stroke-miterlimit="10" x1="50.995" y1="224.288" x2="51.388" y2="224.637"/>
<line fill="none" stroke="#EE0000" stroke-width="2" stroke-miterlimit="10" x1="36.467" y1="22.418" x2="36.859" y2="23.108"/>
<line fill="none" stroke="#880000" stroke-width="2" stroke-miterlimit="10" x1="137.774" y1="186.077" x2="138.167" y2="187.187"/>
<path fill="none" stroke="#BB0000" stroke-width="2" stroke-miterlimit="10" d="M90.338,107.307l-0.076,0.127 M87.137,111.5
	l0.375-0.375l0.393-0.426l0.393-0.459l0.393-0.494l0.393-0.528l0.393-0.562l0.393-0.595l0.393-0.627"/>
<path fill="none" stroke="#000000" stroke-miterlimit="10" d="M74.811,82.959h-3.908 M118.632,151.675h-8.643"/>
<polyline fill="none" stroke="#880000" stroke-width="2" stroke-miterlimit="10" points="129.825,186.548 129.92,186.368 
	130.313,185.618 130.706,184.871 131.099,184.138 131.491,183.43 131.884,182.763 132.276,182.152 132.669,181.612 133.062,181.162 
	133.455,180.816 133.847,180.593 134.24,180.505 134.632,180.563 135.025,180.774 135.418,181.14 135.811,181.658 136.203,182.319 
	136.596,183.111 136.989,184.015 137.381,185.011 137.774,186.077 "/>
<line fill="none" stroke="#000000" stroke-miterlimit="10" x1="127.396" y1="165.419" x2="117.807" y2="165.419"/>
<path fill="none" stroke="#880000" stroke-width="2" stroke-miterlimit="10" d="M150.025,200.904l-0.079,0.013 M138.167,187.187
	l0.393,1.134l0.393,1.135l0.393,1.115l0.393,1.082l0.393,1.033l0.393,0.977l0.393,0.91l0.393,0.842l0.393,0.77l0.393,0.698
	l0.393,0.628l0.393,0.561l0.393,0.496l0.393,0.436l0.393,0.38l0.393,0.328l0.393,0.281l0.393,0.238l0.393,0.199l0.393,0.164
	l0.393,0.134l0.393,0.104l0.393,0.079l0.393,0.056l0.393,0.035l0.393,0.017l0.393-0.002l0.393-0.018l0.393-0.034l0.393-0.048"/>
<line fill="none" stroke="#EE0000" stroke-width="2" stroke-miterlimit="10" x1="38.823" y1="26.525" x2="39.215" y2="27.141"/>
<path fill="none" stroke="#880000" stroke-width="2" stroke-miterlimit="10" d="M156.229,197.942l0.393-0.381 M156.622,197.561
	l0.393-0.417 M157.014,197.144l0.393-0.455 M157.407,196.689l0.393-0.495 M157.8,196.194l0.393-0.54 M158.192,195.654l0.393-0.588
	 M158.585,195.066l0.393-0.64 M155.444,198.611l0.393-0.319 M158.978,194.426l0.393-0.694 M159.371,193.732l0.393-0.752
	 M159.763,192.98l0.393-0.813 M160.156,192.167l0.393-0.878 M160.548,191.289l0.393-0.943 M161.216,189.638l-0.275,0.707
	 M155.836,198.292l0.393-0.35 M151.91,200.465l0.393-0.133 M155.051,198.903l0.393-0.292 M153.48,199.835l0.393-0.201
	 M154.266,199.413l0.393-0.243 M152.695,200.183l0.393-0.165 M150.732,200.779l0.393-0.091 M154.658,199.169l0.393-0.267
	 M153.873,199.634l0.393-0.222 M153.088,200.018l0.393-0.183 M152.302,200.333l0.393-0.149 M151.125,200.688l0.393-0.104
	 M150.025,200.904l0.314-0.049l0.393-0.076 M151.517,200.584l0.393-0.119"/>
<path fill="none" stroke="#BB0000" stroke-width="2" stroke-miterlimit="10" d="M90.338,107.307l0.316-0.53l0.393-0.686l0.393-0.71
	l0.393-0.73l0.393-0.743 M92.225,103.908l0.393-0.75"/>
<line fill="none" stroke="#000000" stroke-miterlimit="10" x1="140.161" y1="165.419" x2="127.396" y2="165.419"/>
<path fill="none" stroke="#BB0000" stroke-width="2" stroke-miterlimit="10" d="M93.495,101.513l-0.092,0.165 M92.618,103.158
	l0.393-0.747l0.393-0.733"/>
<path fill="none" stroke="#000000" stroke-miterlimit="10" d="M69.91,69.216h-3.863 M79.946,82.959h-5.135 M130.125,151.675h-11.493
	"/>
<line fill="none" stroke="#EE0000" stroke-width="2" stroke-miterlimit="10" x1="39.608" y1="27.72" x2="40" y2="28.257"/>
<path fill="none" stroke="#BB0000" stroke-width="2" stroke-miterlimit="10" d="M93.495,101.513l0.301-0.542l0.393-0.667
	l0.393-0.611l0.393-0.54l0.393-0.451l0.393-0.345l0.393-0.223l0.393-0.088l0.393,0.058l0.393,0.211l0.393,0.366l0.393,0.518
	l0.393,0.662l0.393,0.792l0.393,0.904l0.393,0.996l0.393,1.065l0.393,1.111l0.393,1.133l0.393,1.134l0.393,1.116l0.393,1.082
	l0.393,1.034l0.393,0.976l0.393,0.911l0.393,0.841l0.393,0.77l0.393,0.698l0.393,0.628l0.393,0.56l0.393,0.496l0.393,0.436
	l0.393,0.38l0.393,0.328l0.393,0.281l0.393,0.238l0.393,0.199l0.393,0.165l0.393,0.133l0.393,0.105l0.393,0.079l0.393,0.056
	l0.393,0.035l0.393,0.016l0.393-0.001 M111.073,118.557l0.393-0.018"/>
<line fill="none" stroke="#000000" stroke-miterlimit="10" x1="159.895" y1="165.419" x2="140.161" y2="165.419"/>
<path fill="none" stroke="#BB0000" stroke-width="2" stroke-miterlimit="10" d="M117.177,116.564l-0.214,0.145 M111.465,118.539
	l0.393-0.033l0.393-0.048l0.393-0.062l0.393-0.076l0.393-0.09l0.393-0.104l0.393-0.119l0.393-0.133l0.393-0.149l0.393-0.166
	l0.393-0.183l0.393-0.202l0.393-0.222l0.393-0.243"/>
<path fill="none" stroke="#000000" stroke-miterlimit="10" d="M87.792,82.959h-7.846 M147.878,151.675h-17.753"/>
<line fill="none" stroke="#000000" stroke-miterlimit="10" x1="75.775" y1="69.216" x2="69.91" y2="69.216"/>
<path fill="none" stroke="#EE0000" stroke-width="2" stroke-miterlimit="10" d="M40,28.257l0.393,0.494 M40.393,28.751l0.393,0.449"
	/>
<path fill="none" stroke="#BB0000" stroke-width="2" stroke-miterlimit="10" d="M117.177,116.564l0.179-0.121l0.393-0.292
	l0.393-0.319l0.393-0.349l0.393-0.382l0.393-0.417l0.393-0.455l0.393-0.496l0.393-0.541l0.393-0.588 M120.889,112.606l0.393-0.639"
	/>
<line fill="none" stroke="#BB0000" stroke-width="2" stroke-miterlimit="10" x1="121.325" y1="111.89" x2="121.282" y2="111.967"/>
<line fill="none" stroke="#EE0000" stroke-width="2" stroke-miterlimit="10" x1="40.786" y1="29.201" x2="41.179" y2="29.604"/>
<line fill="none" stroke="#000000" stroke-miterlimit="10" x1="110.387" y1="69.216" x2="79.761" y2="69.216"/>
<path fill="none" stroke="#EE0000" stroke-width="2" stroke-miterlimit="10" d="M64.144,26.177l0.202,0.557l0.393,1.034l0.393,0.976
	l0.393,0.911l0.393,0.841l0.393,0.77l0.393,0.698l0.393,0.628l0.393,0.56l0.393,0.496l0.393,0.436l0.393,0.379l0.393,0.328
	 M41.179,29.604l0.393,0.357 M41.571,29.961l0.393,0.312l0.393,0.267 M42.356,30.539l0.393,0.223"/>
<path fill="none" stroke="#000000" stroke-miterlimit="10" d="M136.357,82.959h-1.797 M117.156,69.216h-6.769"/>
<line fill="none" stroke="#EE0000" stroke-width="2" stroke-miterlimit="10" x1="69.058" y1="34.792" x2="69.45" y2="35.073"/>
<path fill="none" stroke="#EE0000" stroke-width="2" stroke-miterlimit="10" d="M105.968,48.709l0.393,0.373l0.393,0.383
	l0.393,0.394l0.393,0.406l0.393,0.417l0.393,0.427l0.393,0.437l0.393,0.444l0.393,0.449l0.393,0.451l0.393,0.45 M110.288,53.341
	l0.393,0.444 M97.841,36l0.273,0.99l0.393,1.274l0.393,1.137l0.393,1.011l0.393,0.897l0.393,0.796l0.393,0.708l0.393,0.632
	l0.393,0.567l0.393,0.513l0.393,0.468l0.393,0.432l0.393,0.403 M69.45,35.073l0.393,0.238"/>
<line fill="none" stroke="#000000" stroke-miterlimit="10" x1="128.913" y1="69.216" x2="125.73" y2="69.216"/>
<path fill="none" stroke="#EE0000" stroke-width="2" stroke-miterlimit="10" d="M102.827,45.83l0.393,0.382l0.393,0.366
	 M104.397,47.287l0.393,0.35l0.393,0.352l0.393,0.356 M103.612,46.579l0.393,0.357 M104.005,46.936l0.393,0.351 M105.576,48.345
	l0.393,0.364 M114.881,56.665l-0.274,0 M110.68,53.785l0.393,0.434l0.393,0.418l0.393,0.396l0.393,0.369l0.393,0.334l0.393,0.293
	l0.393,0.246l0.393,0.192l0.393,0.132l0.393,0.067"/>
<path fill="none" stroke="#EE0000" stroke-width="2" stroke-miterlimit="10" d="M143.715,55.397l-0.051,0.112 M130.313,46.689
	l0.393,0.286l0.393,0.317l0.393,0.348l0.393,0.379l0.393,0.41l0.393,0.44l0.393,0.471l0.393,0.5l0.393,0.529l0.393,0.556
	l0.393,0.581l0.393,0.603l0.393,0.622l0.393,0.636l0.393,0.645l0.393,0.647l0.393,0.642l0.393,0.627l0.393,0.603l0.393,0.567
	l0.393,0.518l0.393,0.458l0.393,0.383l0.393,0.296l0.393,0.198l0.393,0.088l0.393-0.029l0.393-0.152l0.393-0.277l0.393-0.4
	l0.393-0.518l0.393-0.627l0.393-0.723l0.393-0.804 M127.172,45.529l0.393,0.032l0.393,0.065l0.393,0.098l0.393,0.13l0.393,0.162
	l0.393,0.193l0.393,0.224"/>
<line fill="none" stroke="#000000" stroke-miterlimit="10" x1="164.981" y1="69.216" x2="128.913" y2="69.216"/>
<path fill="none" stroke="#000000" stroke-miterlimit="10" d="M66.047,69.216h-2.961 M171.217,234.135h-14.324"/>
<line fill="none" stroke="#000000" stroke-miterlimit="10" x1="179.481" y1="234.135" x2="171.217" y2="234.135"/>
<line fill="none" stroke="#880000" stroke-width="2" stroke-miterlimit="10" x1="171.851" y1="194.868" x2="171.936" y2="195.302"/>
<line fill="none" stroke="#000000" stroke-miterlimit="10" x1="180.04" y1="234.135" x2="179.481" y2="234.135"/>
<line fill="none" stroke="#880000" stroke-width="2" stroke-miterlimit="10" x1="171.936" y1="195.302" x2="172.328" y2="197.184"/>
<line fill="none" stroke="#000000" stroke-miterlimit="10" x1="180.714" y1="234.135" x2="180.04" y2="234.135"/>
<line fill="none" stroke="#880000" stroke-width="2" stroke-miterlimit="10" x1="172.328" y1="197.184" x2="172.721" y2="198.914"/>
<line fill="none" stroke="#000000" stroke-miterlimit="10" x1="181.505" y1="234.135" x2="180.714" y2="234.135"/>
<line fill="none" stroke="#880000" stroke-width="2" stroke-miterlimit="10" x1="172.721" y1="198.914" x2="173.114" y2="200.489"/>
<line fill="none" stroke="#000000" stroke-miterlimit="10" x1="182.411" y1="234.135" x2="181.505" y2="234.135"/>
<line fill="none" stroke="#880000" stroke-width="2" stroke-miterlimit="10" x1="173.114" y1="200.489" x2="173.506" y2="201.91"/>
<line fill="none" stroke="#000000" stroke-miterlimit="10" x1="183.439" y1="234.135" x2="182.411" y2="234.135"/>
<path fill="none" stroke="#880000" stroke-width="2" stroke-miterlimit="10" d="M174.292,204.32l0.393,1.011l0.393,0.897
	l0.393,0.797l0.393,0.708l0.393,0.633l0.393,0.567l0.393,0.513l0.393,0.468l0.393,0.432l0.393,0.403l0.393,0.383l0.393,0.366
	l0.393,0.356l0.393,0.352l0.393,0.35l0.393,0.353l0.393,0.356l0.393,0.364l0.393,0.373l0.393,0.383l0.393,0.395l0.393,0.405
	 M182.93,215.184l0.393,0.417 M173.506,201.91l0.393,1.273"/>
<line fill="none" stroke="#000000" stroke-width="2" stroke-miterlimit="10" x1="197.459" y1="213.412" x2="197.459" y2="207.459"/>
<path fill="none" stroke="#880000" stroke-width="2" stroke-miterlimit="10" d="M196.673,214.475l0.393-0.531 M173.899,203.183
	l0.393,1.137 M190.391,221.583l0.393-0.071 M190.784,221.511l0.393-0.145l0.393-0.216l0.393-0.285 M183.323,215.601l0.393,0.428
	l0.393,0.437l0.393,0.444l0.393,0.449l0.393,0.451l0.393,0.449l0.393,0.444l0.393,0.434l0.393,0.418l0.393,0.396l0.393,0.368
	l0.393,0.334l0.393,0.294l0.393,0.245l0.393,0.191l0.393,0.132l0.393,0.067l0.393-0.001"/>
<line fill="none" stroke="#000000" stroke-width="2" stroke-miterlimit="10" x1="197.459" y1="213.443" x2="197.459" y2="213.412"/>
<path fill="none" stroke="#880000" stroke-width="2" stroke-miterlimit="10" d="M197.066,213.944l0.393-0.501 M193.532,219.128
	l0.393-0.547l0.393-0.574l0.393-0.594l0.393-0.602l0.393-0.604l0.393-0.595l0.393-0.58l0.393-0.559"/>
<line fill="none" stroke="#000000" stroke-width="2" stroke-miterlimit="10" x1="197.459" y1="214.529" x2="197.459" y2="213.443"/>
<path fill="none" stroke="#880000" stroke-width="2" stroke-miterlimit="10" d="M192.747,220.103l0.393-0.464 M193.14,219.639
	l0.393-0.511 M191.961,220.866l0.393-0.352l0.393-0.411"/>
<text transform="matrix(1 0 0 1 195.6777 250.3296)" font-family="'STIXGeneral-Italic'" font-size="15">t</text>
<line fill="none" stroke="#000000" stroke-miterlimit="10" x1="221.955" y1="234.135" x2="183.439" y2="234.135"/>
<line fill="none" stroke="#000000" stroke-width="2" stroke-miterlimit="10" x1="197.459" y1="214.529" x2="197.459" y2="234.135"/>
<line fill="none" stroke="#000000" stroke-miterlimit="10" x1="221.955" y1="234.135" x2="251.708" y2="234.135"/>
<path fill="none" stroke="#880000" stroke-width="2" stroke-miterlimit="10" d="M171.851,194.868l-0.308-1.586 M161.216,189.638
	l0.118-0.303l0.393-1.077l0.393-1.142l0.393-1.2l0.393-1.253l0.393-1.293l0.393-1.317l0.393-1.318l0.393-1.293l0.393-1.232
	l0.393-1.133l0.393-0.986l0.393-0.791l0.393-0.546l0.393-0.253l0.393,0.079l0.393,0.438l0.393,0.807l0.393,1.167l0.393,1.496
	l0.393,1.78l0.393,2.002l0.393,2.156l0.393,2.239l0.393,2.259l0.393,2.221l0.393,2.138"/>
<line fill="none" stroke="#000000" stroke-width="2" stroke-miterlimit="10" x1="197.459" y1="190.056" x2="197.459" y2="207.459"/>
<path fill="none" stroke="#000000" stroke-miterlimit="10" d="M79.761,69.216h-3.986 M173.462,165.419h-13.567"/>
<text transform="matrix(1 0 0 1 226.2607 192.8921)" font-family="'STIXGeneral-Italic'" font-size="15">2τ</text>
<polyline fill="none" stroke="#880000" stroke-miterlimit="10" stroke-dasharray="6" points="197.459,213.443 197.852,212.977 
	198.244,212.548 198.637,212.159 199.029,211.81 199.422,211.501 199.815,211.234 200.208,211.006 200.6,210.819 200.993,210.671 
	201.385,210.561 201.778,210.488 202.171,210.45 202.563,210.448 202.956,210.48 203.349,210.545 203.741,210.643 204.134,210.774 
	204.527,210.935 204.919,211.128 205.312,211.352 205.705,211.608 206.097,211.894 206.49,212.21 206.883,212.559 207.253,212.917 
	207.275,212.938 207.668,213.348 208.061,213.789 208.453,214.259 208.612,214.46 208.846,214.759 209.239,215.288 209.631,215.844 
	210.024,216.424 210.417,217.028 210.809,217.65 211.202,218.286 211.595,218.93 211.987,219.578 212.38,220.219 212.772,220.847 
	213.166,221.45 213.558,222.016 213.951,222.535 214.343,222.993 214.736,223.375 215.128,223.672 215.521,223.87 215.914,223.958 
	216.307,223.929 216.699,223.777 217.092,223.5 217.485,223.099 217.877,222.582 218.27,221.955 218.663,221.232 219.055,220.428 
	219.448,219.56 219.84,218.645 219.903,218.496 220.233,217.703 220.626,216.749 221.019,215.8 221.411,214.871 221.479,214.717 
	221.804,213.973 222.197,213.117 222.589,212.309 222.982,211.556 223.375,210.862 223.767,210.227 224.16,209.653 224.553,209.138 
	224.945,208.681 225.338,208.281 225.73,207.934 226.123,207.636 226.516,207.386 226.909,207.18 227.301,207.015 227.694,206.888 
	228.086,206.796 228.479,206.739 228.872,206.711 229.265,206.713 229.657,206.744 230.05,206.8 230.442,206.883 230.835,206.991 
	231.228,207.123 231.621,207.28 232.013,207.461 232.406,207.668 232.798,207.902 233.191,208.162 233.584,208.45 233.977,208.767 
	234.369,209.116 234.762,209.497 235.154,209.911 235.547,210.362 235.94,210.851 236.333,211.38 236.725,211.952 237.118,212.568 
	237.51,213.229 237.903,213.937 238.296,214.694 238.688,215.499 239.081,216.351 239.474,217.25 239.866,218.19 240.259,219.168 
	240.652,220.176 241.044,221.205 241.437,222.239 241.83,223.265 242.222,224.261 242.615,225.206 243.008,226.07 243.4,226.827 
	243.793,227.443 244.186,227.889 244.579,228.135 244.971,228.157 245.364,227.937 245.756,227.464 246.149,226.743 
	246.542,225.782 246.935,224.606 247.327,223.248 247.72,221.746 248.112,220.143 248.505,218.482 248.898,216.804 249.291,215.146 
	249.683,213.537 250.076,212.001 250.468,210.557 250.861,209.215 251.253,207.982 251.646,206.857 252.039,205.84 252.432,204.927 
	252.824,204.11 253.217,203.381 253.61,202.733 254.002,202.157 254.395,201.644 254.788,201.186 255.18,200.775 255.573,200.403 
	255.966,200.064 256.358,199.75 256.751,199.457 257.144,199.177 257.536,198.907 257.929,198.642 258.322,198.377 258.714,198.11 
	259.107,197.836 259.5,197.552 259.892,197.255 260.285,196.944 260.678,196.613 261.07,196.26 261.463,195.884 261.855,195.482 
	262.248,195.051 262.641,194.59 263.034,194.096 263.426,193.567 263.819,193 264.211,192.396 264.604,191.751 264.997,191.068 
	265.39,190.343 265.782,189.579 266.175,188.776 266.567,187.937 266.96,187.068 267.353,186.174 267.746,185.262 268.138,184.344 
	268.531,183.432 268.923,182.542 269.316,181.691 269.709,180.901 270.102,180.195 270.494,179.596 270.887,179.13 271.279,178.82 
	271.672,178.688 272.065,178.75 272.458,179.018 272.85,179.497 273.243,180.179 273.635,181.056 274.028,182.105 274.421,183.299 
	274.813,184.608 275.206,185.997 275.599,187.431 275.992,188.879 276.384,190.312 276.777,191.705 277.169,193.038 
	277.562,194.296 277.955,195.469 278.348,196.553 278.74,197.543 279.133,198.441 279.525,199.25 279.918,199.974 280.311,200.62 
	280.704,201.192 281.096,201.699 281.489,202.146 281.881,202.542 282.274,202.891 282.667,203.201 283.059,203.477 
	283.452,203.725 283.845,203.95 284.238,204.156 284.63,204.347 285.023,204.527 285.416,204.7 285.808,204.868 286.201,205.035 
	286.593,205.203 286.986,205.374 287.378,205.551 287.771,205.736 288.165,205.931 288.557,206.138 288.95,206.359 289.342,206.596 
	289.735,206.852 290.127,207.127 290.52,207.426 290.913,207.75 291.305,208.1 291.698,208.481 292.09,208.893 292.484,209.341 
	292.876,209.827 293.269,210.353 293.662,210.923 294.054,211.541 294.447,212.208 294.839,212.926 295.232,213.7 295.625,214.529 
	296.017,215.417 296.41,216.361 296.802,217.363 297.196,218.417 297.588,219.521 297.981,220.666 298.374,221.839 298.766,223.028 
	299.159,224.21 299.551,225.364 299.944,226.458 300.336,227.459 300.729,228.331 301.122,229.03 301.515,229.518 301.908,229.756 
	302.3,229.712 302.693,229.366 303.085,228.707 303.478,227.74 303.871,226.488 304.263,224.985 304.656,223.279 305.048,221.423 
	305.441,219.476 305.833,217.491 306.227,215.518 306.62,213.598 307.012,211.764 307.405,210.041 "/>
<path fill="none" stroke="#000000" stroke-miterlimit="10" d="M279.6,165.419H173.462 M307.405,181.227v52.908 M251.708,234.135
	h55.697"/>
<path fill="none" stroke="#EE0000" stroke-width="2" stroke-miterlimit="10" d="M160.156,45.443l0.393,0.489l0.393,0.529
	l0.393,0.572l0.393,0.616l0.393,0.661l0.393,0.708l0.393,0.756l0.393,0.805l0.393,0.853l0.393,0.898l0.393,0.941l0.393,0.978
	 M157.014,42.75l0.393,0.233l0.393,0.26l0.393,0.288l0.393,0.317l0.393,0.348l0.393,0.381l0.393,0.415 M164.868,54.25l0.393,1.008
	 M146.02,49.952l0.393-0.897l0.393-0.856l0.393-0.808l0.393-0.753l0.393-0.694l0.393-0.635 M144.449,53.727l0.393-0.943l0.393-0.954
	 M143.715,55.397l0.342-0.756 M144.057,54.641l0.393-0.915 M145.234,51.83l0.393-0.949l0.393-0.93 M129.92,46.434l0.393,0.255
	 M126.779,45.531l0.393-0.002"/>
<path fill="none" stroke="#EE0000" stroke-width="2" stroke-miterlimit="10" d="M171.796,58.812l-0.253,0.875 M165.26,55.257
	l0.393,1.028l0.393,1.035l0.393,1.026l0.393,0.997l0.393,0.944l0.393,0.865l0.393,0.756l0.393,0.616l0.393,0.446l0.393,0.246
	l0.393,0.022l0.393-0.22l0.393-0.472l0.393-0.723l0.393-0.96l0.393-1.175"/>
<path fill="none" stroke="#EE0000" stroke-width="2" stroke-miterlimit="10" d="M171.796,58.812l0.14-0.483 M175.077,45.639
	l0.393-1.342 M175.47,44.297l0.393-1.234l0.393-1.125l0.393-1.017 M172.328,56.827l0.393-1.603 M172.721,55.224l0.393-1.661
	 M173.899,50.227l0.393-1.609 M173.114,53.563l0.393-1.678 M173.506,51.885l0.393-1.658 M171.936,58.329l0.393-1.502
	 M174.292,48.618l0.393-1.535l0.393-1.444 M176.701,40.798l-0.053,0.124 M159.763,44.992l0.393,0.451 M156.877,42.678l0.137,0.072"
	/>
<line fill="none" stroke="#880000" stroke-width="2" stroke-miterlimit="10" x1="379.416" y1="171.949" x2="379.412" y2="191.034"/>
<line fill="none" stroke="#EE0000" stroke-width="2" stroke-miterlimit="10" x1="384.828" y1="192.245" x2="379.412" y2="191.034"/>
<text transform="matrix(1 0 0 1 419.2749 216.9048)" fill="#EE0000" font-family="'STIXGeneral-Italic'" font-size="21">x</text>
<text transform="matrix(0.583 0 0 0.583 428.5981 223.8979)" fill="#EE0000" font-family="'STIXGeneral-Italic'" font-size="21">t</text>
<line fill="none" stroke="#EE0000" stroke-width="2" stroke-miterlimit="10" x1="384.828" y1="192.245" x2="408.055" y2="197.438"/>
<line fill="none" stroke="#EE0000" stroke-width="2" stroke-miterlimit="10" x1="408.055" y1="197.438" x2="496.537" y2="217.219"/>
<line fill="none" stroke="#880000" stroke-width="2" stroke-miterlimit="10" x1="379.422" y1="139.783" x2="379.416" y2="171.949"/>
<path fill="none" stroke="#000000" stroke-width="2" stroke-miterlimit="10" d="M462.892,126.24l-1.25,0.157 M461.642,126.397
	l-1.362,0.186 M460.28,126.583l-1.483,0.215 M457.999,126.918l0.798-0.121 M492.24,118.938l0.965-0.24 M460.215,186.077l4.973-2.529
	 M465.188,183.547l4.632-3.259 M469.82,180.289l4.273-3.892 M474.093,176.397l3.909-4.401 M525.554,112.604l-0.387,0.088
	 M521.876,113.398l3.291-0.707 M507.922,116.02l0.106-0.157 M504.805,116.541l1.201-0.198 M506.006,116.343l2.188-0.37
	 M510.557,115.562l2.547-0.457 M513.104,115.105l2.735-0.508l2.925-0.566l3.112-0.632 M508.194,115.973l2.363-0.411
	 M487.681,157.176l2.618-5.014 M501.647,127.427l1.423-2.961 M503.07,124.466l1.352-2.643l1.301-2.348 M494.795,142.688l1.938-4.323
	 M496.733,138.365l1.771-3.992l1.629-3.646 M490.299,152.163l2.361-4.856 M492.661,147.306l2.135-4.618 M505.722,119.475l1.268-2.08
	 M500.132,130.726l1.515-3.299 M478.002,171.996l3.556-4.769l3.218-4.987 M484.776,162.24l2.905-5.063 M507.922,116.02l-0.933,1.375
	 M485.002,139.967l-0.037,0.083 M481.815,146.878l1.653-3.524l1.497-3.304 M470.462,166.014l2.749-3.787 M473.211,162.227
	l2.491-3.893 M456.766,178.178l3.825-2.412 M475.703,158.334l2.252-3.907 M452.704,180.052l4.062-1.874 M460.591,175.766
	l3.563-2.888 M467.446,169.597l3.017-3.583 M477.955,154.427l2.03-3.841 M479.985,150.586l1.83-3.708 M464.155,172.878l3.291-3.281
	 M450.572,180.699l2.132-0.646 M449.415,188.736l5.524-0.922l5.276-1.737 M443.684,188.847l0.034,0.004 M443.718,188.851
	l5.696-0.115 M462.559,166.518l2.539-3.004 M501.688,117.042l0.439-0.069l1.86-0.298 M504.805,116.541l-0.817,0.134
	 M494.737,121.139l0.979-1.119 M495.715,120.02l1.007-0.99l1.045-0.879 M487.582,134.187l1.159-2.546l1.086-2.295l1.03-2.054
	 M490.857,127.292l0.991-1.83l0.968-1.622l0.959-1.435l0.962-1.267 M485.002,139.967l1.327-2.977l1.252-2.804 M498.48,117.639
	l-0.713,0.512 M490.529,119.435l0.82-0.253 M491.349,119.182l0.891-0.244 M489.066,119.989l0.704-0.287l0.759-0.267
	 M493.205,118.697l1.05-0.24 M494.254,118.458l1.141-0.244 M487.799,120.645l0.612-0.345 M486.326,121.797l0.354-0.335l0.544-0.433
	 M487.224,121.029l0.575-0.384 M474.583,147.596l1.343-2.95 M483.698,125.676l0.497-0.956 M482.057,129.408l0.581-1.402
	 M486.326,121.797l-0.166,0.156 M484.195,124.72l0.488-0.837 M482.638,128.005l0.543-1.239 M484.683,123.883l0.484-0.731
	 M485.658,122.513l0.502-0.56 M481.427,130.987l0.63-1.579 M485.167,123.152l0.49-0.639 M483.181,126.766l0.517-1.09
	 M479.978,134.725l0.761-1.969l0.688-1.77 M478.183,139.282l0.947-2.383 M479.13,136.899l0.848-2.174 M475.925,144.646l1.194-2.778
	l1.063-2.586 M470.79,139.118l0.487-1.775 M472.363,130.81l-0.007-0.888 M472.031,128.105l0.127,0.384 M470.097,141.333l0.095-0.276
	 M471.277,137.342l0.387-1.613 M472.287,129.152l-0.129-0.663 M472.302,131.825l0.061-1.015 M472.356,129.922l-0.069-0.771
	 M472.169,132.978l0.133-1.153 M470.192,141.056l0.598-1.938 M471.664,135.729l0.295-1.453 M471.958,134.276l0.211-1.298
	 M465.934,138.541l0.015-0.1 M465.247,132.317l-0.431-0.613 M466.016,134.814l-0.168-0.949 M466.071,137.097l0.021-1.207
	 M466.091,135.89l-0.075-1.076 M465.949,138.441l0.122-1.344 M465.848,133.865l-0.257-0.83 M465.591,133.035l-0.345-0.718
	 M464.707,131.594l0.109,0.109 M459.37,134.137l0.129,0.087 M446.333,181.677l2.104-0.331 M450.187,175.612l3.402-1.71l3.207-2.122
	 M465.098,163.514l2.312-3.155 M467.411,160.359l2.093-3.233 M459.791,169.297l2.769-2.779 M471.387,153.881l1.688-3.193
	 M473.075,150.688l1.508-3.092 M469.503,157.125l1.884-3.244 M470.097,141.333l-0.622,1.82 M456.796,171.78l2.994-2.482
	 M453.602,167.53l2.398-2.113 M456,165.417l2.214-2.318 M468.628,145.398l0.847-2.245 M465.201,152.833l1.301-2.568
	 M466.501,150.264l1.139-2.488 M463.728,155.446l1.473-2.613 M458.214,163.098l2.026-2.47 M462.077,158.06l1.651-2.614
	 M467.64,147.776l0.988-2.378 M451.415,169.113l2.188-1.583 M460.241,160.628l1.836-2.568 M456.149,160.328l1.65-2.172
	 M457.799,158.156l1.484-2.229 M463.625,147.18l0.717-1.998 M453.997,162.727l0.335-0.327 M464.341,145.182l0.583-1.883
	 M459.284,155.927l1.319-2.246 M464.924,143.299l0.458-1.756 M454.332,162.4l1.817-2.072 M460.603,153.681l1.159-2.227
	 M462.767,149.279l0.857-2.099 M465.382,141.543l0.34-1.62 M465.934,138.541l-0.212,1.383 M461.762,151.455l1.005-2.176
	 M448.553,176.188l1.634-0.576 M450.572,180.699l-2.135,0.647 M443.446,188.82l0.238,0.027 M458.147,152.169l0.896-1.92l0.753-1.863
	 M459.795,148.386l0.617-1.788 M457.114,154.107l1.033-1.938 M461.256,143.313l0.238-1.479 M461.016,136.232l-0.406-0.773
	 M460.61,135.458l-0.507-0.667 M461.616,140.475l0.01-1.239 M460.103,134.792l-0.604-0.567 M461.495,141.834l0.121-1.359
	 M461.625,139.236l-0.1-1.119 M461.323,137.117l-0.307-0.885 M460.413,146.598l0.485-1.695l0.358-1.59 M461.526,138.117l-0.203-1
	 M456.954,142.538l-0.097-1.094l-0.207-0.991 M453.699,136.839l0.327,0.159 M455.685,149.391l0.498-1.53 M456.806,145.021
	l0.132-1.29 M456.938,143.731l0.016-1.193 M456.555,146.4l0.251-1.379 M454.452,152.281l0.607-1.305 M456.183,147.861l0.372-1.461
	 M455.059,150.976l0.626-1.585 M452.614,151.02l0.158-0.372 M456.335,139.564l-0.421-0.788 M455.915,138.776l-0.526-0.688
	 M455.388,138.088l-0.63-0.592 M454.758,137.497l-0.732-0.498 M456.65,140.453l-0.314-0.889 M452.755,140.506l0.219,0.28
	 M453.613,147.943l0.244-1.266 M454,144.369l-0.096-1.029 M453.905,143.339l-0.204-0.942 M453.985,145.484l0.016-1.115
	 M452.772,150.648l0.48-1.377 M453.857,146.677l0.128-1.193 M453.701,142.397l-0.311-0.851 M453.39,141.546l-0.416-0.76
	 M453.252,149.271l0.36-1.328 M451.369,148.598l0.194-1.136 M451.108,139.051l-0.824-0.403 M452.755,140.506l-0.302-0.388
	 M452.454,140.119l-0.622-0.578 M451.832,139.541l-0.724-0.489 M450.063,138.572l0.221,0.076 M449.958,141.522l-0.635-0.525
	 M451.016,149.924l0.048-0.14 M450.494,142.13l-0.536-0.608 M451.563,147.462l0.086-1.074 M451.064,149.785l0.305-1.187
	 M451.626,145.382l-0.129-0.933 M449.323,140.997l-0.73-0.442 M451.649,146.388l-0.022-1.006 M451.498,144.45l-0.232-0.854
	 M450.93,142.822l-0.437-0.691 M448.592,140.554l-0.826-0.361 M447.093,139.987l0.673,0.206 M451.265,143.595l-0.335-0.773
	 M444.159,145.22l-0.556-0.381 M442.972,144.52l-0.702-0.256 M441.333,144.047l-0.671-0.103 M440.662,143.945l-0.897-0.063
	 M438.918,143.881h0.846 M432.933,146.734l-0.354,0.804 M432.491,147.75l0.145-0.061 M451.016,149.924l-0.369,1.088 M450.413,151.57
	l0.234-0.558 M445.747,148.005l-0.152-0.665 M444.613,153.252l0.263-0.503 M444.875,152.75l0.357-0.845 M445.039,146.166l-0.4-0.502
	 M445.507,151.071l0.188-0.814 M445.594,147.34l-0.237-0.614 M445.233,151.905l0.274-0.834 M445.696,150.256l0.103-0.787
	 M445.815,148.716l-0.068-0.711 M445.357,146.726l-0.318-0.561 M444.638,145.664l-0.479-0.443 M445.798,149.469l0.017-0.753
	 M441.824,152.146l0.163-0.566 M440.547,154.432l0.027-0.032 M440.972,153.851l0.343-0.563 M441.315,153.288l0.284-0.57
	 M441.599,152.717l0.225-0.571 M440.575,154.4l0.397-0.549 M436.85,155.378l0.417-0.244l0.395-0.275 M442.116,150.61l-0.028,0.416
	 M441.987,151.58l0.101-0.554 M438.03,154.555l0.34-0.328 M442.116,150.61l0.009-0.121 M442.125,150.489l-0.027-0.516
	 M442.097,149.973l-0.091-0.488 M441.99,149.435l0.017,0.05 M438.676,153.879l0.271-0.363 M441.99,149.435l-0.137-0.408
	 M441.8,148.922l0.053,0.104 M438.947,153.516l0.233-0.375 M438.37,154.227l0.307-0.348 M443.603,144.839l-0.631-0.319
	 M441.8,148.922l-0.163-0.318 M441.637,148.604l-0.277-0.385 M441.206,148.061l0.154,0.158 M439.18,153.141l0.192-0.382l0.149-0.384
	 M441.333,144.047l0.166,0.025 M442.27,144.264l-0.771-0.191 M439.676,147.105l-0.553-0.163 M440.628,147.573l-0.45-0.257
	 M440.178,147.316l-0.502-0.211 M441.023,147.875l-0.395-0.302 M438.769,146.874l0.354,0.068 M441.206,148.061l-0.183-0.187
	 M439.675,150.895l-0.075-0.337 M439.69,151.616l0.016-0.367 M433.422,147.411l-0.787,0.279 M436.491,146.78l-0.741,0.083
	 M435.75,146.863l-0.763,0.134 M437.203,146.746l-0.712,0.034 M438.769,146.874l-0.245-0.046 M437.882,146.761l-0.68-0.016
	 M434.987,146.997l-0.778,0.183 M434.208,147.179l-0.786,0.231 M438.524,146.828l-0.642-0.066 M437.447,148.797l-0.436-0.075
	 M436.417,155.587l0.434-0.209 M433.41,149.22l-0.538,0.216 M439.312,149.948l-0.211-0.268l-0.253-0.24 M438.22,149.052
	l-0.369-0.145 M438.848,149.44l-0.294-0.209 M439.522,152.375l0.106-0.383 M436.548,148.683l-0.488-0.002 M439.6,150.558
	l-0.122-0.316 M437.011,148.722l-0.463-0.039 M437.662,154.859l0.368-0.304 M436.06,148.681l-0.508,0.034 M439.706,151.249
	l-0.03-0.354 M435.029,148.788l-0.535,0.107 M439.628,151.993l0.062-0.377 M433.953,149.041l-0.543,0.18 M435.552,148.715
	l-0.523,0.072 M437.851,148.908l-0.404-0.11 M438.554,149.231l-0.334-0.179 M434.494,148.895l-0.541,0.146 M439.478,150.242
	l-0.166-0.294 M432.343,149.685l-0.512,0.281 M431.576,150.129l0.256-0.163 M431.592,150.083l-0.213,0.713 M431.379,150.795
	l-0.156,0.657 M431.223,151.453l-0.099,0.606 M431.082,152.62l0.012,0.517 M431.913,155.094l0.298,0.267 M432.21,155.361
	l0.334,0.223 M432.872,149.436l-0.528,0.249 M431.864,149.308l-0.271,0.774 M431.576,150.129l-0.043,0.027 M432.911,155.762
	l0.395,0.135 M435.059,155.981l0.457-0.09 M432.192,148.463l-0.328,0.845 M431.533,150.157l-0.068,0.044 M434.604,156.028
	l0.455-0.047 M433.722,155.986l0.435,0.043 M435.97,155.759l0.446-0.172 M433.305,155.897l0.417,0.089 M434.157,156.029l0.447-0.001
	 M432.544,155.583l0.366,0.179 M431.655,154.786l0.258,0.309 M435.516,155.891l0.454-0.132 M453.997,162.727l-1.645,1.604
	 M451.099,165.358l1.253-1.026 M449.673,163.293l1.779-1.646 M451.453,161.648l1.636-1.773 M453.088,159.875l1.489-1.869
	 M447.405,165.004l0.356-0.227 M447.761,164.778l1.912-1.484 M454.578,158.005l1.34-1.929 M456.875,154.502l-0.957,1.574
	 M445.388,163.066l1.637-1.221 M457.114,154.107l-0.008,0.014 M456.875,154.502l0.231-0.382 M447.025,161.845l1.527-1.355
	 M449.96,159.026l1.282-1.548 M451.243,157.478l1.152-1.604 M452.395,155.874l1.021-1.635 M442.767,164.56l0.885-0.431
	 M453.416,154.239l0.888-1.64 M443.652,164.129l1.736-1.063 M454.452,152.281l-0.148,0.318 M448.552,160.49l1.408-1.464
	 M452.614,151.02l-0.442,1.041 M449.644,156.34l0.963-1.414 M447.37,159.021l1.194-1.309 M448.564,157.712l1.08-1.372
	 M446.068,160.246l1.302-1.225 M450.607,154.926l0.843-1.433 M451.45,153.494l0.722-1.433 M444.976,161.116l1.092-0.87
	 M448.727,154.8l0.751-1.265 M439.968,163.898l1.635-0.692 M441.603,163.206l1.57-0.85 M443.173,162.356l1.492-0.992
	 M444.976,161.116l-0.311,0.248 M440.685,162.077l1.398-0.748 M445.832,158.402l1.068-1.149 M442.083,161.329l1.331-0.872
	 M449.478,153.536l0.641-1.269 M450.413,151.57l-0.294,0.697 M443.415,160.457l1.253-0.98 M447.867,156.045l0.86-1.245
	 M439.233,162.689l1.452-0.612 M444.667,159.476l1.164-1.074 M446.9,157.252l0.967-1.207 M436.864,163.339l0.876-0.183l1.493-0.468
	 M438.998,164.2l0.971-0.302 M440.236,158.098l0.861-0.63 M442.643,156.032l0.672-0.785 M443.315,155.247l0.599-0.816
	 M438.374,159.139l0.952-0.481 M443.914,154.43l0.521-0.836 M439.326,158.658l0.91-0.56 M441.902,156.776l0.741-0.744
	 M444.613,153.252l-0.178,0.342 M441.097,157.468l0.805-0.692 M435.373,160.052l1.015-0.212 M437.391,159.535l0.982-0.396
	 M434.896,160.107l0.477-0.055 M436.387,159.84l1.004-0.306 M437.249,157.047l0.642-0.335 M439.085,155.899l0.541-0.468
	 M439.626,155.431l0.498-0.502 M440.547,154.432l-0.423,0.497 M436.585,157.329l0.663-0.281 M437.89,156.712l0.614-0.384l0.581-0.43
	 M433.866,157.864l0.675-0.043l0.684-0.104 M435.224,157.717l0.685-0.165 M435.909,157.552l0.677-0.224 M433.524,157.854l0.342,0.01
	 M431.442,154.435l0.213,0.351 M433.524,157.854l-0.318-0.009 M432.875,157.804l0.331,0.041 M434.896,160.107l-0.536,0.062
	 M433.883,160.178l0.477-0.01 M436.864,163.339l-0.64,0.134 M435.325,163.569l0.899-0.096 M431.275,154.043l0.167,0.392
	 M432.875,157.804l-0.305-0.037 M432.263,157.699l0.307,0.068 M433.883,160.178l-0.523,0.011 M432.927,160.157l0.433,0.032
	 M433.869,163.64l0.834-0.005 M435.325,163.569l-0.622,0.066 M431.158,153.61l0.117,0.434 M432.263,157.699l-0.299-0.066
	 M431.699,157.543l0.266,0.089 M432.927,160.157l-0.542-0.041 M432.044,160.056l0.341,0.06 M433.869,163.64l-0.675,0.004
	 M431.093,153.136l0.064,0.474 M430.734,157.118l0.141,0.086 M431.699,157.543l-0.301-0.101 M430.875,157.204l0.523,0.239
	 M430.559,159.701l0.889,0.251 M432.044,160.056l-0.597-0.104 M430.536,159.691l0.023,0.01 M430.264,163.209l0.028,0.009
	 M430.292,163.218l1.425,0.285 M431.717,163.503l1.477,0.141 M442.767,164.56l-0.936,0.456 M431.478,164.746l1.671,0.183l1.707,0.01
	l1.72-0.169l1.711-0.348 M438.998,164.2l-0.711,0.222 M439.944,165.711l1.888-0.695 M430.167,164.462l1.311,0.283 M430.269,166.096
	l1.884,0.33 M432.153,166.426l1.936,0.134 M430.046,166.032l0.223,0.064 M434.088,166.56l1.961-0.073 M436.049,166.487l1.96-0.283
	l1.935-0.492 M443.587,167.146l2.14-1.075 M447.405,165.004l-1.678,1.066 M429.866,168.371l2.229,0.419 M432.095,168.79l2.312,0.183
	 M434.407,168.972l2.335-0.07l2.328-0.329l2.29-0.588 M441.36,167.985l2.228-0.839 M445.425,172.193l2.871-1.235 M451.099,165.358
	l-0.883,0.723 M443.009,169.889l2.518-1.001 M445.527,168.888l2.409-1.277 M447.936,167.611l2.28-1.53 M440.409,170.594l2.601-0.705
	 M435.702,171.066l2.055-0.072 M437.756,170.994l2.652-0.399 M448.296,170.958l2.733-1.566 M451.415,169.113l-0.385,0.278
	 M441.071,173.307l1.372-0.231l2.982-0.883 M448.24,176.298l0.313-0.11 M431.125,152.059l-0.043,0.561 M429.986,156.59l0.417,0.327
	 M429.207,155.589l0.131,0.243 M429.337,155.833l0.293,0.394 M430.734,157.118l-0.331-0.2 M429.63,156.226l0.355,0.364
	 M428.072,158.298l0.222,0.197l0.679,0.47 M428.972,158.965l0.759,0.404 M430.536,159.691l-0.805-0.321 M426.656,161.678
	l1.021,0.577l1.263,0.543 M430.264,163.209l-1.324-0.411 M426.177,162.821l0.727,0.428l1.43,0.645l1.531,0.504 M430.167,164.462
	l-0.303-0.065 M430.046,166.032l-1.582-0.452 M425.575,164.258l1.19,0.635l1.699,0.687 M429.866,168.371l-0.023-0.005
	 M427.68,167.718l2.162,0.647 M424.698,166.352l0.944,0.516 M425.642,166.868l2.038,0.851 M423.963,168.105l1.01,0.551l2.361,0.987
	l2.499,0.752l2.597,0.488 M435.702,171.066l-0.617,0.021 M432.43,170.883l2.654,0.204 M441.071,173.307l-1.688,0.284
	 M423.076,170.223l1.343,0.723 M436.284,173.738l3.099-0.146 M424.418,170.946l2.791,1.152l2.94,0.871l3.041,0.555 M433.191,173.524
	l3.093,0.214 M421.721,173.457l2.6,1.334l3.532,1.385 M448.24,176.298l-1.622,0.573 M427.853,176.175l3.688,1.019l3.782,0.608
	l3.812,0.162l3.782-0.307l3.699-0.786 M446.333,181.677l-2.318,0.365 M426.095,179.193l4.362,1.479l4.494,1.001l4.545,0.471
	l4.519-0.101 M420.468,176.448l1.479,0.855 M421.947,177.303l4.148,1.89 M418.625,180.849l2.617,1.533 M443.446,188.82l-5.502-0.619
	 M421.242,182.382l5.35,2.496l5.605,1.971l5.747,1.352 M432.58,147.538l-0.388,0.926 M428.848,154.059l0.019,0.461 M430.879,150.621
	l-0.429,0.368l-0.388,0.393 M428.867,154.52l0.088,0.453 M429.011,153.13l-0.114,0.464 M429.427,152.227l-0.238,0.446
	 M430.063,151.381l-0.344,0.413 M429.189,152.673l-0.178,0.457 M429.207,155.589l-0.095-0.177 M429.719,151.794l-0.292,0.433
	 M428.955,154.973l0.157,0.439 M431.464,150.201l-0.123,0.078l-0.462,0.342 M432.491,147.75l-0.636,0.266 M429.327,149.505
	l0.317-0.239 M431.855,148.016l-0.765,0.373l-0.74,0.417l-0.706,0.46 M428.897,153.594l-0.049,0.465 M426.272,154.112l-0.023,0.682
	 M426.622,152.764l-0.224,0.669 M428.072,158.298l-0.369-0.33 M428.981,149.766l-0.611,0.538 M426.398,153.433l-0.126,0.679
	 M426.937,152.112l-0.315,0.652 M427.206,157.393l0.497,0.575 M427.819,150.877l-0.479,0.604 M426.809,156.78l0.396,0.613
	 M427.339,151.481l-0.402,0.631 M426.517,156.135l0.292,0.645 M429.327,149.505l-0.346,0.261 M426.33,155.471l0.188,0.664
	 M428.37,150.304l-0.551,0.573 M426.249,154.793l0.081,0.678 M424.593,160.023l0.896,0.83 M422.568,156.201l0.261,1.001
	 M422.762,153.202l-0.224,0.988 M425.489,160.853l1.032,0.749 M423.846,159.127l0.747,0.896 M423.649,151.309l-0.513,0.93
	 M422.539,154.19l-0.067,1.003 M422.829,157.202l0.428,0.98 M423.136,152.239l-0.374,0.963 M426.656,161.678l-0.135-0.076
	 M422.471,155.193l0.097,1.008 M423.256,158.182l0.59,0.945 M421.129,154.814l-0.021,0.228 M422.59,159.591l0.836,1.042l1.007,0.968
	 M421.109,155.042l0.085,1.164 M421.194,156.206l0.275,1.156l0.467,1.134 M421.936,158.496l0.654,1.096 M424.433,161.601
	l1.164,0.878 M423.815,151.078l-0.166,0.231 M421.129,154.814l0.082-0.933 M421.772,152.051l-0.277,0.686l-0.283,1.145
	 M419.744,153.018l-0.04,0.111l-0.244,1.287l-0.033,1.306 M419.426,155.722l0.187,1.312l0.407,1.304 M420.613,159.542l-0.593-1.205
	 M426.177,162.821l-0.58-0.342 M420.613,159.542l0.035,0.071 M425.575,164.258l-0.379-0.202 M420.648,159.614l0.844,1.231
	l1.049,1.166l1.24,1.077l1.415,0.968 M416.961,154.462l-0.059,1.492 M422.063,164.66l1.697,1.18 M419.325,161.96l1.253,1.397
	 M416.903,155.955l0.204,1.517 M416.991,154.33l-0.029,0.133 M417.581,158.992l0.741,1.505 M424.698,166.352l-0.938-0.513
	 M418.322,160.497l1.003,1.464 M417.107,157.471l0.474,1.521 M415.284,158.716l-0.279-0.863 M414.757,156.135l0.247,1.718
	 M420.578,163.358l1.485,1.302 M417.612,162.984l1.466,1.608 M419.078,164.592l1.733,1.505l1.976,1.366 M415.284,158.716
	l0.281,0.867 M415.565,159.583l0.871,1.721l1.176,1.68 M423.963,168.105l-1.177-0.642 M414.784,155.381l-0.026,0.754
	 M415.636,164.317l1.761,1.876 M423.076,170.223l-1.251-0.673 M412.455,158.376l0.695,1.996 M419.471,167.952l2.354,1.599
	 M412.167,156.628l0.288,1.748 M417.397,166.193l2.074,1.759 M413.15,160.373l1.064,1.991 M414.214,162.364l1.422,1.953
	 M411.061,164.277l1.901,2.394l2.318,2.304l2.697,2.159l3.031,1.958 M408.611,159.418l0.994,2.426 M421.721,173.457l-0.712-0.365
	 M417.1,174.363l0.989,0.708 M408.391,158.426l0.22,0.992 M409.605,161.844l1.456,2.433 M406.877,164.179l2.064,2.876
	 M408.942,167.055l2.587,2.819l3.067,2.696 M404.949,160.067l0.416,1.238l1.513,2.874 M417.1,174.363l-2.504-1.792 M400.137,162.742
	l1.55,2.799 M401.737,165.608l-0.05-0.067 M420.468,176.448l-2.379-1.377 M418.625,180.849l-2.37-1.388 M401.737,165.608
	l2.644,3.556l3.366,3.589l3.981,3.465l4.526,3.244 M488.412,120.3l0.654-0.312 M469.674,126.096l-0.588-0.108 M464.038,126.111
	l-1.146,0.129 M471.97,127.923l-0.242-0.478l-0.299-0.398 M467.712,125.893l-0.795,0.007 M471.429,127.047l-0.354-0.327
	 M466.917,125.9l-0.874,0.04 M470.667,126.457l-0.467-0.206 M466.043,125.94l-0.957,0.07 M471.076,126.72l-0.409-0.264
	 M470.2,126.25l-0.525-0.154 M468.434,125.921l-0.722-0.028 M465.086,126.01l-1.049,0.101 M472.031,128.105l-0.061-0.182
	 M469.086,125.988l-0.652-0.066 M464.707,131.594l-0.407-0.406 M452.127,130.27l0.236-0.033 M453.991,130.039l-1.627,0.198
	 M460.39,129.828l-1.064-0.068 M459.326,129.759l-1.168-0.01 M464.299,131.188l-0.603-0.427 M458.158,129.75l-1.274,0.045
	 M461.356,129.957l-0.966-0.129 M463.697,130.761l-0.69-0.343 M462.227,130.152l-0.871-0.195 M456.883,129.794l-1.388,0.097
	 M455.496,129.891l-1.505,0.147 M463.006,130.418l-0.779-0.267 M459.37,134.137l-0.574-0.385l-0.803-0.382 M449.436,132.824
	l-1.669,0.188 M457.993,133.371l-0.903-0.298 M447.179,133.094l0.588-0.082 M456.083,132.854l-1.11-0.143 M454.972,132.711
	l-1.218-0.072 M457.089,133.073l-1.007-0.219 M453.754,132.639l-1.327-0.003 M452.427,132.636l-1.438,0.062l-1.553,0.126
	 M444.684,134.542l0.039-0.028 M444.782,134.463l-0.059,0.05 M452.251,136.27l-1.042-0.238 M444.017,135.041l0.667-0.499
	 M443.924,135.028l0.224-0.203 M451.209,136.032l-1.146-0.157 M453.699,136.839l-0.509-0.248 M453.19,136.591l-0.938-0.321
	 M448.815,135.793l-1.352-0.006 M447.463,135.788l-1.455,0.067 M450.064,135.875l-1.249-0.081 M444.453,135.994l-1.655,0.21
	 M442.583,136.239l0.215-0.035 M446.008,135.855l-1.556,0.139 M444.017,135.041l-0.603,0.45 M440.327,138.275l1.477-0.205
	 M450.063,138.572l-0.702-0.242 M448.338,138.092l-1.119-0.156 M447.219,137.936l-1.216-0.08 M449.361,138.33l-1.022-0.237
	 M444.694,137.853l-1.401,0.071 M443.292,137.924l-1.489,0.146 M446.003,137.856l-1.31-0.003 M443.924,135.028l-0.732,0.66
	 M441.943,136.697l-1.271,0.928 M439.48,138.421l1.192-0.797 M440.327,138.275l-0.097,0.014 M440.23,138.289l-1.651,0.292
	 M438.088,138.684l0.49-0.104 M439.48,138.421l-0.102,0.067 M439.378,138.489l-1.314,0.818 M436.981,139.257l0.876-0.453
	 M442.259,136.442l-0.316,0.255 M439.294,138.033l-1.438,0.771 M442.493,136.252l0.699-0.564 M442.214,136.297l0.368-0.059
	 M442.493,136.252l-0.233,0.189 M443.415,135.491l-1.34,0.9 M442.214,136.297l-0.898,0.145 M442.075,136.391l-1.374,0.843
	l-1.406,0.799 M438.088,138.684l-1.117,0.238 M447.093,139.987l-0.247-0.075l-1.012-0.203l-1.101-0.126l-1.188-0.05
	 M437.481,139.651l0.583-0.344 M443.546,139.533l-1.271,0.025 M437.481,139.651l-0.75,0.443 M436.186,140.405l0.545-0.311
	 M435.734,140.534l0.362-0.819 M434.853,140.784l-1.642,0.467 M440.924,139.657l-1.425,0.172 M439.5,139.829l-1.492,0.245
	 M442.275,139.558l-1.351,0.099 M432.977,141.328l0.234-0.077 M436.071,140.471l0.115-0.066 M435.731,140.541l0.003-0.007
	 M438.007,140.074l-1.552,0.318 M436.024,140.498l0.432-0.105 M435.657,140.707l-0.212,0.479 M434.741,142.75l-0.636,1.396
	 M433.842,144.72l0.263-0.575 M435.445,141.186l-0.704,1.563 M436.071,140.471l-0.687,0.392 M432.675,142.391l-1.345,0.778
	 M435.384,140.863l-1.354,0.762 M434.03,141.625l-1.354,0.767 M435.716,140.573l0.308-0.075 M435.657,140.707l0.074-0.166
	 M435.716,140.573l-0.146,0.036 M425.805,146.971l0.497-0.423 M431.331,143.169l-1.323,0.8l-1.289,0.826l-1.24,0.858l-1.176,0.895
	 M435.57,140.609l-0.717,0.175 M424.845,146.27l-1.206,1.021 M436.981,139.257l-0.589,0.305 M432.852,141.368l0.558-0.289
	 M436.392,139.562l-1.485,0.754l-1.497,0.763 M436.096,139.714l0.068-0.154 M432.977,141.328l-0.215,0.069 M432.852,141.368
	l-0.943,0.49 M426.144,145.301l-1.299,0.969 M428.949,143.502l-1.43,0.877 M431.909,141.858l-1.491,0.806 M436.268,139.324
	l-0.045,0.104 M436.165,139.56l0.059-0.133 M432.762,141.397l-0.294,0.096 M434.558,144.52l-1.135,0.317 M436.758,144.074
	l-1.085,0.191 M435.673,144.265l-1.115,0.255 M437.807,143.946l-1.049,0.128 M438.918,143.881h-0.107 M438.811,143.881l-1.004,0.064
	 M433.842,144.72l-0.308,0.675l-0.508,1.125 M432.933,146.734l0.094-0.214 M433.423,144.837l-1.144,0.381 M432.28,145.218
	l-1.144,0.443 M431.136,145.662l-1.13,0.504 M425.895,148.782l-0.854,0.794l-0.753,0.844 M430.006,146.166l-1.103,0.565
	 M428.904,146.731l-1.063,0.626 M427.84,147.357l-1.008,0.685l-0.938,0.74 M423.815,151.078l0.474-0.658 M423.318,149.472
	l-0.757,1.054 M421.772,152.051l0.176-0.435 M422.561,150.526l-0.613,1.091 M425.805,146.971l-0.6,0.511l-1.001,0.975
	 M424.205,148.457l-0.887,1.016 M419.744,153.018l0.406-1.144 M422.546,148.362l-0.958,1.123l-0.805,1.172l-0.634,1.218
	 M417.131,153.676l-0.141,0.653 M423.639,147.291l-1.093,1.071 M418.523,150.412l-0.695,1.201 M417.131,153.676l0.144-0.665
	 M417.828,151.613l-0.553,1.398 M415.264,152.597l-0.093,0.229l-0.354,1.628 M414.784,155.381l0.033-0.928 M412.166,154.675
	l-0.036,1.731 M412.167,156.628l-0.037-0.222 M408.391,158.426l-0.234-1.062 M404.949,160.067l-0.151-0.451 M430.417,142.664
	l-1.469,0.839 M457.999,126.918l-0.814,0.123 M457.184,127.042l-1.75,0.276 M455.434,127.318l-1.896,0.31 M452.151,127.861
	l1.387-0.233 M452.127,130.27l-1.518,0.214 M448.806,130.77l1.804-0.286 M446.292,133.163l0.964-0.918 M448.574,130.809l0.987-1.211
	 M448.806,130.77l-0.08,0.013 M447.603,130.977l1.123-0.194 M448.574,130.809l-0.082,0.1 M448.492,130.909l-1.236,1.336
	 M447.708,130.84l-0.867,1.122 M447.603,130.977L447.469,131 M445.698,133.273l1.144-1.311 M443.454,133.693l0.626-0.117
	 M446.256,133.224l0.923-0.13 M444.782,134.463l1.22-1.025 M446.229,133.222l0.062-0.06 M445.856,133.284l0.126-0.021
	 M446.221,133.229l0.035-0.005 M446.229,133.222l-0.228,0.216 M446.221,133.229l-0.239,0.033 M444.148,134.825l0.273-0.246
	 M445.662,133.316l0.036-0.043 M445.856,133.284l-1.776,0.292 M445.662,133.316l-0.025,0.028 M445.636,133.344l-1.215,1.234
	 M441.316,136.442l-0.269,0.043 M441.047,136.485l-1.841,0.353 M438.548,136.983l0.658-0.146 M436.971,138.922l-0.113,0.023
	 M436.38,139.064l0.478-0.118 M436.268,139.324l0.494-1.144 M436.38,139.064l-1.304,0.323 M434.881,139.442l0.195-0.055
	 M431.167,141.933l0.378-0.14 M432.468,141.493l-0.924,0.301 M427.519,144.379l-1.375,0.922 M451.843,126.313l-0.897,1.393
	 M450.716,128.023l0.229-0.317 M450.544,126.555l-0.056,0.099 M449.495,128.26l0.994-1.606 M440.105,130.085l0.113-0.284
	 M440.782,128.371l-0.563,1.431 M444.334,129.263l-2.729,0.531 M450.654,128.11l0.062-0.087 M449.455,128.326l0.04-0.065
	 M449.272,128.358l-2.382,0.429 M446.89,128.787l-2.556,0.477 M440.185,130.083l1.42-0.289 M452.151,127.861l-0.665,0.112
	 M450.788,128.094l0.698-0.121 M449.561,129.598l0.157-0.193 M450.647,128.119l0.007-0.009 M450.788,128.094l-1.104,0.192
	 M450.647,128.119l-0.929,1.286 M447.708,130.84l0.337-0.436 M449.683,128.287l-0.411,0.071 M449.455,128.326l-0.197,0.319
	 M449.257,128.645l-1.212,1.76 M447.469,131l-0.762,0.132 M439.083,132.697l0.759-0.175 M446.708,131.132l-2.154,0.404
	 M444.553,131.537l-2.289,0.462 M442.264,131.999l-2.423,0.523 M442.064,133.954l-2.128,0.443 M438.198,134.795l1.738-0.398
	 M443.454,133.693l-1.39,0.261 M437.142,137.298l0.141-0.035 M438.548,136.983l-1.266,0.28 M438.026,135.204l-0.945,2.24
	 M440.099,130.101l0.086-0.018 M439.053,132.704l0.029-0.007 M440.105,130.085l-1.037,2.583 M440.099,130.101l-1.398,0.284
	 M438.701,130.385l-3.07,0.66 M425.571,133.539l-3.542,1.045 M432.405,131.783l-3.362,0.827 M418.463,135.761l-3.528,1.328
	 M414.935,137.089l-3.42,1.498 M435.63,131.045l-3.226,0.737 M429.042,132.61l-3.472,0.929 M422.029,134.583l-3.565,1.178
	 M411.515,138.587l-3.229,1.688 M437.292,133.111l-2.667,0.661 M434.625,133.772l-2.771,0.74 M426.089,136.265l-2.937,1.032
	 M431.855,134.512L429,135.34 M429,135.34l-2.911,0.925 M423.153,137.297l-2.92,1.149 M418.083,139.411l2.15-0.964 M438.193,134.796
	l0.875-2.128 M439.053,132.704l-1.761,0.407 M405.064,142.398l0.274-0.227 M408.287,140.275l-2.948,1.896 M438.198,134.795
	l-0.494,0.113 M418.083,139.411l-0.706,0.316 M413,142.16l1.639-1.01 M417.376,139.727l-2.738,1.423 M402.498,144.594l0.268-0.3
	 M405.064,142.398l-2.299,1.896 M432.964,136.156l-2.479,0.745 M437.704,134.909l-2.328,0.585 M435.375,135.494l-2.411,0.662
	 M411.456,143.195l0.623-0.468 M413,142.16l-0.921,0.567 M430.486,136.901l-2.522,0.835 M409.936,144.337l1.52-1.143
	 M427.963,137.736l-2.541,0.931 M438.193,134.796l-0.167,0.407 M437.142,137.298l-1.856,0.465 M435.286,137.763l-2.059,0.577
	 M436.762,138.18l0.318-0.736 M431.122,138.999l-2.132,0.743 M428.99,139.742l-2.139,0.831 M426.851,140.573l-2.117,0.925
	 M433.227,138.34l-2.105,0.658 M434.881,139.442l-1.635,0.463l-1.865,0.596 M431.381,140.5l-1.882,0.677 M429.5,141.177l-1.88,0.76
	 M431.167,141.933l-1.299,0.48l-1.67,0.698 M420.722,147.826l-1.148,1.188 M424.962,144.75l-1.52,0.942 M418.523,150.412
	l0.078-0.135 M426.555,143.89l-1.593,0.86 M419.574,149.013l-0.973,1.264 M428.198,143.112l-1.643,0.778 M423.443,145.693
	l-1.422,1.025 M422.021,146.718l-1.299,1.107 M427.62,141.937l-1.855,0.847 M425.764,142.784l-1.806,0.936 M417.808,148.385
	l-1.116,1.396l-0.888,1.483 M423.958,143.719l-1.729,1.026 M422.23,144.746l-1.622,1.12l-1.484,1.213 M419.124,147.079l-1.315,1.307
	 M424.734,141.498l-2.068,1.022l-1.985,1.124l-1.868,1.23 M415.264,152.597l0.54-1.332 M417.1,146.212l-1.519,1.449
	 M415.582,147.662l-1.286,1.557 M412.166,154.675l0.004-0.187 M414.295,149.218l-1.019,1.662l-0.718,1.761l-0.39,1.848
	 M408.157,157.364l-0.072-0.325 M408.309,153.086l-0.287,1.649l0.062,2.303 M418.812,144.875l-1.712,1.338 M425.422,138.667
	l-2.527,1.034 M422.895,139.701l-2.478,1.146 M418.033,142.114l-2.244,1.395 M408.309,153.086l0.096-0.551 M415.789,143.508
	l-2.057,1.528 M420.417,140.847l-2.385,1.267 M413.732,145.037l-1.815,1.666 M411.917,146.703l-1.524,1.808l-1.186,1.946
	 M409.207,150.457l-0.802,2.079 M409.936,144.337l-0.173,0.131l-2.006,1.913l-1.631,2.091l-1.195,2.267l-0.709,2.437
	 M404.222,153.175l-0.18,2.59 M404.042,155.765l0.376,2.722 M400.526,146.882l0.134-0.226 M402.498,144.594l-1.838,2.062
	 M404.797,159.616l-0.379-1.129 M400.137,162.742l-0.431-0.777 M400.526,146.882l-1.415,2.384l-0.917,2.854l-0.229,3.087
	l0.499,3.295l1.242,3.462"/>
<line fill="none" stroke="#BB0000" stroke-width="2" stroke-miterlimit="10" x1="496.537" y1="217.219" x2="595.652" y2="190.145"/>
<text transform="matrix(1 0 0 1 544.6782 219.2388)" fill="#BB0000" font-family="'STIXGeneral-Italic'" font-size="21">x</text>
<text transform="matrix(0.583 0 0 0.583 554.0015 226.2319)" fill="#BB0000" font-family="'STIXGeneral-Italic'" font-size="21">t-τ</text>
<line fill="none" stroke="#000000" stroke-width="2" stroke-miterlimit="10" x1="508.889" y1="115.703" x2="511.259" y2="115.262"/>
<line fill="none" stroke="#880000" stroke-width="2" stroke-miterlimit="10" x1="379.432" y1="96.723" x2="379.422" y2="139.783"/>
<text transform="matrix(1 0 0 1 433.9917 58.3442)" font-family="'STIXGeneral-Bold'" font-size="21">M</text>
<text transform="matrix(0.583 0 0 0.583 453.8149 65.3374)" font-family="'STIXGeneral-Italic'" font-size="21">x</text>
<line fill="none" stroke="#880000" stroke-width="2" stroke-miterlimit="10" x1="379.432" y1="96.723" x2="379.437" y2="70.609"/>
<path fill="none" stroke="#000000" stroke-width="2" stroke-miterlimit="10" d="M499.293,43.598l-6.646,2.334l-6.236,3.345
	 M498.308,57.336l-3.599,1.408 M488.461,62.674l1.381-1.092 M494.709,58.744l-4.867,2.837 M497.697,58.838l-2.552,1.06
	 M487.467,65.163l2.979-2.417 M495.145,59.897l-4.699,2.849 M453.45,123.61l-1.265,2.174 M451.843,126.313l0.342-0.529
	 M487.467,65.163l-1.388,1.126 M482.06,70.417l-3.674,4.573 M466.85,94.824l-2.218,4.714l-2.008,4.44 M475.049,79.86l-3.019,5.019
	l-2.724,5.027 M462.625,103.978l-1.828,4.122l-1.676,3.779 M457.572,115.31l-1.447,3.087 M456.125,118.397l-1.367,2.759
	 M459.121,111.879l-1.549,3.431 M454.757,121.156l-1.308,2.454 M478.386,74.99l-3.337,4.871 M469.307,89.906l-2.457,4.917
	 M450.544,126.555l1.209-2.154 M474.519,78.157l-0.619,0.898 M454.449,118.996l-1.381,2.861 M470.779,84.236l-2.812,5.202
	 M463.148,99.424l-2.064,4.608l-1.874,4.279 M459.209,108.311l-1.713,3.923 M453.068,121.857l-1.314,2.544 M457.497,112.234
	l-1.579,3.56 M455.917,115.793l-1.469,3.202 M467.966,89.438l-2.534,5.096 M473.9,79.055l-3.121,5.181 M465.432,94.535l-2.284,4.89
	 M486.08,66.29l-4.02,4.127 M474.519,78.157l2.834-4.114 M488.461,62.674l-3.142,2.483l-4.163,4.201l-3.804,4.685 M446.236,114.26
	l-1.756,4.564l-1.573,4.093 M442.907,122.917l-1.414,3.647 M440.782,128.371l0.711-1.807 M455.647,91.323l-2.775,6.369l-2.471,5.984
	l-2.201,5.533l-1.964,5.051 M486.411,49.277l-5.78,4.33l-5.301,5.212l-4.818,5.929l-4.35,6.436l-3.906,6.715l-3.493,6.776
	 M458.762,84.675l-3.115,6.648"/>
<line fill="none" stroke="#000000" stroke-width="2" stroke-miterlimit="10" x1="504.299" y1="42.613" x2="499.293" y2="43.598"/>
<text transform="matrix(1 0 0 1 366.6753 26.1768)" fill="#880000" font-family="'STIXGeneral-Italic'" font-size="21">x</text>
<text transform="matrix(0.583 0 0 0.583 375.9985 33.1699)" fill="#880000" font-family="'STIXGeneral-Italic'" font-size="21">t-2τ</text>
<line fill="none" stroke="#880000" stroke-width="2" stroke-miterlimit="10" x1="379.437" y1="70.609" x2="379.444" y2="38.123"/>
<path fill="none" stroke="#000000" stroke-width="2" stroke-miterlimit="10" d="M543.669,107.059l3.537-1.457 M550.182,104.738
	l0.363-0.167 M552.803,103.297l-2.258,1.273 M540.033,108.354l3.637-1.295 M550.182,104.738l-2.851,1.319 M536.373,109.506
	l3.66-1.152 M547.332,106.057l-0.273,0.126 M544.306,107.26l2.752-1.077 M532.75,110.532l3.622-1.026 M544.306,107.26l-0.906,0.355
	 M541.384,108.299l2.016-0.684 M529.215,111.446l3.535-0.914 M541.384,108.299l-1.727,0.586 M538.663,109.184l0.995-0.299
	 M525.804,112.263l3.411-0.817 M538.663,109.184l-2.552,0.767 M522.544,112.995l3.26-0.731 M536.111,109.951l-0.203,0.061
	 M533.439,110.68l2.469-0.668 M519.453,113.651l3.092-0.657 M533.439,110.68l-1.226,0.332 M531.12,111.282l1.094-0.271
	 M516.54,114.243l2.913-0.592 M531.12,111.282l-2.065,0.511 M513.808,114.778l2.731-0.535 M529.054,111.793l-0.433,0.107
	 M527.069,112.256l1.553-0.356 M511.259,115.262l2.549-0.484 M527.069,112.256l-1.515,0.347 M502.779,116.815l1.878-0.34
	l2.034-0.369l2.198-0.403 M499.453,117.424l1.595-0.294 M501.047,117.13l1.731-0.315 M495.395,118.214l1.241-0.251 M501.688,117.042
	l-1.271,0.198 M498.539,117.597l0.018-0.013 M496.636,117.962l1.35-0.262l1.467-0.276 M498.539,117.597l-0.059,0.042"/>
<path fill="none" stroke="#000000" stroke-width="2" stroke-miterlimit="10" d="M544.498,81.261l-1.587-1.905 M536.328,74.272
	l-2.682-1.352 M551.776,89.998l-0.216,1.545 M550.797,93.631l0.763-2.088 M546.18,99.115l1.879-1.693 M541.679,102.105l2.355-1.431
	 M544.035,100.675l2.146-1.56 M539.171,103.414l2.508-1.309 M548.059,97.422l1.557-1.829 M549.616,95.593l1.182-1.962
	 M537.634,104.118l1.537-0.704 M541.032,98.693l1.698-1.362 M537.147,101.103l2.011-1.153 M542.73,97.331l1.479-1.469
	 M544.209,95.862l1.222-1.573 M545.431,94.289l0.929-1.671 M539.158,99.95l1.874-1.257 M535.039,102.154l2.108-1.051
	 M546.456,92.336l-0.096,0.282 M526.298,105.424l2.174-0.686 M518.204,107.382l1.906-0.377 M521.662,104.763l1.507-0.763
	 M530.671,103.967l2.198-0.86 M518.73,106.331l1.45-0.795 M522.102,106.555l2.067-0.526 M532.87,103.107l2.169-0.954
	 M520.11,107.005l1.992-0.45 M528.472,104.739l2.199-0.771 M524.169,106.028l2.129-0.604 M516.535,107.662l1.669-0.28
	 M537.634,104.118l-1.073,0.491 M520.976,109.892l2.445-0.702 M533.897,105.698l2.664-1.089 M511.99,111.198l1.284-1.153
	 M518.631,110.542l2.345-0.65 M525.957,108.428l2.606-0.83 M528.563,107.598l2.656-0.907l2.678-0.994 M523.421,109.19l2.535-0.762
	 M510.49,112.759l1.779-0.494l2.006-0.544l2.121-0.572l2.235-0.607 M514.587,109.001l1.346-0.954 M520.18,105.536l1.481-0.773
	 M508.029,115.863l0.209-0.307 M517.314,107.163l1.416-0.832 M510.727,112.484l1.263-1.286 M513.274,110.045l1.313-1.043
	 M508.238,115.556l1.242-1.628 M515.933,108.047l1.381-0.884 M516.535,107.662l-0.145,0.024 M515.591,107.795l0.799-0.109
	 M523.168,104l1.526-0.764 M540.958,77.498l0.04,0.032 M542.911,79.355l-1.913-1.826 M546.962,90.856l0.251-1.84 M547.213,89.017
	l-0.116-1.902 M546.456,92.336l0.507-1.48 M546.604,85.171l-0.869-1.961 M545.735,83.21l-1.237-1.949 M547.097,87.115l-0.493-1.944
	 M539.763,88.915l-0.088-1.298 M539.675,87.617l-0.313-1.297 M539.285,91.459l0.346-1.26 M527.765,101.663l1.519-0.824 M539.63,90.2
	l0.133-1.285 M530.772,99.98l1.44-0.899 M524.695,103.235l1.536-0.776 M533.585,98.136l1.287-0.992 M526.231,102.459l1.534-0.796
	 M536.052,96.103l1.051-1.091 M539.362,86.32l-0.538-1.282 M538.004,93.872l0.733-1.186 M538.824,85.038l-0.758-1.249
	 M529.284,100.839l1.488-0.859 M538.066,83.789l-0.97-1.198 M538.738,92.686l0.547-1.227 M532.212,99.081l1.373-0.944
	 M537.103,95.012l0.901-1.14 M536.802,82.307l0.294,0.284 M534.873,97.145l1.18-1.042 M515.591,107.795l-0.916,0.125
	 M509.48,113.928l1.247-1.444 M533.646,72.92l-2.855-1.114 M527.806,70.966l-3.066-0.531 M524.469,70.418l0.271,0.017
	 M540.958,77.498l-2.166-1.676 M536.802,82.307l-0.874-0.842 M518.539,70.403l-3.051,0.529 M515.488,70.932l-2.968,0.896
	 M524.469,70.418l-2.834-0.177 M512.52,71.828l-2.854,1.252 M509.666,73.08l-2.714,1.584l-2.555,1.883 M504.397,76.547l-2.382,2.14
	 M523.898,77.276l-1.975,0.127 M533.066,79.511l-1.652-0.786 M525.861,77.354l-1.963-0.078 M499.817,81.032l-2.012,2.499
	 M519.959,77.74l-1.929,0.544 M534.579,80.432l-1.513-0.92 M531.414,78.725l-1.77-0.633 M529.644,78.092l-1.859-0.462
	 M535.928,81.465l-1.35-1.034 M527.785,77.63l-1.924-0.276 M521.923,77.403l-1.964,0.336 M518.031,78.284l-1.874,0.745
	 M501.701,102.799l0.239,0.969 M504.828,90.074l-0.852,1.65l-0.719,1.627 M503.302,106.061l0.664,0.567 M501.869,97.912
	l-0.217,1.366 M506.586,107.782l1.083,0.215 M506.926,86.797l-1.116,1.625 M508.859,108.131l1.295,0.058 M508.172,85.222
	l-1.246,1.575 M504.735,107.101l0.873,0.384 M511.04,82.333l-1.494,1.392 M502.288,104.633l0.455,0.764 M503.257,93.351l-0.59,1.585
	 M501.554,100.552l0.017,1.174 M516.157,79.029l-1.8,0.935 M510.154,108.188l1.402-0.017 M507.669,107.997l1.189,0.134
	 M505.608,107.485l0.979,0.297 M503.966,106.627l0.769,0.474 M502.743,105.397l0.56,0.664 M501.94,103.768l0.348,0.866
	 M501.571,101.726l0.13,1.073 M502.206,96.461l-0.337,1.451 M501.652,99.278l-0.098,1.273 M502.667,94.936l-0.462,1.525
	 M511.556,108.171l1.507-0.09 M513.063,108.082l1.612-0.162 M490.087,118.422l-0.559-0.005 M488.047,118.237l0.284,0.065
	l0.568,0.076l0.629,0.04 M512.647,81.071l-1.607,1.262 M510.49,112.759l-0.11,0.031 M490.087,118.422l0.137,0.001 M506.933,113.813
	l1.669-0.51l1.777-0.513 M502.523,115.418l1.377-0.558 M503.9,114.861l1.468-0.532 M505.368,114.329l1.565-0.516 M498.845,117.479
	l1.571-0.238 M498.667,117.504l0.192-0.139 M498.625,117.51l0.221-0.032 M498.667,117.504l-0.111,0.08 M498.86,117.366l1.151-0.708
	 M498.625,117.51l-0.309,0.045 M500.011,116.658l1.218-0.645l1.294-0.595 M492.754,118.267l1.011-0.106 M498.316,117.555
	l-0.912,0.133 M493.765,118.161l1.107-0.132l1.21-0.158l1.321-0.183 M490.224,118.424l0.766-0.024l0.841-0.053l0.924-0.08
	 M505.81,88.423l-0.982,1.651 M485.872,116.347l0.198,0.476 M488.047,118.237l-0.225-0.051 M487.369,118.025l0.454,0.161
	 M486.07,116.822l0.249,0.398 M485.725,115.784l0.146,0.562 M485.594,114.36l0.037,0.765 M486.967,117.814l0.401,0.21
	 M485.631,115.125l0.094,0.659 M486.618,117.548l0.35,0.266 M485.616,113.478l-0.021,0.882 M486.319,117.22l0.299,0.328
	 M486.083,110.029l-0.228,1.293l-0.154,1.147l-0.085,1.009 M509.545,83.726l-1.373,1.497 M491.115,95.025l-0.671,1.479
	 M486.791,106.97l-0.398,1.61l-0.31,1.449 M514.357,79.963l-1.71,1.108 M491.115,95.025l0.465-1.026 M494.339,88.77l-1.465,2.638
	 M490.444,96.504l-0.986,2.392l-0.848,2.255l-0.72,2.103l-0.604,1.941l-0.496,1.775 M497.805,83.531l-1.824,2.597l-1.642,2.642
	 M502.015,78.687l-2.198,2.346 M492.875,91.408l-1.295,2.59"/>
<line fill="none" stroke="#000000" stroke-width="2" stroke-miterlimit="10" x1="551.776" y1="89.998" x2="551.868" y2="89.34"/>
<line fill="none" stroke="#000000" stroke-width="8" stroke-linecap="round" stroke-miterlimit="10" x1="551.868" y1="89.34" x2="551.868" y2="89.34"/>
<path fill="none" stroke="#000000" stroke-width="2" stroke-miterlimit="10" d="M538.792,75.822l-2.464-1.55 M530.791,71.806
	l-2.984-0.839"/>
<line fill="none" stroke="#000000" stroke-width="2" stroke-miterlimit="10" x1="521.635" y1="70.241" x2="518.539" y2="70.403"/>
<polyline fill="none" stroke="#000000" stroke-miterlimit="10" stroke-dasharray="6" points="470.938,121.691 471.553,120.929 
	472.16,120.06 472.767,119.068 473.385,117.94 474.022,116.658 474.691,115.208 475.401,113.574 476.167,111.743 477,109.705 
	477.917,107.451 478.933,104.98 480.063,102.296 481.325,99.413 482.735,96.35 484.311,93.143 486.07,89.833 488.028,86.478 
	490.197,83.143 492.587,79.902 495.207,76.833 498.056,74.016 501.13,71.524 501.492,71.293 504.418,69.422 507.898,67.762 
	511.542,66.576 515.313,65.882 519.167,65.677 523.05,65.944 526.909,66.651 530.681,67.757 534.309,69.212 534.959,69.545 
	537.731,70.962 540.889,72.954 543.73,75.13 546.205,77.438 548.269,79.826 549.888,82.25 550.261,83.037 551.036,84.666 
	551.696,87.04 "/>
<path fill="none" stroke="#000000" stroke-width="2" stroke-miterlimit="10" d="M549.228,44.195l-6.717-0.327 M542.511,43.868
	l-7.03-0.704 M535.481,43.164l-7.252-0.776 M528.229,42.388l-7.365-0.575 M520.864,41.812l-7.357-0.127 M513.506,41.686
	l-7.228,0.537 M504.299,42.613l1.979-0.39 M552.803,103.297l0.956-0.538 M555.323,101.64l-1.563,1.119 M547.207,105.602l3.351-1.635
	 M555.323,101.64l1.27-0.908 M557.611,99.754l-1.019,0.978 M550.557,103.967l3.064-1.831 M557.611,99.754l1.328-1.276
	 M559.54,97.626l-0.601,0.852 M553.622,102.136l2.679-2.041 M559.54,97.626l1.156-1.637 M560.991,95.248l-0.295,0.741
	 M556.3,100.095l2.188-2.261 M560.991,95.248l0.788-1.981 M561.854,92.618l-0.075,0.648 M558.489,97.834l1.604-2.487
	 M561.854,92.618l0.269-2.297 M562.042,89.741l0.08,0.58 M560.093,95.347l0.942-2.709 M562.042,89.741l-0.352-2.567 M561.494,86.634
	l0.197,0.54 M561.036,92.638l0.223-2.919 M561.494,86.634l-1.016-2.775 M560.172,83.327l0.306,0.532 M561.258,89.718l-0.528-3.106
	 M560.172,83.327l-1.671-2.908 M558.077,79.867l0.425,0.552 M560.73,86.612l-1.282-3.259 M558.077,79.867l-2.272-2.957
	 M555.24,76.32l0.564,0.59 M559.448,83.353l-2.016-3.368 M555.24,76.32l-2.798-2.924 M551.723,72.771l0.719,0.625 M557.432,79.985
	l-2.707-3.421 M551.723,72.771l-3.239-2.82 M547.619,69.313l0.865,0.637 M554.725,76.563l-3.343-3.411 M547.619,69.313l-3.614-2.66
	 M543.024,66.044l0.98,0.609 M551.382,73.153l-3.913-3.328 M543.024,66.044l-3.943-2.452 M538.037,63.052l1.044,0.54
	 M547.469,69.825l-4.41-3.167 M538.037,63.052l-4.237-2.192 M532.741,60.419l1.059,0.44 M543.059,66.658l-4.83-2.92 M532.741,60.419
	l-4.489-1.865 M527.216,58.232l1.035,0.322 M538.229,63.738l-5.166-2.583 M527.216,58.232l-4.685-1.457 M521.544,56.58l0.987,0.196
	 M533.063,61.155l-5.412-2.15 M521.544,56.58l-4.803-0.956 M515.805,55.552l0.937,0.071 M527.651,59.005l-5.565-1.622
	 M515.805,55.552l-4.827-0.367 M510.072,55.242l0.906-0.056 M522.085,57.383l-5.623-1.002 M510.072,55.242l-4.738,0.294
	 M505.333,55.536l-5.444,1.183 M498.308,57.336l1.581-0.618 M505.413,56.548l-5.264,1.271 M516.462,56.381l-5.587-0.3
	 M510.875,56.081l-5.463,0.467 M497.697,58.838l2.452-1.019"/>
<path fill="none" stroke="#EE0000" stroke-width="2" stroke-miterlimit="10" d="M150.339,43.015l0.393-0.297l0.393-0.25l0.393-0.206
	l0.393-0.165l0.393-0.127l0.393-0.091l0.393-0.058l0.393-0.027l0.393,0.002l0.393,0.03l0.393,0.057l0.393,0.083l0.393,0.107
	l0.393,0.132l0.393,0.157l0.393,0.182 M156.877,42.678l-0.255-0.135 M126.387,45.569l0.393-0.038 M148.376,45.308l0.393-0.574
	 M148.769,44.734l0.393-0.515 M149.161,44.219l0.393-0.457 M149.981,43.332l-0.035,0.031 M149.554,43.763l0.393-0.4"/>
<path fill="none" stroke="#EE0000" stroke-width="2" stroke-miterlimit="10" d="M179.98,35.675l-0.191,0.182 M176.701,40.798
	l0.339-0.79l0.393-0.817l0.393-0.729l0.393-0.648l0.393-0.576l0.393-0.513l0.393-0.458l0.393-0.411"/>
<path fill="none" stroke="#EE0000" stroke-width="2" stroke-miterlimit="10" d="M72.984,36.099l0.393-0.001 M124.816,46.088
	l0.393-0.188 M115.785,56.448l0.393-0.216 M115,56.664l0.393-0.072 M118.141,54.21l0.393-0.547 M116.177,56.232l0.393-0.285
	 M115.392,56.592l0.393-0.145 M116.57,55.947l0.393-0.351 M117.748,54.72l0.393-0.51 M116.963,55.596l0.393-0.411 M114.881,56.665
	l0.119,0 M119.711,51.893l0.393-0.603 M120.104,51.29l0.393-0.595 M124.423,46.315l0.393-0.227 M122.067,48.524l0.393-0.466
	 M120.497,50.695l0.393-0.58 M122.46,48.058l0.393-0.429 M118.533,53.663l0.393-0.575 M118.926,53.088l0.393-0.593 M119.319,52.495
	l0.393-0.602 M122.853,47.629l0.393-0.389 M121.675,49.024l0.393-0.5 M120.889,50.115l0.393-0.559 M121.282,49.557l0.393-0.532
	 M123.638,46.891l0.393-0.309 M124.031,46.583l0.393-0.268 M123.245,47.24l0.393-0.349 M117.355,55.185l0.393-0.464 M125.208,45.9
	l0.393-0.148 M125.601,45.752l0.393-0.11 M125.994,45.642l0.393-0.073 M149.981,43.332l0.358-0.317"/>
<line fill="none" stroke="#EE0000" stroke-width="2" stroke-miterlimit="10" x1="69.843" y1="35.311" x2="70.236" y2="35.51"/>
<line fill="none" stroke="#000000" stroke-miterlimit="10" x1="241.988" y1="69.216" x2="180.855" y2="69.216"/>
<path fill="none" stroke="#000000" stroke-miterlimit="10" d="M307.405,65.78v3.437 M276.937,69.216h30.468"/>
<line fill="none" stroke="#000000" stroke-miterlimit="10" x1="307.405" y1="65.78" x2="307.405" y2="59.899"/>
<line fill="none" stroke="#000000" stroke-miterlimit="10" x1="307.405" y1="59.899" x2="307.405" y2="59.074"/>
<line fill="none" stroke="#000000" stroke-miterlimit="10" x1="307.405" y1="59.074" x2="307.405" y2="35.169"/>
<line fill="none" stroke="#000000" stroke-width="2" stroke-miterlimit="10" x1="197.459" y1="38.83" x2="197.459" y2="35.605"/>
<path fill="none" stroke="#EE0000" stroke-width="2" stroke-miterlimit="10" d="M179.98,35.675l0.201-0.19l0.393-0.339l0.393-0.314
	l0.393-0.293l0.393-0.279l0.393-0.27l0.393-0.265l0.393-0.265l0.393-0.267l0.393-0.274l0.393-0.284l0.393-0.297l0.393-0.312
	l0.393-0.331l0.393-0.353l0.393-0.376l0.393-0.402l0.393-0.431l0.393-0.461l0.393-0.494l0.393-0.529l0.393-0.566l0.393-0.604
	l0.393-0.644l0.393-0.684l0.393-0.725l0.393-0.765l0.393-0.803l0.393-0.838l0.393-0.869l0.393-0.894l0.393-0.912l0.393-0.918
	l0.393-0.912l0.393-0.891l0.393-0.851l0.393-0.79l0.393-0.707l0.393-0.599l0.393-0.466l0.393-0.31l0.393-0.132l0.393,0.062
	l0.393,0.268l0.393,0.478 M97.841,36l-0.119-0.431 M94.299,17.958l0.282,1.548l0.393,2.24l0.393,2.258l0.393,2.221l0.393,2.138
	l0.393,2.021l0.393,1.882l0.393,1.73l0.393,1.575 M87.491,19.813l-0.371,1.184 M73.377,36.097l0.393-0.018l0.393-0.034l0.393-0.048
	l0.393-0.062l0.393-0.076l0.393-0.09l0.393-0.104l0.393-0.119l0.393-0.133l0.393-0.149l0.393-0.166l0.393-0.183l0.393-0.202
	l0.393-0.221l0.393-0.243l0.393-0.267l0.393-0.292l0.393-0.319l0.393-0.349l0.393-0.381l0.393-0.417l0.393-0.455l0.393-0.496
	l0.393-0.54l0.393-0.588l0.393-0.639l0.393-0.694l0.393-0.752l0.393-0.813l0.393-0.877l0.393-0.943l0.393-1.01l0.393-1.077
	l0.393-1.141l0.393-1.201 M70.236,35.51l0.393,0.165l0.393,0.133l0.393,0.104l0.393,0.079l0.393,0.056l0.393,0.035l0.393,0.016"/>
<line fill="none" stroke="#000000" stroke-width="2" stroke-miterlimit="10" x1="197.459" y1="35.605" x2="197.459" y2="0.5"/>
<line fill="none" stroke="#000088" stroke-width="1.5" stroke-miterlimit="10" x1="197.459" y1="14.578" x2="197.459" y2="14.578"/>
<path fill="none" stroke="#000000" stroke-miterlimit="10" d="M158.351,0.5h149.054 M307.405,35.169V0.5"/>
<polyline fill="none" stroke="#EE0000" stroke-miterlimit="10" stroke-dasharray="6" points="197.459,14.578 197.852,15.261 
	198.244,16.137 198.637,17.186 199.029,18.38 199.422,19.689 199.815,21.078 200.208,22.512 200.6,23.96 200.993,25.393 
	201.385,26.786 201.778,28.119 202.171,29.377 202.563,30.551 202.956,31.634 203.349,32.625 203.741,33.522 204.134,34.332 
	204.527,35.056 204.844,35.576 204.919,35.701 205.312,36.273 205.705,36.78 206.097,37.227 206.49,37.623 206.847,37.94 
	206.883,37.972 207.275,38.282 207.668,38.558 208.061,38.806 208.453,39.031 208.846,39.237 209.239,39.428 209.631,39.608 
	210.024,39.781 210.417,39.949 210.809,40.116 211.202,40.284 211.595,40.455 211.987,40.632 212.38,40.817 212.772,41.012 
	213.166,41.219 213.558,41.44 213.951,41.677 214.343,41.933 214.736,42.209 215.128,42.507 215.521,42.831 215.914,43.181 
	216.307,43.562 216.699,43.975 217.092,44.422 217.485,44.908 217.877,45.435 218.27,46.005 218.663,46.622 219.055,47.289 
	219.448,48.007 219.84,48.78 220.233,49.61 220.411,50.013 220.626,50.498 221.019,51.442 221.411,52.444 221.804,53.499 
	222.197,54.603 222.589,55.747 222.982,56.92 223.375,58.109 223.767,59.292 224.16,60.445 224.553,61.54 224.945,62.541 
	225.338,63.412 225.73,64.111 226.123,64.599 226.516,64.837 226.909,64.794 227.301,64.447 227.694,63.788 228.086,62.821 
	228.479,61.569 228.872,60.066 229.265,58.36 229.348,57.966 229.657,56.505 230.05,54.557 230.442,52.572 230.835,50.599 
	231.147,49.073 231.228,48.68 231.621,46.846 232.013,45.122 232.406,43.521 232.798,42.053 233.191,40.718 233.584,39.513 
	233.977,38.432 234.369,37.467 234.762,36.607 235.154,35.842 235.377,35.455 235.547,35.161 235.94,34.552 236.333,34.007 
	236.725,33.515 237.118,33.066 237.51,32.653 237.903,32.268 238.296,31.903 238.688,31.552 239.081,31.21 239.474,30.873 
	239.866,30.533 240.259,30.189 240.652,29.836 241.044,29.472 241.437,29.092 241.83,28.696 242.222,28.28 242.615,27.843 
	243.008,27.383 243.4,26.9 243.793,26.392 244.186,25.86 244.579,25.304 244.971,24.726 245.364,24.125 245.756,23.506 
	246.149,22.872 246.542,22.227 246.935,21.576 247.327,20.926 247.72,20.286 248.112,19.664 248.505,19.071 248.898,18.518 
	249.291,18.018 249.683,17.583 250.076,17.227 250.468,16.961 250.861,16.797 251.253,16.746 251.646,16.814 252.039,17.005 
	252.432,17.321 252.824,17.758 253.217,18.311 253.61,18.967 254.002,19.715 254.395,20.538 254.788,21.42 255.18,22.342 
	255.573,23.287 255.966,24.238 256.358,25.179 256.751,26.096 257.144,26.979 257.536,27.818 257.929,28.606 258.322,29.338 
	258.714,30.012 259.107,30.625 259.5,31.179 259.892,31.673 260.285,32.11 260.678,32.493 261.07,32.823 261.463,33.104 
	261.855,33.338 262.248,33.53 262.641,33.682 263.034,33.796 263.426,33.875 263.819,33.923 264.211,33.939 264.604,33.927 
	264.997,33.887 265.39,33.82 265.782,33.729 266.175,33.612 266.567,33.47 266.96,33.303 267.353,33.111 267.746,32.894 
	268.138,32.65 268.531,32.378 268.923,32.079 269.316,31.749 269.709,31.387 270.102,30.993 270.494,30.563 270.887,30.097 
	271.279,29.591 271.672,29.045 272.065,28.456 272.458,27.822 272.85,27.142 273.243,26.414 273.635,25.639 274.028,24.815 
	274.421,23.945 274.813,23.03 275.206,22.076 275.599,21.087 275.992,20.073 276.384,19.043 276.777,18.014 277.169,17.003 
	277.562,16.03 277.955,15.121 278.348,14.304 278.74,13.607 279.133,13.063 279.525,12.702 279.918,12.551 280.311,12.631 
	280.704,12.958 281.096,13.535 281.489,14.358 281.881,15.409 282.274,16.66 282.667,18.078 283.059,19.62 283.452,21.245 
	283.845,22.91 284.238,24.576 284.63,26.209 285.023,27.783 285.416,29.275 285.808,30.671 286.201,31.963 286.593,33.146 
	286.986,34.221 287.378,35.19 287.405,35.249 287.771,36.06 288.165,36.836 288.557,37.527 288.95,38.142 289.342,38.688 
	289.735,39.175 290.127,39.61 290.52,40.002 290.913,40.357 291.305,40.684 291.698,40.986 292.09,41.271 292.484,41.543 
	292.876,41.809 293.269,42.07 293.662,42.333 294.054,42.599 294.447,42.874 294.839,43.159 295.232,43.458 295.625,43.774 
	296.017,44.11 296.41,44.467 296.802,44.849 297.196,45.258 297.588,45.697 297.981,46.167 298.374,46.67 298.766,47.209 
	299.159,47.786 299.551,48.402 299.944,49.058 300.336,49.755 300.729,50.493 301.122,51.27 301.515,52.086 301.908,52.938 
	302.3,53.819 302.693,54.725 303.085,55.646 303.478,56.572 303.871,57.489 304.263,58.38 304.656,59.228 305.048,60.009 
	305.441,60.701 305.833,61.278 306.227,61.716 306.62,61.991 307.012,62.083 307.405,61.973 "/>
<line fill="none" stroke="#EE00EE" stroke-width="5" stroke-linecap="round" stroke-miterlimit="10" x1="197.459" y1="14.578" x2="197.459" y2="14.578"/>
<path fill="none" stroke="#EE0000" stroke-width="2" stroke-miterlimit="10" d="M47.068,30.736l0.393-0.201 M49.424,29.057
	l0.393-0.392 M47.854,30.302l0.393-0.264 M49.817,28.665l0.393-0.425 M44.712,31.276l0.393-0.008 M49.032,29.417l0.393-0.359
	 M43.142,30.943l0.393,0.14 M48.247,30.039l0.393-0.295 M46.676,30.906l0.393-0.17 M47.461,30.535l0.393-0.232 M50.766,27.575
	l-0.163,0.205 M50.21,28.24l0.393-0.459 M46.283,31.044l0.393-0.139 M56.1,18.512l0.393-0.667 M57.278,16.693l0.393-0.45
	 M50.766,27.575l0.229-0.289 M51.781,26.197l0.393-0.595 M52.173,25.603l0.393-0.627 M53.351,23.632l0.393-0.71l0.393-0.73
	 M52.566,24.975l0.393-0.658 M54.137,22.192l0.393-0.743l0.393-0.75 M54.922,20.699l0.393-0.747 M55.707,19.219l0.393-0.707
	 M56.493,17.844l0.393-0.611 M56.885,17.233l0.393-0.54 M55.314,19.952l0.393-0.733 M51.388,26.759l0.393-0.562 M52.958,24.317
	l0.393-0.686 M57.67,16.243l0.393-0.345 M58.063,15.897l0.393-0.223 M58.456,15.674l0.393-0.088 M58.849,15.586l0.393,0.058
	 M50.995,27.287l0.393-0.527 M60.026,16.221l0.393,0.518 M61.597,19.096l0.393,0.996 M61.99,20.092l0.393,1.065 M62.382,21.158
	l0.393,1.111l0.393,1.133l0.393,1.135 M64.144,26.177l-0.19-0.524 M63.561,24.537l0.393,1.116 M61.205,18.192l0.393,0.904
	 M60.419,16.739l0.393,0.662 M60.812,17.4l0.393,0.792 M45.105,31.268l0.393-0.042l0.393-0.075 M43.535,31.083l0.393,0.102
	 M43.927,31.185l0.393,0.063l0.393,0.027 M42.749,30.762l0.393,0.181 M45.891,31.151l0.393-0.107"/>
<line fill="none" stroke="#000000" stroke-miterlimit="10" x1="32.54" y1="1.303" x2="32.54" y2="15.515"/>
<path fill="none" stroke="#EE0000" stroke-width="2" stroke-miterlimit="10" d="M59.241,15.645l0.393,0.211 M48.639,29.744
	l0.393-0.327 M39.215,27.141l0.393,0.579 M38.43,25.877l0.393,0.648"/>
<path fill="none" stroke="#000000" stroke-miterlimit="10" d="M43.153,0.5H32.54 M32.54,1.303V0.5"/>
<path fill="none" stroke="#EE0000" stroke-width="2" stroke-miterlimit="10" d="M87.513,19.745l0.393-1.293l0.393-1.317l0.393-1.319
	l0.393-1.292l0.393-1.233l0.393-1.133l0.393-0.986l0.393-0.791l0.393-0.545 M91.047,9.835l0.393-0.253 M59.634,15.855l0.393,0.366"
	/>
<line fill="none" stroke="#000000" stroke-miterlimit="10" x1="43.153" y1="0.5" x2="158.351" y2="0.5"/>
<path fill="none" stroke="#EE0000" stroke-width="2" stroke-miterlimit="10" d="M87.491,19.813l0.021-0.068 M94.299,17.958
	l-0.111-0.608 M91.439,9.582l0.393,0.079l0.393,0.438l0.393,0.807l0.393,1.167l0.393,1.497l0.393,1.78l0.393,2.002"/>
<line fill="none" stroke="#EE00EE" stroke-width="5" stroke-linecap="round" stroke-miterlimit="10" x1="272.85" y1="179.497" x2="272.85" y2="179.497"/>
<path fill="none" stroke="#000000" stroke-miterlimit="10" d="M93.147,82.959h-5.354 M160.076,151.675h-12.198"/>
<polyline fill="none" stroke="#BB0000" stroke-width="2" stroke-miterlimit="10" points="121.325,111.89 121.675,111.272 
	122.067,110.521 122.46,109.707 122.853,108.83 123.245,107.886 123.638,106.876 124.031,105.799 124.423,104.658 124.816,103.457 
	125.208,102.204 125.601,100.911 125.994,99.594 126.387,98.275 126.779,96.982 127.172,95.75 127.564,94.617 127.958,93.631 
	128.35,92.84 128.743,92.294 129.135,92.042 129.528,92.121 129.92,92.558 130.313,93.365 130.706,94.531 131.099,96.028 
	131.491,97.808 131.884,99.81 132.276,101.965 132.669,104.206 133.062,106.464 133.455,108.685 133.847,110.822 134.24,112.843 
	134.632,114.724 135.025,116.455 135.418,118.029 135.811,119.45 136.203,120.724 136.596,121.861 136.989,122.872 137.381,123.769 
	137.774,124.566 138.167,125.274 138.559,125.906 138.952,126.473 139.345,126.986 139.737,127.455 140.13,127.886 140.522,128.29 
	140.915,128.671 141.308,129.039 141.701,129.395 142.093,129.746 142.486,130.096 142.878,130.448 143.271,130.805 
	143.664,131.168 144.057,131.542 144.449,131.925 144.842,132.32 145.234,132.725 145.627,133.142 146.02,133.57 146.413,134.006 
	146.805,134.45 147.198,134.899 147.59,135.35 147.983,135.8 148.376,136.245 148.769,136.678 149.161,137.096 149.554,137.492 
	149.946,137.861 150.339,138.195 150.732,138.488 151.125,138.734 151.517,138.925 151.91,139.057 152.302,139.125 152.695,139.124 
	153.088,139.051 153.48,138.907 153.873,138.691 154.266,138.406 154.658,138.055 155.051,137.644 155.444,137.179 155.836,136.669 
	156.229,136.123 156.622,135.547 157.014,134.955 157.407,134.352 157.8,133.75 158.192,133.155 158.585,132.575 158.978,132.016 
	159.371,131.484 159.763,130.983 160.156,130.517 160.548,130.089 160.941,129.7 161.333,129.35 161.727,129.042 162.119,128.774 
	162.512,128.547 162.904,128.36 163.297,128.211 163.689,128.101 164.083,128.028 164.475,127.991 164.868,127.989 165.26,128.021 
	165.653,128.086 166.045,128.184 166.438,128.314 166.831,128.476 167.224,128.669 167.616,128.893 168.009,129.148 
	168.402,129.434 168.794,129.751 169.187,130.099 169.58,130.478 169.972,130.888 170.365,131.329 170.758,131.799 171.15,132.3 
	171.543,132.829 171.936,133.384 172.328,133.965 172.721,134.569 173.114,135.19 173.506,135.827 173.899,136.471 174.292,137.119 
	174.684,137.76 175.077,138.387 175.47,138.99 175.862,139.557 176.255,140.076 176.647,140.533 177.04,140.917 177.433,141.212 
	177.826,141.411 178.218,141.499 178.611,141.469 179.003,141.318 179.396,141.041 179.789,140.64 180.182,140.123 180.574,139.496 
	180.967,138.773 181.359,137.969 181.752,137.101 182.145,136.186 182.538,135.243 182.93,134.29 183.323,133.34 183.715,132.412 
	184.108,131.513 184.501,130.657 184.894,129.85 185.286,129.097 185.679,128.402 186.071,127.767 186.464,127.193 186.857,126.678 
	187.25,126.222 187.642,125.822 188.035,125.474 188.427,125.177 188.82,124.927 189.213,124.721 189.605,124.556 189.998,124.429 
	190.391,124.337 190.784,124.279 191.176,124.252 191.569,124.254 191.961,124.285 192.354,124.341 192.747,124.423 193.14,124.531 
	193.532,124.664 193.925,124.821 194.317,125.002 194.71,125.209 195.103,125.443 195.496,125.703 195.888,125.991 196.281,126.308 
	196.673,126.656 197.066,127.037 197.459,127.452 "/>
<path fill="none" stroke="#000000" stroke-miterlimit="10" d="M134.56,82.959H93.147 M255.426,151.675h-95.35"/>
<line fill="none" stroke="#000000" stroke-width="2" stroke-miterlimit="10" x1="197.459" y1="112.733" x2="197.459" y2="118.719"/>
<text transform="matrix(1 0 0 1 207.4131 110.4326)" font-family="'STIXGeneral-Italic'" font-size="15">τ</text>
<line fill="none" stroke="#000000" stroke-width="2" stroke-miterlimit="10" x1="197.459" y1="90.32" x2="197.459" y2="112.733"/>
<line fill="none" stroke="#000000" stroke-width="2" stroke-miterlimit="10" x1="197.459" y1="118.719" x2="197.459" y2="190.056"/>
<path fill="none" stroke="#000000" stroke-miterlimit="10" d="M125.73,69.216h-8.574 M284.302,165.419H279.6 M307.405,179.435v1.792
	 M148.383,82.959h-12.026 M261.649,151.675h-6.223"/>
<path fill="none" stroke="#000000" stroke-miterlimit="10" d="M284.302,165.419h23.103 M307.405,179.435v-14.016 M186.131,82.959
	h-37.748 M291.88,151.675h-30.231"/>
<line fill="none" stroke="#000000" stroke-width="2" stroke-miterlimit="10" x1="197.459" y1="88.285" x2="197.459" y2="90.32"/>
<path fill="none" stroke="#000000" stroke-miterlimit="10" d="M192.822,82.959h-6.69 M180.855,69.216h-15.874"/>
<path fill="none" stroke="#000000" stroke-miterlimit="10" d="M257.43,82.959h-64.608 M307.405,127.438v24.237 M291.88,151.675
	h15.524"/>
<line fill="none" stroke="#000000" stroke-miterlimit="10" x1="307.405" y1="126.493" x2="307.405" y2="127.438"/>
<line fill="none" stroke="#000000" stroke-miterlimit="10" x1="307.405" y1="125.06" x2="307.405" y2="126.493"/>
<line fill="none" stroke="#000000" stroke-miterlimit="10" x1="307.405" y1="123.741" x2="307.405" y2="125.06"/>
<line fill="none" stroke="#000000" stroke-miterlimit="10" x1="307.405" y1="122.542" x2="307.405" y2="123.741"/>
<line fill="none" stroke="#000000" stroke-miterlimit="10" x1="307.405" y1="121.46" x2="307.405" y2="122.542"/>
<line fill="none" stroke="#000000" stroke-miterlimit="10" x1="307.405" y1="120.494" x2="307.405" y2="121.46"/>
<line fill="none" stroke="#000000" stroke-miterlimit="10" x1="307.405" y1="119.634" x2="307.405" y2="120.494"/>
<line fill="none" stroke="#000000" stroke-miterlimit="10" x1="307.405" y1="114.794" x2="307.405" y2="119.634"/>
<line fill="none" stroke="#000000" stroke-miterlimit="10" x1="307.405" y1="114.794" x2="307.405" y2="91.418"/>
<polyline fill="none" stroke="#BB0000" stroke-miterlimit="10" stroke-dasharray="6" points="197.459,127.452 197.852,127.903 
	198.244,128.392 198.637,128.921 199.029,129.493 199.422,130.108 199.815,130.769 200.208,131.478 200.6,132.235 200.993,133.04 
	201.385,133.892 201.778,134.79 202.171,135.731 202.563,136.708 202.956,137.716 203.349,138.745 203.741,139.78 204.134,140.805 
	204.527,141.802 204.919,142.747 205.312,143.611 205.705,144.367 206.097,144.984 206.49,145.429 206.883,145.676 207.275,145.698 
	207.668,145.477 208.061,145.005 208.453,144.283 208.846,143.323 209.239,142.147 209.631,140.789 210.024,139.287 
	210.417,137.684 210.809,136.023 211.202,134.345 211.595,132.686 211.987,131.078 212.38,129.542 212.772,128.098 212.941,127.522 
	213.166,126.756 213.558,125.522 213.951,124.398 214.343,123.381 214.481,123.06 214.736,122.467 215.128,121.65 215.521,120.922 
	215.914,120.274 216.307,119.698 216.699,119.185 217.092,118.727 217.485,118.315 217.877,117.944 218.27,117.604 218.663,117.291 
	219.055,116.997 219.448,116.717 219.84,116.447 220.233,116.183 220.626,115.918 221.019,115.651 221.411,115.377 221.804,115.093 
	222.197,114.796 222.589,114.484 222.982,114.153 223.375,113.801 223.767,113.425 224.16,113.023 224.553,112.592 224.945,112.131 
	225.338,111.637 225.73,111.107 226.123,110.541 226.516,109.937 226.837,109.41 226.909,109.292 227.301,108.608 227.694,107.883 
	228.086,107.119 228.479,106.316 228.872,105.478 229.265,104.609 229.657,103.714 230.05,102.803 230.442,101.885 230.835,100.973 
	231.228,100.083 231.621,99.232 232.013,98.442 232.406,97.735 232.798,97.137 233.191,96.67 233.584,96.361 233.977,96.229 
	234.369,96.291 234.762,96.559 235.154,97.037 235.547,97.72 235.94,98.597 236.333,99.646 236.725,100.84 237.118,102.148 
	237.51,103.537 237.903,104.972 238.296,106.42 238.688,107.853 239.081,109.246 239.474,110.578 239.866,111.836 240.259,113.01 
	240.652,114.093 241.044,115.084 241.437,115.982 241.83,116.791 242.222,117.515 242.615,118.16 243.008,118.732 243.4,119.239 
	243.793,119.687 244.186,120.082 244.579,120.431 244.971,120.741 245.364,121.018 245.756,121.266 246.149,121.49 246.542,121.696 
	246.935,121.888 247.327,122.068 247.72,122.241 248.112,122.409 248.505,122.576 248.898,122.743 249.291,122.915 249.683,123.091 
	250.076,123.277 250.468,123.471 250.861,123.678 251.253,123.9 251.646,124.137 252.039,124.392 252.432,124.668 252.824,124.967 
	253.217,125.291 253.61,125.641 254.002,126.021 254.395,126.434 254.788,126.881 255.18,127.368 255.573,127.894 255.809,128.236 
	255.966,128.464 256.358,129.082 256.751,129.748 257.144,130.466 257.536,131.24 257.929,132.07 258.322,132.957 258.714,133.902 
	259.107,134.904 259.5,135.958 259.892,137.062 260.285,138.207 260.678,139.38 261.07,140.568 261.463,141.75 261.855,142.904 
	262.248,143.999 262.641,145 263.034,145.871 263.426,146.571 263.819,147.058 264.211,147.296 264.604,147.253 264.997,146.907 
	265.39,146.248 265.782,145.281 266.175,144.029 266.567,142.526 266.96,140.82 267.353,138.964 267.746,137.017 267.925,136.109 
	268.138,135.032 268.531,133.058 268.923,131.139 269.316,129.305 269.709,127.581 270.102,125.981 270.494,124.512 
	270.887,123.177 271.279,121.972 271.672,120.892 272.065,119.926 272.458,119.066 272.85,118.301 273.243,117.62 273.635,117.012 
	274.028,116.466 274.421,115.974 274.813,115.525 275.206,115.112 275.599,114.727 275.992,114.362 276.384,114.012 276.777,113.67 
	277.169,113.332 277.562,112.993 277.955,112.649 278.348,112.296 278.74,111.931 279.133,111.552 279.525,111.155 279.918,110.739 
	280.311,110.302 280.704,109.842 281.096,109.359 281.489,108.852 281.881,108.32 282.274,107.764 282.667,107.185 283.059,106.584 
	283.39,106.064 283.452,105.966 283.845,105.332 284.238,104.686 284.63,104.035 285.023,103.386 285.416,102.745 285.808,102.124 
	286.201,101.53 286.593,100.978 286.986,100.477 287.378,100.042 287.771,99.686 288.165,99.42 288.557,99.257 288.95,99.206 
	289.342,99.273 289.735,99.465 290.127,99.781 290.52,100.218 290.913,100.77 291.305,101.426 291.698,102.174 292.09,102.998 
	292.484,103.879 292.876,104.802 293.269,105.747 293.662,106.697 294.054,107.638 294.447,108.556 294.839,109.438 
	295.232,110.277 295.625,111.065 296.017,111.797 296.41,112.471 296.802,113.085 297.196,113.638 297.588,114.133 297.981,114.57 
	298.374,114.952 298.766,115.282 299.159,115.563 299.551,115.797 299.944,115.989 300.336,116.141 300.729,116.255 
	301.122,116.335 301.515,116.382 301.908,116.398 302.3,116.386 302.693,116.346 303.085,116.28 303.478,116.188 303.871,116.071 
	304.263,115.929 304.656,115.762 305.048,115.57 305.441,115.353 305.833,115.109 306.227,114.838 306.62,114.538 307.012,114.208 
	307.405,113.847 "/>
<line fill="none" stroke="#000000" stroke-miterlimit="10" x1="257.43" y1="82.959" x2="307.405" y2="82.959"/>
<line fill="none" stroke="#000000" stroke-width="2" stroke-miterlimit="10" x1="197.459" y1="88.285" x2="197.459" y2="38.83"/>
<path fill="none" stroke="#000000" stroke-miterlimit="10" d="M307.405,91.418v-8.458 M276.937,69.216h-34.949"/>
<line fill="none" stroke="#EE00EE" stroke-width="5" stroke-linecap="round" stroke-miterlimit="10" x1="235.154" y1="97.037" x2="235.154" y2="97.037"/>
<line fill="none" stroke="#0000C0" stroke-miterlimit="10" x1="235.154" y1="97.037" x2="197.066" y2="97.037"/>
<line fill="none" stroke="#0000C0" stroke-miterlimit="10" x1="272.85" y1="179.497" x2="197.066" y2="179.497"/>
<polyline fill="none" stroke="#000000" stroke-miterlimit="10" points="364.486,114.749 344.486,83.822 344.486,98.333 
	321.986,98.333 321.986,99.285 321.986,130.2 344.486,130.2 344.486,144.709 364.486,113.783 "/>
</svg>
