<?xml version="1.0" encoding="utf-8"?>
<!-- Generator: Adobe Illustrator 15.0.0, SVG Export Plug-In . SVG Version: 6.00 Build 0)  -->
<!DOCTYPE svg PUBLIC "-//W3C//DTD SVG 1.1//EN" "http://www.w3.org/Graphics/SVG/1.1/DTD/svg11.dtd">
<svg version="1.1" id="Layer_1" xmlns="http://www.w3.org/2000/svg" xmlns:xlink="http://www.w3.org/1999/xlink" x="0px" y="0px"
	 width="557.559px" height="301.807px" viewBox="0 0 557.559 301.807" enable-background="new 0 0 557.559 301.807"
	 xml:space="preserve">
<path fill="none" stroke="#000000" stroke-width="2" stroke-miterlimit="10" d="M129.346,195.636l0.774-2.612 M140.4,155.695
	l1.227-3.617l1.229-3.236 M131.947,186.466l1.66-6.207 M133.607,180.259l1.524-5.8 M135.131,174.459l1.416-5.362 M130.121,193.023
	l1.827-6.558 M136.547,169.097l1.334-4.911l1.277-4.462l1.242-4.028 M142.856,148.841l1.25-2.889 M144.749,144.665l-0.643,1.287
	 M131.207,148.016l-0.6,1.402 M128.109,157.636l0.636-2.446l0.622-2.167l0.617-1.915l0.623-1.688 M123.251,179.356l1.011-4.521
	 M124.262,174.834l0.907-4.156l0.822-3.787l0.754-3.426l0.702-3.078l0.662-2.751 M104.816,155.068l-1.241,0.12 M120.835,189.428
	l1.28-5.197 M100.729,155.652l-1.625,0.34 M122.116,184.23l1.135-4.874 M120.72,189.861l0.115-0.434 M111.404,183.626l0.049-0.285
	 M99.103,155.991l-1.775,0.408 M111.993,179.7l0.412-3.351 M94.791,157.036l0.601-0.157 M112.699,173.298l0.188-2.759
	 M112.892,163.934l-0.165-1.691 M112.977,168.067v-2.196 M112.727,162.241l-0.24-1.467 M106.977,155.071l-1.029-0.044
	 M112.487,160.775l-0.314-1.257 M105.948,155.027l-1.131,0.041 M111.788,158.452l-0.457-0.893 M107.911,155.205l-0.934-0.135
	 M110.8,156.828l-0.604-0.59 M111.454,183.341l0.54-3.641 M109.516,155.779l-0.761-0.341 M112.405,176.351l0.294-3.053
	 M110.196,156.239l-0.68-0.46 M108.755,155.438l-0.844-0.232 M111.331,157.561l-0.53-0.731 M112.887,170.539l0.09-2.473
	 M112.976,165.87l-0.084-1.938 M112.173,159.519l-0.386-1.065 M104.461,178.979l0.001-0.067 M104.462,178.91l-0.075-2.51
	 M103.575,155.188l-1.359,0.196 M102.216,155.385l-1.487,0.268 M84.664,164.583l1.82-0.379 M100.521,165.508l-1.018-0.733
	 M98.363,164.209l-1.266-0.406 M104.388,176.401l-0.201-2.255 M97.097,163.803l-1.398-0.259 M103.866,172.142l-0.439-1.764
	 M95.699,163.544l-1.537-0.119 M102.873,168.845l-0.668-1.313 M94.162,163.425l-1.682,0.012 M101.42,166.422l-0.899-0.914
	 M92.48,163.437l-1.835,0.138 M102.204,167.531l-0.784-1.108 M99.503,164.774l-1.14-0.564 M103.427,170.378l-0.554-1.533
	 M90.645,163.573l-1.996,0.258 M88.649,163.831l-2.165,0.373 M104.187,174.146l-0.321-2.005 M93.667,171.754l-1.19-0.798
	 M80.007,169.996l-2.426,0.444 M92.477,170.956l-1.331-0.616 M94.551,172.581l-0.884-0.827 M84.353,169.518l-2.089,0.17
	 M88.053,169.616l-1.772-0.124 M86.281,169.492l-1.928,0.024 M89.673,169.896l-1.62-0.279 M82.263,169.688l-2.256,0.31
	 M76.469,170.689l1.112-0.248 M91.146,170.34l-1.473-0.443 M77.294,175.963l-2.133,0.166 M83.624,176.662l-0.827-0.256
	 M66.98,177.761l0.896-0.248 M82.796,176.406l-1.686-0.311 M81.11,176.097l-1.834-0.146 M79.276,175.951l-1.982,0.012
	 M75.161,176.129l-2.282,0.313 M72.879,176.443l-2.429,0.464 M70.45,176.906l-2.574,0.605 M61.568,181.793l-0.541,0.425
	 M60.049,182.955l-0.074,0.024 M59.086,183.681l1.941-1.463 M62.468,182.142l1.018-0.927 M60.049,182.955l1.729-0.582
	 M62.419,182.186l0.048-0.044 M62.527,182.153l-0.749,0.221 M62.419,182.186l-0.862,0.783l-1.959,1.685 M58.627,185.457l0.015-0.056
	 M59.099,183.634l-0.457,1.769 M59.086,183.681l-0.23,0.174 M58.419,185.63l1.179-0.978 M58.627,185.457l-0.158,0.602
	 M66.641,178.013l-1.263,1.353 M65.378,179.365l-1.892,1.851 M62.527,182.153l1.8-0.526 M74.465,180.084l-1.113,0.005
	 M73.352,180.089l-2.066,0.162 M71.286,180.251l-2.197,0.312 M69.089,180.562l-2.322,0.459 M66.767,181.021l-2.44,0.604
	 M58.297,186.123l0.584-0.22 M129.346,195.636l-1.251,4.22 M126.169,205.823l1.925-5.968 M117.74,200.595l1.645-5.692
	 M120.72,189.861l-1.335,5.041 M115.834,206.536l0.041-0.113 M115.875,206.423l1.865-5.828 M111.404,183.626l-0.632,3.635
	 M107.726,200.406l1.198-4.573 M108.924,195.832l1.01-4.396 M109.934,191.436l0.838-4.175 M107.358,201.634l0.368-1.229
	 M104.461,178.979l-0.055,2.697 M101.951,198.506l0.744-3.379 M103.365,191.44l0.501-3.485 M103.866,187.954l0.344-3.262
	 M104.209,184.693l0.196-3.018 M102.695,195.127l0.669-3.688 M98.044,191.269l0.211-2.93 M98.255,188.339l0.055-2.726
	 M98.311,185.614l-0.095-2.51 M94.551,172.581l0.171,0.159 M97.976,180.82l-0.38-2.057 M97.596,178.764l-0.517-1.832
	 M98.215,183.104l-0.24-2.284 M96.427,175.321l-0.786-1.395 M95.641,173.927l-0.919-1.187 M97.079,176.932l-0.652-1.609
	 M88.087,179.384l-1.107-1.018 M83.624,176.662l0.712,0.222 M97.418,195.885l0.25-1.5 M97.668,194.385l0.375-3.116 M91.792,191.893
	l-0.083-2.353l-0.236-2.174 M85.729,177.535l-1.394-0.651 M89.874,181.991l-0.822-1.4l-0.965-1.207 M91.473,187.366l-0.387-1.986
	 M90.553,183.588l-0.679-1.597 M86.979,178.366l-1.25-0.831 M91.77,192.618l0.022-0.727 M91.086,185.38l-0.534-1.792
	 M86.944,189.147l-0.528-1.688 M86.417,187.458l-0.672-1.516 M81.633,181.646l-1.379-0.64 M80.254,181.006l-1.518-0.471
	 M85.744,185.943l-0.816-1.339 M78.736,180.535l-1.657-0.309 M87.102,189.918l-0.158-0.771 M84.928,184.604l-0.958-1.162
	 M82.872,182.457l-1.239-0.812 M77.079,180.228l-1.795-0.146 M74.465,180.084l0.818-0.004 M83.97,183.442l-1.099-0.984
	 M79.294,185.402l-1.244-0.72 M110.954,218.985l0.425-0.891 M111.379,218.095l2.384-5.802 M115.834,206.536l-2.071,5.757
	 M104.694,209.841l1.627-4.744 M107.358,201.634l-1.037,3.463 M104.014,211.558l0.68-1.717 M101.951,198.506l-0.105,0.476
	 M99.611,206.844l1.194-3.884l1.042-3.979 M95.916,202.888l0.478-1.819 M96.394,201.068l0.728-3.405 M97.418,195.885l-0.297,1.777
	 M91.477,197.073l0.239-2.664 M91.77,192.618l-0.054,1.791 M91.343,197.992l0.134-0.919 M87.589,193.975l-0.034-0.955
	 M87.555,193.02l-0.23-2.016 M87.102,189.918l0.223,1.086 M81.379,187.327l-0.975-1.044 M91.323,198.125l0.02-0.133 M87.589,193.975
	l0.043,1.209 M87,201.829l0.313-1.941 M87.313,199.888l0.24-2.409 M87.553,197.479l0.08-2.295 M83.91,193.203l0.253,1.689
	 M84.079,201.024l0.181-2.146 M84.259,198.879l0.027-2.05 M84.286,196.829l-0.123-1.937 M83.373,204.937l0.37-1.691l0.336-2.221
	 M72.805,212.831l0.808-1.43 M83.91,193.203l-0.018-0.118 M83.892,193.085l-0.416-1.668 M73.53,183.477l-1.761-0.092 M71.77,183.385
	l-1.882,0.058 M82.218,188.532l-0.838-1.205 M69.887,183.442l-2,0.206 M80.405,186.283l-1.111-0.882 M67.888,183.648L65.778,184
	 M76.673,184.123l-1.507-0.401 M65.778,184l-2.212,0.494 M78.05,184.683l-1.377-0.56 M75.166,183.722l-1.636-0.245 M82.917,189.897
	l-0.699-1.364 M63.566,184.494l-2.303,0.636 M61.263,185.13l-2.382,0.773 M83.476,191.417l-0.559-1.521 M71.299,192.994
	l-1.066-0.499 M74.507,196.173l-0.637-0.966 M65.04,191.729l-1.5,0.115 M75.148,197.585l-0.119-0.342 M63.54,191.845l-1.564,0.236
	 M73.122,194.353l-0.858-0.737 M61.976,192.081l-1.619,0.354 M70.233,192.495l-1.165-0.376 M60.356,192.437l-1.662,0.476
	 M67.811,191.866l-1.345-0.131 M58.694,192.911l-1.691,0.589 M69.069,192.119l-1.258-0.253 M66.466,191.736l-1.426-0.007
	 M72.264,193.615l-0.964-0.62 M56.436,193.733l0.567-0.232 M75.03,197.243l-0.522-1.07 M73.871,195.207l-0.749-0.854
	 M56.424,193.778l-0.577,2.226 M63.879,197.12l-1.023-0.043 M75.917,202.699l0.015-0.288 M75.932,202.411l-0.044-1.404
	 M75.888,201.007l-0.167-1.337 M75.722,199.67l-0.287-1.259 M75.148,197.585l0.287,0.826 M67.368,198.203l-0.771-0.405
	 M75.917,202.699l-0.063,1.17 M71.884,214.19l0.921-1.358 M73.613,211.402l0.691-1.479 M74.305,209.922l0.571-1.512 M74.876,208.41
	l0.449-1.524 M75.325,206.886l0.326-1.52 M75.651,205.366l0.202-1.497 M65.822,219.358l1.377-0.77 M63.463,220.258l0.924-0.284
	 M70.855,215.462l1.029-1.271 M67.199,218.589l1.305-0.913 M69.726,216.629l1.129-1.167 M64.387,219.974l1.435-0.615
	 M68.004,212.088l0.62-0.92 M68.063,198.694l-0.695-0.49 M70.561,204.146l-0.088-0.95 M70.473,203.195l-0.18-0.904 M69.165,210.204
	l0.457-0.997 M70.293,202.29l-0.271-0.854 M69.99,208.19l0.28-1.025 M70.022,201.437l-0.361-0.792 M70.459,206.14l0.097-1.01
	 M69.661,200.645l-0.448-0.725 M70.271,207.164l0.189-1.024 M70.557,205.13l0.004-0.984 M69.621,209.207l0.369-1.018 M69.213,199.92
	l-0.534-0.652 M68.679,199.268l-0.616-0.573 M69.115,210.292l0.05-0.088 M67.025,206.095l-0.011-0.666 M65.297,210.714l0.427-0.603
	 M59.536,197.505l-1.162,0.325 M58.375,197.83l-1.172,0.414 M60.676,197.271l-1.14,0.234 M64.848,197.255l-0.969-0.135
	 M61.786,197.128l-1.11,0.143 M57.202,198.244l-1.172,0.5 M55.07,199.229l0.96-0.483 M62.856,197.077l-1.07,0.051 M54.937,199.812
	l-0.334,1.641 M56.538,201.925l-0.781,0.438 M66.408,208.82l0.251-0.676 M66.597,197.798l-0.842-0.317 M65.755,197.48l-0.908-0.226
	 M59.75,200.794l-0.8,0.186 M58.95,200.979l-0.807,0.251 M66.095,209.479l0.312-0.659 M57.336,201.546l-0.798,0.379 M66.847,207.46
	l0.123-0.687 M58.143,201.23l-0.807,0.315 M67.015,205.429l-0.078-0.645 M66.791,204.168l-0.211-0.583 M65.724,210.112l0.371-0.633
	 M66.303,203.042l-0.34-0.498 M55.756,202.364l-0.755,0.495 M65.562,202.095l-0.46-0.395 M54.292,203.402l0.71-0.543
	 M64.584,201.364l-0.569-0.276 M63.398,200.873l-0.662-0.149 M62.035,200.641l-0.735-0.017 M60.536,200.676l-0.785,0.118
	 M66.969,206.774l0.056-0.68 M66.58,203.585l-0.277-0.543 M65.101,201.7l-0.517-0.338 M62.736,200.724l-0.701-0.083 M66.659,208.145
	l0.188-0.685 M61.299,200.624l-0.764,0.052 M66.937,204.784l-0.146-0.616 M64.016,201.087l-0.618-0.214 M65.963,202.544
	l-0.401-0.449 M54.08,206.681l0.071,1.037 M54.151,207.718l0.148,0.946 M54.299,208.664l0.223,0.858 M54.522,209.523l0.295,0.775
	 M56.086,212.134l0.533,0.449 M56.619,212.583l0.577,0.368 M57.196,212.951l0.613,0.285 M63.729,212.25l0.566-0.461l0.525-0.515
	 M62.493,212.989l0.633-0.338 M59.117,213.565l0.679,0.041 M64.82,211.275l0.478-0.562 M63.126,212.651l0.603-0.4 M57.809,213.237
	l0.643,0.205 M60.48,213.567l0.683-0.117 M61.836,213.255l0.657-0.267 M69.115,210.292l-0.491,0.876 M59.796,213.606l0.685-0.039
	 M58.452,213.442l0.665,0.123 M55.352,198.004l-0.415,1.808 M55.07,199.229l-0.025,0.014 M61.163,213.449l0.673-0.194
	 M62.93,216.111l0.97-0.45 M67.309,212.952l0.695-0.864 M63.9,215.66l0.931-0.549l0.884-0.639l0.828-0.724 M60.312,216.787
	l0.603-0.082 M60.915,216.705l1.017-0.245l0.999-0.35 M66.544,213.75l0.765-0.798 M68.503,217.676l1.222-1.047 M99.611,206.844
	l-0.052,0.17 M97.584,212.297l0.511-1.215 M98.095,211.082l1.463-4.068 M91.591,214.921l1.446-3.271 M93.037,211.649l1.323-3.539
	 M94.36,208.11l1.116-3.544 M95.916,202.888l-0.44,1.679 M86.309,214.519l1.332-2.897 M87.641,211.62l1.137-2.957 M88.778,208.663
	l0.947-2.973 M89.725,205.691l0.762-2.945 M90.487,202.745l0.582-2.885 M91.323,198.125l-0.254,1.735 M84.244,218.139l0.538-0.826
	 M84.782,217.312l1.527-2.794 M82.305,215.173l1.274-2.481 M83.579,212.691l1.096-2.556 M85.593,207.542l0.744-2.594
	 M80.855,217.543l1.45-2.37 M84.675,210.136l0.918-2.594 M79.23,219.764l1.625-2.221 M86.337,204.948l0.572-2.562 M87,201.829
	l-0.09,0.558 M78.411,220.693l0.819-0.93 M78.342,216.62l1.304-2.085l1.144-2.187 M83.373,204.937l-0.126,0.577 M80.791,212.35
	l0.981-2.253 M82.591,207.808l0.656-2.294 M76.881,218.575l1.461-1.955 M81.772,210.097l0.819-2.289 M71.629,223.374l1.886-1.396
	l1.755-1.606 M75.27,220.37l1.612-1.795 M69.625,224.541l2.004-1.167 M54.817,210.299l0.362,0.692l0.425,0.61 M55.604,211.603
	l0.482,0.531 M58.87,216.878l1.02-0.033 M55.068,216.014l0.886,0.357 M60.312,216.787l-0.421,0.058 M54.013,215.414l0.231,0.159
	 M56.89,216.638l0.976,0.17l1.004,0.07 M54.244,215.573l0.824,0.439 M55.954,216.371l0.937,0.267 M59.877,220.852l1.521-0.129
	 M63.463,220.258l-0.556,0.172 M61.397,220.723l1.509-0.293 M53.979,219.784l0.057,0.025 M58.361,220.819l1.516,0.032
	 M54.036,219.811l1.387,0.48l1.448,0.34 M56.871,220.631l1.491,0.188 M58.519,226.584l2.287,0.104l2.28-0.148l2.246-0.408
	 M53.934,225.615l0.111,0.042l2.21,0.577 M65.332,226.13l2.188-0.667 M56.255,226.235l2.264,0.35 M60.006,228.753l-1.393-0.086
	 M53.918,227.63l2.129,0.597l2.566,0.44 M55.712,230.633l-1.334-0.32 M53.899,230.146l0.479,0.167 M67.52,225.463l2.105-0.922
	 M105.695,229.022l3.002-5.311 M110.954,218.985l-2.257,4.728 M102.354,233.909l3.341-4.888 M100.701,219.166l2.125-4.607
	 M104.014,211.558l-1.188,3.001 M92.661,231.454l2.966-3.755 M95.627,227.699l2.678-4.124 M98.305,223.575l2.396-4.409
	 M89.403,234.767l3.258-3.312 M87.183,229.304l2.683-3.133 M89.866,226.171l2.43-3.455 M92.295,222.716l2.177-3.713 M94.473,219.003
	l1.931-3.901 M97.584,212.297l-1.181,2.805 M74.073,237.6l3.603-1.365 M77.676,236.234l3.399-1.855 M73.696,237.686l0.377-0.086
	 M81.075,234.378l3.174-2.322 M84.25,232.056l2.933-2.752 M69.197,243.029l4.479-0.468 M77.971,241.494l4.071-1.668 M82.042,239.826
	l3.818-2.253l3.543-2.808 M73.676,242.562l4.295-1.066 M92.275,243.604l2.337-1.61l4.049-3.729 M83.118,227.318l2.432-2.676
	 M84.244,218.139l-1.185,1.818 M68.768,227.533l2.362-1.026 M71.129,226.507l2.243-1.31l2.107-1.577 M61.201,228.827l2.575-0.133
	l2.532-0.432 M75.479,223.62l1.956-1.82 M66.308,228.264l2.459-0.729 M78.411,220.693l-0.975,1.106 M81.142,222.409l1.917-2.452
	 M76.75,226.577l2.286-1.949 M60.006,228.753l1.195,0.074 M63.202,231.458l2.914-0.286 M74.296,228.226l2.454-1.647 M66.116,231.172
	l2.84-0.636 M68.956,230.536l2.735-0.985l2.605-1.325 M55.712,230.633l1.581,0.38 M57.293,231.013l2.955,0.389l2.954,0.058
	 M57.529,234.797l3.528,0.511 M61.057,235.308l3.511,0.112 M79.036,224.628l2.106-2.219 M85.549,224.643l2.208-2.959
	 M87.758,221.684l1.983-3.189 M89.741,218.493l1.758-3.363 M91.591,214.921l-0.092,0.209 M77.615,231.642l2.854-1.978
	 M80.469,229.664l2.648-2.347 M71.364,234.382l3.208-1.161 M64.568,235.42l3.449-0.306 M74.572,233.221l3.043-1.579 M54.082,233.925
	l3.448,0.872 M68.018,235.115l3.346-0.732 M58.853,238.184l3.529,0.517l4.003,0.126l3.912-0.362 M73.696,237.686l-3.399,0.777
	 M64.071,242.842l0.512,0.073 M64.583,242.915l4.614,0.113 M92.275,243.604l-2.065,1.423 M71.633,249.591l3.445-0.002l5.333-0.751
	l5.057-1.521l4.743-2.289 M78.852,256.034l4.938-0.346 M83.91,255.662l-0.12,0.026 M54.089,205.544l-0.009,1.137 M53.409,214.983
	l0.083,0.072 M54.013,215.414l-0.521-0.358 M53.979,219.784l-0.887-0.414 M53.934,225.615l-1.257-0.47 M52.533,227.129l1.006,0.395
	 M53.918,227.63l-0.379-0.106 M53.899,230.146l-1.544-0.539 M54.35,202.941l-0.171,1.36 M54.268,203.422l0.014-0.013
	 M54.292,203.402l-0.009,0.008 M54.178,204.302l-0.089,1.242 M52.462,214.076l0.356,0.395 M53.409,214.983l-0.59-0.513
	 M53.092,219.37l-0.363-0.17 M51.699,218.578l1.03,0.622 M50.733,224.282l1.187,0.583 M52.676,225.146l-0.756-0.28 M50.406,226.209
	l0.719,0.367 M52.533,227.129l-1.408-0.553 M52.355,229.606l-0.81-0.282 M50,228.609l1.546,0.715 M54.602,201.451l-0.252,1.489
	 M54.268,203.422l-0.333,0.297 M51.648,212.944l0.098,0.188 M51.746,213.131l0.489,0.694 M52.462,214.076l-0.227-0.251
	 M50.476,217.674l1.045,0.797 M51.699,218.578l-0.179-0.107 M50.733,224.282l-0.821-0.403 M49.068,223.354l0.844,0.525
	 M48.597,225.252l0.246,0.158 M50.406,226.209l-1.563-0.799 M50,228.609l-1.16-0.535 M48.017,227.593l0.823,0.48 M58.469,186.059
	l-0.649,2.462 M57.82,188.521l-0.738,2.777 M57.082,191.298l-0.657,2.479 M56.436,193.733l-0.029,0.014 M55.848,196.003
	l-0.496,2.001 M53.935,203.719l-0.328,0.291l-0.621,0.647 M52.986,204.657l-0.559,0.688 M52.428,205.347l-0.488,0.727
	 M51.648,212.944l-0.291-0.551 M50.979,208.407l-0.132,0.809 M50.892,210.833l0.18,0.792 M50.847,209.216l-0.03,0.812
	 M51.072,211.625l0.286,0.769 M50.817,210.027l0.075,0.807 M50.476,217.674l-0.05-0.038 M49.458,216.709l0.968,0.927
	 M51.531,206.828l-0.322,0.779l-0.23,0.8 M47.656,214l0.297,0.639 M47.954,214.639l0.677,1.066l0.827,1.004 M44.604,219.648
	l0.274,0.333l1.486,1.434 M51.94,206.073l-0.409,0.756 M36.326,200.604l-0.351,0.427l-1.436,2.191 M33.34,205.778l0.085-0.267
	 M34.54,203.222l-1.115,2.29 M45.899,193.904l-1.933,1.827 M32.78,207.538l0.56-1.761 M43.966,195.731l-1.791,1.892 M32.443,209.398
	l0.226-1.51 M32.78,207.538l-0.111,0.351 M42.176,197.622l-1.615,1.953 M32.443,209.398l-0.095,0.634 M40.561,199.575l-1.405,2.018
	 M39.155,201.593l-1.164,2.077 M58.856,183.854l-2.199,1.621l-2.21,1.624 M52.243,188.742l-2.176,1.675 M50.066,190.417
	l-2.124,1.718 M47.942,192.135l-2.043,1.771 M44.34,198.217l0.272-0.333 M58.419,185.63l-0.799,0.661 M57.428,186.448l-0.991,0.369
	 M52.492,188.557l1.457-0.688 M56.437,186.817l-2.488,1.052 M57.62,186.291l-1.985,1.612 M55.634,187.904l-1.977,1.606
	 M57.428,186.448l0.869-0.324 M46.231,196.134l-1.619,1.75 M53.658,189.511l-1.951,1.615 M51.707,191.126l-1.903,1.636
	 M49.804,192.762l-1.833,1.667 M47.97,194.429l-1.739,1.705 M55.296,194.203l-1.704,0.813 M48.684,198.097l-1.496,1.227
	 M53.592,195.018l-1.684,0.923 M51.908,195.94l-1.643,1.027 M43.447,203.522l-0.918,1.551 M50.265,196.968l-1.582,1.129
	 M44.545,202.042l-1.098,1.479 M56.407,193.746l-1.111,0.457 M47.188,199.323L45.8,200.64 M45.8,200.64l-1.255,1.402
	 M41.056,211.145l0.005-1.111 M42.529,205.073l-0.716,1.608 M41.813,206.682l-0.495,1.657l-0.257,1.693 M41.848,201.523l-1.09,1.89
	 M44.34,198.217l-1.197,1.463 M43.143,199.68l-1.294,1.844 M39.287,207.307l-0.336,1.987 M39.106,212.919l-0.204-1.625
	 M38.951,209.294l-0.048,2 M40.758,203.412l-0.862,1.931 M39.896,205.343l-0.609,1.964 M36.513,207.978l-0.265,2.209l0.076,2.228
	 M36.599,213.845l-0.275-1.432 M37.992,203.67l-0.89,2.132l-0.589,2.176 M51.602,201.554l-0.974,0.886 M54.871,199.328l-1.133,0.666
	 M52.643,200.737l-1.041,0.816 M49.736,203.389l-0.795,1.007 M55.045,199.241l-0.174,0.087 M50.628,202.439l-0.892,0.949
	 M48.941,204.396l-0.685,1.059 M53.738,199.994l-1.095,0.742 M48.256,205.453l-0.562,1.1 M46.884,211.202l0.193,1.171l0.357,1.149
	 M47.693,206.553l-0.428,1.136l-0.282,1.16l-0.129,1.175 M47.656,214l-0.222-0.478 M46.854,210.023l0.03,1.18 M41.817,215.165
	l0.772,1.669 M41.056,211.145l-0.002,0.602 M44.604,219.648l-0.99-1.202 M41.054,211.745l0.251,1.718l0.512,1.702 M42.59,216.834
	l1.024,1.611 M39.106,212.919l0.046,0.371l0.553,1.976 M40.368,216.767l-0.663-1.501 M49.068,223.354l-1.018-0.633 M46.364,221.414
	l1.687,1.307 M40.56,217.2l1.147,1.869 M41.707,219.07l1.425,1.782l1.682,1.669 M48.597,225.252l-1.869-1.202 M44.814,222.521
	l1.914,1.528 M43.985,224.912l2.321,1.681 M48.017,227.593l-1.711-1 M40.368,216.767l0.191,0.435 M36.599,213.845l0.153,0.795
	 M40.133,221.085l1.783,1.979 M36.751,214.64l0.783,2.204l1.132,2.157 M30.062,205.271l-0.343,1.027 M38.666,219.001l1.467,2.084
	 M32.348,210.031l-0.045,0.305 M32.741,214.877l-0.389-2.043 M32.303,210.336l0.05,2.498 M29.719,206.298l-0.415,1.243l-0.424,2.728
	 M28.908,211.456l-0.027-1.188 M27.046,202.502l-0.932,1.742 M26.114,204.244l-1.018,2.957 M24.981,207.95l0.115-0.749
	 M41.916,223.065l2.069,1.848 M36.86,222.82l2.149,2.337 M32.741,214.877l0.092,0.481 M39.009,225.156l2.499,2.195 M35.098,220.385
	l1.762,2.436 M41.508,227.353l2.805,2.016 M54.082,233.925l-0.045-0.012 M47.372,231.16l3.26,1.527l3.405,1.226 M32.833,215.359
	l0.917,2.527l1.348,2.498 M29.518,215.899l1.087,2.851 M33.128,222.813l-0.929-1.235 M30.605,218.749l1.594,2.828 M28.908,211.456
	l0.037,1.605 M28.945,213.062l0.573,2.837 M24.742,213.425l0.729,3.219 M24.981,207.95l-0.355,2.317 M26.394,218.867l-0.923-2.225
	 M24.625,210.269l0.117,3.156 M44.312,229.367l3.06,1.793 M46.594,233.902l3.787,1.767 M50.381,235.668l3.938,1.416l4.021,1.023
	 M33.128,222.813l1.15,1.531 M36.809,227.009l2.934,2.514l3.283,2.314 M43.025,231.837l3.568,2.064 M58.853,238.184l-0.513-0.075
	 M50.567,239.421l4.629,1.645 M55.196,241.065l4.697,1.182 M34.278,224.345l2.53,2.664 M31.307,226.308l3.065,3.071 M34.372,229.379
	l3.534,2.908 M28.773,223.128l2.534,3.18 M26.394,218.867l0.425,1.022 M37.906,232.287l3.932,2.684l4.248,2.399 M26.818,219.891
	l1.955,3.237 M19.319,218.14l1.915,3.876l2.693,3.881 M64.071,242.842l-4.178-0.596 M46.086,237.37l4.481,2.051 M58.017,247.523
	l5.791,1.361 M71.633,249.591l-2.112,0.001 M63.808,248.885l5.713,0.707 M36.059,236.958l5.09,3.251 M41.149,240.209l5.432,2.897
	l5.659,2.466 M31.423,233.438l4.635,3.521 M18.913,216.747l0.406,1.393 M52.24,245.573l5.776,1.95 M48.272,248.785l1.863,0.896
	 M78.852,256.034l-1.423,0.1 M50.136,249.683l6.901,2.688 M57.037,252.371l6.924,2.031l6.831,1.28 M70.792,255.684l6.637,0.45
	 M57.402,257.102l4.528,1.661 M61.931,258.763l8.043,2.178 M23.927,225.896l3.421,3.83 M27.349,229.727l4.075,3.711 M36.944,242.736
	l6.446,3.699 M48.272,248.785l-4.882-2.351 M15.838,223.544l1.207,1.885l3.824,4.516l4.672,4.448l5.404,4.295 M30.945,238.688
	l5.999,4.049 M23.879,238.396l6.741,4.915l7.361,4.62l7.792,4.202 M45.774,252.133l8.04,3.652 M13.508,228.693l4.435,4.611
	 M17.943,233.305l5.936,5.091 M12.373,231.202l1.271,1.372l6.251,5.519l7.188,5.388 M27.083,243.48l7.916,5.131 M57.402,257.102
	l-3.589-1.315 M54.341,258.416l-2.189-0.871 M43.424,253.347l8.727,4.198 M69.974,260.94l7.842,1.268 M63.082,261.706l-2.095-0.646
	 M54.341,258.416l6.646,2.646 M77.816,262.207l7.533,0.256 M71.385,264.09l-1.627-0.331 M63.082,261.706l6.676,2.053
	 M34.998,248.611l8.426,4.735 M85.973,262.391l-0.624,0.072 M89.973,265.961l-3.425,0.217 M71.385,264.09l6.934,1.413l8.229,0.675"
	/>
<path fill="none" stroke="#000000" stroke-miterlimit="10" d="M151.39,153.61l1.567-4.768 M148.133,164.73l1.657-5.831
	 M144.534,178.014l1.858-6.906 M142.054,187.089l0.473-1.683 M155.57,141.986l-1.057,2.58"/>
<path fill="none" stroke="#000000" stroke-width="2" stroke-miterlimit="10" d="M98.662,238.264l3.692-4.354 M161.167,140.602
	l-1.374,3.948 M152.867,168.841l1.852-6.974l1.753-6.366l1.683-5.766l1.638-5.187 M150.78,176.797l0.104-0.396 M150.885,176.402
	l1.982-7.562"/>
<path fill="none" stroke="#000000" stroke-width="2" stroke-miterlimit="10" d="M101.661,263.948l6.768-3.015 M89.973,265.961
	l4.379-0.278 M94.352,265.683l7.309-1.734"/>
<line fill="none" stroke="#000000" stroke-width="2" stroke-miterlimit="10" x1="85.973" y1="262.391" x2="92.49" y2="261.631"/>
<line fill="none" stroke="#000000" stroke-width="8" stroke-linecap="round" stroke-miterlimit="10" x1="92.49" y1="261.631" x2="92.49" y2="261.631"/>
<path fill="none" stroke="#000000" stroke-miterlimit="10" d="M111.06,252.274l5.173-5.32 M99.178,259.66l6.197-3.127"/>
<path fill="none" stroke="#000000" stroke-width="2" stroke-miterlimit="10" d="M123.306,213.906l2.529-7.048 M117.299,227.541
	l3.173-6.689 M109.814,239.514l3.941-5.701 M113.755,233.812l3.544-6.271 M100.665,248.686l4.79-4.178l4.36-4.994 M126.169,205.823
	l-0.334,1.035 M120.472,220.852l2.833-6.945 M95.446,251.967l5.219-3.281 M83.91,255.662l5.901-1.356 M89.812,254.306l5.634-2.339"
	/>
<path fill="none" stroke="#000000" stroke-miterlimit="10" d="M120.906,240.684l4.199-7.062 M128.863,225.95l3.358-8.075
	 M135.224,209.602l2.689-8.277 M142.054,187.089l-1.721,6.123"/>
<path fill="none" stroke="#000000" stroke-width="2" stroke-miterlimit="10" d="M108.428,260.934l6.205-4.285 M114.633,256.648
	l5.638-5.496 M120.271,251.152l5.086-6.594 M125.357,244.559l4.563-7.527 M129.92,237.031l4.077-8.259 M133.998,228.772l3.636-8.756
	"/>
<path fill="none" stroke="#000000" stroke-width="2" stroke-miterlimit="10" d="M137.634,220.017l3.243-9.017 M140.877,211
	l2.899-9.052 M143.776,201.948l2.604-8.888 M146.381,193.062l2.355-8.557 M150.78,176.797l-2.044,7.708"/>
<line fill="none" stroke="#000000" stroke-miterlimit="10" x1="120.703" y1="293.115" x2="120.703" y2="293.115"/>
<path fill="none" stroke="#000000" stroke-width="2" stroke-miterlimit="10" d="M146.728,141.075l1.4-2.06 M148.483,138.57
	l-0.355,0.446 M144.749,144.665l0.643-1.289 M145.392,143.376l1.336-2.301 M99.76,154.585l-1.03,0.506l-1.692,0.758l-1.835,0.763
	l-1.991,0.778 M92.98,157.477l0.232-0.087 M133.327,144.413l0.778-0.927 M134.389,143.202l-0.284,0.284 M131.244,147.928
	l0.661-1.315 M131.905,146.612l0.691-1.163 M131.207,148.016l0.038-0.088 M132.596,145.448l0.731-1.035 M97.328,156.4l-1.936,0.479
	 M78.457,161.711l0.07-0.147 M76.728,162.253l0.052-0.115 M76.206,162.417l-3.706,1.16 M59.74,167.783l-4.791,1.679 M54.949,169.462
	l-5.034,1.837l-5.244,2.011 M92.688,157.585l0.292-0.108 M94.791,157.036l-1.509,0.394 M90.985,158.054l-2.499,0.701
	 M88.487,158.755l-2.713,0.781 M85.773,159.536l-2.942,0.866 M92.625,157.608l0.063-0.022 M93.282,157.43l-2.297,0.624
	 M72.5,163.577l-3.978,1.274 M78.453,161.72l0.004-0.009 M82.831,160.403l-3.186,0.958 M44.67,173.31l-5.406,2.198 M37.151,176.43
	l2.113-0.922 M78.449,161.729l0.004-0.009 M79.646,161.361l-3.44,1.057 M63.254,166.594l0.002-0.011 M64.268,166.251l-4.528,1.532
	 M92.625,157.608l-1.571,0.586 M91.054,158.194l-2.338,0.841l-2.532,0.886l-2.737,0.939 M83.446,160.86l-2.956,1.007 M77.94,162.73
	l2.551-0.863 M84.141,164.691l-2.53,0.602 M81.611,165.292l-2.724,0.712 M78.887,166.004l-2.925,0.827 M75.661,166.921l0.301-0.09
	 M84.664,164.583l-0.523,0.107 M78.449,161.729l-0.254,0.533l-1.692,3.111 M36.086,178.783l2.11-1.006 M76.253,163.304l1.053-0.358
	 M77.94,162.73l-0.633,0.215 M76.035,163.788l0.693-1.535 M76.253,163.304l-2.369,0.806 M73.884,164.109l-3.667,1.259
	 M70.217,165.367l-3.917,1.361 M62.952,167.919l3.348-1.189 M62.428,170.132l0.407-1.72 M63.254,166.594l-0.419,1.818
	 M62.952,167.919l-0.815,0.289l-4.404,1.605 M57.733,169.814l-4.628,1.747 M48.278,173.462l-4.987,2.066 M43.291,175.529
	l-5.095,2.249 M53.104,171.562l-4.826,1.9 M45.443,178.051l-4.468,2.083 M74.457,167.284l1.054-0.317 M76.035,163.788l-0.202,0.447
	 M74.383,167.062l1.449-2.825 M62.137,171.358l0.053-0.02 M65.942,170.022l-3.753,1.316 M74.243,167.349l0.214-0.063
	 M74.186,167.445l-1.678,2.873 M74.235,167.351l0.148-0.289 M74.243,167.349l-1.412,0.425 M74.235,167.351l-0.049,0.095
	 M72.831,167.773l-3.34,1.062l-3.549,1.187 M62.428,170.132l-0.789,3.329 M33.765,183.914l2.728-1.517 M54.117,174.389l-4.278,1.75
	l-4.396,1.912 M61.208,175.223l0.431-1.762 M58.242,172.792l-4.125,1.597 M40.975,180.134l-4.481,2.265 M62.137,171.358
	l-3.895,1.435 M71.584,171.709l0.924-1.392 M76.503,165.373l-1.736,2.788l-1.787,2.513 M75.511,166.967l0.15-0.046 M72.354,171.448
	l0.625-0.774 M66.135,173.554l-3.289,1.114 M59.401,175.92l-3.585,1.396 M55.816,177.315l-3.703,1.542 M52.114,178.857l-3.792,1.695
	 M48.322,180.553l-3.843,1.854 M44.479,182.407l-3.847,2.019 M40.632,184.426l-3.794,2.188 M36.838,186.615l-3.674,2.365
	 M30.635,190.832l2.529-1.853 M37.367,191.559l-2.855,2.234 M60.952,175.356l-1.551,0.563 M40.394,189.479l-3.027,2.08
	 M34.512,193.793l-2.619,2.391 M31.893,196.184l-2.317,2.542 M71.468,171.884l0.116-0.175 M72.183,171.66l0.171-0.212
	 M69.257,172.576l-3.123,0.978 M29.575,198.726l-1.948,2.689 M27.046,202.502l0.581-1.087 M61.219,175.26l1.627-0.592
	 M71.419,171.958l0.049-0.074 M72.1,171.763l-2.843,0.813 M71.419,171.958l-0.627,0.943l-1.76,2.343 M60.082,179.776l0.464-1.845
	 M61.197,175.268l0.022-0.008 M61.208,175.223l-0.662,2.709 M61.197,175.268l-0.245,0.089 M56.3,181.369l-3.143,1.322
	 M53.157,182.692l-3.198,1.472 M49.958,184.163l-3.22,1.62 M46.739,185.783l-3.204,1.771 M43.535,187.555l-3.142,1.924
	 M33.613,199.411l1.52-1.758 M60.037,179.954l2.286-0.801 M66.154,177.99l-0.989,0.272l-2.842,0.892 M67.266,176.99l-2.026,1.82
	 M66.154,177.99l0.109-0.03 M60.082,179.776l-0.533,2.115 M60.037,179.954l-0.675,0.234l-3.062,1.181 M59.2,183.241l0.349-1.351
	 M59.975,182.98l-0.841,0.283 M56.41,184.296l-2.784,1.174 M45.187,189.844l-2.729,1.742 M59.2,183.241l-0.102,0.393
	 M42.458,191.586l-2.618,1.884 M47.983,188.243l-2.796,1.601 M59.134,183.264l-2.724,1.032 M50.808,186.785l-2.825,1.458
	 M39.839,193.47l-2.458,2.023 M37.381,195.493l-2.248,2.16 M53.626,185.47l-2.818,1.315 M61.568,181.793l1.59-1.248 M65.24,178.811
	l-2.082,1.734 M66.263,177.959l0.028-0.008 M69.231,175.049l-1.966,1.94 M68.766,175.56l0.266-0.314 M66.291,177.951l0.4-0.11
	 M71.136,172.956l-1.904,2.093 M66.841,177.799l0.386-0.413 M68.766,175.56l-1.539,1.826 M66.69,177.841l0.29-0.08 M66.841,177.799
	l-0.2,0.214 M72.183,171.66l-1.047,1.296 M72.1,171.763l0.107-0.03 M76.469,170.689l-1.487,0.331 M74.982,171.021l-2.775,0.712
	 M48.936,190.376l-2.468,1.455 M33.613,199.411l-0.464,0.536 M33.148,199.948l-1.666,2.419 M31.482,202.366l-1.297,2.535
	 M39.64,196.979l-1.95,1.967 M46.468,191.831l-2.397,1.587 M44.07,193.418l-2.29,1.718 M41.781,195.136l-2.141,1.844
	 M52.492,188.557l-1.052,0.498 M51.439,189.055l-2.504,1.321 M36.326,200.604l1.364-1.656 M30.062,205.271l0.123-0.368
	 M54.447,187.1l-2.205,1.644 M288.168,200.163l-1.613,1.946l-2.313,4.688 M283.54,211.607l0.7-4.811"/>
<path fill="none" stroke="#000000" stroke-miterlimit="10" d="M155.57,141.986l0.51-1.243 M158.831,135.168l-1.158,2.16"/>
<path fill="none" stroke="#000000" stroke-width="2" stroke-miterlimit="10" d="M148.483,138.57l1.121-1.405 M132.757,105.61
	l-0.686,3.922 M137.17,87.741l-1.386,4.701 M154.994,27.277l-3.044-0.221 M151.95,27.056l-7.53,0.624 M130.841,32.858l-5.994,4.604
	 M144.42,27.68l-7.049,1.917 M124.847,37.461l-5.455,5.877 M119.393,43.338l-4.929,7.019l-4.428,7.969 M120.831,45.164l-4.756,6.924
	 M137.372,29.596l-6.531,3.262 M144.981,29.233l-6.804,2.068 M126.093,39.311l-5.263,5.854 M116.074,52.088l-4.276,7.808
	 M138.177,31.301l-6.302,3.364 M154.623,28.535l-2.369-0.112 M131.875,34.665l-5.782,4.646 M152.254,28.422l-7.272,0.811
	 M111.798,59.896l-3.83,8.463l-3.425,8.873l-3.065,9.039 M144.306,53.25l-3.759,4.255 M140.547,57.504l-3.414,4.851 M148.382,49.708
	l-4.076,3.542 M114.094,133.079l-0.795,2.862l-0.781,2.551 M112.518,138.492l-0.778,2.264 M111.739,140.756l-0.788,2.006
	 M124.682,91.35l-1.728,5.885 M122.954,97.235l-1.535,5.674 M128.824,79.313l-2.194,6.027 M126.63,85.34l-1.948,6.009
	 M118.826,113.361l-1.105,4.699 M117.721,118.06l-1.007,4.319 M114.917,129.876l-0.824,3.202 M116.714,122.378l-0.928,3.937
	 M115.786,126.315l-0.868,3.562 M121.419,102.908l-1.368,5.392 M120.051,108.3l-1.225,5.061 M110.951,142.762l-0.809,1.777
	 M110.143,144.539l-0.84,1.575 M109.302,146.115l-0.881,1.399 M104.292,151.848l-1.231,0.87l-1.331,0.82 M108.421,147.515
	l-0.932,1.252 M107.489,148.767l-0.993,1.125 M106.497,149.892l-1.062,1.021l-1.142,0.936 M137.133,62.355l-3.08,5.335l-2.763,5.696
	l-2.466,5.926 M98.726,95.253l-2.483,8.734l-2.258,8.34 M93.985,112.327l-2.074,7.836l-1.927,7.265 M79.346,159.844l0.507-1.062
	 M88.171,134.088l-1.731,6.052 M86.44,140.141l-1.675,5.459 M89.984,127.427l-1.813,6.661 M83.122,150.497l-1.631,4.378
	 M81.49,154.875l-1.637,3.905 M84.765,145.6l-1.643,4.897 M101.478,86.271l-2.751,8.982 M110.036,58.326l-3.963,8.683l-3.54,9.139
	l-3.164,9.337l-2.834,9.297l-2.552,9.053 M93.983,103.833l-2.314,8.648 M101.73,153.538l-1.44,0.786 M91.669,112.483l-2.118,8.13
	 M89.551,120.613l-1.961,7.539 M79.346,159.844l-0.819,1.72 M82.326,146.996l-1.639,5.072 M85.752,135.062l-1.746,6.276
	 M84.007,141.338l-1.681,5.658 M87.59,128.151l-1.837,6.91 M79.07,156.601l-1.613,4.038 M76.779,162.138l0.677-1.499
	 M80.688,152.069L79.07,156.6 M92.975,53.026L88.56,64.764 M99.76,154.585l0.53-0.261 M70.855,132.253l-1.939,8.867l-1.749,8.009
	 M67.168,149.129l-1.583,7.183 M65.584,156.312l-1.438,6.407 M63.256,166.583l0.89-3.864 M88.56,64.764l-3.905,12.094l-3.454,12.097
	l-3.057,11.792l-2.713,11.248l-2.416,10.536l-2.16,9.724 M68.522,164.853l-4.254,1.398 M164.031,133.459l-1.011,2.301
	 M161.167,140.602l0.242-0.695l1.611-4.146"/>
<line fill="none" stroke="#000000" stroke-miterlimit="10" x1="158.831" y1="135.168" x2="159.309" y2="134.279"/>
<path fill="none" stroke="#000000" stroke-width="2" stroke-miterlimit="10" d="M130.415,126.964l0.044,1.928 M135.452,137.843
	l0.889,0.077l0.979-0.003 M138.773,82.99l-1.603,4.752 M130.57,122.313l-0.12,2.463 M132.071,109.531l-0.549,3.64 M134.646,137.68
	l0.805,0.163 M131.096,116.516l-0.314,3.047 M133.92,137.424l0.727,0.256 M133.594,101.43l-0.837,4.18 M133.267,137.064l0.653,0.359
	 M142.694,73.664l-2.085,4.604 M132.685,136.591l0.583,0.474 M130.45,124.776l-0.035,2.188 M132.17,135.991l0.515,0.6
	 M130.782,119.563l-0.212,2.75 M131.721,135.251l0.449,0.74 M131.522,113.171l-0.426,3.345 M131.337,134.357l0.384,0.896
	 M135.784,92.443l-1.187,4.583 M131.018,133.291l0.319,1.065 M134.597,97.025l-1.003,4.404 M130.764,132.037l0.254,1.254
	 M140.609,78.268l-1.836,4.722 M130.577,130.577l0.187,1.46 M143.63,71.913l-0.936,1.751 M130.459,128.892l0.118,1.686
	 M137.656,137.893l-0.337,0.024 M228.231,104.033l4.23-3.436 M235.102,99.434l1.571-1.532 M237.99,96.108l-1.317,1.794
	 M223.485,107.209l4.746-3.176 M235.102,99.434l-2.224,2.169 M231.799,102.43l1.079-0.826 M218.389,110.139l5.096-2.93
	 M231.799,102.43l-3.397,2.602 M228.303,105.093l0.099-0.062 M213.09,112.835l5.299-2.697 M228.303,105.093l-4.873,3.099
	 M219.903,110.128l3.526-1.938 M202.364,117.591l5.351-2.277 M219.903,110.128l-1.771,0.973 M215.821,112.23l2.312-1.129
	 M187.176,123.355l4.866-1.758l5.077-1.917 M197.119,119.681l5.245-2.089 M215.821,112.23l-3.161,1.544 M204.406,117.348l2.73-1.122
	l5.523-2.452 M180.552,125.646l1.999-0.677 M182.551,124.968l4.625-1.613 M204.406,117.348l-2.741,1.125 M196.325,120.531
	l5.34-2.059 M152.442,134.761l2.409-0.781 M137.846,140.523l1.134-0.63l1.231-0.609 M135.834,141.889l0.966-0.704 M136.8,141.185
	l1.045-0.661 M140.21,139.284l1.338-0.602 M134.389,143.202l0.549-0.552 M143.003,138.081l1.583-0.611 M134.938,142.651l0.896-0.763
	 M146.31,136.839l1.875-0.656 M165.364,130.627l0.033-0.067 M180.552,125.646l-2.369,0.804 M166.682,130.204l3.569-1.148
	l3.833-1.249 M174.083,127.807l4.101-1.358 M191.174,122.414l5.151-1.883 M163.369,131.262l3.313-1.058 M157.466,133.141
	l2.835-0.902 M160.301,132.239l3.067-0.978 M150.224,135.493l2.218-0.732 M141.548,138.683l1.455-0.602 M144.586,137.469l1.723-0.63
	 M148.185,136.183l2.04-0.689 M154.851,133.979l2.615-0.838 M177.198,127.147l4.392-1.438 M181.589,125.709l4.664-1.574l4.921-1.722
	 M165.685,130.75l3.564-1.092 M169.249,129.658l3.836-1.198 M165.234,130.886l0.451-0.136 M173.084,128.46l4.113-1.313
	 M164.031,133.459l0.612-1.396 M165.364,130.627l-0.72,1.438 M151.691,135.004l-0.522,0.48 M155.767,133.683l0.75-0.214l2.814-0.819
	 M159.331,132.649l3.052-0.903 M165.234,130.886l-2.851,0.859 M149.604,137.164l1.566-1.679"/>
<line fill="none" stroke="#000000" stroke-miterlimit="10" x1="140.632" y1="105.026" x2="140.346" y2="108.181"/>
<path fill="none" stroke="#000000" stroke-width="2" stroke-miterlimit="10" d="M155.767,133.683l-1.842,0.526 M151.938,134.777
	l-0.246,0.228"/>
<path fill="none" stroke="#000000" stroke-miterlimit="10" d="M164.792,126.672l-0.194,0.204 M161,131.549l1.76-2.454"/>
<path fill="none" stroke="#000000" stroke-width="2" stroke-miterlimit="10" d="M163.039,127.516l2.479-1.193 M168.318,125.046
	l-0.156,0.069 M165.519,126.323l2.643-1.207"/>
<path fill="none" stroke="#000000" stroke-miterlimit="10" d="M168.539,122.983l2.114-1.742 M164.792,126.672l1.73-1.821"/>
<path fill="none" stroke="#000000" stroke-width="2" stroke-miterlimit="10" d="M168.584,124.904l1.13-1.724 M170.972,123.879
	l2.98-1.279 M173.952,122.6l3.148-1.336 M177.1,121.264l3.312-1.407 M168.561,124.939l0.023-0.035 M168.318,125.046l2.654-1.167
	 M168.561,124.939l-0.009,0.015 M208.675,105.712l-2.08,1.336 M202.773,109.271l3.822-2.223 M187.486,116.783l3.726-1.691
	 M198.898,111.347l3.875-2.075 M183.879,118.367l3.607-1.584 M191.212,115.092l3.817-1.809l3.869-1.938 M180.412,119.857
	l3.467-1.489 M168.552,124.953l-0.571,0.871 M166.293,128.77l1.687-2.945 M172.969,119.062l-1.468,1.73 M165.397,130.56l0.896-1.791
	 M169.714,123.18l1.787-2.388 M161.725,128.194l1.314-0.678"/>
<path fill="none" stroke="#000000" stroke-miterlimit="10" d="M184.242,112.506l-1.554,0.903 M172.867,119.591l2.314-1.584
	 M177.593,116.464l2.505-1.526"/>
<path fill="none" stroke="#000000" stroke-width="2" stroke-miterlimit="10" d="M194.173,108.249l3.177-1.607l3.15-1.753
	 M200.5,104.889l3.075-1.901 M187.891,111.032l3.118-1.32 M191.009,109.712l3.165-1.463 M203.575,102.988l2.947-2.05l2.76-2.198
	l2.509-2.348 M179.062,114.151l2.835-0.899 M173.346,118.619l1.905-2 M175.25,116.619l1.964-1.861 M172.969,119.062l0.376-0.443"/>
<path fill="none" stroke="#000000" stroke-miterlimit="10" d="M184.556,112.323l-0.314,0.183 M199.06,103.301l2.612-1.951
	 M204.15,99.303l2.295-2.147"/>
<line fill="none" stroke="#000000" stroke-width="2" stroke-miterlimit="10" x1="184.846" y1="112.211" x2="187.891" y2="111.032"/>
<path fill="none" stroke="#000000" stroke-miterlimit="10" d="M184.6,112.298l-0.044,0.025 M193.602,106.937l2.755-1.775"/>
<line fill="none" stroke="#000000" stroke-width="2" stroke-miterlimit="10" x1="181.897" y1="113.25" x2="184.846" y2="112.211"/>
<path fill="none" stroke="#000000" stroke-miterlimit="10" d="M211.734,90.105l1.065-2.538 M208.509,94.904l1.78-2.351
	 M184.6,112.298l0.751-0.438 M188.072,110.275l2.758-1.637"/>
<path fill="none" stroke="#000000" stroke-width="2" stroke-miterlimit="10" d="M157.136,114.357l1.27,0.788 M158.406,115.145
	l1.412,0.611 M138.393,137.84l1.178-0.146 M145.505,136.467l1.841-0.465l2.008-0.53 M139.571,137.695l1.291-0.212 M137.656,137.893
	l0.737-0.052 M140.862,137.483l1.412-0.275 M142.274,137.207l1.544-0.339l1.687-0.401 M150.041,135.285l-0.687,0.187
	 M181.312,111.329l2.12-1.624 M212.914,102.771l-2.616,1.898 M208.675,105.712l1.623-1.043 M209.419,114.528l-1.705,0.786
	 M215.793,91.268l1.361-2.763 M151.957,134.76l-0.414,0.116 M150.041,135.285l1.501-0.409 M151.938,134.777l0.897-0.826
	 M177.365,114.628l-0.569,0.16 M152.835,133.951l1.778-1.419l1.899-1.33 M158.544,129.937l2.172-1.222 M161.725,128.194
	l-1.008,0.521 M156.512,131.201l2.032-1.266 M151.957,134.76l1.969-0.551 M177.215,114.758l2.022-1.754 M179.237,113.004
	l2.075-1.676 M189.938,104.935l2.164-1.612 M192.103,103.323l2.125-1.647 M185.585,108.111l2.175-1.584 M187.76,106.526l2.179-1.591
	 M183.431,109.705l2.154-1.595 M194.228,101.675l2.062-1.691 M177.365,114.628l1.697-0.478 M197.387,99.014l-1.097,0.97
	 M213.984,93.899l1.809-2.631 M218.277,83.009l-0.266,2.613 M211.792,96.392l2.192-2.492"/>
<path fill="none" stroke="#000000" stroke-miterlimit="10" d="M141.67,98.064l-0.601,3.582 M143.402,90.43l-0.958,3.882"/>
<path fill="none" stroke="#000000" stroke-width="2" stroke-miterlimit="10" d="M155.019,112.226l0.989,1.16 M198.26,98.241
	l1.847-1.801 M153.462,109.327l0.708,1.547l0.849,1.352"/>
<path fill="none" stroke="#000000" stroke-miterlimit="10" d="M145.918,82.482l-1.362,3.985 M149.306,74.702l-1.808,3.835"/>
<path fill="none" stroke="#000000" stroke-width="2" stroke-miterlimit="10" d="M153.737,58.203l-3.178,3.256l-2.898,3.713
	 M143.63,71.913l1.412-2.645 M147.661,65.172l-2.62,4.097 M173.677,62.691l-2.64,1.002 M185.04,62.107l-2.898-0.354 M205.201,75.774
	l-1.256-2.094 M182.142,61.752l-2.883-0.028 M179.259,61.724l-2.832,0.312 M171.037,63.694l-2.507,1.341 M166.174,66.696
	l-2.188,1.96 M203.303,92.657l1.283-1.983 M161.975,70.882l-1.825,2.458 M205.616,88.635l0.748-2.089 M206.92,82.258l-0.226-2.172
	 M206.694,80.085l-0.573-2.168 M176.427,62.035l-2.75,0.656 M163.986,68.656l-2.011,2.227 M168.53,65.034l-2.355,1.661
	 M160.15,73.34l-1.636,2.646 M176.796,114.788l-0.444,0.125 M173.778,115.534l2.575-0.622 M154.753,84.618l-0.879,2.956
	 M152.297,96.109l-0.189,2.626 M171.344,116.015l2.434-0.48 M152.896,107.583l0.565,1.743 M169.056,116.353l2.289-0.337
	 M153.175,90.498l-0.524,2.855 M166.915,116.543l2.141-0.19 M157.07,78.781l-1.253,2.892 M159.818,115.756l1.556,0.438l1.7,0.274
	l1.847,0.114l1.994-0.041 M152.651,93.354l-0.354,2.755 M197.387,99.014l0.873-0.772 M153.874,87.574l-0.699,2.924 M156.007,113.386
	l1.129,0.971 M155.817,81.672l-1.064,2.946 M158.514,75.988l-1.444,2.793 M152.077,101.211l0.124,2.308 M152.201,103.519
	l0.274,2.127l0.421,1.938 M152.107,98.735l-0.031,2.477"/>
<path fill="none" stroke="#000000" stroke-miterlimit="10" d="M165.122,57.671l-3.21,1.848 M158.919,61.823l-2.763,2.723
	 M153.632,67.639l-2.283,3.407"/>
<path fill="none" stroke="#000000" stroke-width="2" stroke-miterlimit="10" d="M187.916,62.768l-2.875-0.661 M193.433,64.911
	l-2.706-1.2 M190.728,63.711l-2.812-0.944"/>
<line fill="none" stroke="#000000" stroke-miterlimit="10" x1="172.11" y1="55.423" x2="168.53" y2="56.302"/>
<path fill="none" stroke="#000000" stroke-width="2" stroke-miterlimit="10" d="M195.991,66.336l-2.558-1.425 M206.806,84.416
	l0.114-2.158 M206.121,77.917l-0.92-2.145 M206.364,86.546l0.442-2.13 M203.945,73.68l-1.577-2.021 M202.368,71.659l-1.873-1.917
	 M200.496,69.742l-2.138-1.785 M198.358,67.958l-2.367-1.621"/>
<path fill="none" stroke="#000000" stroke-miterlimit="10" d="M187.393,56.592l-3.874-0.948 M179.647,55.113l-3.818-0.081
	 M201.714,63.728l-3.279-2.193 M194.913,59.581l-3.702-1.662 M207.304,68.66l-2.615-2.542"/>
<path fill="none" stroke="#000000" stroke-width="2" stroke-miterlimit="10" d="M196.058,56.207l-4.426-2.045 M182.482,51.278
	l-4.579-0.729 M200.28,58.577l-4.223-2.371"/>
<line fill="none" stroke="#000000" stroke-miterlimit="10" x1="211.264" y1="74.029" x2="209.508" y2="71.31"/>
<path fill="none" stroke="#000000" stroke-width="2" stroke-miterlimit="10" d="M204.586,90.674l1.03-2.039 M208.582,58.366
	l-0.318-0.242 M213.567,70.14l-2.636-3.092 M191.631,54.161l-4.55-1.662 M214.357,71.333l-0.79-1.193 M204.219,61.212l-3.938-2.635
	 M210.931,67.048l-3.138-2.993 M207.793,64.055l-3.575-2.842"/>
<line fill="none" stroke="#000000" stroke-miterlimit="10" x1="213.331" y1="79.537" x2="212.543" y2="76.782"/>
<path fill="none" stroke="#000000" stroke-width="2" stroke-miterlimit="10" d="M200.107,96.44l1.692-1.86 M201.799,94.58
	l1.504-1.922 M214.357,71.333l1.293,1.952"/>
<line fill="none" stroke="#000000" stroke-miterlimit="10" x1="213.441" y1="84.95" x2="213.626" y2="82.268"/>
<path fill="none" stroke="#000000" stroke-width="2" stroke-miterlimit="10" d="M312.121,242.169l2.095,1.136 M361.483,25.183
	l-4.19,4.043 M357.293,29.226l-3.098,7.66 M12.885,189.892l-4.222,3.668 M2.644,201.783l-1.443,4.556 M15.833,187.805l-2.949,2.087
	 M8.663,193.56l-3.475,3.963 M5.188,197.522l-2.544,4.262 M12.157,194.332l-1.567,1.575 M10.589,195.907l-2.876,3.906
	 M7.713,199.814l-1.974,4.174 M5.155,206.763l0.584-2.773 M1.473,213.3l-0.474-2.123 M1.201,206.339l-0.202,4.838 M103.554,32.077
	l-5.598,9.938 M37.151,176.43l-3.389,1.479 M28.252,180.532l-5.409,2.858 M22.843,183.392l-5.174,3.115 M15.833,187.805l1.835-1.298
	 M33.762,177.909l-5.51,2.623 M36.086,178.783l-3.022,1.439l-5.082,2.657 M12.157,194.332l2.055-2.064 M27.982,182.881l-4.923,2.884
	 M23.059,185.765l-4.638,3.125 M18.42,188.89l-4.208,3.378 M23.771,190.383l-3.666,3.087 M33.765,183.914l-1.693,0.94
	 M32.072,184.855l-4.274,2.658 M27.797,187.514l-4.026,2.869 M5.022,213.081l-0.216-4.661 M5.155,206.763l-0.349,1.657
	 M20.105,193.47l-3.185,3.311l-2.579,3.531 M23.665,197.175l-2.36,3.101 M30.635,190.832l-0.948,0.694 M29.687,191.527l-3.197,2.73
	 M26.49,194.258l-2.825,2.917 M21.305,200.275l-1.804,3.278 M19.501,203.554l-1.163,3.445 M18.913,216.747l-0.708-2.428
	 M18.338,206.999l-0.45,3.598 M17.888,210.597l0.317,3.724 M14.342,200.312l-1.852,3.753 M12.49,204.064l-1.018,3.96
	 M15.838,223.544l-1.679-2.621 M12.265,216.487l1.894,4.437 M11.472,208.024l-0.095,4.151 M11.377,212.176l0.888,4.312
	 M6.455,217.967l2.665,5.038l3.86,5.139 M5.022,213.081v0.009 M5.022,213.09l1.432,4.877 M13.508,228.693l-0.529-0.55
	 M12.373,231.202l-3.859-4.166 M1.473,213.3l0.662,2.97l2.513,5.308l3.866,5.46 M97.956,42.016l-4.981,11.011 M208.369,47.297
	l-5.636-3.4 M168.212,29.289l-8.307-1.656 M154.994,27.277l4.911,0.356 M154.623,28.535l5.32,0.252 M202.733,43.897l-8.545-4.563
	 M194.188,39.333l-8.708-4.05 M207.282,47.393l-5.815-3.459 M185.48,35.283l-8.705-3.396l-8.563-2.598 M184.708,35.749l-8.438-3.167
	 M201.467,43.933l-8.308-4.354 M176.27,32.583l-8.292-2.366 M167.979,30.216l-8.035-1.43 M193.159,39.578l-8.451-3.829
	 M191.941,48.736l-1.084-0.505 M157.639,44.835l-4.776,2.027 M179.312,44.45l-5.703-0.991 M173.61,43.459l-5.553-0.3
	 M185.091,46.066l-5.778-1.615 M148.382,49.708l0.031-0.027 M190.857,48.231l-5.766-2.165 M168.057,43.159l-5.34,0.445
	 M162.716,43.605l-5.078,1.229 M152.862,46.863l-4.45,2.817 M173.408,50.358l-4.36,0.383 M169.048,50.74l-4.179,0.977
	 M225.424,59.381l-6.861-5.34l-7.636-5.199 M208.369,47.297l2.559,1.544 M207.282,47.393l2.171,1.292 M230.506,64.031l-5.082-4.649
	 M216.921,53.709l-7.468-5.025 M228.886,63.6l-5.221-4.705 M223.665,58.896l-6.744-5.186 M191.941,48.736l4.573,2.13
	 M208.264,58.124l-1.195-0.91 M207.068,57.214l-5.113-3.328 M201.955,53.886l-5.441-3.021 M187.081,52.499l-4.599-1.222
	 M177.903,50.549l-4.496-0.191 M164.869,51.717l-3.961,1.579 M160.908,53.295l-3.717,2.171 M237.99,96.108l1.608-2.189
	 M240.241,92.452l-0.643,1.465 M232.461,100.598l3.536-3.703 M240.241,92.452l1.229-2.802 M241.643,88.47l-0.173,1.182
	 M235.997,96.895l2.664-3.975 M241.643,88.47l0.491-3.358 M242.004,84.168l0.129,0.942 M238.661,92.92l1.621-4.245 M242.004,84.168
	l-0.53-3.854 M241.167,79.561l0.307,0.754 M240.282,88.675l0.438-4.505 M241.167,79.561l-1.735-4.268 M239.025,74.671l0.408,0.622
	 M240.72,84.17l-0.847-4.745 M239.025,74.671l-3.007-4.583 M235.526,69.533l0.491,0.555 M239.873,79.426l-2.176-4.953
	 M235.526,69.533l-4.224-4.773 M230.687,64.195l0.616,0.564 M237.697,74.473l-3.489-5.115 M230.687,64.195l-0.18-0.164
	 M234.208,69.358l-4.722-5.217 M228.886,63.6l0.6,0.541 M157.19,55.467l-3.453,2.736 M213.023,61.926l2.842,2.56 M225.239,79.693
	l-1.166-3.752 M222.05,93.711l0.18-0.231 M224.073,75.941l-1.974-3.814 M225.597,83.347l-0.358-3.654 M222.229,93.479l1.8-3.223
	 M225.176,86.875l0.421-3.528 M222.099,72.125l-2.754-3.836 M219.344,68.29l-3.479-3.805 M224.03,90.257l1.146-3.382
	 M218.033,79.566l-0.888-3.127 M213.023,61.926l-1.282-1.154 M208.582,58.366l3.159,2.404 M217.145,76.438l-1.494-3.153
	 M217.021,99.417l2.841-2.883 M222.05,93.711l-2.188,2.823 M212.914,102.771l0.888-0.644l3.219-2.711 M209.419,114.528l3.671-1.692
	 M217.154,88.505l0.857-2.883 M218.277,83.009l0.038-0.373 M218.315,82.636l-0.283-3.07"/>
<path fill="none" stroke="#000000" stroke-width="2" stroke-miterlimit="10" d="M317.293,241.711l0.349,0.217l10.994,5.813
	l12.081,5.584 M340.717,253.325l12.676,5.18l12.754,4.584 M366.146,263.089l12.348,3.79 M349.265,259.779l-13.213-5.553
	 M314.216,243.305l8.663,4.694l13.173,6.228 M382.763,267.916l-4.27-1.037 M382.302,271.14l-4.199-1.149 M349.265,259.779
	l0.787,0.33l14.214,5.329l13.837,4.552 M354.195,36.886l-2.154,11.123 M323.488,194.458l-2.485,2.711 M319.133,217.914l-1.026-1.604
	 M316.727,212.838l1.38,3.472 M318.935,200.028l-1.554,3.007l-0.945,3.146l-0.244,3.273 M323.717,194.25l-0.229,0.208
	 M321.003,197.169l-2.068,2.858 M320.257,190.532l-3.553,2.84 M325.072,187.25l-1,0.624 M316.19,209.453l0.535,3.385
	 M307.566,206.665l-0.342,3.801 M313.528,196.403l-2.673,3.226l-2.033,3.422 M307.226,210.466l0.695,3.969 M309.748,218.548
	l3.019,4.221l4.219,4.28 M317.312,227.311l-0.328-0.262 M308.822,203.05l-1.256,3.615 M307.921,214.435l1.827,4.113
	 M315.977,234.214l-3.255-2.233 M298.348,210.89l-0.027,1.69 M298.318,212.58l1.305,4.6l2.804,4.799l4.37,4.954l5.925,5.048
	 M290.718,218.17l0.3,0.861l3.721,5.472l5.723,5.691 M300.46,230.195l7.689,5.843 M288.925,224.105l-1.039-1.137 M324.072,187.874
	l-3.815,2.658 M316.704,193.372l-3.176,3.03 M317.759,180.82l-6.077,2.83 M327.074,176.914l-3.274,1.313 M323.8,178.229
	l-6.041,2.592 M326.662,179.04l-3.527,1.521 M323.135,180.562l-5.595,2.605 M325.98,182.561l-3.608,1.881 M298.348,210.89
	l0.043-2.682 M299.67,204.081l-1.279,4.127 M317.641,187.146l-4.547,2.916 M313.094,190.062l-4.232,3.143l-3.766,3.378
	 M301.971,200.206l-2.301,3.875 M322.372,184.441l-4.731,2.705 M305.096,196.582l-3.125,3.624 M293.355,200.077l-2.731,4.267
	 M290.624,204.344l-1.467,4.586l0.056,4.9 M306.621,189.104l-5.03,3.366 M301.591,192.47l-4.497,3.652l-3.738,3.955 M317.54,183.167
	l-5.548,2.842l-5.371,3.095 M288.168,200.163l1.977-2.388 M311.682,183.65l-5.981,3.091l-5.726,3.369l-5.266,3.673l-4.564,3.993
	 M290.718,218.17l-1.505-4.34 M283.54,211.607l-0.034,0.234l1.137,5.396 M284.643,217.24l3.243,5.729 M314.821,240.177l-6.672-4.14
	 M312.121,242.169l-1.021-0.553 M288.925,224.105l4.464,4.886l7.781,6.246l9.93,6.38"/>
<path fill="none" stroke="#000000" stroke-width="2" stroke-miterlimit="10" d="M359.092,255.133l10.404,3.28 M369.496,258.413
	l9.971,2.477 M315.977,234.214l4.121,2.828 M338.339,246.782l10.245,4.422 M348.584,251.204l10.508,3.929 M383.669,261.582
	l-4.202-0.692 M328.729,242.016l9.609,4.768 M317.293,241.711l-2.472-1.534"/>
<line fill="none" stroke="#000000" stroke-width="2" stroke-miterlimit="10" x1="320.098" y1="237.042" x2="328.729" y2="242.016"/>
<path fill="none" stroke="#000000" stroke-width="2" stroke-miterlimit="10" d="M375.944,245.137l5.757-0.154 M384.748,254.035
	l-0.121,0.005 M352.314,246.694l8.473,2.877l8.354,2.26l8.009,1.523l7.479,0.687 M317.312,227.311l5.04,4.017l6.41,4.198
	 M343.979,243.316l8.336,3.378"/>
<line fill="none" stroke="#000000" stroke-width="2" stroke-miterlimit="10" x1="336.045" y1="239.557" x2="343.979" y2="243.316"/>
<path fill="none" stroke="#000000" stroke-width="2" stroke-miterlimit="10" d="M379.672,238.898l-2.941,0.511 M371.724,239.569
	l5.007-0.16 M332.296,230.305l5.465,3.253 M356.724,241.557l6.601,1.795l6.456,1.221 M330.463,228.996l1.833,1.309 M337.761,233.558
	l6.004,3.017 M386.155,244.198l-4.454,0.784 M369.779,244.571l6.165,0.565 M350.145,239.268l6.579,2.289 M328.764,235.525
	l7.281,4.031"/>
<line fill="none" stroke="#000000" stroke-width="2" stroke-miterlimit="10" x1="343.765" y1="236.573" x2="350.145" y2="239.268"/>
<path fill="none" stroke="#000000" stroke-width="2" stroke-miterlimit="10" d="M360.131,237.915l0.824,0.22 M360.955,238.135
	l5.478,0.993 M366.433,239.128l5.291,0.44 M341.566,230.894l3.077,1.586 M344.645,232.479l5.283,2.266"/>
<path fill="none" stroke="#000000" stroke-width="2" stroke-miterlimit="10" d="M379.946,226.341l2.627-2.079 M382.573,224.262
	l2.312-2.508 M384.886,221.754l1.994-2.902 M386.88,218.852l1.683-3.253 M386.144,210.485l-0.643,1.779 M372.074,229.498
	l1.733-0.358l3.209-1.17l2.93-1.629 M373.095,225.233l2.709-1.274 M375.804,223.958l2.47-1.658 M380.483,220.271l1.941-2.372
	 M382.426,217.899l1.672-2.684 M384.098,215.216l1.403-2.951 M378.272,222.3l2.211-2.028 M372.042,225.553l1.053-0.319
	 M375.855,219.786l1.988-1.799 M388.909,192.091l-0.131-3.209 M386.144,210.485l0.501-1.389 M386.645,209.097l0.895-3.329
	 M387.538,205.768l0.658-3.428 M388.196,202.34l0.438-3.463 M388.634,198.877l0.232-3.438 M388.866,195.44l0.043-3.35
	 M383.479,208.195l0.836-2.901 M373.648,221.27l2.207-1.482 M385.35,199.283l0.227-3.003 M385.575,196.281l0.046-2.936
	 M381.129,213.543l1.29-2.582 M377.845,217.989l1.761-2.092 M385.606,193.011l0.015,0.335 M382.419,210.961l1.06-2.767
	 M384.934,202.305l0.416-3.021 M379.604,215.897l1.524-2.354 M372.014,222.054l1.636-0.784 M384.312,205.293l0.62-2.988
	 M372.4,211.021l1.113-1.52 M396.847,169.453l-0.41-1.538 M395.918,166.465l0.52,1.45 M392.48,183.637l-0.219-1.923
	 M386.277,167.558l-1.265-0.758 M383.651,166.304l-1.462-0.26 M391.749,178.691l-0.641-2.696 M391.108,175.994l-0.758-2.357
	 M392.263,181.714l-0.514-3.022 M389.484,171.623l-0.971-1.675 M388.515,169.948l-1.068-1.35 M387.445,168.6l-1.168-1.042
	 M390.352,173.637l-0.866-2.014 M388.762,188.708l-0.273-2.847l-0.438-2.793 M385.014,166.8l-1.361-0.496 M386.772,178.275
	l-0.82-1.97 M388.049,183.069l-0.575-2.534 M387.474,180.534l-0.7-2.26 M383.667,172.937l0.31,0.301 M385.952,176.306l-0.935-1.678
	 M385.019,174.628l-1.042-1.392 M385.499,190.525l-0.277-2.666 M380.624,165.996l-1.672,0.142 M378.952,166.138l-1.783,0.312
	 M377.169,166.448l-1.897,0.463 M371.57,168.076l1.681-0.566 M375.271,166.911l-2.021,0.599 M378.771,170.309l-1.562-0.158
	 M371.593,170.846l0.289-0.075 M377.21,170.15l-1.667,0.036 M381.58,171.277l-1.354-0.6 M380.228,170.678l-1.456-0.369
	 M382.83,172.125l-1.25-0.849 M375.543,170.187l-1.775,0.212 M373.768,170.398l-1.886,0.372 M383.667,172.937l-0.837-0.812
	 M378.407,174.664l-1.35-0.571 M382.746,179.307l-0.922-1.531 M374.054,173.574l-1.655,0.022 M371.616,173.685l0.781-0.087
	 M381.824,177.775l-1.033-1.279 M385.606,193.011l-0.107-2.485 M379.651,175.461l-1.244-0.797 M385.222,187.859l-0.424-2.478
	 M380.791,176.495l-1.14-1.034 M377.059,174.093l-1.45-0.358 M384.798,185.382l-0.559-2.264l-0.688-2.029 M383.553,181.089
	l-0.807-1.782 M375.607,173.734l-1.555-0.159 M376.474,191.215l-0.447-1.557 M371.927,211.533l0.475-0.514 M375.463,188.236
	l-0.673-1.274 M374.79,186.961l-0.777-1.121 M376.449,202.312l0.354-1.938 M374.013,185.84l-0.879-0.961 M377.01,198.435
	l0.065-1.911 M373.134,184.879l-0.976-0.798 M377.004,194.667l-0.202-1.776 M371.699,183.809l0.459,0.272 M376.025,189.658
	l-0.562-1.423 M375.289,206.077l0.657-1.854 M376.802,192.891l-0.328-1.676 M373.515,209.501l0.964-1.656 M377.075,196.523
	l-0.071-1.855 M374.479,207.845l0.812-1.768 M375.946,204.224l0.503-1.911 M376.803,200.373l0.207-1.938 M371.396,146.83
	l0.088,10.77 M371.499,161.362l-0.015-3.763 M369.002,162.183l-0.027-3.41 M368.722,134.425l0.128,12.994l0.125,11.354
	 M371.516,161.355l-0.781,0.258 M368.849,162.233l1.886-0.619 M371.507,163.378l0.025-0.01 M371.507,163.384l0.025-0.007
	 M371.499,161.362l0.01,2.54 M369.017,164.102l-0.015-1.919 M371.507,163.384l-2.648,0.764 M369.017,164.102l0.002,0.266
	 M371.507,163.378l-0.812,0.326 M368.858,164.43l1.835-0.726 M369.019,164.366l0.007,0.726 M369.723,75.535l-0.67,14.569
	l-0.317,15.09 M368.734,105.195l-0.078,14.979 M370.716,63.844l-0.993,11.69 M368.656,120.174l0.064,14.251 M350.894,168.147
	l-0.398-14.245 M367.345,162.728l-3.665,1.203 M363.68,163.931l-3.954,1.305 M368.849,162.233l-1.504,0.494 M350.895,168.194
	l-0.001-0.047 M350.822,168.22l0.088-0.03 M359.726,165.235l-4.254,1.415l-4.562,1.539 M350.895,168.194l0.031,1.116
	 M368.857,164.147l-0.357,0.104 M350.941,169.842l2.489-0.847 M368.5,164.25l-3.367,1.007 M361.504,166.378l-3.897,1.244
	 M357.605,167.622l-4.175,1.373 M365.133,165.257l-3.629,1.121 M350.926,169.311l0.007,0.225 M350.992,171.422l-0.061-1.888
	 M350.941,169.842l-0.081,0.027 M368.858,164.43l-1.091,0.432 M361.287,167.399l-3.569,1.396 M367.769,164.861l-3.134,1.229
	 M364.635,166.091l-3.348,1.309 M357.718,168.796l-3.792,1.494 M350.993,171.462l2.933-1.172 M350.992,171.422l0.072,2.269
	 M350.993,171.462l-0.096,0.038 M349.789,117.097l0.299,19.063 M352.041,48.009l-1.363,14.262 M350.678,62.271l-0.729,16.839
	 M349.949,79.11l-0.248,18.61 M349.701,97.72l0.088,19.377 M350.088,136.16l0.406,17.741 M350.822,168.22l-4.782,1.646
	 M346.04,169.865l-5.17,1.825 M340.87,171.69l-5.454,1.991 M335.416,173.682l-5.706,2.174 M327.074,176.914l2.636-1.06
	 M334.073,175.99l-5.401,2.185 M326.662,179.04l2.01-0.866 M350.86,169.869l-1.879,0.639 M348.981,170.508l-4.722,1.662
	 M344.261,172.17l-4.978,1.823 M339.283,173.993l-5.21,1.996 M341.277,175.466l-4.586,1.995 M349.915,171.893l-4.222,1.722
	 M345.693,173.614l-4.416,1.853 M336.691,177.461l-4.717,2.151 M331.976,179.614l-4.796,2.321 M350.897,171.5l-0.982,0.393
	 M325.98,182.561l1.198-0.625 M344.159,176.997l-3.942,1.887 M371.514,165.131l-0.005-1.229 M369.033,166.158l-0.009-1.066
	 M371.546,165.117l-1.352,0.56 M370.194,165.677l-2.658,1.109 M351.065,173.704l-0.001-0.015 M367.536,166.786l-2.827,1.188
	 M351.066,173.74l-0.001-0.036 M364.709,167.974l-3.001,1.27 M351.067,173.777l-0.001-0.036 M361.708,169.242l-3.176,1.354
	 M351.068,173.814l-0.001-0.037 M358.532,170.596l-3.352,1.445 M347.981,175.233l-3.822,1.765 M351.069,173.844l-0.001-0.029
	 M355.182,172.041l-3.521,1.543 M371.508,168.097l0.062-0.021 M371.487,170.874l0.104-0.028 M371.475,172.563l0.045-5.955
	 M371.514,165.131l0.006,1.478 M369.035,166.422l0.015,1.855 M369.049,168.934l0.001-0.655 M366.426,170.011l-2.541,1.045
	 M371.508,168.097l-0.4,0.136 M351.158,176.635l-0.007-0.218 M363.885,171.056l-2.676,1.144l-2.81,1.239 M351.161,176.735
	l-0.003-0.101 M358.399,173.438l-2.938,1.339 M369.049,168.983v-0.05 M371.106,168.232l-2.274,0.836l-2.406,0.942 M369.049,168.983
	l-0.005,2.567 M369.884,171.291l-2.111,0.654 M363.202,173.625l-2.454,1.011 M371.487,170.874l-1.604,0.417 M369.044,171.551
	l-0.003,1.965 M367.771,171.946l-2.229,0.78 M365.544,172.727l-2.342,0.898 M360.748,174.636l-2.563,1.12 M358.185,175.756
	l-2.665,1.225 M355.52,176.98l-2.759,1.331 M351.236,179.083l0.044,1.383 M352.761,178.312l-2.839,1.438l-2.899,1.543l-2.94,1.651
	 M351.236,179.083l-0.014-0.408 M342.438,183.926l1.645-0.982 M351.164,176.798l-0.003-0.062 M355.461,174.777l-3.061,1.438
	 M351.164,176.818l0.06,1.856 M352.4,176.216l-3.169,1.543 M351.164,176.818v-0.021 M349.231,177.759l-3.262,1.651 M345.971,179.41
	l-3.33,1.764 M330.733,188.505l1.845-1.302 M335.902,185.064l-3.324,2.14 M342.641,181.174l-3.368,1.883 M369.035,166.422
	l-0.002-0.264 M351.151,176.417l-0.015-0.431 M339.271,183.057l-3.369,2.008 M351.069,173.85v-0.006 M351.661,173.584l-3.68,1.648
	 M351.069,173.85l0.067,2.139 M325.072,187.25l2.979-1.86 M340.217,178.884l-4.028,2.021l-4.073,2.164l-4.062,2.319 M362.58,176.044
	l-2.261,0.885 M360.319,176.929l-2.352,1 M357.969,177.929l-2.434,1.112 M371.236,180.208l0.062-0.831 M371.466,173.701l0.15-0.018
	 M371.475,172.563l-0.01,1.271 M371.465,173.833l-0.167,5.544 M369.04,173.97l0.001-0.454 M371.466,173.701l-0.827,0.092
	 M366.812,174.645l-2.066,0.637l-2.165,0.764 M369.04,174.078v-0.108 M368.776,174.146l-1.966,0.499 M369.076,174.089l1.562-0.296
	 M368.93,180.912l0.107-5.015 M369.04,174.096l0.036-0.007 M369.04,174.078l-0.003,1.819 M369.04,174.096l-0.264,0.05
	 M355.535,179.041l-2.505,1.221 M351.298,181.159l1.732-0.897 M351.28,180.466l0.066,2.108 M351.476,186.246l-0.128-3.672
	 M347.864,183.024l-2.622,1.541 M336.278,190.89l1.27-1.053 M340.05,187.972l-2.502,1.865 M345.242,184.565l-2.616,1.648
	 M351.298,181.159l-0.83,0.431l-2.604,1.435 M342.626,186.214l-2.576,1.758 M342.438,183.926l-1.31,0.782l-2.931,1.881l-2.866,1.998
	l-2.754,2.12 M331.418,191.711l1.159-1.004 M330.354,188.772l0.38-0.268 M361.312,183.24l-1.671,0.51 M371.001,183.409l0.235-3.201
	 M371.089,183.445l-1.158-0.475 M369.093,182.757l0.838,0.214 M371.699,183.809l-0.61-0.363 M371.001,183.409l-0.002,0.021
	 M370.593,186.026l0.406-2.596 M368.585,186.549l0.074-0.554 M368.93,180.912l-0.018,0.824 M368.856,182.675l0.056-0.938
	 M368.686,182.653l-1.325-0.163 M367.359,182.49l-1.406-0.02 M365.953,182.471l-1.479,0.124 M364.474,182.595l-1.549,0.258
	 M362.925,182.853l-1.612,0.389 M351.492,186.727l-0.018-0.479 M359.643,183.75l-1.719,0.628 M351.505,187.078l-0.013-0.353
	 M357.924,184.378l-1.759,0.74 M368.855,182.696l0.001-0.021 M369.093,182.757l-0.407-0.104 M368.855,182.696l-0.196,3.3
	 M361.013,188.52l-0.887-0.107 M351.552,188.423l-0.03-0.896 M360.126,188.411l-1.802-0.101l-1.9,0.031 M351.562,188.775
	l-0.012-0.353 M356.424,188.343l-1.985,0.177 M351.573,189.039l0.806-0.188 M354.438,188.52l-2.059,0.332 M351.562,188.775
	l0.076,2.185 M347.858,189.902l1.122-0.791 M351.573,189.039l-1.309,0.304 M350.266,189.343l-2.147,0.653 M347.268,190.316
	l0.851-0.319 M347.858,189.902l-0.634,0.446 M347.226,190.349l-1.696,1.326 M347.268,190.316l-0.319,0.12 M352.574,186.916
	l-1.806,1.05l-1.788,1.146 M351.521,187.528l-0.003-0.056 M354.378,185.965l-1.804,0.951 M351.519,187.473l-0.005-0.148
	 M356.165,185.118l-1.787,0.847 M351.514,187.323l-0.009-0.245 M344.996,192.14l0.532-0.465 M346.947,190.437l-0.99,0.374
	 M345.052,191.221l0.905-0.41 M360.148,188.744l-1.216,0.315 M370.593,186.026l-0.032,0.206 M370.561,186.232l-0.586,1.797
	 M369.975,188.029l-0.733,1.029 M369.039,189.166l0.201-0.107 M368.457,187.505l0.128-0.956 M370.853,194.34l-0.364-1.042
	 M371.927,211.533l-0.786,0.851 M366.59,215.374l1.633-0.802 M368.223,214.573l1.521-1 M369.744,213.573l1.396-1.188
	 M359.348,216.543l1.87,0.01 M361.218,216.553l1.849-0.188 M358.252,216.427l1.096,0.116 M363.065,216.365l1.799-0.394
	 M364.864,215.972l1.726-0.598 M366.378,209.242l0.942-0.833 M358.252,216.427l-0.771-0.083 M365.357,209.961l1.021-0.719
	 M347.72,192.298l-1.887,0.76 M367.32,208.409l0.854-0.938 M368.938,206.44l0.663-1.11 M369.602,205.329l0.562-1.178
	 M370.162,204.152l0.454-1.227 M370.616,202.926l0.349-1.26 M370.965,201.666l0.241-1.275 M371.206,200.391l0.135-1.274
	 M371.341,199.115l0.029-1.26 M362.508,207.777l0.744-0.459 M371.37,197.856l-0.073-1.225 M363.955,206.788l0.652-0.597
	 M371.297,196.632l-0.173-1.177 M365.204,205.535l0.536-0.713 M371.124,195.455l-0.271-1.115 M366.211,204.063l0.4-0.799
	 M368.625,189.387l0.414-0.221 M368.297,188.698l0.16-1.193 M370.487,193.298l-0.456-0.958 M369.985,192.266l0.046,0.074
	 M366.939,202.436l0.255-0.849 M363.568,188.412l-1.097,0.005 M368.272,188.883l0.023-0.185 M364.61,188.517l-1.042-0.104
	 M361.196,188.542l-0.185-0.022 M362.473,188.417l-1.142,0.11 M361.233,188.546l-0.037-0.004 M361.331,188.528l-1.183,0.217
	 M368.045,189.696l-0.004,0.016 M368.625,189.387l-0.27,0.145 M368.272,188.883l-0.007,0.041 M368.086,189.555l0.181-0.631
	 M367.521,189.604l0.834-0.073 M368.086,189.555l-0.041,0.143 M367.593,189.656l-0.221-0.156 M365.596,188.731l-0.984-0.215
	 M367.372,189.499l-0.854-0.439 M366.518,189.06l-0.922-0.328 M367.521,189.604l-0.196,0.019 M366.15,189.476l-1.313-0.27
	 M364.837,189.206l-1.446-0.309 M363.391,188.898l-1.572-0.279 M361.233,188.546l0.584,0.072 M367.325,189.622l-1.175-0.146
	 M369.985,192.266l-0.497-0.79 M369.488,191.476l-0.627-0.766 M367.051,191.844l-0.824,0.468 M368.188,190.081l0.675,0.629
	 M367.731,190.789l-0.682,1.055 M367.988,189.895l0.053-0.184 M368.188,190.081l-0.032-0.031 M367.979,189.927l0.177,0.123
	 M367.988,189.895l-0.257,0.896 M367.979,189.927l-0.386-0.271 M366.227,192.312l-0.964,0.068 M365.263,192.38l-1.099-0.18
	 M363.271,191.976l0.894,0.226 M365.661,194.105l-0.525-0.469 M367.373,200.728l0.103-0.858 M367.329,197.388l-0.196-0.762
	 M367.502,199.019l-0.05-0.83 M366.865,195.909l-0.336-0.663l-0.402-0.604 M360.924,208.479l0.805-0.312 M366.127,194.643
	l-0.466-0.537 M361.729,208.165l0.779-0.389 M358.934,189.061l-1.239,0.413 M357.327,189.621l0.366-0.147 M363.271,191.976
	l-0.335-0.084 M362.938,191.892l-1.35-0.349 M360.828,191.376l0.76,0.167 M364.554,193.242l-0.635-0.317 M363.252,207.318
	l0.703-0.529 M362.507,192.523l-0.768-0.081 M360.938,192.441l-0.832,0.077 M359.25,192.672l-0.872,0.229 M357.497,193.205
	l-0.884,0.374 M367.452,198.188l-0.123-0.801 M367.133,196.626l-0.268-0.717 M365.136,193.637l-0.582-0.395 M361.739,192.442
	l-0.804-0.001 M363.919,192.925l-0.684-0.24 M363.235,192.685l-0.729-0.161 M358.378,192.902l-0.881,0.304 M364.607,206.192
	l0.597-0.656 M360.104,192.519l-0.854,0.153 M365.74,204.823l0.471-0.76 M367.194,201.587l0.179-0.859 M366.611,203.265l0.328-0.829
	 M367.476,199.868l0.026-0.851 M354.028,195.096l-0.811,0.626l-0.768,0.68 M352.27,208.014l-0.074-2.108 M351.86,197.003
	l0.131,3.536 M351.991,200.539l0.203,5.364 M352.451,196.401l-0.716,0.729l-0.653,0.772l-0.582,0.813 M351.86,197.003l-0.018-0.434
	 M350.5,198.717l-0.499,0.848 M355.734,194.021l-0.864,0.507 M354.87,194.527l-0.842,0.568 M351.844,196.57l-0.021-0.581
	 M350.001,199.564l-0.409,0.875l-0.308,0.897l-0.199,0.912l-0.085,0.92 M353.512,208.406l0.559,0.158l0.618,0.152 M350.312,207.391
	l-0.263-0.402 M349.158,204.774l-0.121-0.686 M349,203.169l0.037,0.92 M356.613,193.579l-0.879,0.44 M351.648,191.214l-0.01-0.255
	 M357.327,189.621l-0.893,0.359 M356.006,190.184l0.43-0.202 M351.504,191.248l-1.887,0.445 M355.819,190.272l0.187-0.089
	 M360.828,191.376l-0.702-0.155 M355.396,190.473l0.424-0.2 M360.126,191.221l-1.565-0.247 M354.997,190.673l0.175-0.095
	 M355.396,190.473l-0.225,0.105 M358.561,190.974l-1.657-0.141 M354.723,190.821l0.274-0.147 M356.902,190.833l-1.739-0.009
	 M354.646,190.862l0.075-0.041 M355.163,190.824l-1.804,0.135 M354.646,190.862l-0.733,0.397 M353.913,191.26l-1.243,0.765
	 M351.7,192.696l0.007,0.173 M351.822,195.989l-0.115-3.12 M352.67,192.024l-1.215,0.843l-1.172,0.915l-1.114,0.983l-1.041,1.048
	l-0.952,1.106 M351.649,191.226l1.71-0.267 M351.7,192.696l-0.052-1.481 M351.649,191.226l-0.146,0.022 M346.412,197.967
	l0.764-1.047 M349.617,191.694l-1.897,0.604 M359.273,208.89l0.828-0.17 M357.634,209.033l0.813-0.041 M360.103,208.72l0.821-0.241
	 M368.176,207.472l0.764-1.031 M358.447,208.992l0.826-0.104 M356.842,209.018l0.792,0.017 M354.688,208.717l0.674,0.134
	 M355.36,208.851l0.721,0.104 M356.081,208.954l0.761,0.062 M363.124,211.031l1.145-0.473 M364.269,210.559l1.09-0.598
	 M362.401,211.239l0.723-0.208 M352.595,208.117l0.424,0.135l0.493,0.153 M351.743,207.963l0.214-0.005 M352.27,208.022v-0.009
	 M351.957,207.958l0.283,0.057l0.354,0.104 M352.319,209.418l0.425,0.315 M352.32,209.483l-0.002-0.105 M352.27,208.022l0.05,1.354
	 M352.319,209.418l-0.451-0.336 M351.502,208.74l0.366,0.342 M362.401,211.239l-0.466,0.134 M351.535,209.02l-0.027-0.193
	 M358.265,211.622l1.228,0.043 M351.596,208.041l0.147-0.078 M355.887,211.179l1.171,0.278l1.207,0.165 M351.484,208.464l0.026-0.26
	 M351.512,208.204l0.084-0.163 M351.508,208.825l-0.022-0.361 M351.502,208.74l-0.406-0.38 M350.312,207.391l0.125,0.191
	l0.657,0.778 M352.744,209.734l0.971,0.573l1.052,0.484 M352.32,209.483l0.012,0.47 M351.65,209.717l-0.076-0.428 M351.535,209.02
	l0.039,0.271 M344.914,193.512l0.919-0.454 M354.767,210.792l1.12,0.387 M352.359,212.144l0.01-0.756 M352.332,209.952l0.037,1.436
	 M352.159,212.156l-0.09-0.368 M352.069,211.788l-0.138-0.642 M351.65,209.717l0.022,0.13 M351.933,211.147l-0.136-0.668
	l-0.123-0.633 M359.491,211.665l1.229-0.082 M352.359,212.144l-0.002,0.191l-0.062,0.217 M352.159,212.156l0.035,0.146
	 M352.295,212.552l-0.101-0.248 M350.051,206.987l-0.151-0.231 M349.484,205.891l0.414,0.864 M349.158,204.774l0.039,0.226
	 M349.197,204.999l0.287,0.892 M345.607,199.285l-0.583,1.246 M346.811,210.777l1.1,1.132l1.273,1.047 M345.024,200.531
	l-0.431,1.276 M346.33,198.079l-0.723,1.206 M344.677,207.047l0.513,1.285 M345.901,209.58l0.908,1.196 M346.412,197.967
	l-0.082,0.112 M345.188,208.332l0.714,1.248 M344.255,204.423l0.112,1.316l0.31,1.308 M344.595,201.809l-0.261,1.301
	 M349.943,213.456l-0.761-0.501 M360.721,211.583l1.217-0.211 M349.943,213.456l0.673,0.443l1.569,0.828l1.687,0.694l1.772,0.543
	 M344.334,203.109l-0.079,1.313 M343.984,193.97l-1.782,1.061 M341.679,195.401l0.523-0.372 M342.134,194.883l-1.108,1.265
	 M341.679,195.401l-0.218,0.155 M341.024,196.147l-1.215,1.641 M341.461,195.557l-0.549,0.393 M339.811,197.787l-1.02,1.705
	 M340.912,195.948l-0.396,0.28 M340.109,196.579l0.406-0.351 M344.914,193.512l-0.93,0.458 M342.134,194.883l0.268-0.304
	 M343.911,193.086l-1.511,1.493 M338.791,199.492l-0.798,1.763l-0.547,1.812l-0.271,1.851l0.031,1.875 M340.109,196.579
	l-1.147,0.983l-1.389,1.46l-1.188,1.576 M339.411,212.621l-0.158-0.213 M338.237,210.555l1.016,1.854 M337.208,206.791l0.35,1.885
	 M336.387,200.6l-0.945,1.682 M344.996,192.14l-1.085,0.946 M343.811,191.783l-2.103,1.13 M338.033,195.423l1.648-1.23
	 M341.708,192.913l-2.025,1.278 M345.052,191.221l-1.241,0.562 M335.34,202.548l0.102-0.268 M338.033,195.423l-0.262,0.195
	 M337.771,195.618l-1.758,1.564l-1.561,1.696 M334.159,199.286l0.295-0.406 M336.278,190.89l-1.114,0.924 M332.418,194.475
	l0.526-0.576 M335.164,191.813l-2.22,2.085 M355.646,215.966l1.835,0.378 M372.014,222.054l-0.771,0.37 M360.188,223.735
	l2.901,0.152 M346.469,219.094l2.469,1.355 M340.6,214.214l1.668,1.734 M363.09,223.888l2.838-0.159 M354.388,222.576l2.884,0.714
	 M348.938,220.449l2.655,1.171 M351.593,221.62l2.795,0.956 M368.657,223.243l2.584-0.819 M342.268,215.948l1.967,1.636
	 M365.928,223.729l2.729-0.484 M344.233,217.584l2.234,1.51 M357.271,223.29l2.918,0.444 M367.07,226.621l3.102-0.502
	 M357.163,225.972l3.348,0.553l3.322,0.226 M346.436,222.035l1.148,0.623 M347.584,222.658l3.052,1.346l3.214,1.116
	 M363.833,226.749l3.237-0.128 M353.85,225.12l3.313,0.852 M355.141,228.518l3.883,0.904 M359.198,229.446l-0.176-0.023
	 M339.411,212.621l1.188,1.593 M346.436,222.035l-1.683-0.915 M341.136,218.565l1.062,0.86l2.556,1.694 M342.81,223.188l1.445,0.887
	 M344.255,224.074l3.424,1.727 M351.333,227.296l3.808,1.222 M372.042,225.553l-1.87,0.566 M372.074,229.498l-1.722,0.354
	 M359.198,229.446l3.701,0.521l3.8,0.154l3.653-0.271 M372.119,234.984l-1.819,0.077 M337.558,208.676l0.681,1.879 M336.571,213.751
	l1.506,1.958 M341.136,218.565l-1.176-0.955 M338.077,215.709l1.883,1.9 M335.34,202.548l-0.57,1.507 M334.73,209.783l0.726,1.983
	 M334.409,205.907l-0.021,1.916 M334.388,207.823l0.344,1.96 M335.456,211.768l1.115,1.983 M334.105,215.718l1.909,2.227
	 M336.016,217.944l2.354,2.16l2.763,2.058 M334.77,204.055l-0.359,1.854 M331.679,211.199l0.979,2.26 M333.136,200.699l-1.03,1.932
	 M332.658,213.459l1.447,2.259 M331.403,204.662l-0.327,2.116 M331.076,206.779l0.082,2.187l0.521,2.234 M342.81,223.188
	l-1.678-1.026 M332.104,202.631l-0.7,2.031 M326.669,211.231l1.059,2.74 M327.728,213.972l1.65,2.747 M334.159,199.286l-1.023,1.413
	 M330.942,196.093l-1.729,2.3l-1.397,2.401 M331.357,219.118l-1.979-2.399 M327.814,200.794l-1.009,2.496l-0.561,2.581
	 M326.246,205.871l-0.062,2.652l0.483,2.707 M321.902,205.993l-0.146,2.935l0.498,3.014 M322.255,211.941l1.187,3.068
	 M332.418,194.475l-1.476,1.618 M323.881,200.424l-1.247,2.729l-0.73,2.84 M331.418,191.711l-1.429,1.239 M329.989,192.95
	l-2.357,2.366l-2.061,2.492 M325.571,197.81l-1.69,2.614 M323.717,194.25l2.584-2.355 M330.354,188.772l-0.998,0.705l-3.056,2.417
	 M324.151,216.169l-0.711-1.159 M347.679,225.801l3.654,1.495 M345.764,229.221l4.478,1.924 M331.62,219.438l2.812,2.655
	 M334.433,222.094l3.34,2.548 M350.24,231.145l4.662,1.605 M341.575,227.034l4.188,2.187 M354.902,232.75l4.739,1.231
	 M370.3,235.062l-1.353,0.058 M364.356,234.788l4.591,0.33 M331.357,219.118l0.263,0.319 M337.771,224.642l3.804,2.394
	 M341.566,230.894l-1.873-0.965 M327.952,221.191l3.304,3.033l3.939,2.933l4.498,2.771 M324.151,216.169l1.188,1.937
	 M325.339,218.105l2.613,3.086 M319.133,217.914l1.232,1.924 M330.463,228.996l-2.952-2.106 M320.365,219.838l3.146,3.543
	 M323.511,223.381l4,3.509 M359.643,233.982l4.715,0.807 M349.928,234.744l5.482,1.907 M360.131,237.915l-4.721-1.264"/>
<path fill="none" stroke="#000000" stroke-width="2" stroke-miterlimit="10" d="M382.36,238.257l-0.989,0.347 M379.672,238.898
	l1.699-0.295 M382.002,232.466l2.419-1.33 M388.562,215.599l1.379-3.546 M391.032,208.278l0.823-3.93 M392.429,200.342l0.346-4.009
	 M392.773,196.333l0.137-3.933 M392.91,192.401l-0.051-3.786 M392.859,188.615l-0.223-3.579 M392.48,183.637l0.156,1.398
	 M388.762,188.708l0.018,0.174 M377.435,234.201l3.774-1.301 M382.002,232.466l-0.793,0.436 M372.119,234.984l1.211-0.051
	l4.104-0.731"/>
<path fill="none" stroke="#000000" stroke-width="2" stroke-miterlimit="10" d="M382.36,238.257l3.229-1.129 M387.308,236.144
	l-1.718,0.984 M384.421,231.136l0.196-0.108 M384.617,231.027l3.019-2.438 M388.534,227.565l-0.898,1.022 M389.94,212.053
	l1.092-3.774"/>
<path fill="none" stroke="#000000" stroke-width="2" stroke-miterlimit="10" d="M388.622,235.39l-1.314,0.754 M386.155,244.198
	l0.808-0.144 M402.8,250.255l4.508-3.367 M384.748,254.035l6.694-0.239l6.068-1.246 M388.534,227.565l1.725-1.961l2.232-3.484
	 M433.043,158.801l-0.038-5.991 M426.605,142.705l-0.222,0.107 M421.167,145.999l0.479-0.341l0.816-0.56l0.875-0.565l0.94-0.57
	l1.013-0.573l1.094-0.576 M421.166,135.927l0.285,0.168 M423.061,137.109l-0.321-0.164 M421.808,136.345l0.429,0.293
	 M422.235,136.639l0.503,0.306 M421.451,136.095l0.355,0.25 M420.801,136.044l0.149-0.154l0.216,0.037 M420.733,138.411
	l-0.038-1.193l0.021-0.758 M420.717,136.46l0.084-0.416 M421.143,145.579l-0.178-3.086l-0.14-2.357l-0.092-1.725 M421.928,166.371
	l-0.165-6.497 M421.56,154.233l-0.213-4.759 M421.347,149.475l-0.204-3.896 M418.188,148.004l0.629-0.358 M418.815,147.646
	l0.653-0.434 M419.47,147.212l0.687-0.486 M421.167,145.999l-0.288,0.204 M420.155,146.726l0.724-0.521 M411.502,124.886l0.33,4.979
	 M412.683,137.844l0.486,3.009 M411.248,118.458l0.016,0.84 M413.68,143.255l0.527,1.85 M414.747,146.467l0.548,0.942
	 M413.169,140.853l0.511,2.402 M411.832,129.865l0.4,4.322 M417.582,148.257l0.605-0.253 M416.417,148.302l0.575,0.069
	 M416.992,148.371l0.59-0.114 M411.264,119.298l0.238,5.587 M415.295,147.409l0.557,0.591l0.565,0.302 M421.763,159.874
	l-0.203-5.642 M414.207,145.104l0.54,1.362 M422.019,176.014l0.006-2.372 M422.023,173.642l-0.097-7.271 M412.232,134.187
	l0.449,3.657 M411.004,189.094l0.062-6.436 M411.065,182.658l-0.102-6.047 M410.833,193.48l0.171-4.387 M410.735,171.069
	l-0.328-4.961 M410.407,166.108l-0.404-4.329 M410.003,161.779l-0.462-3.684 M410.965,176.612l-0.229-5.543 M403.068,205.604
	l0.254-1.684 M409.038,155.045l-0.534-2.451 M408.504,152.594l-0.557-1.905 M409.541,158.096l-0.503-3.051 M407.372,149.271
	l-0.589-0.995 M406.783,148.276l-0.604-0.637 M406.18,147.64l-0.618-0.342 M405.562,147.298l-0.635-0.101 M404.928,147.198
	l-0.652,0.091 M404.274,147.288l-0.678,0.237 M407.947,150.688l-0.575-1.417 M402.567,165.26l-0.645-2.883 M399.356,151.907
	l0.09,2.551 M399.479,155.729l-0.032-1.271 M401.924,162.377l-0.711-2.378l-0.771-1.902 M399.299,160.669l-0.222,0.416
	 M399.077,161.085l-0.303,0.151 M399.509,156.505l0.104,0.126 M400.44,158.097l-0.828-1.466 M399.51,156.903v1.777 M399.51,158.681
	l-0.067,1.22l-0.144,0.77 M399.499,156.493l-0.021-0.766 M399.509,156.505l-0.689-0.841 M399.499,156.493l0.011,0.409
	 M398.774,161.237l-0.389-0.035 M398.044,161.084l0.343,0.117 M403.607,172.58l-0.476-3.918 M404.211,181.842l-0.237-4.853
	 M404.196,192.561l0.099-5.497 M404.295,187.063l-0.084-5.222 M403.884,198.221l0.312-5.66 M403.974,176.99l-0.365-4.409
	 M403.133,168.662l-0.564-3.402 M403.322,203.921l0.562-5.7 M401.377,148.806l-0.823,0.536l-0.875,0.566 M399.639,149.934
	l0.04-0.024 M403.598,147.526l-0.705,0.352l-0.737,0.434l-0.777,0.495 M398.869,185.435l-0.229-4.271 M395.844,213.882l1.166-4.596
	 M398.266,177.24l-0.501-3.532 M392.491,222.119l1.854-3.933 M397.765,173.707l-0.613-3.111 M398.461,199.616l0.344-4.87
	 M396.847,169.453l0.305,1.143 M397.872,204.497l0.589-4.881 M398.805,194.746l0.127-4.757 M398.64,181.164l-0.374-3.925
	 M397.01,209.286l0.862-4.789 M394.346,218.188l1.498-4.306 M398.932,189.99l-0.062-4.556 M391.855,204.349l0.572-4.007
	 M399.292,150.15l0.347-0.217 M398.689,129.299l0.143,6.88l0.173,5.962 M399.059,99.213l-0.229,5.153 M398.829,104.366l-0.188,8.844
	l-0.028,8.381 M398.611,121.591l0.078,7.708 M399.005,142.142l0.175,5.012 M399.356,151.907l-0.024-0.67 M399.18,147.153
	l0.152,4.086 M398.743,150.494l-1.003,0.599 M397.74,151.093l-1.079,0.609 M395.497,152.319l-1.258,0.627 M399.292,150.15
	l-0.549,0.345 M396.661,151.702l-1.164,0.616 M389.039,155.206l0.753-0.299 M394.239,152.946l-1.363,0.64 M392.876,153.585
	l-1.479,0.651l-1.605,0.671 M374.118,59.835l-0.693,4.872 M395.749,154.208l-1.115,0.029l-1.184,0.205 M388.047,155.601
	l-1.897,0.723l-2.063,0.756 M371.516,161.355l2.347-0.774 M384.085,157.078l-2.245,0.797 M381.84,157.875l-2.441,0.844l-2.654,0.899
	 M376.743,159.618l-2.882,0.962 M389.039,155.206l-0.992,0.395 M392.189,154.792l-1.345,0.469 M382.559,158.789l-2.042,0.879
	 M380.517,159.668l-2.195,0.929l-2.361,0.979l-2.539,1.033 M386.227,157.187l-1.768,0.774l-1.9,0.828 M390.846,155.261l-1.436,0.565
	 M389.41,155.826l-1.536,0.646 M387.874,156.473l-1.647,0.714 M393.45,154.443l-1.261,0.35 M371.532,163.368l1.888-0.759
	 M398.717,155.546l-0.924-0.721 M397.793,154.825l-0.992-0.436l-1.052-0.183 M373.425,64.707l-1.099,13.171l-0.65,14.127
	l-0.318,14.535l-0.095,14.349l0.039,13.59l0.096,12.352 M370.716,63.844l0.151-1.79 M371.742,56.083l-0.875,5.971 M371.532,163.377
	l0.086-0.025 M398.717,155.546l0.014,0.01 M398.818,155.664l-0.09-0.108 M377.156,161.865l-2.657,0.693l-2.881,0.793
	 M387.711,159.764l-1.474,0.17 M398.044,161.084l-0.132-0.046 M397.912,161.038l-0.565-0.236 M397.347,160.802l-0.656-0.271
	 M396.689,160.531l-0.755-0.271 M395.936,160.259l-0.854-0.248 M394.123,159.806l-1.069-0.148 M392.712,159.632l0.342,0.024
	 M395.082,160.011l-0.959-0.205 M395.631,165.664l-0.89-1.839 M379.602,161.266l-2.444,0.6 M385.807,160.023l-1.892,0.324
	 M383.915,160.348l-2.064,0.414 M381.851,160.762l-2.249,0.504 M386.237,159.934l-1.574,0.331 M384.663,160.265l-1.681,0.471
	 M375.027,163.688l-2.338,0.955 M382.982,160.735l-1.797,0.592 M381.188,161.326l-1.92,0.695 M395.918,166.465l-0.287-0.801
	 M379.268,162.022l-2.05,0.79 M377.218,162.812l-2.189,0.876 M371.546,165.117l1.145-0.475 M392.712,159.632l-0.844-0.059
	 M394.741,163.825l-0.972-1.451 M391.868,159.573l-1.31-0.01 M393.771,162.374l-1.051-1.097 M390.56,159.564l-1.439,0.069
	 M392.721,161.278l-1.128-0.771 M387.538,159.786l-1.731,0.236 M391.593,160.506l-1.209-0.487 M388.572,159.687l0.547-0.053
	 M390.384,160.019l-1.292-0.235 M387.769,159.765l0.805-0.078 M389.092,159.782l-1.381-0.02 M387.769,159.765l-0.229,0.021
	 M382.189,166.044l-1.565-0.048"/>
<path fill="none" stroke="#000000" stroke-width="2" stroke-miterlimit="10" d="M395.81,239.759l3.555-3.378 M392.646,232.14
	l2.82-3.479 M395.467,228.661l2.365-4.078 M397.832,224.583l1.935-4.609l1.536-5.054 M401.303,214.92l1.172-5.392 M403.068,205.604
	l-0.595,3.925 M388.622,235.39l0.73-0.419 M389.354,234.971l3.293-2.831"/>
<path fill="none" stroke="#000000" stroke-width="2" stroke-miterlimit="10" d="M399.363,236.381l2.99-4.164 M402.354,232.217
	l2.46-4.893 M404.812,227.324l1.97-5.535"/>
<path fill="none" stroke="#000000" stroke-width="2" stroke-miterlimit="10" d="M406.782,221.789l1.525-6.066 M386.963,244.055
	l4.712-1.735 M410.238,202.558l0.505-6.776 M410.833,193.48l-0.09,2.301 M408.309,215.723l1.137-6.462l0.794-6.703 M391.675,242.319
	l4.135-2.561"/>
<path fill="none" stroke="#000000" stroke-width="2" stroke-miterlimit="10" d="M414.131,237l2.434-6.4 M416.562,230.6l1.875-7.225"
	/>
<line fill="none" stroke="#000000" stroke-width="2" stroke-miterlimit="10" x1="411.067" y1="242.455" x2="414.131" y2="237"/>
<path fill="none" stroke="#000000" stroke-width="2" stroke-miterlimit="10" d="M428.75,231.834l-1.772,7.076 M418.438,223.375
	l1.393-7.893 M407.308,246.888l3.761-4.433 M419.83,215.483l0.984-8.358 M420.814,207.124l0.646-8.603 M421.462,198.522l0.378-8.604
	 M421.84,189.918l0.169-8.366 M422.019,176.014l-0.01,5.538"/>
<path fill="none" stroke="#000000" stroke-width="2" stroke-miterlimit="10" d="M430.613,221.172l1.069-10.083 M426.587,239.931
	l0.391-1.021 M428.75,231.834l0.328-1.311l1.535-9.353"/>
<path fill="none" stroke="#000000" stroke-width="2" stroke-miterlimit="10" d="M431.684,211.089l0.698-10.526 M432.382,200.562
	l0.415-10.644 M432.797,189.919l0.206-10.424l0.066-9.887 M433.069,169.609l-0.017-9.076"/>
<line fill="none" stroke="#000000" stroke-width="2" stroke-miterlimit="10" x1="433.043" y1="158.801" x2="433.054" y2="160.532"/>
<path fill="none" stroke="#000000" stroke-width="2" stroke-miterlimit="10" d="M439.56,241.13l1.806-10.413 M421.829,276.237
	l7.279-2.257 M434.499,270.324l-5.391,3.655 M437.067,250.164l2.491-9.034 M417.542,270.512l6.574-2.67 M424.116,267.842
	l5.364-4.273 M429.48,263.568l4.271-5.898 M433.753,257.669l3.314-7.505 M400.485,271.322l9.188,0.318 M409.674,271.641l7.868-1.129
	 M404.527,262.134l6.37-2.004l5.359-3.324 M420.667,252.141l3.541-5.985 M426.587,239.931l-2.379,6.225 M416.258,256.806
	l4.409-4.665 M383.669,261.582l5.071,0.836 M388.74,262.418l8.389,0.451l7.398-0.735 M382.763,267.916l7.273,1.767l10.449,1.64
	 M382.302,271.14l8.764,2.4 M391.064,273.54l11.725,2.342l10.279,0.95l8.761-0.595 M397.512,252.55l5.288-2.295"/>
<line fill="none" stroke="#000000" stroke-width="8" stroke-linecap="round" stroke-miterlimit="10" x1="441.364" y1="230.717" x2="441.364" y2="230.717"/>
<polyline fill="none" stroke="#000000" stroke-width="2" stroke-miterlimit="10" points="434.499,270.324 435.011,269.978 
	439.683,264.182 "/>
<line fill="none" stroke="#000000" stroke-miterlimit="10" x1="442.609" y1="219.157" x2="443.416" y2="206.774"/>
<line fill="none" stroke="#000000" stroke-width="2" stroke-miterlimit="10" x1="442.691" y1="257.83" x2="439.683" y2="264.182"/>
<line fill="none" stroke="#000000" stroke-miterlimit="10" x1="443.89" y1="193.968" x2="444.13" y2="181.185"/>
<path fill="none" stroke="#000000" stroke-width="2" stroke-miterlimit="10" d="M445.967,247.24l1.927-10.975 M450.036,210.434
	l0.47-14.093 M447.894,236.267l1.312-12.379 M449.205,223.888l0.831-13.454 M443.281,256.586l2.686-9.346 M450.506,196.341
	l0.217-14.218 M450.729,180.792l-0.006,1.331 M442.691,257.83l0.59-1.244"/>
<line fill="none" stroke="#000000" stroke-miterlimit="10" x1="422.996" y1="137.007" x2="423.843" y2="138.343"/>
<path fill="none" stroke="#000000" stroke-width="2" stroke-miterlimit="10" d="M412.683,85.949l-0.036,0.223 M412.646,86.171
	l-0.756,6.803l-0.471,6.888l-0.232,6.792l-0.039,6.528 M411.248,118.458l-0.102-5.276 M406.897,56.084l-2.53,6.28 M404.367,62.365
	l-1.957,7.25l-1.459,8.057l-1.034,8.65l-0.685,8.989 M407.14,55.686l-0.241,0.398 M399.059,99.213l0.175-3.901 M386.042,23.54
	l-3.234,2.382 M393.366,23.05l-3.282,1.244 M384.84,28.558l-4.162,6.188 M380.678,34.746l-3.205,8.146 M374.118,59.835l0.979-6.896
	 M390.084,24.293l-5.244,4.265 M377.473,42.893l-2.374,10.047 M382.808,25.922l-4.354,6.03l-3.354,8.078l-2.484,10.088
	 M371.742,56.083l0.873-5.966 M373.793,28.179l-6.868-3.36"/>
<line fill="none" stroke="#000000" stroke-miterlimit="10" x1="420.216" y1="127.08" x2="420.808" y2="130.312"/>
<path fill="none" stroke="#000000" stroke-width="2" stroke-miterlimit="10" d="M430.553,140.916l-0.301,0.122 M427.57,142.23
	l1.285-0.59 M428.855,141.641l1.396-0.603 M432.951,142.135l0.006,3.393 M433.005,152.81l-0.002-0.345l-0.046-6.938
	 M426.605,142.705l0.965-0.476"/>
<path fill="none" stroke="#000000" stroke-miterlimit="10" d="M444.219,168.88l0.009-11.417 M424.742,139.303l0.955,0.632"/>
<path fill="none" stroke="#000000" stroke-width="2" stroke-miterlimit="10" d="M432.966,137.952l-0.02,1.805 M432.947,139.925
	l-0.001-0.168 M435.221,139.115l1.959-0.699 M438.828,137.846l-1.648,0.569 M432.947,139.964v-0.039 M431.771,140.42l1.65-0.64
	 M433.422,139.781l1.799-0.666 M430.553,140.916l1.219-0.496 M432.947,139.964l0.004,2.17 M423.061,137.109l0.258,0.131
	 M450.778,168.323l-0.029-12.878 M450.73,151.169l0.019,4.276 M450.729,180.792l0.051-12.469"/>
<line fill="none" stroke="#000000" stroke-miterlimit="10" x1="444.213" y1="147.257" x2="444.224" y2="138.47"/>
<path fill="none" stroke="#000000" stroke-width="2" stroke-miterlimit="10" d="M469.907,127.083l4.684-1.55 M496.237,118.372
	l-0.784,0.315 M492.636,119.758l2.817-1.071 M447.88,133.833l2.996-0.863l3.248-0.958 M450.681,133.026v0.022 M454.124,132.012
	l3.516-1.06 M445.122,134.605l2.758-0.771 M450.681,133.048v0.051 M457.64,130.952l3.796-1.169l4.088-1.286 M442.586,135.292
	l2.536-0.688 M450.681,133.1l-0.001,0.089 M465.522,128.496l4.385-1.413 M473.676,126.5l5.026-1.706 M478.702,124.794l5.323-1.861
	l5.597-2.03 M468.96,128.065l4.716-1.564 M463.275,129.916l1.279-0.413 M464.556,129.503l4.404-1.438 M492.636,119.758l-3.014,1.145
	 M432.734,137.552l1.639-0.302 M432.971,137.508v0.007 M434.373,137.25l1.792-0.375 M431.237,137.782l1.497-0.23 M432.971,137.515
	v0.065 M436.165,136.874l1.957-0.45l2.136-0.526 M429.872,137.942l1.365-0.159 M432.971,137.58l-0.002,0.139 M440.258,135.897
	l2.328-0.604 M450.676,133.954l0.004-0.766 M446.914,135.165l2.988-0.962 M449.902,134.203l3.242-1.038l3.515-1.123l3.799-1.217
	 M444.164,136.06l2.75-0.895 M450.676,133.954v0.014 M450.676,133.981v-0.013 M441.636,136.895l2.528-0.835 M463.275,129.916
	l-2.817,0.909 M440.877,137.151l0.759-0.256 M450.676,133.981l0.006,2.465 M428.629,138.031l1.243-0.09 M450.682,136.446
	l0.003,1.185 M432.969,137.719l-0.003,0.233 M438.828,137.846l0.484-0.168 M440.877,137.151l-1.562,0.527 M423.317,137.24
	l0.658,0.265l0.743,0.222l0.831,0.169l0.925,0.11l1.024,0.046 M427.5,138.052l1.129-0.021 M450.73,151.169l-0.031-7.267
	 M450.685,137.63l0.016,6.272"/>
<line fill="none" stroke="#000000" stroke-miterlimit="10" x1="421.475" y1="133.029" x2="422.206" y2="135.25"/>
<path fill="none" stroke="#000000" stroke-width="2" stroke-miterlimit="10" d="M412.683,85.949l1.052-6.315 M415.045,74.19
	l-1.312,5.443 M407.14,55.686l2.929-4.802 M412.582,48.246l-2.515,2.638 M490.338,119.943l5.717-2.223 M501.915,115.292l5.914-2.65
	 M516.201,109.372l3.298-1.758 M520.693,106.876l-1.194,0.738 M496.055,117.72l5.86-2.428 M507.922,113.453l5.689-2.701
	 M516.201,109.372l-2.59,1.38 M474.591,125.533l4.979-1.698 M484.828,121.976l5.51-2.033 M507.922,113.453l-0.374,0.178
	 M503.613,115.335l3.935-1.705 M479.57,123.835l5.258-1.859 M503.613,115.335l-2.157,0.935 M496.237,118.372l5.219-2.103"/>
<line fill="none" stroke="#000000" stroke-miterlimit="10" x1="419.307" y1="119.081" x2="419.711" y2="123.33"/>
<path fill="none" stroke="#000000" stroke-width="2" stroke-miterlimit="10" d="M434.125,125.724l0.562-0.753 M434.198,125.626
	l-0.221-0.354 M433.352,128.862l0.33-1.887 M430.345,113.981l0.052,0.395 M430.396,114.375l0.551,2.96 M433.979,125.274
	l-0.688-1.107 M430.946,117.335l0.672,2.625l0.783,2.276l0.889,1.93"/>
<path fill="none" stroke="#000000" stroke-miterlimit="10" d="M445.647,115.487l0.672-1.431 M444.921,119.338l0.197-1.619"/>
<path fill="none" stroke="#000000" stroke-width="2" stroke-miterlimit="10" d="M436.542,127.98l1.274,0.682 M434.198,125.626
	l0.08,0.128 M434.278,125.755l1.084,1.264l1.18,0.961 M433.682,126.975l0.443-1.251 M432.971,137.508l0.026-2.388l0.131-3.59
	l0.224-2.669 M434.688,124.971l0.689-0.379"/>
<line fill="none" stroke="#000000" stroke-miterlimit="10" x1="444.348" y1="129.265" x2="444.295" y2="131.188"/>
<path fill="none" stroke="#000000" stroke-width="2" stroke-miterlimit="10" d="M439.188,129.086l1.469,0.197 M450.444,127.321
	l-0.828,0.287 M437.816,128.661l1.369,0.426 M440.655,129.284l1.57-0.009"/>
<line fill="none" stroke="#000000" stroke-miterlimit="10" x1="444.355" y1="128.996" x2="444.348" y2="129.265"/>
<path fill="none" stroke="#000000" stroke-width="2" stroke-miterlimit="10" d="M442.227,129.275l1.678-0.189 M443.903,129.085
	l1.787-0.354l1.902-0.497l2.022-0.627"/>
<line fill="none" stroke="#000000" stroke-miterlimit="10" x1="444.355" y1="128.996" x2="444.455" y2="125.387"/>
<path fill="none" stroke="#000000" stroke-width="2" stroke-miterlimit="10" d="M435.378,124.591l0.819-0.113 M444.065,125.36
	l1.846,0.006 M450.562,124.997l-0.454,0.062 M445.911,125.366l2.013-0.097l2.186-0.209 M438.24,124.702l1.231,0.205l1.378,0.2
	l1.529,0.16 M436.197,124.478l0.952,0.062 M437.149,124.54l1.091,0.163 M442.38,125.268l1.687,0.093"/>
<path fill="none" stroke="#000000" stroke-miterlimit="10" d="M449.227,112.793l1.272,0.116 M447.138,113.237l0.97-0.374
	 M444.921,119.338l-0.196,1.615"/>
<path fill="none" stroke="#000000" stroke-width="2" stroke-miterlimit="10" d="M480.141,113.932l3.332-1.861l3.324-1.981
	 M473.599,117.315l3.24-1.637 M476.839,115.678l3.302-1.747 M470.445,118.848l3.152-1.532 M462.653,122.417l1.812-0.801
	 M462.787,122.379l-2.121,0.586 M462.653,122.417l-0.298,0.131 M464.465,121.615l2.933-1.335 M462.787,122.379l0.339-0.094
	 M467.396,120.281l3.049-1.433 M463.126,122.286l0.649-0.18l3.298-1 M467.073,121.106l3.479-1.144 M452.471,124.73l2.544-0.456
	l2.731-0.587 M472.648,119.22l-2.098,0.742 M457.746,123.687l2.92-0.721 M459.616,123.732l2.043-0.876 M462.355,122.548
	l-0.696,0.308 M451.106,114.353l0.379-3.535 M450.735,124.973l0.12-5.706 M451.485,110.818l0.516-2.392 M450.562,124.997
	l1.907-0.268 M459.616,123.732l-0.631,0.271 M450.711,127.228l1.052-0.365 M450.735,124.973l-0.018,0.789 M451.763,126.863
	l2.275-0.854 M454.038,126.01l2.407-0.955l2.54-1.052 M450.681,133.026l0.038-7.265 M450.711,127.228l-0.267,0.093 M452.001,108.426
	l0.656-1.487l0.801-0.807 M450.855,119.267l0.251-4.915"/>
<path fill="none" stroke="#000000" stroke-miterlimit="10" d="M468.479,112.433l2.625-0.7 M463.545,113.362l2.411-0.387
	 M459.106,113.701l2.152-0.101 M455.222,113.55l1.871,0.126 M451.924,113.119l1.574,0.231 M473.812,110.873l2.771-1.022"/>
<path fill="none" stroke="#000000" stroke-width="2" stroke-miterlimit="10" d="M479.134,103.368l2.049-1.15l1.958-1.295
	 M483.141,100.922l1.829-1.436 M484.97,99.487l1.66-1.567 M486.63,97.919l1.447-1.692 M489.514,93.888l-0.246,0.531
	 M464.698,107.096l1.914-0.073 M458.067,106.299l1.483,0.302 M468.605,106.804l2.059-0.373 M477.028,104.367l2.104-1
	 M472.768,105.901l2.131-0.688 M474.897,105.213l2.131-0.846 M470.664,106.432l2.104-0.53 M466.612,107.023l1.993-0.219
	 M459.552,106.602l1.605,0.259 M462.876,107.036l1.822,0.061 M456.711,106.011l1.356,0.288 M454.402,105.812l1.085,0.003
	 M455.487,105.815l1.224,0.196 M461.157,106.861l1.719,0.176 M479.744,116.518l-1.737,0.708 M472.648,119.22l1.554-0.55l3.805-1.445
	 M487.631,109.55l-0.834,0.538"/>
<line fill="none" stroke="#000000" stroke-miterlimit="10" x1="480.12" y1="108.318" x2="479.39" y2="108.667"/>
<line fill="none" stroke="#000000" stroke-width="2" stroke-miterlimit="10" x1="488.077" y1="96.227" x2="489.268" y2="94.418"/>
<path fill="none" stroke="#000000" stroke-miterlimit="10" d="M484.975,105.82l2.697-1.66 M490.24,102.342l2.382-1.97
	 M494.753,98.252l1.813-2.265 M480.12,108.318l2.079-0.993"/>
<line fill="none" stroke="#000000" stroke-width="2" stroke-miterlimit="10" x1="490.062" y1="107.98" x2="493.214" y2="105.74"/>
<line fill="none" stroke="#000000" stroke-miterlimit="10" x1="497.99" y1="93.588" x2="498.954" y2="91.06"/>
<path fill="none" stroke="#000000" stroke-width="2" stroke-miterlimit="10" d="M453.458,106.132l0.944-0.32 M508.432,99.849
	l-2.826,2.521 M494.144,109.813l4.013-2.292 M485.974,113.858l4.086-1.935 M490.06,111.923l4.084-2.11 M498.155,107.522l3.854-2.479
	 M502.009,105.042l3.597-2.674 M479.744,116.518l2.197-0.895 M481.941,115.623l4.031-1.766 M493.214,105.74l2.969-2.375
	 M498.892,100.85l2.365-2.656 M487.631,109.55l2.433-1.57 M496.183,103.365l2.709-2.516 M501.257,98.194l1.929-2.796
	 M503.186,95.398l1.399-2.934 M504.585,92.464l0.773-3.065 M505.376,88.501l-0.018,0.897"/>
<path fill="none" stroke="#000000" stroke-miterlimit="10" d="M418.888,109.282l0.139,5.094 M419.158,98.311l-0.236,5.579
	 M420.371,87.103l-0.741,5.568 M422.812,76.704l-1.393,5.035"/>
<path fill="none" stroke="#000000" stroke-width="2" stroke-miterlimit="10" d="M425.84,55.84l-3.447,3.245l-2.899,4.067
	 M419.492,63.152l-2.383,4.843l-1.904,5.531 M415.045,74.19l0.16-0.664 M447.372,66.784l-3.073,1.185 M490.861,88.412l-0.255-2.147
	 M479.715,73.409l-3.204-1.852 M476.511,71.558l-3.474-1.668l-3.67-1.441 M465.576,67.273l-3.834-0.863 M457.939,65.895
	l-3.701-0.128 M450.698,66.055l-3.326,0.729 M469.367,68.448l-3.791-1.175 M454.238,65.766l-3.54,0.289 M461.742,66.409
	l-3.803-0.515 M444.299,67.969l-2.79,1.646 M489.909,84.076l-1.155-2.208 M482.588,75.402l-2.873-1.993 M439.02,71.712l-2.179,2.532
	 M434.975,77.176l-1.562,3.286 M430.345,113.981l-0.367-2.877 M429.597,103.791l0.109,3.769l0.271,3.545 M436.841,74.244
	l-1.866,2.932 M429.667,99.861l-0.07,3.93 M441.509,69.615l-2.489,2.098 M431.156,87.853l-0.729,3.96l-0.489,4.03l-0.271,4.019
	 M433.413,80.462l-1.269,3.582 M432.146,84.044l-0.989,3.809"/>
<path fill="none" stroke="#000000" stroke-miterlimit="10" d="M439.863,58.137l-3.942,1.479 M448.938,57.112l-4.72,0.201
	 M432.417,61.764l-3.054,2.818 M426.756,68.046l-2.176,4.062"/>
<line fill="none" stroke="#000000" stroke-width="2" stroke-miterlimit="10" x1="429.851" y1="53.438" x2="425.84" y2="55.84"/>
<line fill="none" stroke="#000000" stroke-miterlimit="10" x1="459.184" y1="58.392" x2="453.955" y2="57.49"/>
<path fill="none" stroke="#000000" stroke-width="2" stroke-miterlimit="10" d="M485.075,77.5l-2.487-2.099 M488.754,81.868
	l-1.614-2.202 M490.606,86.265l-0.697-2.188 M432.941,41.469l-2.814-0.098 M430.127,41.372l-6.171,0.736 M423.956,42.108
	l-5.396,1.798 M418.561,43.906l-4.62,2.915 M412.582,48.246l1.357-1.426 M455.677,52.713l-4.522-0.93l-6.016-0.683l-5.603,0.008
	 M439.536,51.109l-5.112,0.764l-4.573,1.565"/>
<line fill="none" stroke="#000000" stroke-miterlimit="10" x1="469.843" y1="61.528" x2="464.519" y2="59.76"/>
<path fill="none" stroke="#000000" stroke-width="2" stroke-miterlimit="10" d="M487.14,79.666l-2.063-2.166 M463.41,54.762
	l-5.938-1.68 M455.677,52.713l1.796,0.369"/>
<path fill="none" stroke="#000000" stroke-miterlimit="10" d="M488.532,71.339l-4.046-2.74 M479.95,66.011l-4.921-2.377"/>
<path fill="none" stroke="#000000" stroke-width="2" stroke-miterlimit="10" d="M489.514,93.888l0.644-1.383l0.544-2.007
	l0.161-2.085 M432.941,41.469l4.094,0.142 M478.115,53.741l-8.425-3.502 M469.69,50.24l-8.56-3.079 M479.912,54.595l-1.797-0.854
	 M452.693,44.618l-8.093-1.889 M444.602,42.73l-7.565-1.119 M461.132,47.16l-8.438-2.542 M482.828,62.824l-6.018-2.953l-6.347-2.662
	 M492.384,68.729l-4.032-2.735 M488.352,65.993l-5.522-3.169 M470.465,57.208l-6.503-2.291 M463.41,54.762l0.552,0.156"/>
<path fill="none" stroke="#000000" stroke-miterlimit="10" d="M494.827,77.071l-2.828-2.892 M499.391,88.417l-0.152-2.743
	 M498.444,82.851l-1.467-2.878"/>
<path fill="none" stroke="#000000" stroke-width="2" stroke-miterlimit="10" d="M535.095,76.269l-3.928-4.834 M530.427,70.801
	l0.74,0.633 M535.797,81.464l-2.658-5.279 M530.427,70.801l-6.139-5.247 M523.45,64.997l0.838,0.558 M533.139,76.185l-4.806-5.549
	 M523.45,64.997l-8.272-5.502 M514.092,58.894l1.086,0.602 M528.333,70.636l-6.999-5.771 M514.092,58.894l-10.016-5.548
	 M502.404,52.539l1.672,0.807 M521.334,64.865l-9.094-5.923 M502.404,52.539l-11.017-5.315 M488.582,46.008l2.807,1.215
	 M512.24,58.943l-10.938-5.979 M488.582,46.008l-10.938-4.737 M473.055,39.454l4.59,1.816 M501.302,52.963l-12.38-5.921
	 M473.055,39.454l-9.607-3.805 M456.783,33.228l6.663,2.422 M488.922,47.042l-13.311-5.722 M456.783,33.228l-7.391-2.686
	 M441.524,27.956l7.868,2.587 M475.611,41.321l-13.674-5.36 M441.524,27.956l-5.515-1.812 M436.011,26.143l-12.312-3.487
	 M417.913,21.407l5.785,1.248 M435.66,27.041l-11.761-3.172 M461.938,35.96l-13.478-4.823 M448.461,31.137l-12.801-4.096
	 M423.899,23.869l-10.492-2.053 M412.674,21.758l0.733,0.059 M524.541,103.179l4.6-3.716 M512.746,78.21l-3.049-4.101
	 M509.697,74.111l-4.268-4.175 M513.62,93.151l1.289-3.47 M505.431,69.936l-5.435-4.196 M513.248,93.738l0.372-0.587
	 M514.909,89.681l0.362-3.658 M514.584,82.192l-1.838-3.98 M499.996,65.738l-6.489-4.151 M488.23,58.701l5.275,2.885
	 M515.271,86.023l-0.688-3.831 M503.125,79.561l-2.44-3.418 M488.23,58.701l-2.093-1.145 M479.912,54.595l6.227,2.961
	 M500.685,76.142l-3.31-3.433 M508.432,99.849l0.396-0.352 M508.826,99.497l2.719-3.072 M513.248,93.738l-1.703,2.688
	 M505.42,86.215l-0.726-3.287 M497.375,72.709l-4.137-3.401 M504.694,82.928l-1.569-3.368 M505.376,88.501l0.044-2.286
	 M492.384,68.729l0.854,0.58"/>
<text transform="matrix(1 0 0 1 530.0107 51.7893)" font-family="'STIXGeneral-Bold'" font-size="24">M</text>
<text transform="matrix(1 0 0 1 551.3467 59.7805)" font-family="'STIXGeneral-Italic'" font-size="13.992">y</text>
<path fill="none" stroke="#000000" stroke-width="2" stroke-miterlimit="10" d="M151.295,2.949l-9.587,1.478 M141.708,4.427
	l-8.983,2.586 M132.725,7.013l-8.328,3.945 M124.397,10.958l-7.641,5.472 M116.756,16.43l-6.944,7.06 M109.812,23.49l-6.258,8.587
	 M386.042,23.54l2.253-1.66 M412.709,20.284l-9.555-1.05 M403.154,19.235l-8.114,0.471 M395.04,19.705l-6.745,2.175 M393.366,23.05
	l3.166-1.2 M417.913,21.407l-5.204-1.123 M412.674,21.758l-8.39-0.676l-7.752,0.769 M366.925,24.819l-5.44,0.364 M520.693,106.876
	l4.328-2.677 M529.076,101.146l-4.055,3.054 M513.679,109.751l5.634-3.148 M529.076,101.146l0.876-0.659 M532.502,97.966l-2.55,2.52
	 M519.312,106.603l5.229-3.424 M507.829,112.641l5.85-2.89 M532.502,97.966l1.524-1.506 M534.026,96.46l2.921-4.353 M537.464,90.446
	l-0.517,1.663 M529.141,99.463l3.713-4.022 M537.464,90.446l0.939-3.022 M538.321,86.103l0.082,1.32 M532.854,95.441l2.541-4.339
	 M538.321,86.103l-0.23-3.697 M537.638,81.375l0.453,1.03 M535.395,91.102l1.075-4.66 M537.638,81.375l-1.895-4.31 M535.095,76.269
	l0.648,0.797 M536.47,86.441l-0.673-4.978"/>
<text transform="matrix(1 0 0 1 41.4277 51.7893)" font-family="'STIXGeneral-Bold'" font-size="24">M</text>
<text transform="matrix(1 0 0 1 62.7637 59.7805)" font-family="'STIXGeneral-Italic'" font-size="13.992">x</text>
<path fill="none" stroke="#000000" stroke-width="2" stroke-miterlimit="10" d="M193.943,0.998l-11.081,0.733 M182.862,1.732
	l-10.889,0.264 M171.973,1.996l-10.56,0.266 M161.414,2.262L151.296,2.95"/>
<path fill="none" stroke="#00C0FF" stroke-width="2" stroke-linecap="round" stroke-miterlimit="10" d="M441.364,230.717
	L441.364,230.717c-99.798,86.632-268.395,88.132-348.875,30.914l0,0"/>
</svg>
