<?xml version="1.0" encoding="utf-8"?>
<!-- Generator: Adobe Illustrator 15.0.0, SVG Export Plug-In . SVG Version: 6.00 Build 0)  -->
<!DOCTYPE svg PUBLIC "-//W3C//DTD SVG 1.1//EN" "http://www.w3.org/Graphics/SVG/1.1/DTD/svg11.dtd">
<svg version="1.1" id="Layer_1" xmlns="http://www.w3.org/2000/svg" xmlns:xlink="http://www.w3.org/1999/xlink" x="0px" y="0px"
	 width="391.586px" height="190.066px" viewBox="0 0 391.586 190.066" enable-background="new 0 0 391.586 190.066"
	 xml:space="preserve">
<line fill="none" stroke="#FF0000" stroke-miterlimit="10" x1="219.436" y1="55.203" x2="220.625" y2="55.139"/>
<line fill="none" stroke="#FF0000" stroke-miterlimit="10" x1="202.37" y1="56.472" x2="219.046" y2="55.54"/>
<g>
	<g>
		<polyline fill="none" stroke="#737373" stroke-miterlimit="10" points="238.846,59.866 239.008,60.264 239.764,61.641 		"/>
		<polyline fill="none" stroke="#737373" stroke-miterlimit="10" stroke-dasharray="3.9734,3.9734" points="305.11,65.967 
			305.151,65.929 308.143,63.002 311.063,59.856 313.839,56.514 316.387,53.009 318.606,49.39 320.381,45.717 321.6,42.063 
			322.145,38.509 321.919,35.14 320.858,32.037 318.923,29.276 317.997,28.496 316.126,26.921 312.52,25.019 308.196,23.599 
			303.283,22.67 300.905,22.475 297.922,22.23 296.473,22.237 292.274,22.257 286.495,22.719 280.727,23.576 278.339,24.088 
			275.104,24.781 269.733,26.285 265.294,27.829 261.52,29.374 261.43,29.412 260.065,29.986 255.877,32.084 252.155,34.29 
			248.905,36.559 246.123,38.857 243.79,41.155 241.885,43.424 240.378,45.645 239.241,47.797 238.438,49.871 237.94,51.854 
			237.715,53.74 237.737,55.525 237.811,56.049 		"/>
		<line fill="none" stroke="#737373" stroke-miterlimit="10" x1="302.139" y1="68.626" x2="303.629" y2="67.292"/>
	</g>
</g>
<line fill="none" stroke="#010101" stroke-width="1.5" stroke-miterlimit="10" x1="352.755" y1="25.895" x2="350.86" y2="19.451"/>
<line fill="none" stroke="#010101" stroke-miterlimit="10" x1="369.21" y1="159.661" x2="347.667" y2="164.035"/>
<line fill="none" stroke="#010101" stroke-miterlimit="10" x1="390.836" y1="155.271" x2="347.667" y2="164.035"/>
<path fill="none" stroke="#010101" stroke-width="1.5" stroke-miterlimit="10" d="M357.544,149.735l-2.106,3.149 M349.315,131.677
	l-0.439-0.439 M357.864,145.902l-0.319,3.833 M355.438,152.885l-3.84,2.363 M356.464,141.519l1.399,4.383 M351.598,155.248
	l-3.645,1.018 M353.526,136.73l2.938,4.789 M349.315,131.677l4.211,5.054"/>
<path fill="none" stroke="#010101" stroke-width="1.5" stroke-miterlimit="10" d="M348.875,131.237l-4.375-4.395 M352.495,32.972
	l0.261-7.077"/>
<path fill="none" stroke="#010101" stroke-width="1.5" stroke-miterlimit="10" d="M330.216,118.711l4.457,4.075 M346.737,138.354
	l0.636,3.188 M342.253,130.882l2.722,3.86l1.76,3.612 M334.672,122.786l4.08,4.083l3.501,4.013"/>
<path fill="none" stroke="#010101" stroke-width="1.5" stroke-miterlimit="10" d="M333.371,125.199l2.879,3.361 M330.217,118.711
	l-0.748-0.644"/>
<path fill="none" stroke="#010101" stroke-miterlimit="10" d="M347.668,164.036l-1.361,0.276 M347.668,164.036l-1.361,0.276"/>
<path fill="none" stroke="#010101" stroke-width="1.5" stroke-miterlimit="10" d="M306.188,122.825l-0.353-0.022 M309.702,123.306
	l-0.047,0.22 M309.701,123.306l-0.009-0.259 M313.221,123.82l-0.219-0.562 M313.221,123.82l0.084,0.396 M317.91,124.427l-0.54-0.89
	 M317.909,124.426l0.326,0.723 M319.565,124.586l-0.594-0.946 M305.835,122.802l-0.387-0.072 M309.617,123.703l-0.132,0.246
	 M309.617,123.704l0.038-0.178 M313.371,124.536l-0.065-0.32 M313.371,124.536l-0.007,0.584 M318.448,125.619l0.297,1.104
	l0.001,0.022 M318.448,125.618l-0.213-0.47 M305.449,122.73l-0.412-0.125 M309.432,124.048l0.053-0.099 M309.432,124.049
	l-0.25,0.258 M313.364,125.184v-0.064 M313.365,125.184l-0.167,0.572l-0.102,0.154 M318.787,127.725l-0.041-0.979 M304.606,122.429
	l-0.439-0.229l-0.441-0.282 M305.037,122.605l-0.431-0.176 M308.319,124.732l-0.539,0.104 M308.778,124.565l-0.459,0.167
	 M309.151,124.337l0.031-0.03 M309.151,124.336l-0.373,0.229 M307.78,124.837l-0.266,0.019 M311.778,126.951l-0.752,0.208
	 M312.875,126.246l0.222-0.335 M312.875,126.247l-0.476,0.399 M311.026,127.159l-0.465,0.059 M312.399,126.646l-0.619,0.305
	 M317.354,129.96l-0.974,0.454l-1.194,0.299l-0.105,0.012 M318.087,129.355l-0.733,0.604 M318.787,127.724l-0.22,0.882
	 M319.795,124.954l-0.23-0.369 M319.796,124.954l0.472,0.998 M320.335,123.105l-0.312-0.37 M320.335,123.105l0.927,1.292
	 M321.29,121.378l-0.74-0.754 M321.289,121.378l1.103,1.257 M318.567,128.605l-0.479,0.749 M320.065,130.544l-0.449,0.36
	 M320.436,126.309l0.358,1.256l0.062,1.136l-0.242,0.999l-0.549,0.844 M320.436,126.309l-0.168-0.357 M323.24,130.507l-0.185,0.428
	 M321.541,124.784l0.921,1.606l0.605,1.507l0.266,1.38l-0.093,1.229 M321.54,124.784l-0.277-0.387 M325.815,127.403l0.803,1.821
	 M323.102,123.446l1.525,2.019 M326.995,130.895l-0.003,0.072 M323.102,123.446l-0.711-0.812 M326.618,129.224l0.378,1.671
	 M324.627,125.465l1.188,1.938 M327.088,125.75l1.498,2.251l1.055,2.126l0.244,0.866 M325.209,123.415l1.879,2.335 M325.209,123.415
	l-0.906-0.984 M331.821,128.496l1.443,2.526 M331.821,128.496l-0.536-0.729 M313.796,130.854l-1.557-0.014 M318.096,131.723
	l-1.383,0.318 M319.221,131.221l0.395-0.317 M319.221,131.222l-1.125,0.501 M316.712,132.042l-1.606,0.139 M322.782,131.566
	l0.273-0.632 M311.362,131.921l-1.213-0.223 M315.106,132.179l-1.797-0.042l-1.947-0.217 M315.542,133.833l-2.206-0.175
	l-2.041-0.321 M320.8,133.104l-1.483,0.457l-1.767,0.243l-2.01,0.029 M314.731,136.094l-1.703-0.278 M321.963,132.437l-1.163,0.667
	 M322.781,131.567l-0.817,0.87 M322.135,136.049l-2.191,0.273 M326.922,132.385l0.069-1.417 M326.923,132.385l-0.534,1.281
	l-0.992,1.048 M323.969,135.511l-1.834,0.537 M325.397,134.714l-1.428,0.798 M330.196,132.087l0.02,1.753l-0.535,1.513l-0.814,0.928
	 M330.196,132.087l-0.311-1.094 M333.268,131.029l-0.004-0.007 M333.27,131.029l0.856,2.351l0.208,2.118l-0.197,0.758
	 M340.094,134.85l-0.291-0.572 M340.094,134.85l0.36,1.376 M317.456,136.334l-2.725-0.239 M307.475,136.334l0.16,0.046
	 M319.944,136.322l-2.488,0.012 M326.969,137.54l-2.115,0.64 M328.59,136.593l0.275-0.312 M328.59,136.593l-1.621,0.947
	 M312.844,137.685l-3.492-0.807l-1.717-0.499 M316.223,138.24l-3.379-0.555 M322.311,138.504l-2.904,0.017 M324.854,138.179
	l-2.543,0.324 M333.858,137.335l-1.164,1.519 M319.407,138.52l-3.184-0.28 M314.201,140.307l-1.772-0.405 M325.428,141.23
	l-3.436,0.042 M332.694,138.853l-1.832,1.167l-2.446,0.795 M333.858,137.336l0.279-1.08 M328.416,140.815l-2.987,0.416
	 M340.647,140.094l-1.112,2.063 M321.992,141.272l-3.778-0.317l-4.013-0.647 M334.606,144.918l-3.654,0.646l-4.283,0.152
	 M340.824,137.638l-0.369-1.412 M340.824,137.638l-0.177,2.455 M321.909,145.397l-2.338-0.349 M339.535,142.157l-2.034,1.62
	 M326.669,145.717l-4.76-0.319 M337.5,143.777l-2.895,1.141 M347.387,141.624l-0.547,2.835l-1.771,2.32l-2.952,1.742
	 M338.092,149.646l-4.931,0.496l-5.64-0.118l-1.238-0.14 M342.117,148.521l-4.024,1.125 M339.5,157.385l-2.923-0.084
	 M346.196,156.755l-6.696,0.63 M347.389,141.624l-0.017-0.082 M346.198,156.755l1.756-0.489"/>
<line fill="none" stroke="#010101" stroke-width="1.5" stroke-miterlimit="10" x1="317.024" y1="117.219" x2="319.246" y2="119.292"/>
<line fill="none" stroke="#010101" stroke-width="1.5" stroke-miterlimit="10" x1="312.247" y1="113.215" x2="314.675" y2="115.187"/>
<path fill="none" stroke="#010101" stroke-width="1.5" stroke-miterlimit="10" d="M318.885,121.379l1.139,1.356 M319.246,119.292
	l1.304,1.332 M314.675,115.187l2.349,2.032"/>
<path fill="none" stroke="#010101" stroke-width="1.5" stroke-miterlimit="10" d="M318.899,123.523l0.072,0.116 M315.408,117.885
	l-0.089-0.078 M315.408,117.885l1.821,1.745l1.656,1.748"/>
<path fill="none" stroke="#010101" stroke-width="1.5" stroke-miterlimit="10" d="M317.772,122.036l1.127,1.486 M313.458,116.166
	l1.86,1.642 M311.417,114.493l2.041,1.674"/>
<path fill="none" stroke="#010101" stroke-width="1.5" stroke-miterlimit="10" d="M311.565,115.971l1.742,1.494l1.637,1.522
	l1.498,1.53l1.33,1.519 M309.745,114.52l1.82,1.451"/>
<path fill="none" stroke="#010101" stroke-width="1.5" stroke-miterlimit="10" d="M305.045,109.901l2.141,1.445 M305.045,109.901
	l-0.615-0.388 M309.319,112.88l2.099,1.612 M307.186,111.344l2.133,1.535 M309.745,114.52l-1.727-1.282"/>
<path fill="none" stroke="#010101" stroke-width="1.5" stroke-miterlimit="10" d="M301.301,117.601l-0.004-0.269 M306.5,122.799
	l-0.312,0.027 M305.432,119.128l0.42,0.403 M307.141,122.437l-0.16,0.165 M307.242,122.23l-0.101,0.207 M305.852,119.531
	l0.373,0.399 M306.546,120.321l0.267,0.378 M303.94,117.941l0.531,0.387 M307.022,121.059l0.148,0.337 M304.971,118.726l0.461,0.401
	 M307.171,121.396l0.086,0.311 M304.469,118.329l0.5,0.397 M307.257,121.707l0.022,0.279 M306.225,119.93l0.321,0.391
	 M306.813,120.7l0.209,0.359 M304.826,117.146l-0.125-0.085 M304.826,117.147l0.772,0.574l0.729,0.59l0.68,0.602l0.62,0.606
	 M307.281,121.985l-0.039,0.245 M308.657,120.717l0.395,0.578l0.059,0.106 M307.628,119.518l0.552,0.604l0.478,0.595
	 M306.981,122.602l-0.215,0.121 M309.358,121.849l-0.248-0.448 M309.358,121.849l0.053,0.129 M306.766,122.723l-0.267,0.074
	 M309.686,122.86l0.006,0.188 M309.571,122.373l0.115,0.488 M309.571,122.374l-0.16-0.396 M311.889,121.367l-0.058-0.072
	 M312.473,122.225l0.446,0.82l0.083,0.213 M311.889,121.367l0.584,0.858 M316.176,121.857l0.969,1.31l0.225,0.37 M315.028,120.517
	l1.147,1.34 M313.725,119.164l1.303,1.354 M300.014,104.87l-0.115-0.063 M304.755,107.704l-0.042,0.074 M304.829,107.858
	l2.465,1.678 M300.014,104.871l2.383,1.429 M304.712,107.779l-0.002,0.003 M302.397,106.299l2.432,1.559 M303.987,109.052
	l0.724-1.271"/>
<path fill="none" stroke="#010101" stroke-width="1.5" stroke-miterlimit="10" d="M302.216,116.878l0.593,0.334 M301.289,116.754
	l0.009,0.579"/>
<path fill="none" stroke="#010101" stroke-width="1.5" stroke-miterlimit="10" d="M301.405,118.366l-0.102-0.766 M301.289,116.754
	l0.03-0.323"/>
<path fill="none" stroke="#010101" stroke-width="1.5" stroke-miterlimit="10" d="M301.586,119.058l-0.181-0.692 M301.834,119.684
	l-0.249-0.625"/>
<path fill="none" stroke="#010101" stroke-width="1.5" stroke-miterlimit="10" d="M302.139,120.246l-0.305-0.562 M301.324,116.372
	l-0.005,0.059 M301.012,116.287l0.604,0.282 M300.41,116.035l0.603,0.252 M301.617,116.569l0.6,0.309"/>
<path fill="none" stroke="#010101" stroke-width="1.5" stroke-miterlimit="10" d="M302.807,117.213l0.576,0.355 M299.229,115.632
	l0.584,0.186"/>
<path fill="none" stroke="#010101" stroke-width="1.5" stroke-miterlimit="10" d="M303.383,117.567l0.557,0.374 M299.229,115.632
	l-0.387-0.101 M301.34,116.197l-0.017,0.175 M299.813,115.817l0.597,0.218"/>
<line fill="none" stroke="#010101" stroke-width="1.5" stroke-miterlimit="10" x1="304.02" y1="116.596" x2="304.701" y2="117.061"/>
<path fill="none" stroke="#010101" stroke-width="1.5" stroke-miterlimit="10" d="M308.452,117.794l0.998,0.894l0.916,0.899
	 M311.182,120.484l0.649,0.811 M310.366,119.587l0.816,0.897 M303.188,116.073l0.832,0.523 M298.918,114.038l0.844,0.318
	 M298.09,113.769l0.827,0.269 M298.091,113.769l-0.593-0.16 M301.528,115.033l-0.021,0.113 M300.619,114.722l0.86,0.41
	 M299.762,114.356l0.856,0.366 M302.337,115.584l0.851,0.489 M301.481,115.132l0.857,0.452 M301.375,115.816l0.131-0.67
	 M301.375,115.816l-0.035,0.38"/>
<line fill="none" stroke="#010101" stroke-width="1.5" stroke-miterlimit="10" x1="307.383" y1="116.92" x2="308.452" y2="117.794"/>
<line fill="none" stroke="#010101" stroke-width="1.5" stroke-miterlimit="10" x1="306.26" y1="116.072" x2="307.383" y2="116.92"/>
<path fill="none" stroke="#010101" stroke-width="1.5" stroke-miterlimit="10" d="M312.294,117.816l1.431,1.348 M310.76,116.489
	l-0.46-0.368 M310.76,116.488l1.533,1.327 M305.094,115.259l1.166,0.813 M302.083,113.158l-0.076,0.206 M302.686,113.767
	l1.213,0.721 M297.846,111.476l1.189,0.476 M296.68,111.072l1.166,0.405 M295.548,110.736l-0.071-0.018 M295.547,110.736
	l1.133,0.335 M303.899,114.488l1.195,0.771 M299.036,111.952l1.209,0.543 M302.007,113.364l-0.01,0.028 M301.464,113.101
	l1.222,0.666 M300.245,112.495l1.22,0.606 M301.579,114.777l-0.051,0.255 M301.579,114.777l0.333-1.155l0.086-0.229"/>
<path fill="none" stroke="#010101" stroke-width="1.5" stroke-miterlimit="10" d="M299.434,122.375l-0.713-0.447 M300.184,122.802
	l-0.75-0.428 M305.01,124.638l-0.794-0.194 M301.77,123.575l-0.804-0.37l-0.78-0.4 M302.585,123.908l-0.815-0.333 M303.405,124.2
	l-0.819-0.292 M295.557,121.8l-0.848-0.693 M295.557,121.8l0.07,0.054 M304.216,124.444l-0.812-0.245 M296.485,122.486l-0.857-0.633
	 M297.49,123.158l-1.005-0.672 M297.49,123.158l0.261,0.158 M305.01,124.638l0.231,0.042 M302.088,125.542l-1.214-0.533
	 M304.557,126.43l-1.236-0.412l-1.232-0.477 M298.563,123.809l-0.812-0.493 M300.875,125.009l-1.179-0.579l-1.133-0.62
	 M305.78,126.768l1.087,0.236 M305.78,126.768l-1.223-0.339 M294.335,126.716l-1.978-1.272 M291.727,123.229l-0.623-0.533
	 M294.421,124.322l-1.435-0.998l-0.211-0.163 M295.975,125.298l-1.554-0.977 M304.994,129.381l-1.902-0.663 M299.389,127.134
	l-1.752-0.894 M306.891,129.936l-1.897-0.557 M308.752,130.373l-1.861-0.437 M301.215,127.964l-1.826-0.831 M308.752,130.373
	l0.532,0.09 M303.09,128.718l-1.876-0.754 M307.176,131.013l-2.156-0.666l-0.396-0.146 M309.305,131.543l-2.127-0.529
	 M297.637,126.24l-1.662-0.942 M293.27,124.4l-1.543-1.171 M296.784,126.646l-1.824-1.104l-1.689-1.143 M300.764,128.67
	l-2.037-0.977 M302.873,129.56l1.751,0.641 M302.873,129.561l-2.108-0.892 M298.725,127.693l-1.94-1.047 M296.464,127.944
	l-2.13-1.229 M298.729,129.108l1.795,0.817 M298.729,129.107l-2.264-1.164 M309.305,131.542l0.844,0.156 M303.555,131.168
	l-2.451-0.979 M310.983,133.288l-2.444-0.55l-2.492-0.713l-2.493-0.856 M301.104,130.19l-0.58-0.265 M310.983,133.288l0.312,0.049
	 M305.803,134.052l-2.869-0.99 M311.836,135.62l1.191,0.195 M311.836,135.62l-2.997-0.688l-3.036-0.88 M302.491,120.748
	l-0.352-0.503 M306.498,124.858l-0.724-0.081l-0.532-0.097 M306.497,124.859l0.295,0.009 M309.171,127.283l-1.067-0.082
	 M309.172,127.282l0.188-0.003 M306.967,127.027l-0.101-0.022 M308.106,127.2l-1.139-0.173 M310.546,130.677l-1.262-0.214
	 M312.24,130.841l-1.693-0.164 M303.294,121.583l-0.416-0.39l-0.388-0.445 M307.167,124.878l0.347-0.022 M307.167,124.879
	l-0.376-0.011 M310.151,127.27l0.41-0.053 M310.151,127.269l-0.791,0.01 M313.796,130.854l1.284-0.13 M303.725,121.918l-0.432-0.335
	 M299.186,104.408l0.713,0.398 M298.74,106.191l2.071,1.126 M296.714,105.179l2.025,1.011 M296.714,105.18l-1.134-0.514
	 M300.811,107.317l2.104,1.239l0.997,0.629 M303.862,109.275l0.125-0.224 M303.862,109.275l-0.461,0.897 M304.432,109.513
	l-0.52-0.328 M302.143,109.414l1.91,1.151l1.914,1.241 M298.389,107.403l1.862,0.955 M296.563,106.552l1.826,0.852 M307.871,113.128
	l0.147,0.11 M294.778,105.807l1.783,0.745 M300.251,108.358l1.892,1.056 M293.043,105.168l1.734,0.64 M293.043,105.168l-0.822-0.261
	 M303.033,110.893l-0.046,0.102 M303.033,110.893l0.368-0.721 M305.967,111.806l1.903,1.321 M300.606,109.679l1.719,0.948
	 M295.608,107.385l1.633,0.671 M294.016,106.81l1.592,0.573 M305.774,112.773l1.705,1.182 M292.471,106.334l1.545,0.478
	 M307.479,113.955l1.668,1.243 M292.471,106.334l-0.074-0.018 M304.05,111.662l1.724,1.111 M298.909,108.821l1.697,0.859
	 M297.241,108.055l1.669,0.766 M302.987,110.995l-0.01,0.024 M302.325,110.628l1.726,1.034 M302.389,112.334l-0.306,0.824
	 M302.391,112.334l0.586-1.314 M309.147,115.198l1.153,0.923"/>
<path fill="none" stroke="#010101" stroke-width="1.5" stroke-miterlimit="10" d="M294.965,118.216l-0.186-0.414 M295.217,118.65
	l-0.252-0.435"/>
<path fill="none" stroke="#010101" stroke-width="1.5" stroke-miterlimit="10" d="M294.78,117.802l-0.121-0.391 M295.917,119.565
	l-0.382-0.464 M294.66,117.411l-0.058-0.364 M295.535,119.101l-0.317-0.451 M294.602,117.046l0.006-0.335 M296.36,120.037
	l-0.444-0.473 M294.675,116.407l0.126-0.272 M297.432,120.992l-0.564-0.477 M298.721,121.927l-0.67-0.463 M294.8,116.135
	l0.183-0.236 M295.507,115.533l0.335-0.125 M298.051,121.465l-0.619-0.473 M295.219,115.697l0.288-0.164 M296.868,120.515
	l-0.508-0.479 M295.842,115.408l0.379-0.086 M294.608,116.712l0.067-0.305 M298.662,115.484l0.181,0.047"/>
<line fill="none" stroke="#010101" stroke-width="1.5" stroke-miterlimit="10" x1="292.711" y1="119.054" x2="292.233" y2="118.4"/>
<path fill="none" stroke="#010101" stroke-width="1.5" stroke-miterlimit="10" d="M292.231,118.399l-0.065-0.107 M293.285,119.727
	l-0.573-0.673"/>
<path fill="none" stroke="#010101" stroke-width="1.5" stroke-miterlimit="10" d="M291.846,117.769l-0.291-0.604 M291.248,116.061
	l-0.007-0.188 M291.356,116.594l-0.107-0.534 M291.846,117.769l0.319,0.522 M294.983,115.898l0.236-0.201 M293.952,120.414
	l-0.667-0.686 M294.709,121.106l-0.758-0.693"/>
<line fill="none" stroke="#010101" stroke-width="1.5" stroke-miterlimit="10" x1="291.555" y1="117.166" x2="291.356" y2="116.594"/>
<path fill="none" stroke="#010101" stroke-width="1.5" stroke-miterlimit="10" d="M288.581,119.328l-0.755-0.953 M289.475,120.308
	l-0.895-0.98"/>
<path fill="none" stroke="#010101" stroke-width="1.5" stroke-miterlimit="10" d="M287.826,118.375l-0.617-0.921 M290.51,121.306
	l-1.035-0.998"/>
<path fill="none" stroke="#010101" stroke-width="1.5" stroke-miterlimit="10" d="M288.057,119.66l-0.373-0.494 M287.208,117.453
	l-0.481-0.882l-0.352-0.839l-0.085-0.302 M291.227,115.564l0.029-0.208 M291.227,115.564l0.014,0.309 M296.221,115.322l0.422-0.046
	 M290.339,122.043l0.765,0.653 M289.116,120.851l-0.135-0.151 M290.34,122.043l-1.225-1.191 M291.68,122.314l-1.17-1.008
	 M291.68,122.315l1.096,0.846"/>
<path fill="none" stroke="#010101" stroke-width="1.5" stroke-miterlimit="10" d="M288.057,119.66l0.924,1.04 M287.168,118.478
	l-0.723-1.169 M287.167,118.478l0.517,0.688"/>
<path fill="none" stroke="#010101" stroke-width="1.5" stroke-miterlimit="10" d="M286.221,120.184l-0.606-0.741 M286.446,117.308
	l-0.555-1.152l-0.248-0.716"/>
<path fill="none" stroke="#010101" stroke-width="1.5" stroke-miterlimit="10" d="M285.157,118.884l-0.879-1.28 M287.479,121.501
	l-1.256-1.315 M284.278,117.603l-0.693-1.256 M285.157,118.883l0.458,0.561"/>
<path fill="none" stroke="#010101" stroke-width="1.5" stroke-miterlimit="10" d="M323.018,121.035l1.285,1.396 M323.018,121.036
	l-0.592-0.58 M329.86,125.833l-0.029-0.036 M329.86,125.832l1.425,1.936 M338.76,132.241l1.043,2.037 M309.776,111.326l2.471,1.889
	 M282.967,95.514l-0.457-0.108 M285.034,96.102l2.131,0.714 M282.967,95.515l2.066,0.588 M291.641,98.648l0.602,0.29
	 M289.366,97.663l2.275,0.985 M287.165,96.816l2.201,0.847 M292.408,98.795l-0.835,0.72 M293.328,99.459l-1.085-0.521
	 M281.412,97.852l1.812,0.296 M279.663,97.662l1.749,0.191 M277.977,97.569l1.687,0.092 M276.354,97.571l1.623-0.002
	 M274.795,97.665l1.559-0.093 M273.303,97.844l1.492-0.179 M271.879,98.107l1.424-0.264 M269.255,98.871l1.274-0.421
	 M268.063,99.371l1.192-0.499 M265.94,100.596l1.016-0.651 M265.938,100.594l-0.692,0.552 M283.223,98.148l1.697,0.369
	 M274.694,102.419l1.107-0.423 M285.096,98.554l1.457,0.393 M285.096,98.555l-0.176-0.038 M275.801,101.995l1.193-0.338
	 M273.674,102.924l1.018-0.506 M272.752,103.512l0.922-0.589 M291.057,99.957l0.516-0.442 M291.057,99.958l-0.392,0.347
	 M294.168,100.065l-1.281,1.173 M291.098,100.486l2.131,0.896 M271.934,104.181l0.818-0.669 M271.225,104.931l0.709-0.75
	 M287.032,99.076l-0.479-0.129 M270.637,105.764l0.588-0.832 M287.032,99.076l2,0.642 M290.665,100.304l-0.018,0.015
	 M289.032,99.718l2.064,0.768 M289.526,101.31l-0.449,0.414 M289.524,101.311l1.123-0.992 M291.387,102.649l-0.084,0.083
	 M297.69,103.573l1.496,0.835 M295.425,102.41l2.263,1.163 M293.227,101.382l2.198,1.029 M292.841,101.28l0.046-0.042
	 M291.387,102.648l1.453-1.369 M294.737,104.286l0.844,0.381 M270.635,105.764l-0.109,0.217 M282.528,101.194l1.558,0.121
	 M278.266,101.406l1.35-0.163 M281.038,101.171l1.49,0.023 M279.617,101.243l1.422-0.072 M276.996,101.657l1.272-0.251
	 M289.077,101.724l-0.419,0.386 M285.709,101.537l1.686,0.327 M284.085,101.315l1.623,0.222 M291.305,102.732l-0.119,0.117
	 M292.815,103.508l1.922,0.777 M291.186,102.849l-0.062,0.06 M290.949,102.847l1.866,0.66 M288.658,102.11l-0.035,0.033
	 M289.141,102.3l1.808,0.548 M288.623,102.143l-0.022,0.021 M287.395,101.864l1.746,0.436 M286.653,103.653l0.352,0.053
	 M279.061,104.277l1.074-0.327 M278.077,104.689l0.984-0.412 M283.831,103.494l1.378,0.032 M277.184,105.184l0.893-0.495
	 M285.209,103.526l1.443,0.127 M282.522,103.557l1.309-0.062 M280.135,103.95l1.154-0.241 M276.393,105.76l0.791-0.576
	 M276.393,105.76l-0.314,0.303 M281.289,103.709l1.233-0.152 M286.928,103.782l1.223-1.203l0.449-0.414 M285.858,104.937
	l-0.373,0.453 M285.858,104.938l1.07-1.156 M290.096,103.927l-0.222,0.236 M290.096,103.927l1.028-1.018 M291.36,104.634
	l0.861,0.273 M288.162,103.879l-1.157-0.173 M289.731,104.205l0.082,0.022 M288.162,103.879l1.569,0.326 M288.959,105.135
	l-0.006,0.007 M288.959,105.135l0.915-0.972 M291.36,104.634l-1.547-0.406 M284.422,105.466l1.178-0.084 M274.374,108.874
	l-0.096,0.541 M275.708,106.419l0.371-0.355 M275.137,107.157l0.57-0.738 M275.137,107.157l-0.34,0.622 M282.296,105.894
	l1.022-0.256 M274.69,107.976l0.107-0.197 M274.374,108.874l0.316-0.896 M278.149,109.143l0.422-0.738 M283.319,105.637l1.104-0.172
	 M278.571,108.406l0.539-0.661 M281.358,106.235l0.938-0.341 M277.668,111.808l0.104,0.807 M279.76,107.161l0.75-0.503
	 M279.11,107.745l0.65-0.583 M280.51,106.658l0.848-0.423 M277.69,110.847l0.162-0.891 M277.669,111.809l0.021-0.962
	 M277.852,109.957l0.297-0.812 M283.532,108.263l0.626-1.098 M284.934,106.06l0.551-0.67 M282.571,112.744l0.002-1.146
	 M282.735,113.917l-0.164-1.173 M284.159,107.166l0.775-1.104 M282.735,113.917l0.113,0.402 M283.057,109.361l0.475-1.099
	 M282.735,110.469l0.322-1.108 M282.573,111.596l0.162-1.127 M285.202,112.807v0.007 M288.164,105.482l0.446,0.062 M285.6,105.381
	l1.248,0.005l1.315,0.097 M287.975,106.288l0.979-1.146 M286.455,108.495l0.687-1.091 M285.916,109.572l0.539-1.077
	 M285.526,110.645l0.39-1.073 M287.141,107.405l0.834-1.116 M289.542,105.671l1.438,0.284l1.418,0.361 M285.287,111.722l0.239-1.077
	 M285.202,112.806l0.086-1.085 M289.542,105.671l-0.932-0.127 M287.186,111.363l0.519-0.378 M292.401,110.169l1.002,0.116
	 M285.272,113.906l-0.07-1.092 M285.27,113.906l0.121,0.583 M286.192,112.884l0.232-0.568 M286.067,113.513l0.125-0.63
	 M294.455,110.473l1.022,0.245 M290.565,110.156l0.89-0.03 M288.987,110.43l0.756-0.173 M286.049,114.2l0.016-0.686
	 M287.704,110.985l0.602-0.312 M286.05,114.2l0.046,0.336 M288.305,110.674l0.682-0.242 M286.758,111.807l0.428-0.444
	 M289.743,110.258l0.822-0.102 M293.403,110.285l1.051,0.189 M291.455,110.126l0.946,0.042 M286.424,112.315l0.334-0.507
	 M293.254,113.379l0.555-0.106 M296.514,113.387l0.773,0.164 M291.957,114.019l0.368-0.266 M295.772,113.276l0.74,0.111
	 M291.66,114.334l0.297-0.314 M294.416,113.219l0.655,0.001 M291.436,114.698l0.224-0.364 M295.071,113.219l0.701,0.057
	 M293.809,113.272l0.606-0.054 M292.325,113.754l0.434-0.214 M291.436,114.699l-0.065,0.188 M297.288,113.552l0.211,0.058
	 M292.758,113.54l0.496-0.161 M297.1,115.268l0.494,0.032 M298.115,115.373l0.547,0.111 M297.594,115.302l0.521,0.072
	 M283.073,115.118l0.148,0.358 M283.073,115.117l-0.225-0.798 M285.5,115.022l0.143,0.418 M285.5,115.022l-0.109-0.533
	 M286.153,114.941l-0.057-0.405 M286.153,114.94l0.138,0.49 M291.292,115.108l-0.035,0.248 M291.292,115.108l0.079-0.221
	 M296.643,115.276l0.457-0.007 M283.584,116.347l-0.363-0.871 M290.55,124.14l-1.629-1.318"/>
<path fill="none" stroke="#010101" stroke-width="1.5" stroke-miterlimit="10" d="M322.559,115.014l3.832,3.355l3.646,3.412
	l3.333,3.417 M336.25,128.56l2.285,3.24l0.225,0.44 M307.293,109.535l2.482,1.791"/>
<line fill="none" stroke="#010101" stroke-width="1.5" stroke-miterlimit="10" x1="327.477" y1="123.088" x2="329.831" y2="125.797"/>
<line fill="none" stroke="#010101" stroke-width="1.5" stroke-miterlimit="10" x1="321.811" y1="117.547" x2="324.762" y2="120.312"/>
<line fill="none" stroke="#010101" stroke-width="1.5" stroke-miterlimit="10" x1="318.706" y1="114.832" x2="321.811" y2="117.547"/>
<line fill="none" stroke="#010101" stroke-width="1.5" stroke-miterlimit="10" x1="324.762" y1="120.312" x2="327.477" y2="123.088"/>
<line fill="none" stroke="#010101" stroke-width="1.5" stroke-miterlimit="10" x1="315.264" y1="113.985" x2="317.981" y2="116.289"/>
<polyline fill="none" stroke="#010101" stroke-width="1.5" stroke-miterlimit="10" points="317.981,116.289 320.586,118.649 
	322.426,120.456 "/>
<line fill="none" stroke="#010101" stroke-width="1.5" stroke-miterlimit="10" x1="315.264" y1="113.985" x2="314.313" y2="113.225"/>
<path fill="none" stroke="#010101" stroke-width="1.5" stroke-miterlimit="10" d="M312.325,109.677l3.199,2.522l3.182,2.632
	 M304.194,105.782l1.191,0.815 M301.53,104.058l2.664,1.724 M298.938,102.481l2.592,1.577 M296.424,101.054l2.514,1.427
	 M296.425,101.054l-2.122-1.114 M304.899,107.452l-0.144,0.252 M306.173,105.391l0.117-0.178 M305.385,106.596l0.03,0.021
	 M304.899,107.452l1.274-2.06 M312.487,111.764l1.826,1.461 M309.694,109.646l2.793,2.118 M306.921,107.647l-1.506-1.03
	 M306.922,107.647l2.771,1.999"/>
<path fill="none" stroke="#010101" stroke-width="1.5" stroke-miterlimit="10" d="M309.158,107.287l3.167,2.391 M306.293,105.209
	l-0.003,0.005 M306.057,105.045l3.102,2.242"/>
<path fill="none" stroke="#010101" stroke-width="1.5" stroke-miterlimit="10" d="M261.434,89.93l1.688-0.139 M261.434,89.931
	l-1.133,0.127 M263.122,89.792l1.732-0.085 M261.524,96.399l-0.959,0.463 M275.311,94.272l1.828,0.158 M267.028,94.742l1.541-0.246
	 M265.551,95.057l1.477-0.315 M277.137,94.43l0.35,0.047 M264.139,95.44l1.414-0.382 M273.541,94.205l1.771,0.067 M271.826,94.224
	l1.715-0.02 M268.567,94.496l1.601-0.174 M262.796,95.887l1.343-0.448 M261.526,96.399l1.271-0.512 M270.168,94.322l1.657-0.098
	 M266.955,99.945l1.106-0.575 M284.827,93.059l2.324,0.938l0.326,0.147 M282.578,92.257l-0.509-0.156 M280.965,95.043l1.545,0.363
	 M279.022,94.684l1.942,0.358 M279.022,94.685l-1.535-0.208 M270.528,98.45l1.352-0.343 M289.555,95.085l2.493,1.242
	 M318.657,111.756l-0.012-0.009 M318.656,111.756l3.903,3.259 M289.555,95.085l-2.078-0.939 M292.049,96.326l1.979,1.074
	 M292.753,98.498l-0.346,0.297 M294.028,97.4l0.008,0.004 M292.753,98.498l1.3-1.107 M294.639,97.732l-0.604-0.328 M293.993,99.777
	l0.311,0.163 M293.994,99.777l-0.666-0.319 M294.461,99.796l1.459-1.316 M294.461,99.796l-0.293,0.27 M306.615,104.724l-0.321,0.484
	 M303.045,102.963l3.012,2.082 M300.135,101.048l2.909,1.915 M297.333,99.305l2.802,1.743"/>
<path fill="none" stroke="#010101" stroke-width="1.5" stroke-miterlimit="10" d="M255.158,90.93l1.495-0.313 M278.274,91.029
	l2.121,0.554 M255.159,90.929l-0.848,0.206 M280.397,91.584l1.672,0.517 M272.239,89.983l1.961,0.255 M276.21,90.584l2.063,0.445
	 M268.456,89.71l1.868,0.1 M266.632,89.677l1.823,0.032 M264.856,89.707l1.776-0.029 M274.2,90.238l2.011,0.346 M270.323,89.808
	l1.914,0.174 M259.794,90.116l0.507-0.058 M256.653,90.616l1.547-0.272l1.594-0.229"/>
<path fill="none" stroke="#010101" stroke-width="1.5" stroke-miterlimit="10" d="M288.922,122.822l-1.443-1.322 M247.772,79.938
	l0.375,0.052 M241.266,78.758l-0.646-0.155 M241.266,78.757l1.582,0.341l1.611,0.307l1.643,0.279l1.67,0.255 M245.8,79.883
	l1.688,0.1 M242.524,79.56l-1.018-0.146 M242.524,79.558l1.621,0.184l1.654,0.141 M247.487,79.983l0.703,0.022"/>
<path fill="none" stroke="#010101" stroke-width="1.5" stroke-miterlimit="10" d="M265.022,101.323l0.224-0.177 M264.212,102.128
	l0.81-0.805 M262.944,103.977l0.572-0.965l0.696-0.885 M262.944,103.977l-0.088,0.211 M269.678,108.753l-0.004,0.348
	 M269.852,107.673l0.323-0.996 M269.678,108.752l0.174-1.079 M270.174,106.677l0.352-0.695 M274.315,112.04l0.129,0.497
	 M274.2,109.852l0.078-0.438 M274.176,110.906l0.023-1.055 M274.315,112.039l-0.14-1.133 M278.096,113.948l-0.295-1.105
	 M278.561,115.12l-0.465-1.172 M278.561,115.12l0.321,0.614 M277.8,112.843l-0.028-0.228"/>
<line fill="none" stroke="#010101" stroke-width="1.5" stroke-miterlimit="10" x1="259.217" y1="97.619" x2="260.331" y2="96.976"/>
<line fill="none" stroke="#010101" stroke-width="1.5" stroke-miterlimit="10" x1="260.331" y1="96.976" x2="260.565" y2="96.862"/>
<path fill="none" stroke="#010101" stroke-width="1.5" stroke-miterlimit="10" d="M258.192,98.328l1.025-0.709 M257.258,99.106
	l0.932-0.778"/>
<path fill="none" stroke="#010101" stroke-width="1.5" stroke-miterlimit="10" d="M292.358,125.443l-1.808-1.302 M224.51,72.107
	l-0.791-0.819 M228.498,73.446l1.267,0.854 M228.499,73.447l-1.089-0.844 M235.243,76.983l1.459,0.516 M238.192,77.963l1.521,0.418
	 M233.817,76.411l1.426,0.572 M229.764,74.301l1.312,0.774 M232.428,75.777l1.389,0.634 M239.714,78.382l0.906,0.221
	 M236.702,77.498l1.49,0.465 M239.38,79.059l1.558,0.272l0.568,0.082 M231.075,75.075l1.354,0.702 M226.848,74.047l1.244,0.835
	 M225.651,73.125l1.197,0.922 M224.51,72.107l1.141,1.018 M232.071,76.92l1.398,0.542 M230.709,76.314l1.361,0.606 M233.469,77.463
	l1.43,0.481 M229.381,75.635l1.327,0.679 M234.899,77.944l1.463,0.424 M228.092,74.882l1.289,0.753 M236.362,78.368l1.494,0.371
	l1.524,0.32 M248.487,93.093l1.22-0.514 M248.487,93.093l-0.616,0.299 M249.707,92.579l1.278-0.472 M252.321,91.675l1.393-0.392
	 M250.985,92.107l1.336-0.433 M253.713,91.282l0.598-0.146 M257.26,99.106l-0.604,0.615"/>
<line fill="none" stroke="#010101" stroke-miterlimit="10" x1="346.307" y1="164.312" x2="322.512" y2="169.143"/>
<line fill="none" stroke="#010101" stroke-miterlimit="10" x1="346.307" y1="164.312" x2="322.512" y2="169.143"/>
<path fill="none" stroke="#010101" stroke-width="1.5" stroke-miterlimit="10" d="M282.332,120.402l-0.411-0.461 M299.835,131.831
	l-2.837-1.289 M302.786,133.01l0.148,0.053 M302.785,133.01l-2.949-1.179 M296.998,130.542l-2.688-1.372 M289.78,128.597
	l-2.588-1.647 M292.627,130.227l-2.847-1.629 M305.825,135.854l-3.491-1.211l-3.396-1.363l-3.248-1.482l-3.062-1.57
	 M305.826,135.854l1.649,0.479 M294.022,133.415l-3.072-1.576 M310.061,139.361l2.367,0.541 M310.059,139.361l-4.168-1.205
	l-4.109-1.421 M297.805,135.141l-3.783-1.727 M301.782,136.735l-3.977-1.594 M316.828,144.641l2.743,0.407 M316.829,144.642
	l-5.246-1.146 M296.163,138.312l-0.364-0.163 M306.311,142.02l-5.172-1.748l-4.976-1.96 M311.583,143.497l-5.271-1.476
	 M308.52,146.492l-6.371-1.998 M321.393,149.334l-6.4-1.203l-6.473-1.64 M302.149,144.494l-2.062-0.765 M321.395,149.334
	l4.889,0.551 M314.971,154.475l-8.304-2.184 M331.832,157.164l-8.288-1.003l-8.572-1.686 M331.831,157.164l4.746,0.137"/>
<path fill="none" stroke="#010101" stroke-width="1.5" stroke-miterlimit="10" d="M283.792,121.84l-1.46-1.438 M281.085,119.003
	l0.835,0.938"/>
<path fill="none" stroke="#010101" stroke-width="1.5" stroke-miterlimit="10" d="M270.92,122.754l-1.186-1.172 M291.462,136.198
	l4.336,1.951 M296.022,142.221l-5.78-2.47 M296.022,142.221l4.065,1.508 M276.387,140.05l-5.943-3.319 M283.012,143.348
	l-6.625-3.299 M290.283,146.544l-7.271-3.195 M306.417,152.226l0.251,0.065 M306.417,152.226l-8.292-2.686l-7.843-2.997
	 M281.084,119.003l-1.038-1.351 M287.364,124.789l-1.895-1.481 M294.309,129.169l-2.514-1.43l-2.32-1.467 M285.469,123.307
	l-1.679-1.468 M289.475,126.272l-2.111-1.483 M280.046,117.652l-0.838-1.296l-0.326-0.622"/>
<path fill="none" stroke="#010101" stroke-width="1.5" stroke-miterlimit="10" d="M268.803,120.662l-0.305-0.342 M279.469,129.424
	l-3.23-2.271 M283.088,131.712l-3.619-2.288 M276.239,127.151l-2.846-2.23l-2.474-2.168 M268.803,120.663l0.932,0.919"/>
<line fill="none" stroke="#010101" stroke-width="1.5" stroke-miterlimit="10" x1="287.094" y1="133.983" x2="283.088" y2="131.712"/>
<path fill="none" stroke="#010101" stroke-width="1.5" stroke-miterlimit="10" d="M290.475,131.594l0.475,0.244 M290.241,139.752
	l-5.358-2.596 M268.227,126.592l-2.983-2.5 M271.667,129.176l-3.439-2.584 M265.244,124.093l-0.699-0.655 M279.991,134.495
	l-4.406-2.673 M284.882,137.157l-4.892-2.661 M275.584,131.823l-3.918-2.646 M291.462,136.199l-4.368-2.216"/>
<line fill="none" stroke="#010101" stroke-width="1.5" stroke-miterlimit="10" x1="279.231" y1="120.362" x2="277.868" y2="118.812"/>
<path fill="none" stroke="#010101" stroke-width="1.5" stroke-miterlimit="10" d="M280.838,121.961l-1.607-1.599 M277.868,118.812
	l-1.131-1.491 M282.694,123.599l-1.855-1.639"/>
<path fill="none" stroke="#010101" stroke-width="1.5" stroke-miterlimit="10" d="M276.737,117.322l-0.909-1.428l-0.698-1.358
	l-0.5-1.286 M284.805,125.263l-2.109-1.664 M274.629,113.25l-0.186-0.713 M287.169,126.935l0.022,0.015 M287.168,126.936
	l-2.363-1.673"/>
<line fill="none" stroke="#010101" stroke-width="1.5" stroke-miterlimit="10" x1="277.063" y1="122.177" x2="275.27" y2="120.385"/>
<path fill="none" stroke="#010101" stroke-width="1.5" stroke-miterlimit="10" d="M275.27,120.385l-1.518-1.729 M279.147,124.024
	l-2.084-1.847"/>
<path fill="none" stroke="#010101" stroke-width="1.5" stroke-miterlimit="10" d="M273.751,118.655l-1.251-1.659 M281.528,125.909
	l-2.381-1.885"/>
<path fill="none" stroke="#010101" stroke-width="1.5" stroke-miterlimit="10" d="M272.5,116.997l-1.003-1.582 M284.215,127.814
	l-2.686-1.905"/>
<path fill="none" stroke="#010101" stroke-width="1.5" stroke-miterlimit="10" d="M271.498,115.414l-0.771-1.5 M287.201,129.719
	l-2.986-1.904 M270.176,112.497l-0.35-1.333"/>
<line fill="none" stroke="#010101" stroke-width="1.5" stroke-miterlimit="10" x1="270.727" y1="113.914" x2="270.176" y2="112.497"/>
<line fill="none" stroke="#010101" stroke-width="1.5" stroke-miterlimit="10" x1="290.475" y1="131.596" x2="287.201" y2="129.719"/>
<line fill="none" stroke="#010101" stroke-width="1.5" stroke-miterlimit="10" x1="269.827" y1="111.164" x2="269.666" y2="109.916"/>
<path fill="none" stroke="#010101" stroke-width="1.5" stroke-miterlimit="10" d="M262.358,110.112l-0.232-1.411l-0.042-1.316
	 M262.506,105.026l0.35-0.838 M264.373,114.939l-0.911-1.709 M265.551,116.751l-1.179-1.811 M263.461,113.23l-0.665-1.608
	 M267.02,118.659l1.479,1.661 M262.795,111.622l-0.438-1.509 M267.022,118.659l-1.471-1.909 M262.215,106.161l0.291-1.135
	 M262.083,107.385l0.132-1.224 M269.666,109.916l0.009-0.815"/>
<line fill="none" stroke="#010101" stroke-width="1.5" stroke-miterlimit="10" x1="260.534" y1="119.408" x2="258.746" y2="117.242"/>
<line fill="none" stroke="#010101" stroke-width="1.5" stroke-miterlimit="10" x1="262.688" y1="121.694" x2="264.544" y2="123.437"/>
<path fill="none" stroke="#010101" stroke-width="1.5" stroke-miterlimit="10" d="M262.69,121.694l-2.156-2.286 M257.295,115.198
	l-1.145-1.921 M258.746,117.242l-1.45-2.043 M256.151,113.277l-0.865-1.801l-0.614-1.685"/>
<line fill="none" stroke="#010101" stroke-width="1.5" stroke-miterlimit="10" x1="254.671" y1="109.792" x2="254.286" y2="108.222"/>
<line fill="none" stroke="#010101" stroke-width="1.5" stroke-miterlimit="10" x1="254.286" y1="108.222" x2="254.106" y2="106.759"/>
<line fill="none" stroke="#010101" stroke-width="1.5" stroke-miterlimit="10" x1="254.106" y1="106.759" x2="254.116" y2="105.398"/>
<line fill="none" stroke="#010101" stroke-width="1.5" stroke-miterlimit="10" x1="253.149" y1="124.279" x2="251.647" y2="122.85"/>
<path fill="none" stroke="#010101" stroke-width="1.5" stroke-miterlimit="10" d="M260.567,130.263l-3.994-3.065 M265.176,133.451
	l-4.611-3.188 M250.25,121.519l1.397,1.331 M254.115,105.399l0.179-1.265"/>
<path fill="none" stroke="#010101" stroke-width="1.5" stroke-miterlimit="10" d="M256.573,127.198l-3.424-2.919 M241.891,110.19
	l-0.731-1.805 M242.887,112.139l-0.996-1.949 M245.811,116.501l-1.629-2.261 M247.819,118.926l-2.008-2.425 M245.223,94.908
	l1.02-0.653 M244.278,95.614l0.945-0.706 M246.243,94.255l1.089-0.604 M243.415,96.376l0.863-0.762 M240.272,103.748l0.063-1.315
	 M240.374,105.175l-0.102-1.426 M241.953,98.09l0.685-0.89 M240.663,106.716l-0.289-1.542 M240.901,100.091l0.471-1.04
	 M241.16,108.385l-0.497-1.669 M241.372,99.05l0.582-0.961 M240.55,101.215l0.351-1.125 M242.639,97.199l0.776-0.823
	 M244.182,114.24l-1.295-2.101 M247.331,93.651l0.54-0.26 M240.335,102.432l0.215-1.218 M255.706,100.878l0.723-0.923l0.229-0.233
	 M255.102,101.879l0.604-1.001 M254.626,102.963l0.476-1.084 M250.249,121.519l-2.43-2.594 M254.293,104.135l0.333-1.171"/>
<line fill="none" stroke="#010101" stroke-width="1.5" stroke-miterlimit="10" x1="270.444" y1="136.73" x2="265.176" y2="133.452"/>
<line fill="none" stroke="#010101" stroke-miterlimit="10" x1="202.604" y1="130.619" x2="258.588" y2="182.121"/>
<line fill="none" stroke="#010101" stroke-miterlimit="10" x1="205.26" y1="133.061" x2="255.339" y2="179.132"/>
<line fill="none" stroke="#010101" stroke-miterlimit="10" x1="230.067" y1="190.066" x2="230.067" y2="190.066"/>
<line fill="none" stroke="#010101" stroke-miterlimit="10" x1="258.588" y1="182.121" x2="322.512" y2="169.143"/>
<line fill="none" stroke="#010101" stroke-miterlimit="10" x1="298.309" y1="174.056" x2="322.512" y2="169.143"/>
<path fill="none" stroke="#010101" stroke-width="1.5" stroke-miterlimit="10" d="M344.149,126.491l0.352,0.352 M294.641,97.732
	l2.692,1.573"/>
<polyline fill="none" stroke="#010101" stroke-width="1.5" stroke-miterlimit="10" points="310.969,105.669 314.77,108.632 
	318.645,111.747 "/>
<line fill="none" stroke="#010101" stroke-width="1.5" stroke-miterlimit="10" x1="310.969" y1="105.669" x2="307.653" y2="103.155"/>
<line fill="none" stroke="#010101" stroke-width="1.5" stroke-miterlimit="10" x1="311.848" y1="103.591" x2="316.276" y2="107.109"/>
<path fill="none" stroke="#010101" stroke-width="1.5" stroke-miterlimit="10" d="M316.276,107.109l4.603,3.716 M311.848,103.591
	l-2.113-1.658"/>
<polyline fill="none" stroke="#010101" stroke-width="1.5" stroke-miterlimit="10" points="320.878,110.825 325.567,114.706 
	329.469,118.067 "/>
<path fill="none" stroke="#010101" stroke-width="1.5" stroke-miterlimit="10" d="M342.776,55.426l4.259-7.434 M318.643,105.105
	l-2.953-2.391 M347.035,47.992l3.399-7.565 M282.578,92.257l2.249,0.802 M294.621,96.906l-0.567,0.484 M294.621,96.906l0.297-0.253
	 M332.276,116.152l6.09,5.133 M326.157,111.164l6.119,4.987 M320.219,106.381l-1.576-1.275 M320.219,106.381l5.938,4.783
	 M338.365,121.284l5.784,5.207 M296.26,98.174l-0.34,0.306 M296.26,98.175l0.829-0.748 M303.792,100.304l-1.373-0.979
	 M307.3,102.889l0.349,0.264 M303.792,100.304l3.509,2.585 M307.716,103.058l1.03-1.479 M307.651,103.153l0.002,0.002
	 M307.717,103.057l-1.102,1.667"/>
<path fill="none" stroke="#010101" stroke-width="1.5" stroke-miterlimit="10" d="M314.615,101.843l-1.56-1.281 M314.614,101.843
	l1.076,0.872"/>
<path fill="none" stroke="#010101" stroke-width="1.5" stroke-miterlimit="10" d="M313.055,100.561l-1.373-1.128 M338.096,62.531
	l4.68-7.105"/>
<path fill="none" stroke="#010101" stroke-width="1.5" stroke-miterlimit="10" d="M311.682,99.432l-0.668-0.55 M309.735,101.931
	l-0.637-0.5 M333.346,69.17l4.752-6.639"/>
<path fill="none" stroke="#010101" stroke-width="1.5" stroke-miterlimit="10" d="M317.272,90.1l-2.071,2.707 M317.272,90.1
	l3.401-4.388 M328.764,75.263l4.58-6.094"/>
<path fill="none" stroke="#010101" stroke-width="1.5" stroke-miterlimit="10" d="M338.059,45.969l1.938-5.56 M337.194,51.232
	l-2.287,3.788 M337.194,51.233l1.642-3.379 M339.998,40.408l0.839-5.383 M340.001,45.457l-1.166,2.397 M340.001,45.456l1.427-4.281
	 M340.836,35.025l-0.484-5.039 M341.917,39.711l-0.488,1.464 M341.917,39.711l0.628-4.667 M340.352,29.986l-1.967-4.536 M342,29.008
	l-2.05-4.247 M342.662,34.169l-0.117,0.875 M342.662,34.169L342,29.008 M350.434,40.427l2.062-7.454 M286.127,89.037l2.594,1.397
	 M283.637,87.808l2.49,1.229 M281.24,86.734l2.397,1.074 M278.917,85.799l2.321,0.935 M278.917,85.8l-1.325-0.475 M291.436,92.01
	l2.851,1.771l2.259,1.482 M288.721,90.434l2.715,1.576 M296.668,95.156l-1.751,1.497 M296.668,95.155l0.314-0.272 M298.813,95.869
	l-0.562,0.512 M297.289,95.75l-0.743-0.486 M300.454,97.924l1.965,1.401 M297.288,95.75l0.943,0.648 M298.248,96.384l0.003-0.003
	 M298.247,96.385l-1.157,1.042 M300.454,97.924l-2.223-1.525 M324.514,80.776l4.252-5.513 M320.674,85.713l3.84-4.937
	 M314.303,93.98l0.897-1.173 M311.745,97.398l2.559-3.419 M311.744,97.398l-0.947,1.307 M311.014,98.883l-0.358-0.295
	 M308.692,101.113l0.229,0.179 M309.561,100.408l1.235-1.703 M309.561,100.409l-0.625,0.896 M309.098,101.432l-0.178-0.141
	 M308.747,101.579l0.189-0.273"/>
<path fill="none" stroke="#010101" stroke-width="1.5" stroke-miterlimit="10" d="M318.401,76.394l-2.61,2.828 M318.403,76.394
	l3.781-4.298l3.904-4.705l3.719-4.829 M335.288,51.545l2.773-5.576 M330.006,62.304l-0.199,0.258 M330.006,62.304l3.771-5.415
	l1.129-1.869"/>
<path fill="none" stroke="#010101" stroke-width="1.5" stroke-miterlimit="10" d="M296.6,91.836l2.088,1.57 M293.411,89.502
	l3.189,2.334 M290.43,87.399l2.98,2.103 M273.203,76.743l1.437-0.465 M273.203,76.744l-0.591,0.17 M280.09,81.033l2.395,1.319
	 M287.631,85.518l2.799,1.882 M284.992,83.841l2.64,1.678 M282.485,82.352l2.508,1.488 M272.612,76.913l-1.004,0.289
	 M271.317,77.088l2.097,0.823l2.153,0.92 M269.27,76.344l2.047,0.744 M275.567,78.83l2.223,1.035 M267.272,75.665l1.998,0.679
	 M267.272,75.665l-1.571-0.506 M270.934,77.395l0.674-0.193 M270.934,77.396l-2.019,0.512 M277.79,79.866l2.301,1.167
	 M298.909,93.216l-1.926,1.667 M298.692,93.407l-0.004-0.001 M298.909,93.217l2.441-2.159 M298.731,93.438l-0.039-0.03
	 M301.35,91.058l2.657-2.415 M301.579,90.922l-0.041-0.034 M298.823,93.507l-0.092-0.068 M304.007,88.643l2.882-2.703
	 M301.678,91.007l-0.101-0.085 M298.985,93.628l-0.162-0.122 M306.889,85.94l3.109-3.025 M301.854,91.16l-0.176-0.152
	 M299.233,93.814l-0.248-0.187 M309.999,82.915l3.337-3.377 M302.13,91.398l-0.276-0.238 M299.592,94.084l-0.361-0.271
	 M316.881,75.785l3.719-4.144l3.825-4.532l3.829-4.898l3.686-5.215l3.347-5.451 M313.335,79.538l3.546-3.754 M308.334,86.903
	l3.116-3.125 M305.466,89.691l-2.534,2.395 M305.466,89.691l2.868-2.788 M311.451,83.778l3.36-3.495l0.979-1.061 M309.432,97.583
	l1.224,1.005 M304.717,93.62l4.717,3.963 M304.716,93.621l-2.585-2.223 M300.026,94.411l0.214,0.163 M300.026,94.411l-0.434-0.326
	 M300.434,94.396l-1.621,1.473 M300.241,94.575L300.241,94.575 M302.836,92.176l0.096-0.09 M300.434,94.397l2.402-2.221
	 M307.649,100.293l1.043,0.819 M303.706,97.231l-3.464-2.655 M303.706,97.231l3.943,3.062"/>
<path fill="none" stroke="#010101" stroke-width="1.5" stroke-miterlimit="10" d="M293.237,83.577l-2.286-2.05 M293.237,83.576
	l3.416,3.042l3.812,3.346l1.073,0.924 M251.27,62.648l1.254,0.731"/>
<path fill="none" stroke="#010101" stroke-width="1.5" stroke-miterlimit="10" d="M290.173,80.83l-0.832-0.743 M290.173,80.83
	l0.777,0.697"/>
<path fill="none" stroke="#010101" stroke-width="1.5" stroke-miterlimit="10" d="M282.825,73.033l2.535-1.257 M282.826,73.033
	l-1.048,0.469 M280.461,72.413l1.486,1.229 M273.167,67.008l-1.12-0.736 M274.844,68.16l1.766,1.27 M273.167,67.009l1.678,1.151
	 M276.61,69.427l1.865,1.41l1.986,1.574 M277.906,75.129l2.434-0.981l1.438-0.646 M275.526,75.991l-0.887,0.287 M275.526,75.991
	l2.379-0.862 M287.942,70.367l2.615-1.572 M285.36,71.777l2.58-1.41 M282.51,74.108l-0.562-0.466 M290.557,68.795l2.639-1.742
	 M282.592,74.174l-0.082-0.066 M282.591,74.174l0.359,0.309 M293.196,67.052l0.445-0.321 M284.895,76.149l2.513,2.211
	 M284.895,76.149l-1.944-1.667 M287.407,78.36l1.935,1.727"/>
<path fill="none" stroke="#010101" stroke-width="1.5" stroke-miterlimit="10" d="M266.909,66.07l1.857-0.147 M265.091,66.124
	l1.816-0.054 M268.766,65.923l1.896-0.241l0.384-0.068 M271.567,65.956l-0.534-0.34 M255.28,64.584l1.486,0.474l1.553,0.387
	 M253.865,64.025l1.415,0.559 M252.524,63.379l1.341,0.646 M250.104,61.827l1.166,0.82 M263.321,66.086l1.771,0.038"/>
<path fill="none" stroke="#010101" stroke-width="1.5" stroke-miterlimit="10" d="M261.6,65.959l1.721,0.127 M258.319,65.444
	l1.611,0.301l1.67,0.214"/>
<path fill="none" stroke="#010101" stroke-width="1.5" stroke-miterlimit="10" d="M267.18,63.19l1.396,0.873 M271.05,65.612
	l-0.005,0.001 M271.567,65.956l0.479,0.315 M268.576,64.063l1.462,0.917 M247.256,58.828l0.831,1.09 M245.438,53.562l0.197,1.45
	 M246.561,57.646l0.695,1.182 M245.444,52.026l-0.006,1.536 M245.673,50.409l-0.229,1.617 M245.672,50.409l0.16-0.573
	 M270.038,64.98l0.995,0.636"/>
<path fill="none" stroke="#010101" stroke-width="1.5" stroke-miterlimit="10" d="M265.85,62.344l1.33,0.846 M264.589,61.517
	l1.261,0.829"/>
<path fill="none" stroke="#010101" stroke-width="1.5" stroke-miterlimit="10" d="M262.289,59.858l1.112,0.833 M261.26,59.01
	l1.029,0.849"/>
<path fill="none" stroke="#010101" stroke-width="1.5" stroke-miterlimit="10" d="M273.033,35.474l-2.403,0.93 M291.235,33.36
	l-2.434-0.269 M262.78,40.976l-1.454,1.268 M278.192,34.004l-2.627,0.665 M280.875,33.5l-2.684,0.504 M266.317,38.555l-1.871,1.186
	 M299.781,37.743l-1.108-1.252 M300.813,44.036l0.24-1.713 M288.549,58.706l1.906-1.335 M295.639,52.777l1.463-1.689
	 M292.289,55.932l1.737-1.535 M298.382,49.347l1.066-1.772 M272.594,65.339l-1.543,0.273 M300.971,40.684l-0.423-1.535
	 M263.401,60.691l1.188,0.826 M286.591,59.931l1.958-1.226 M272.594,65.34l1.961-0.443 M290.456,57.371l1.833-1.438 M274.555,64.896
	l1.986-0.549 M294.026,54.397l1.613-1.62 M278.546,63.689l2.019-0.77 M297.102,51.088l1.28-1.74 M300.268,45.796l0.543-1.76
	 M280.563,62.92l2.021-0.882 M301.053,42.323l-0.082-1.639 M300.548,39.149l-0.768-1.406 M282.584,62.039l2.014-0.997
	 M276.542,64.346l2.005-0.657 M284.598,61.042l1.993-1.11 M299.449,47.575l0.819-1.779 M308.074,53.034l1.917-2.81 M295.841,65.135
	l-2.2,1.597 M295.841,65.135l2.628-2.095 M305.903,55.747l2.171-2.713 M301.048,60.77l2.494-2.437l2.36-2.586 M309.99,50.224
	l1.591-2.867l0.371-0.896 M298.469,63.04l2.579-2.27"/>
<path fill="none" stroke="#010101" stroke-width="1.5" stroke-miterlimit="10" d="M298.672,36.491l-1.436-1.079 M275.565,34.669
	l-2.532,0.807 M286.229,33.031l-2.658,0.14 M288.801,33.092l-2.572-0.061 M283.571,33.171l-2.695,0.329 M293.481,33.838
	l-2.246-0.479 M295.496,34.524l-2.015-0.687 M297.237,35.412l-1.741-0.888 M259.469,57.24l0.846,0.9"/>
<path fill="none" stroke="#010101" stroke-width="1.5" stroke-miterlimit="10" d="M305.432,28.622l-3.367-1.098 M308.29,30.079
	l-2.857-1.457 M302.063,27.523l-3.793-0.729 M294.145,26.431l-1.834-0.004 M310.573,31.873l-2.282-1.794 M298.27,26.795
	l-4.123-0.362 M312.235,33.974l-1.664-2.101 M312.772,44.481l-0.82,1.979 M313.266,36.337l-1.031-2.362 M313.492,41.648l0.183-2.734
	l-0.408-2.577 M312.772,44.48l0.72-2.833"/>
<line fill="none" stroke="#010101" stroke-width="1.5" stroke-miterlimit="10" x1="261.326" y1="42.244" x2="260.085" y2="43.531"/>
<path fill="none" stroke="#010101" stroke-width="1.5" stroke-miterlimit="10" d="M289.801,26.424l-1.234,0.092 M289.801,26.424
	l2.51,0.004 M270.629,36.404l-2.246,1.033"/>
<path fill="none" stroke="#010101" stroke-width="1.5" stroke-miterlimit="10" d="M264.446,39.741l-1.666,1.235 M256.958,52.164
	l0.24,1.1 M256.942,49.844l-0.072,1.181"/>
<path fill="none" stroke="#010101" stroke-width="1.5" stroke-miterlimit="10" d="M285.339,26.752l3.228-0.236 M280.864,27.388
	l-4.398,0.914 M285.339,26.752l-4.476,0.638 M272.227,29.46l-1.297,0.441 M276.465,28.302l-4.238,1.157 M268.383,37.437
	l-2.066,1.119"/>
<path fill="none" stroke="#010101" stroke-width="1.5" stroke-miterlimit="10" d="M268.215,30.824l-0.305,0.126 M260.085,43.532
	l-1.028,1.292"/>
<path fill="none" stroke="#010101" stroke-width="1.5" stroke-miterlimit="10" d="M259.057,44.823l-0.822,1.287 M268.216,30.823
	l2.714-0.922"/>
<path fill="none" stroke="#010101" stroke-width="1.5" stroke-miterlimit="10" d="M258.237,46.11l-0.621,1.271 M265.067,32.118
	l2.844-1.168"/>
<path fill="none" stroke="#010101" stroke-width="1.5" stroke-miterlimit="10" d="M257.616,47.381l-0.428,1.247 M264.483,32.358
	l-2.053,1.002 M264.483,32.358l0.584-0.24"/>
<line fill="none" stroke="#010101" stroke-width="1.5" stroke-miterlimit="10" x1="261.067" y1="34.026" x2="262.43" y2="33.36"/>
<line fill="none" stroke="#010101" stroke-width="1.5" stroke-miterlimit="10" x1="261.067" y1="34.026" x2="260.01" y2="34.634"/>
<path fill="none" stroke="#010101" stroke-width="1.5" stroke-miterlimit="10" d="M260.315,58.139l0.943,0.87 M258.723,56.305
	l0.746,0.935 M255.274,37.633l-2.359,1.877 M257.993,35.795l-2.719,1.838 M257.993,35.795l2.018-1.161 M257.188,48.628l-0.246,1.216
	 M256.869,51.024l0.09,1.14"/>
<path fill="none" stroke="#010101" stroke-width="1.5" stroke-miterlimit="10" d="M323.549,16.025l-7.431-1.554 M246.145,48.717
	l-0.312,1.119 M247.911,45.144l-1.025,1.813 M249.247,43.287l-1.335,1.857 M246.885,46.958l-0.74,1.759 M258.092,55.332l0.633,0.974
	 M257.58,54.319l0.512,1.014 M257.2,53.263l0.381,1.056 M338.385,25.45l-3.506-3.898 M281.354,15.652l-4.057,0.852"/>
<path fill="none" stroke="#010101" stroke-width="1.5" stroke-miterlimit="10" d="M316.119,14.469l-8.24-0.758 M299.141,13.702
	l-8.934,0.673 M330.542,17.311l-6.035-2.068 M335.93,20.461l-5.389-3.149 M335.93,20.461l0.293,0.299 M329.882,18.39l-6.333-2.366
	 M339.772,24.393l-3.549-3.634 M339.772,24.393l0.179,0.367 M334.879,21.552l-4.997-3.161"/>
<line fill="none" stroke="#010101" stroke-width="1.5" stroke-miterlimit="10" x1="323.786" y1="14.997" x2="316.969" y2="13.722"/>
<path fill="none" stroke="#010101" stroke-width="1.5" stroke-miterlimit="10" d="M315.925,13.527l-8.651-0.648l-7.351,0.097
	 M315.926,13.527l1.043,0.195 M307.878,13.713l-8.737-0.01 M323.786,14.996l0.721,0.247"/>
<path fill="none" stroke="#010101" stroke-width="1.5" stroke-miterlimit="10" d="M298.163,12.998l-9.258,0.812 M279.781,15.23
	l-1.481,0.328 M288.905,13.81l-9.123,1.42 M298.162,12.998l1.762-0.022 M290.208,14.375l-8.854,1.277 M248.087,59.917l0.953,1"/>
<path fill="none" stroke="#010101" stroke-width="1.5" stroke-miterlimit="10" d="M264.171,82.034l1.981,0.33l2.019,0.38
	 M262.225,81.744l1.947,0.29 M249.041,60.917l1.063,0.91"/>
<path fill="none" stroke="#010101" stroke-width="1.5" stroke-miterlimit="10" d="M260.309,81.486l1.916,0.259 M258.426,81.251
	l1.883,0.235 M258.426,81.25l-1.828-0.217"/>
<path fill="none" stroke="#010101" stroke-width="1.5" stroke-miterlimit="10" d="M268.171,82.744l2.056,0.441 M276.665,84.992
	l0.928,0.333 M272.326,83.697l2.144,0.598 M270.227,83.185l2.099,0.513 M274.469,84.296l2.195,0.696"/>
<path fill="none" stroke="#010101" stroke-width="1.5" stroke-miterlimit="10" d="M268.719,77.957l0.196-0.049 M256.487,79.84
	l-0.391,0.024 M256.487,79.84l1.922-0.166 M264.449,78.841l2.108-0.404l2.162-0.479 M262.387,79.179l2.062-0.338"/>
<polyline fill="none" stroke="#010101" stroke-width="1.5" stroke-miterlimit="10" points="258.409,79.674 260.375,79.455 
	262.389,79.179 "/>
<path fill="none" stroke="#010101" stroke-width="1.5" stroke-miterlimit="10" d="M259.688,73.306l1.836,0.562l1.875,0.572
	 M265.315,75.035l0.386,0.124 M263.399,74.44l1.916,0.595"/>
<path fill="none" stroke="#010101" stroke-width="1.5" stroke-miterlimit="10" d="M242.776,65.213l1.209,1.021l1.295,0.942
	 M251.153,70.306l1.019,0.413 M245.28,67.177l1.371,0.872l1.439,0.81l1.502,0.75l1.561,0.699 M226.127,71.472l-0.91-0.946
	 M226.128,71.472l1.157,1.033l0.124,0.098 M252.77,80.029l1.838-0.071 M249.211,80.04l1.76,0.017l1.799-0.027 M248.147,79.99
	l0.136,0.019 M249.211,80.04l-1.021-0.034 M249.473,80.175l-1.19-0.166 M254.608,79.957l1.488-0.093 M251.203,80.396l1.76,0.213
	 M249.473,80.174l1.73,0.223 M256.576,81.03l0.022,0.003 M252.963,80.61l1.791,0.209l1.821,0.211 M246.014,56.374l0.547,1.272
	 M245.635,55.013l0.379,1.361 M257.893,72.744l1.795,0.562 M252.768,70.962l-0.597-0.242 M252.768,70.963l1.662,0.619l1.709,0.591
	l1.754,0.572"/>
<line fill="none" stroke="#010101" stroke-width="1.5" stroke-miterlimit="10" x1="241.662" y1="64.112" x2="242.776" y2="65.213"/>
<line fill="none" stroke="#010101" stroke-width="1.5" stroke-miterlimit="10" x1="240.653" y1="62.922" x2="241.662" y2="64.112"/>
<line fill="none" stroke="#010101" stroke-width="1.5" stroke-miterlimit="10" x1="239.764" y1="61.641" x2="240.653" y2="62.922"/>
<line fill="none" stroke="#010101" stroke-width="4" stroke-linecap="round" stroke-miterlimit="10" x1="239.764" y1="61.641" x2="239.764" y2="61.641"/>
<line fill="none" stroke="#FF0000" stroke-miterlimit="10" x1="239.764" y1="61.641" x2="234.925" y2="59.52"/>
<line fill="none" stroke="#010101" stroke-width="1.5" stroke-miterlimit="10" x1="252.915" y1="39.51" x2="250.909" y2="41.402"/>
<g>
	<g>
		
			<line fill="none" stroke="#BFBEBE" stroke-miterlimit="10" stroke-dasharray="0.6313" x1="264.699" y1="28.037" x2="265.294" y2="27.829"/>
		
			<line fill="none" stroke="#BFBEBE" stroke-miterlimit="10" stroke-dasharray="3.4482" x1="264.699" y1="28.037" x2="261.52" y2="29.374"/>
	</g>
</g>
<path fill="none" stroke="#010101" stroke-width="1.5" stroke-miterlimit="10" d="M272.594,16.82l5.705-1.262 M272.813,17.445
	l4.484-0.941 M272.813,17.446l-1.019,0.281"/>
<line fill="none" stroke="#010101" stroke-width="1.5" stroke-miterlimit="10" x1="250.909" y1="41.402" x2="249.247" y2="43.287"/>
<line fill="none" stroke="#010101" stroke-width="1.5" stroke-miterlimit="10" x1="264.764" y1="19.666" x2="261.59" y2="20.762"/>
<path fill="none" stroke="#010101" stroke-width="1.5" stroke-miterlimit="10" d="M264.764,19.666l7.03-1.938 M257.344,22.227
	l-5.896,2.475 M257.342,22.227l4.248-1.465"/>
<line fill="none" stroke="#010101" stroke-width="1.5" stroke-miterlimit="10" x1="250.633" y1="25.044" x2="251.449" y2="24.702"/>
<line fill="none" stroke="#010101" stroke-width="1.5" stroke-miterlimit="10" x1="244.678" y1="28.041" x2="239.49" y2="31.146"/>
<line fill="none" stroke="#FF0000" stroke-miterlimit="10" x1="224.464" y1="54.934" x2="220.708" y2="55.135"/>
<line fill="none" stroke="#010101" stroke-width="1.5" stroke-miterlimit="10" x1="220.803" y1="54.438" x2="220.485" y2="56.785"/>
<line fill="none" stroke="#FF0000" stroke-miterlimit="10" x1="220.625" y1="55.139" x2="220.708" y2="55.135"/>
<line fill="none" stroke="#010101" stroke-width="1.5" stroke-miterlimit="10" x1="220.485" y1="56.785" x2="220.44" y2="58.976"/>
<line fill="none" stroke="#FF0000" stroke-miterlimit="10" x1="224.464" y1="54.934" x2="234.925" y2="59.52"/>
<path fill="none" stroke="#010101" stroke-width="1.5" stroke-miterlimit="10" d="M221.442,51.938l-0.639,2.5 M220.44,58.976
	l0.188,2.039 M222.451,49.289l-1.009,2.649"/>
<path fill="none" stroke="#010101" stroke-width="1.5" stroke-miterlimit="10" d="M262.826,19.527l-7.527,2.69 M271.028,17.167
	l-8.202,2.36 M237.364,31.466l-4.414,3.24 M228.255,40.559l-2.46,3.023 M271.028,17.167l1.566-0.347 M231.321,37.453l-3.065,3.105
	 M248.526,25.157l-5.979,3.106 M255.298,22.218l-6.771,2.939 M242.548,28.263l-5.185,3.202 M250.633,25.044l-5.955,2.997
	 M235.05,34.302l-3.729,3.151 M239.489,31.146l-4.439,3.154 M225.036,70.338l0.182,0.188"/>
<path fill="none" stroke="#010101" stroke-width="1.5" stroke-miterlimit="10" d="M232.95,34.706l-3.688,3.225 M219.649,52.614
	l-0.397,1.691 M220.606,49.944l-0.957,2.67 M223.842,44.168l-1.859,2.956 M226.247,41.094l0.886-0.93 M226.247,41.094l-2.404,3.074
	 M221.983,47.124l-1.377,2.82 M223.881,46.5l-1.431,2.79 M229.262,37.93l-2.13,2.234 M225.795,43.583L223.88,46.5"/>
<path fill="none" stroke="#010101" stroke-width="1.5" stroke-miterlimit="10" d="M219.391,63.605l0.571,1.739 M218.983,61.718
	l0.408,1.888 M220.672,66.947l0.826,1.469 M219.962,65.344l0.709,1.602 M221.498,68.415l0.923,1.345 M218.78,57.484l-0.012,2.196
	 M220.628,61.015l0.388,1.89 M223.43,70.988l0.289,0.3 M222.42,69.76l1.01,1.229 M224.022,69.097l1.015,1.24 M223.096,67.74
	l0.926,1.357 M222.274,66.26l0.822,1.479 M221.574,64.651l0.7,1.609 M221.016,62.904l0.558,1.747"/>
<line fill="none" stroke="#FF0000" stroke-miterlimit="10" x1="219.436" y1="55.203" x2="219.046" y2="55.224"/>
<path fill="none" stroke="#010101" stroke-width="1.5" stroke-miterlimit="10" d="M219.057,55.129l-0.277,2.355 M218.768,59.68
	l0.215,2.038 M219.057,55.129l0.194-0.823"/>
<path fill="none" stroke="#010101" stroke-width="1.5" stroke-miterlimit="10" d="M260.338,1.689l-11.098,0.543 M272.247,1.107
	l-11.908,0.581 M284.663,0.75l-12.416,0.357"/>
<line fill="none" stroke="#010101" stroke-width="1.5" stroke-miterlimit="10" x1="249.241" y1="2.232" x2="239.231" y2="2.438"/>
<line fill="none" stroke="#010101" stroke-width="1.5" stroke-miterlimit="10" x1="350.86" y1="19.451" x2="346.624" y2="13.854"/>
<line fill="none" stroke="#010101" stroke-width="1.5" stroke-miterlimit="10" x1="346.624" y1="13.854" x2="340.075" y2="9.246"/>
<path fill="none" stroke="#010101" stroke-width="1.5" stroke-miterlimit="10" d="M321.104,3.164l-11.567-1.571 M331.44,5.688
	l-10.336-2.524"/>
<line fill="none" stroke="#010101" stroke-width="1.5" stroke-miterlimit="10" x1="340.075" y1="9.246" x2="331.44" y2="5.688"/>
<line fill="none" stroke="#010101" stroke-width="1.5" stroke-miterlimit="10" x1="297.231" y1="0.844" x2="284.663" y2="0.75"/>
<line fill="none" stroke="#010101" stroke-width="1.5" stroke-miterlimit="10" x1="309.537" y1="1.593" x2="297.231" y2="0.844"/>
<polyline fill="none" stroke="#FF0000" stroke-width="1.5" stroke-linecap="round" stroke-linejoin="round" stroke-miterlimit="10" points="
	202.501,56.302 202.321,57.206 202.137,58.047 201.957,58.836 201.78,59.575 201.598,60.266 201.416,60.915 201.233,61.527 
	201.051,62.109 200.875,62.661 200.694,63.2 200.512,63.722 200.33,64.243 200.147,64.764 199.969,65.292 199.789,65.837 
	199.608,66.413 199.424,67.032 199.243,67.698 199.065,68.426 198.882,69.231 198.702,70.128 198.52,71.135 198.344,72.262 
	198.162,73.535 197.977,74.96 197.797,76.56 197.617,78.354 197.44,80.349 197.255,82.549 197.075,84.968 196.893,87.599 
	196.71,90.429 196.535,93.442 196.352,96.594 196.169,99.843 195.988,103.134 195.806,106.39 195.629,109.536 195.448,112.476 
	195.266,115.143 195.083,117.446 194.907,119.325 194.724,120.744 194.542,121.671 194.36,122.102 194.178,122.06 194.001,121.574 
	193.819,120.701 193.639,119.495 193.458,118.009 193.272,116.313 193.098,114.464 192.916,112.513 192.733,110.5 192.55,108.469 
	192.375,106.457 192.194,104.48 192.01,102.565 191.829,100.716 191.645,98.958 191.469,97.286 191.289,95.709 191.106,94.224 
	190.924,92.836 190.741,91.538 190.563,90.332 190.383,89.211 190.203,88.174 190.02,87.217 189.836,86.332 189.661,85.52 
	189.479,84.774 189.295,84.089 189.115,83.469 188.938,82.906 188.755,82.398 188.575,81.937 188.391,81.531 188.21,81.173 
	188.034,80.87 187.852,80.61 187.669,80.397 187.487,80.234 187.305,80.124 187.128,80.063 186.948,80.063 186.764,80.113 
	186.583,80.227 186.399,80.41 186.225,80.658 186.042,80.979 185.86,81.385 185.676,81.876 185.5,82.458 185.319,83.138 
	185.137,83.925 184.957,84.816 184.772,85.829 184.598,86.95 184.415,88.198 184.231,89.556 184.049,91.035 183.869,92.618 
	183.692,94.296 183.51,96.054 183.327,97.879 183.145,99.734 182.969,101.607 182.789,103.456 182.604,105.25 182.422,106.947 
	182.241,108.523 182.065,109.942 181.881,111.173 181.701,112.185 181.518,112.973 181.335,113.512 181.161,113.815 180.977,113.87 
	180.793,113.694 180.614,113.306 180.43,112.73 180.256,111.979 180.073,111.081 179.891,110.063 179.708,108.954 179.533,107.772 
	179.352,106.541 179.168,105.28 178.985,104.014 178.803,102.752 178.629,101.505 178.446,100.286 178.264,99.104 178.081,97.964 
	177.897,96.873 177.723,95.836 177.542,94.854 177.358,93.933 177.176,93.072 176.994,92.266 176.817,91.526 176.637,90.842 
	176.455,90.217 176.27,89.66 176.096,89.156 175.913,88.719 175.729,88.338 175.548,88.023 175.367,87.769 175.19,87.574 
	175.008,87.447 174.827,87.385 174.645,87.393 174.461,87.466 174.287,87.604 174.104,87.823 173.922,88.114 173.739,88.483 
	173.563,88.926 173.38,89.454 173.199,90.052 173.018,90.739 172.835,91.502 172.659,92.344 172.477,93.254 172.292,94.236 
	172.112,95.278 171.93,96.376 171.754,97.51 171.571,98.679 171.389,99.861 171.208,101.043 171.026,102.201 170.848,103.329 
	170.667,104.402 170.483,105.402 170.303,106.311 170.126,107.117 169.946,107.808 169.762,108.365 169.581,108.79 169.399,109.075 
	169.221,109.214 169.041,109.214 168.856,109.081 168.675,108.827 168.495,108.451 168.315,107.966 168.135,107.39 167.954,106.735 
	167.772,106.014 167.588,105.238 167.413,104.42 167.229,103.571 167.048,102.698 166.867,101.819 166.69,100.934 166.507,100.049 
	166.324,99.182 166.143,98.328 165.961,97.485 165.786,96.673 165.602,95.873 165.421,95.103 165.24,94.352 165.057,93.618 
	164.88,92.909 164.7,92.206 164.516,91.514 164.334,90.829 164.155,90.145 163.975,89.441 163.794,88.726 163.612,87.974 
	163.43,87.186 163.253,86.338 163.069,85.422 162.889,84.416 162.708,83.301 162.526,82.064 162.348,80.677 162.167,79.112 
	161.985,77.354 161.805,75.372 161.621,73.147 161.442,70.65 161.262,67.862 161.081,64.776 160.897,61.382 160.721,57.696 
	160.54,53.732 160.358,49.543 160.175,45.191 159.994,40.766 159.815,36.372 159.635,32.146 159.454,28.224 159.272,24.732 
	159.088,21.799 158.91,19.513 158.729,17.932 158.547,17.071 158.367,16.92 158.184,17.416 158.007,18.484 157.826,20.035 
	157.643,21.969 157.461,24.188 157.286,26.606 157.102,29.14 156.92,31.722 156.737,34.304 156.557,36.839 156.38,39.293 
	156.199,41.651 156.016,43.888 155.834,45.998 155.649,47.979 155.475,49.828 155.293,51.55 155.112,53.144 154.928,54.617 
	154.752,55.981 154.571,57.229 154.391,58.381 154.207,59.442 154.022,60.412 153.848,61.309 153.667,62.121 153.483,62.873 
	153.301,63.558 153.121,64.183 152.944,64.751 152.762,65.273 152.58,65.753 152.395,66.188 152.215,66.583 152.04,66.941 
	151.858,67.262 151.674,67.559 151.491,67.819 151.315,68.05 151.135,68.256 150.953,68.432 150.77,68.577 150.585,68.704 
	150.413,68.795 150.229,68.862 150.047,68.898 149.867,68.898 149.682,68.868 149.506,68.802 149.326,68.692 149.143,68.534 
	148.958,68.329 148.776,68.068 148.602,67.747 148.42,67.353 148.237,66.885 148.053,66.334 147.879,65.692 147.699,64.952 
	147.516,64.097 147.333,63.122 147.149,62.024 146.975,60.794 146.791,59.423 146.612,57.915 146.428,56.266 146.245,54.483 
	146.069,52.568 145.887,50.543 145.707,48.422 145.522,46.234 145.348,44.009 145.166,41.791 144.981,39.608 144.801,37.523 
	144.618,35.571 144.444,33.795 144.26,32.243 144.077,30.946 143.893,29.934 143.714,29.219 143.539,28.8 143.354,28.691 
	143.171,28.861 142.99,29.297 142.809,29.977 142.633,30.861 142.453,31.916 142.27,33.116 142.084,34.425 141.912,35.808 
	141.729,37.25 141.544,38.711 141.362,40.177 141.182,41.64 141.006,43.07 140.823,44.458 140.639,45.802 140.458,47.094 
	140.276,48.325 140.102,49.489 139.917,50.592 139.735,51.623 139.555,52.592 139.374,53.496 139.198,54.326 139.014,55.096 
	138.831,55.799 138.649,56.441 138.471,57.017 138.29,57.539 138.108,57.994 137.928,58.387 137.744,58.721 137.567,58.993 
	137.387,59.2 137.204,59.344 137.022,59.43 136.841,59.442 136.663,59.394 136.481,59.267 136.3,59.067 136.117,58.793 
	135.936,58.436 135.757,58 135.577,57.478 135.395,56.866 135.214,56.168 135.036,55.375 134.854,54.496 134.671,53.526 
	134.49,52.471 134.309,51.338 134.13,50.131 133.949,48.864 133.768,47.543 133.587,46.185 133.403,44.809 133.225,43.433 
	133.043,42.081 132.862,40.771 132.682,39.529 132.503,38.378 132.321,37.329 132.141,36.414 131.958,35.644 131.776,35.032 
	131.6,34.583 131.417,34.304 131.235,34.196 131.055,34.25 130.874,34.456 130.694,34.813 130.514,35.305 130.331,35.911 
	130.149,36.614 129.965,37.408 129.79,38.269 129.608,39.184 129.428,40.142 129.244,41.123 129.067,42.118 128.887,43.119 
	128.703,44.112 128.522,45.094 128.341,46.052 128.163,46.997 127.981,47.907 127.801,48.792 127.617,49.647 127.436,50.471 
	127.257,51.271 127.076,52.041 126.895,52.78 126.713,53.508 126.53,54.211 126.354,54.908 126.173,55.599 125.99,56.29 
	125.805,56.999 125.629,57.727 125.449,58.491 125.268,59.296 125.083,60.164 124.903,61.109 124.727,62.146 124.543,63.297 
	124.362,64.588 124.182,66.031 123.998,67.655 123.821,69.48 123.641,71.535 123.457,73.838 123.276,76.415 123.1,79.271 
	122.917,82.416 122.735,85.853 122.551,89.562 122.371,93.509 122.194,97.643 122.014,101.885 121.83,106.147 121.649,110.312 
	121.464,114.245 121.29,117.828 121.108,120.944 120.928,123.478 120.744,125.363 120.559,126.569 120.387,127.085 120.203,126.951 
	120.02,126.224 119.837,124.987 119.662,123.326 119.481,121.332 119.301,119.101 119.116,116.707 118.936,114.228 118.76,111.718 
	118.576,109.221 118.393,106.784 118.213,104.432 118.03,102.177 117.854,100.038 117.67,98.025 117.489,96.133 117.305,94.369 
	117.125,92.727 116.949,91.206 116.768,89.793 116.583,88.496 116.403,87.295 116.227,86.192 116.042,85.18 115.862,84.247 
	115.678,83.392 115.497,82.61 115.321,81.895 115.137,81.24 114.957,80.64 114.774,80.088 114.591,79.591 114.416,79.13 
	114.235,78.718 114.051,78.342 113.87,78.003 113.694,77.7 113.514,77.427 113.33,77.19 113.145,76.979 112.964,76.802 
	112.789,76.657 112.608,76.536 112.423,76.451 112.243,76.396 112.059,76.378 111.887,76.396 111.703,76.451 111.52,76.555 
	111.337,76.7 111.155,76.899 110.979,77.154 110.799,77.476 110.616,77.864 110.432,78.33 110.256,78.882 110.075,79.53 
	109.891,80.276 109.71,81.137 109.528,82.113 109.354,83.209 109.169,84.446 108.989,85.817 108.805,87.319 108.624,88.962 
	108.448,90.739 108.264,92.642 108.083,94.648 107.901,96.745 107.719,98.904 107.542,101.085 107.362,103.268 107.178,105.396 
	106.997,107.433 106.821,109.323 106.637,111.039 106.454,112.53 106.274,113.773 106.091,114.73 105.916,115.403 105.731,115.773 
	105.551,115.852 105.37,115.658 105.188,115.203 105.01,114.519 104.829,113.627 104.645,112.573 104.464,111.385 104.289,110.088 
	104.106,108.717 103.923,107.299 103.743,105.856 103.559,104.408 103.385,102.977 103.202,101.571 103.018,100.201 102.836,98.874 
	102.655,97.606 102.477,96.4 102.296,95.254 102.115,94.169 101.932,93.151 101.75,92.206 101.575,91.321 101.391,90.502 
	101.209,89.745 101.028,89.054 100.854,88.429 100.669,87.866 100.487,87.362 100.305,86.919 100.124,86.538 99.948,86.217 
	99.764,85.962 99.583,85.768 99.399,85.634 99.219,85.568 99.042,85.568 98.86,85.641 98.678,85.786 98.496,85.998 98.311,86.295 
	98.137,86.671 97.956,87.126 97.774,87.666 97.59,88.296 97.415,89.017 97.231,89.823 97.051,90.719 96.869,91.702 96.686,92.77 
	96.51,93.909 96.329,95.121 96.147,96.388 95.963,97.703 95.78,99.049 95.604,100.407 95.423,101.753 95.242,103.074 
	95.059,104.347 94.882,105.547 94.702,106.65 94.518,107.645 94.336,108.5 94.153,109.214 93.977,109.772 93.795,110.167 
	93.615,110.391 93.432,110.451 93.25,110.354 93.074,110.105 92.891,109.718 92.709,109.203 92.528,108.578 92.344,107.851 
	92.168,107.05 91.985,106.184 91.805,105.269 91.623,104.322 91.446,103.347 91.264,102.359 91.083,101.377 90.897,100.395 
	90.717,99.431 90.542,98.479 90.36,97.558 90.178,96.661 89.993,95.794 89.811,94.951 89.637,94.139 89.455,93.357 89.27,92.599 
	89.09,91.866 88.907,91.15 88.733,90.454 88.549,89.757 88.366,89.065 88.186,88.369 88.01,87.653 87.828,86.914 87.645,86.138 
	87.463,85.308 87.28,84.41 87.106,83.427 86.922,82.349 86.739,81.143 86.559,79.797 86.374,78.288 86.201,76.584 86.018,74.669 
	85.836,72.517 85.651,70.105 85.477,67.419 85.295,64.443 85.115,61.175 84.93,57.618 84.747,53.799 84.571,49.762 84.391,45.561 
	84.209,41.281 84.024,37.026 83.844,32.916 83.668,29.085 83.485,25.654 83.303,22.739 83.12,20.436 82.938,18.805 82.764,17.859 
	82.581,17.598 82.397,17.974 82.217,18.914 82.042,20.332 81.856,22.138 81.676,24.242 81.493,26.558 81.311,29 81.135,31.504 
	80.952,34.026 80.77,36.505 80.59,38.923 80.405,41.245 80.229,43.463 80.049,45.555 79.866,47.531 79.684,49.374 79.504,51.094 
	79.325,52.695 79.145,54.175 78.961,55.544 78.778,56.806 78.604,57.969 78.422,59.042 78.239,60.024 78.057,60.927 77.877,61.764 
	77.698,62.527 77.518,63.225 77.333,63.867 77.151,64.461 76.971,65.007 76.795,65.504 76.61,65.971 76.43,66.395 76.247,66.789 
	76.071,67.153 75.889,67.492 75.706,67.813 75.524,68.11 75.344,68.401 75.168,68.674 74.983,68.941 74.801,69.202 74.62,69.462 
	74.438,69.723 74.262,69.995 74.079,70.281 73.897,70.583 73.717,70.917 73.532,71.274 73.356,71.675 73.176,72.123 72.991,72.632 
	72.811,73.202 72.635,73.851 72.452,74.59 72.27,75.433 72.09,76.385 71.905,77.463 71.729,78.682 71.549,80.046 71.364,81.574 
	71.184,83.27 71,85.138 70.825,87.181 70.643,89.393 70.463,91.757 70.278,94.266 70.098,96.885 69.92,99.583 69.737,102.304 
	69.557,105.001 69.372,107.621 69.198,110.088 69.016,112.354 68.836,114.349 68.651,116.028 68.467,117.349 68.292,118.295 
	68.11,118.846 67.93,119.016 67.745,118.822 67.565,118.283 67.387,117.452 67.206,116.361 67.024,115.064 66.844,113.604 
	66.665,112.015 66.483,110.342 66.301,108.626 66.122,106.887 65.938,105.16 65.762,103.456 65.579,101.801 65.397,100.194 
	65.217,98.661 65.032,97.193 64.856,95.806 64.676,94.49 64.491,93.26 64.311,92.108 64.127,91.029 63.95,90.029 63.77,89.096 
	63.586,88.242 63.405,87.453 63.229,86.731 63.049,86.071 62.864,85.478 62.684,84.938 62.499,84.464 62.323,84.041 62.143,83.682 
	61.959,83.374 61.778,83.125 61.594,82.938 61.418,82.804 61.237,82.737 61.055,82.725 60.872,82.786 60.692,82.914 60.516,83.113 
	60.331,83.385 60.151,83.737 59.967,84.18 59.792,84.707 59.61,85.331 59.43,86.052 59.245,86.871 59.061,87.798 58.887,88.823 
	58.704,89.957 58.524,91.187 58.34,92.515 58.159,93.933 57.983,95.425 57.799,96.977 57.618,98.577 57.436,100.201 57.254,101.819 
	57.077,103.413 56.897,104.953 56.713,106.408 56.532,107.748 56.356,108.954 56.172,109.99 55.991,110.851 55.807,111.518 
	55.627,111.973 55.45,112.227 55.27,112.282 55.086,112.137 54.905,111.809 54.721,111.312 54.545,110.669 54.364,109.899 
	54.184,109.021 53.999,108.057 53.823,107.026 53.641,105.947 53.459,104.838 53.278,103.716 53.094,102.59 52.918,101.474 
	52.737,100.382 52.553,99.315 52.372,98.286 52.19,97.297 52.016,96.352 51.831,95.461 51.647,94.617 51.467,93.824 51.286,93.09 
	51.11,92.412 50.926,91.793 50.745,91.23 50.561,90.727 50.385,90.278 50.204,89.89 50.022,89.562 49.84,89.29 49.659,89.084 
	49.483,88.945 49.299,88.859 49.118,88.848 48.934,88.896 48.754,89.01 48.577,89.199 48.395,89.454 48.213,89.782 48.032,90.181 
	47.85,90.659 47.672,91.206 47.491,91.817 47.307,92.509 47.127,93.266 46.95,94.085 46.77,94.964 46.586,95.891 46.401,96.866 
	46.221,97.879 46.045,98.909 45.864,99.952 45.68,100.996 45.499,102.014 45.315,103.001 45.139,103.947 44.959,104.82 
	44.774,105.62 44.594,106.329 44.418,106.941 44.233,107.438 44.053,107.82 43.872,108.081 43.69,108.221 43.512,108.238 
	43.331,108.142 43.147,107.936 42.967,107.626 42.786,107.219 42.61,106.735 42.426,106.177 42.245,105.56 42.061,104.885 
	41.879,104.183 41.704,103.444 41.52,102.692 41.34,101.929 41.157,101.165 40.979,100.407 40.799,99.662 40.618,98.934 
	40.436,98.23 40.252,97.558 40.077,96.915 39.893,96.31 39.713,95.74 39.53,95.218 39.348,94.733 39.172,94.29 38.987,93.897 
	38.807,93.551 38.625,93.254 38.444,93.005 38.266,92.806 38.086,92.661 37.901,92.569 37.721,92.526 37.545,92.539 37.36,92.612 
	37.18,92.733 36.999,92.909 36.815,93.139 36.639,93.424 36.458,93.763 36.274,94.157 36.094,94.594 35.911,95.085 35.733,95.613 
	35.553,96.188 35.372,96.793 35.188,97.431 35.012,98.092 34.831,98.771 34.647,99.455 34.467,100.146 34.282,100.831 
	34.106,101.498 33.926,102.141 33.745,102.747 33.561,103.311 33.379,103.826 33.204,104.286 33.022,104.68 32.838,105.008 
	32.655,105.262 32.475,105.444 32.299,105.552 32.116,105.583 31.934,105.542 31.752,105.426 31.573,105.244 31.393,105.001 
	31.211,104.705 31.03,104.353 30.848,103.959 30.672,103.522 30.487,103.062 30.307,102.571 30.125,102.068 29.94,101.546 
	29.766,101.025 29.584,100.498 29.401,99.977 29.219,99.467 29.036,98.964 28.86,98.485 28.68,98.018 28.497,97.583 28.313,97.169 
	28.139,96.788 27.958,96.437 27.774,96.115 27.592,95.83 27.409,95.582 27.233,95.37 27.053,95.2 26.868,95.066 26.686,94.969 
	26.506,94.915 26.331,94.902 26.147,94.933 25.963,95 25.782,95.109 25.608,95.26 25.426,95.449 25.241,95.677 25.061,95.946 
	24.879,96.242 24.704,96.57 24.52,96.934 24.338,97.321 24.155,97.734 23.973,98.165 23.797,98.613 23.616,99.067 23.434,99.528 
	23.249,99.994 23.067,100.449 22.893,100.897 22.711,101.329 22.528,101.734 22.346,102.122 22.17,102.474 21.987,102.79 
	21.807,103.068 21.622,103.298 21.44,103.486 21.266,103.632 21.084,103.723 20.899,103.771 20.719,103.771 20.536,103.723 
	20.36,103.626 20.178,103.493 19.995,103.317 19.813,103.104 19.633,102.856 19.456,102.583 19.272,102.286 19.092,101.965 
	18.909,101.631 18.733,101.28 18.551,100.922 18.368,100.564 18.186,100.201 18.006,99.843 17.827,99.485 17.645,99.14 
	17.463,98.813 17.28,98.492 17.1,98.194 16.924,97.91 16.741,97.649 16.561,97.413 16.379,97.2 16.202,97.013 16.02,96.849 
	15.836,96.722 15.653,96.618 15.473,96.539 15.297,96.498 15.114,96.479 14.932,96.498 14.749,96.539 14.567,96.612 14.393,96.715 
	14.209,96.849 14.026,97.006 13.846,97.188 13.663,97.395 13.487,97.625 13.305,97.867 13.122,98.133 12.94,98.419 12.766,98.709 
	12.581,99.007 12.399,99.315 12.219,99.625 12.034,99.935 11.858,100.238 11.678,100.534 11.495,100.813 11.313,101.08 
	11.133,101.329 10.954,101.552 10.772,101.758 10.592,101.929 10.407,102.074 10.227,102.189 10.049,102.268 9.868,102.31 
	9.686,102.316 9.502,102.292 9.327,102.226 9.145,102.128 8.963,101.989 8.78,101.819 8.6,101.607 8.424,101.371 8.239,101.092 
	8.059,100.776 7.875,100.431 7.694,100.049 7.52,99.631 7.334,99.177 7.153,98.679 6.971,98.133 6.795,97.54 6.612,96.891 
	6.432,96.182 6.249,95.4 6.067,94.534 5.889,93.576 5.708,92.502 5.526,91.309 5.346,89.962 5.161,88.447 4.985,86.731 
	4.805,84.798 4.622,82.604 4.44,80.124 4.256,77.331 4.081,74.179 3.899,70.644 3.719,66.71 3.534,62.358 3.358,57.599 
	3.178,52.465 2.993,47.003 2.813,41.324 2.629,35.552 2.454,29.861 2.272,24.43 2.092,19.459 1.907,15.137 1.725,11.592 
	1.549,8.917 1.366,7.118 1.186,6.135 1.002,5.851 0.821,6.093 0.645,6.645 0.461,7.275 0.28,7.73 0.1,7.73 "/>
<g>
	<g>
		
			<line fill="none" stroke="#010101" stroke-linecap="round" stroke-linejoin="round" x1="99.643" y1="137.091" x2="129.01" y2="137.091"/>
		<g>
			<path fill="#010101" d="M127.501,134.238l1.032,2.853l-1.032,2.854c1.312-1.144,3.425-2.222,5.129-2.854
				C130.926,136.459,128.811,135.38,127.501,134.238z"/>
		</g>
	</g>
</g>
<text transform="matrix(1 0 0 1 73.1694 140.7302)" fill="#010101" font-family="'Helvetica'" font-size="12">time</text>
<rect x="186.617" y="30.446" fill="none" width="14.333" height="13"/>
<text transform="matrix(1 0 0 1 193.9009 39.0857)" fill="#ED1F24" font-family="'Helvetica-Oblique'" font-size="12">x</text>
<line fill="none" stroke="#000000" stroke-miterlimit="10" x1="202.604" y1="3.64" x2="202.604" y2="130.619"/>
<rect x="209.385" y="155.348" fill="none" width="14.334" height="13"/>
<text transform="matrix(1 0 0 1 216.5298 163.988)" fill="#231F20" font-family="'Helvetica-Oblique'" font-size="12">y</text>
<rect x="328.121" y="172.632" fill="none" width="14.333" height="13"/>
<text transform="matrix(1 0 0 1 335.6802 181.2712)" fill="#231F20" font-family="'Helvetica-Oblique'" font-size="12">z</text>
</svg>
