<?xml version="1.0" encoding="utf-8"?>
<!-- Generator: Adobe Illustrator 15.0.0, SVG Export Plug-In . SVG Version: 6.00 Build 0)  -->
<!DOCTYPE svg PUBLIC "-//W3C//DTD SVG 1.1//EN" "http://www.w3.org/Graphics/SVG/1.1/DTD/svg11.dtd">
<svg version="1.1" id="Layer_1" xmlns="http://www.w3.org/2000/svg" xmlns:xlink="http://www.w3.org/1999/xlink" x="0px" y="0px"
	 width="565.025px" height="279.042px" viewBox="0 0 565.025 279.042" enable-background="new 0 0 565.025 279.042"
	 xml:space="preserve">
<path fill="none" stroke="#FF0000" stroke-width="2" stroke-miterlimit="10" d="M12.787,132.725l0.353,2.134l0.343,1.892
	l0.335,1.683l0.329,1.503l0.322,1.346l0.317,1.212l0.312,1.096l0.309,0.994l0.305,0.906l0.302,0.827l0.299,0.759l0.297,0.694
	l0.295,0.638l0.292,0.583 M11.252,120.989l0.406,3.501 M11.658,124.491l0.39,3.092l0.375,2.73 M10.387,112.567l0.443,4.463
	 M4.192,32.101l0.165,1.988l0.553,7.2 M8.925,95.771l0.51,6.192 M9.436,101.963l0.487,5.593l0.464,5.011 M4.91,41.29l0.579,7.853
	l0.591,8.218l0.594,8.307l0.588,8.156l0.574,7.816 M7.836,81.641l0.556,7.343l0.533,6.787"/>
<text transform="matrix(1 0 0 1 49.9473 212.4727)" font-family="'Helvetica'" font-size="21">time</text>
<path fill="none" stroke="#FF0000" stroke-width="2" stroke-miterlimit="10" d="M267.506,128.241l0.269,0.527 M267.775,128.768
	l0.269,0.612 M277.159,156.302l0.27-2.2l0.27-2.377 M275.818,163.265l0.268-0.759 M276.085,162.506l0.268-1.096 M276.353,161.41
	l0.269-1.417 M276.622,159.993l0.269-1.714 M276.89,158.279l0.269-1.978 M275.55,163.684l0.268-0.419 M273.146,155.32l0.267,1.641
	 M275.015,163.532l0.268,0.236 M273.68,158.503l0.267,1.409 M273.947,159.912l0.268,1.243 M273.413,156.961l0.268,1.542
	 M275.283,163.769l0.268-0.085 M274.749,162.999l0.267,0.533 M271.807,146.601l0.268,1.736 M272.075,148.337l0.268,1.76l0.268,1.766
	l0.268,1.749 M271.093,142.205l0.177,1.05l0.269,1.647 M271.539,144.902l0.268,1.698 M274.214,161.155l0.267,1.04l0.268,0.804
	 M272.878,153.611l0.268,1.709 M268.044,129.38l0.269,0.698 M270.196,137.332l0.269,1.369 M268.583,130.86l0.27,0.867
	 M270.465,138.701l0.269,1.446 M269.121,132.68l0.269,1.037 M271.093,142.205l-0.091-0.538 M270.734,140.147l0.269,1.52
	 M268.852,131.728l0.269,0.953 M269.39,133.717l0.269,1.122 M269.928,136.044l0.269,1.288 M268.313,130.078l0.269,0.783
	 M269.659,134.839l0.269,1.205 M258.69,156.404l0.266-0.784 M258.157,157.396l0.267-0.398 M258.424,156.998l0.267-0.594
	 M266.161,126.922l0.269,0.083 M266.43,127.005l0.269,0.175 M266.699,127.181l0.269,0.266 M265.893,126.932l0.269-0.01
	 M266.968,127.446l0.269,0.354 M267.237,127.8l0.269,0.441 M265.355,127.246l0.269-0.206l0.269-0.107 M264.818,127.967l0.269-0.413
	 M265.086,127.554l0.269-0.308 M264.282,129.117l0.268-0.63l0.268-0.521 M260.019,150.854l0.266-1.501 M257.889,157.599l0.268-0.202
	 M262.677,135.22l0.267-1.285l0.267-1.182 M260.285,149.354l0.265-1.578 M261.878,139.603l0.266-1.538 M260.55,147.775l0.266-1.629
	l0.266-1.654 M259.754,152.254l0.265-1.399 M261.081,144.492l0.266-1.657 M261.347,142.835l0.266-1.637 M261.612,141.198
	l0.266-1.596 M258.957,155.62l0.266-0.963l0.266-1.128 M259.488,153.529l0.266-1.275 M262.145,138.064l0.266-1.465l0.267-1.38
	 M257.354,157.426l0.268,0.18 M264.014,129.858l0.268-0.741 M263.211,132.752l0.267-1.076 M256.678,156.211l0.138,0.341
	 M257.622,157.605l0.268-0.007 M256.816,156.552l0.269,0.519l0.269,0.355 M263.479,131.677l0.268-0.965l0.268-0.854
	 M256.678,156.211l-0.131-0.325 M255.737,153.179l0.271,1.003l0.27,0.908l0.27,0.796 M253.024,141.313l0.272,1.167l0.271,1.192
	l0.271,1.213 M249.49,128.034l0.272,1.047 M249.763,129.082l0.272,1.005 M250.307,131.063l0.272,0.961l0.271,0.958 M251.123,133.946
	l0.271,0.977 M250.035,130.086l0.272,0.977 M250.851,132.983l0.272,0.963 M254.924,149.78l0.271,1.182l0.271,1.139 M254.11,146.111
	l0.271,1.231 M254.382,147.343l0.271,1.227l0.271,1.211 M253.839,144.886l0.271,1.226 M251.938,136.938l0.271,1.048
	 M252.209,137.986l0.272,1.078 M252.481,139.064l0.271,1.109 M252.752,140.174l0.271,1.14 M251.394,134.923l0.272,0.996
	 M251.666,135.919l0.271,1.02 M255.466,152.101l0.271,1.078 M248.945,125.742l0.273,1.186 M249.218,126.927l0.272,1.107
	 M243.539,54.842l0.297,6.292l0.297,6.334l0.296,6.216l0.295,5.972l0.293,5.636l0.291,5.239l0.289,4.811l0.287,4.372l0.285,3.94
	l0.283,3.528l0.282,3.144l0.28,2.793l0.279,2.477l0.277,2.197l0.276,1.952l0.275,1.741l0.274,1.561l0.274,1.41l0.274,1.286
	 M243.129,46.636l0.112,2.138 M243.241,48.774l0.297,6.068 M234.756,90.593l0.264-1.271l0.264-1.386 M230.487,100.773l0.269-0.254
	 M230.756,100.519l0.269-0.293 M231.024,100.225l0.269-0.334 M231.293,99.891l0.268-0.375 M231.561,99.517l0.268-0.418
	 M231.829,99.098l0.268-0.464 M232.631,97.557l0.267-0.621 M232.898,96.937l0.267-0.68 M232.364,98.122l0.268-0.564 M233.431,95.51
	l0.266-0.816 M233.697,94.694l0.266-0.893 M243.129,46.636l-0.184-3.506 M241.512,27.055l0.279,1.237 M241.791,28.292l0.283,2.283
	 M242.074,30.575l0.287,3.299 M241.238,26.835l0.274,0.22 M242.361,33.875l0.291,4.23 M242.651,38.105l0.294,5.025 M240.703,29.107
	l0.266-1.551l0.27-0.722 M240.18,34.151l0.26-2.798 M240.439,31.354l0.263-2.246 M239.922,37.36l0.258-3.209 M238.392,59.116
	l0.255-3.528l0.254-3.644 M237.367,71.562l0.257-2.835 M233.962,93.801l0.265-0.976 M237.624,68.726l0.256-3.024 M234.492,91.758
	l0.264-1.165 M232.097,98.634l0.267-0.513 M235.546,86.426l0.262-1.645 M237.88,65.702l0.256-3.208 M236.07,82.993l0.261-1.942
	 M233.165,96.256l0.266-0.746 M236.591,78.944l0.259-2.278 M238.136,62.494l0.255-3.378 M237.109,74.207l0.258-2.646
	 M238.901,51.944l0.254-3.715l0.255-3.724l0.255-3.656l0.256-3.489 M236.331,81.05l0.26-2.106 M236.85,76.666l0.259-2.459
	 M234.228,92.825l0.265-1.066 M235.808,84.781l0.262-1.789 M235.284,87.937l0.263-1.511 M219.247,44.926l0.28,1.028l0.284,1.457
	 M218.695,44.175l0.274,0.16 M228.057,101.18l0.271,0.151 M229.949,101.167l0.269-0.177 M229.41,101.401l0.27-0.097
	 M228.329,101.331l0.271,0.093 M227.786,100.965l0.271,0.215 M227.241,100.313l0.272,0.365 M229.14,101.456l0.27-0.054
	 M227.513,100.678l0.272,0.287 M228.87,101.464l0.271-0.009 M226.967,99.861l0.273,0.453 M228.599,101.424l0.271,0.04
	 M226.693,99.311l0.274,0.55 M220.097,49.272l0.289,2.228 M218.969,44.334l0.277,0.592 M223.608,83.604l0.288,2.344 M225.31,94.709
	l0.279,1.208l0.278,1.052 M223.896,85.948l0.286,2.143 M223.319,81.064l0.289,2.539 M222.443,72.431l0.293,3.023 M225.03,93.333
	l0.28,1.376 M222.736,75.454l0.292,2.887l0.291,2.723 M224.181,88.09l0.284,1.942l0.283,1.745 M224.749,91.777l0.281,1.556
	 M221.559,62.953l0.295,3.178l0.294,3.177l0.294,3.123 M218.425,44.427l0.271-0.252 M220.386,51.5l0.291,2.543l0.293,2.8
	 M220.97,56.843l0.294,2.992 M219.811,47.412l0.287,1.861 M221.264,59.835l0.295,3.117 M217.892,46.04l0.265-0.978 M217.369,48.842
	l0.261-1.526 M216.853,52.456l0.257-1.885 M226.143,97.877l0.276,0.776l0.275,0.658 M218.157,45.062l0.268-0.635 M217.629,47.316
	l0.263-1.276 M217.11,50.571l0.259-1.729 M216.596,54.453l0.256-1.997 M230.218,100.989l0.269-0.216 M229.68,101.304l0.27-0.138
	 M215.545,63.082l0.031-0.25 M215.576,62.832l0.255-2.093l0.255-2.112l0.255-2.105l0.255-2.068 M225.866,96.969l0.276,0.908
	 M212.216,83.124l0.263-1.008 M212.479,82.116l0.262-1.101 M212.741,81.016l0.261-1.194 M213.002,79.822l0.26-1.289 M210.091,88.001
	l0.268-0.303 M213.262,78.533l0.259-1.385 M210.626,87.307l0.267-0.479 M213.521,77.148l0.259-1.481 M211.16,86.263l0.265-0.653
	 M213.781,75.667l0.258-1.576 M211.689,84.87l0.264-0.828 M214.039,74.091l0.258-1.671 M214.296,72.42l0.257-1.762 M214.553,70.658
	l0.256-1.848 M210.894,86.828l0.266-0.565 M214.81,68.81l0.256-1.928 M210.359,87.698l0.268-0.391 M211.425,85.61l0.265-0.74
	 M215.065,66.882l0.255-1.997 M215.545,63.082l-0.224,1.803 M211.953,84.042l0.263-0.918 M209.281,88.361l0.271-0.026
	 M209.822,88.214l0.269-0.213 M208.736,88.116l0.273,0.173 M209.552,88.335l0.27-0.121 M209.009,88.289l0.271,0.072 M204.797,73.342
	l0.29,1.81 M205.375,76.871l0.287,1.614l0.286,1.5l0.285,1.377l0.283,1.25l0.282,1.122l0.281,0.993l0.279,0.865l0.278,0.74
	l0.277,0.618l0.275,0.501l0.275,0.387l0.273,0.278 M203.342,63.659l0.291,1.934l0.292,1.965 M201.616,54.45l0.284,1.103
	 M203.051,61.787l0.291,1.873 M204.507,71.458l0.29,1.884 M203.925,67.558l0.292,1.964 M204.216,69.522l0.291,1.936 M201.899,55.553
	l0.286,1.31 M202.185,56.863l0.288,1.494 M202.473,58.357l0.289,1.651l0.29,1.778 M205.086,75.152l0.288,1.719 M201.334,53.572
	l0.281,0.878 M185.816,183.7l0.258-0.722 M186.074,182.979l0.247-1.671 M201.055,52.932l0.279,0.64 M199.963,52.768l0.27-0.307
	 M200.233,52.461l0.271-0.082 M200.504,52.38l0.274,0.155 M200.778,52.535l0.277,0.397 M198.387,58.269l0.259-1.241 M199.431,53.99
	l0.265-0.706 M198.128,59.587l0.258-1.318 M199.696,53.284l0.267-0.516 M199.168,54.865l0.263-0.875 M196.587,68.078l0.257-1.41
	l0.256-1.428 M197.871,60.962l0.257-1.375 M197.101,65.24l0.256-1.436 M197.357,63.804l0.257-1.431l0.257-1.411 M196.331,69.461
	l0.257-1.383 M198.646,57.028l0.26-1.143l0.262-1.021 M186.321,181.308l0.234-2.62 M190.415,98.027l0.247-2.053 M188.385,131.307
	l0.206-5.222 M192.445,86.188l0.259-1.042 M189.239,112.753l0.226-3.644 M190.172,100.334l0.243-2.307 M189.696,105.844l0.236-2.915
	 M192.186,87.276l0.259-1.089 M189.932,102.929l0.24-2.595 M191.928,88.43l0.258-1.154 M189.465,109.109l0.231-3.266
	 M190.662,95.974l0.249-1.832l0.252-1.642 M188.801,121.239l0.216-4.446 M193.224,83.142l0.26-0.989l0.26-0.997l0.26-1.012
	 M192.704,85.146l0.26-1.01 M192.964,84.136l0.26-0.994 M196.074,70.81l0.257-1.349 M195.042,75.799l0.258-1.183 M195.3,74.616
	l0.258-1.226 M194.783,76.94l0.259-1.141 M194.004,80.144l0.26-1.036 M194.524,78.042l0.259-1.102 M195.559,73.39l0.258-1.269
	 M195.816,72.121l0.257-1.311 M194.264,79.108l0.26-1.066 M189.017,116.793l0.222-4.04 M191.672,89.67l0.256-1.24 M187.198,165.855
	l0.2-5.487l0.196-5.81 M187.985,142.656l0.198-5.8 M188.183,136.856l0.202-5.549 M187.595,154.559l0.195-5.957 M187.79,148.602
	l0.196-5.945 M186.555,178.688l0.224-3.521 M186.779,175.167l0.214-4.323l0.206-4.988 M191.163,92.5l0.254-1.481l0.255-1.348
	 M188.59,126.085l0.211-4.846 M180.059,133.754l0.298,2.134 M179.116,127.962l0.059,0.313 M179.468,129.956l0.294,1.824
	 M179.762,131.78l0.296,1.974 M179.175,128.275l0.292,1.681 M184.679,178.51l0.297,2.298l0.29,1.711l0.28,1l0.27,0.182
	 M183.756,169.339l0.312,3.319 M184.067,172.658l0.308,3.094 M182.501,155.535l0.313,3.396l0.314,3.47l0.314,3.491l0.313,3.446
	 M181.879,149.106l0.31,3.145 M181.264,143.302l0.306,2.818 M181.57,146.12l0.309,2.986 M180.959,140.657l0.305,2.645
	 M182.189,152.251l0.312,3.284 M180.356,135.888l0.3,2.299 M180.657,138.187l0.303,2.471 M184.375,175.752l0.304,2.758
	 M175.49,115.712l0.278,0.525 M175.768,116.238l0.278,0.581 M171.134,113.743l0.267-0.286 M176.046,116.818l0.279,0.639
	 M171.668,113.245l0.269-0.146 M176.325,117.457l0.28,0.702 M172.206,113.014l0.27-0.029 M176.605,118.159l0.281,0.77
	 M172.747,113.007l0.271,0.071 M176.886,118.928l0.282,0.842 M173.291,113.196l0.273,0.162 M177.168,119.771l0.283,0.922
	 M173.837,113.562l0.274,0.248 M177.451,120.692l0.284,1.007 M174.385,114.101l0.275,0.334 M177.735,121.699l0.285,1.099
	 M174.937,114.813l0.276,0.425 M178.021,122.798l0.287,1.199 M178.307,123.998l0.288,1.307 M171.937,113.099l0.27-0.085
	 M178.595,125.305l0.29,1.423 M173.018,113.078l0.272,0.118 M179.116,127.962l-0.232-1.234 M174.111,113.81l0.274,0.291
	 M175.213,115.239l0.277,0.474 M174.661,114.435l0.276,0.379 M171.401,113.457l0.267-0.212 M173.563,113.357l0.273,0.205
	 M172.476,112.984l0.271,0.022 M168.565,122.7l0.247-1.558 M168.081,126.375l0.241-1.933 M170.343,115.122l0.262-0.556
	 M169.313,118.547l0.254-1.06 M170.605,114.566l0.264-0.456l0.265-0.367 M169.061,119.762l0.252-1.215 M169.567,117.487l0.257-0.916
	 M169.824,116.571l0.259-0.785l0.26-0.665 M168.812,121.143l0.25-1.381 M168.321,124.442l0.244-1.742 M167.148,135.994l0.229-2.673
	l0.231-2.502l0.234-2.318l0.238-2.126 M165.809,153.887l0.223-2.98 M166.698,141.761l0.224-2.943l0.226-2.823 M166.253,147.854
	l0.222-3.066 M166.475,144.788l0.223-3.027 M166.032,150.906l0.222-3.052 M163.888,168.396l0.26-0.522 M165.585,156.732l0.224-2.846
	 M164.148,167.873l0.253-0.937 M165.357,159.383l0.228-2.65 M164.649,165.593l0.241-1.73 M165.126,161.777l0.231-2.395
	 M164.402,166.937l0.248-1.344 M164.891,163.862l0.236-2.085 M163.622,168.512l0.267-0.116 M161.012,156.634l0.301,1.975
	 M161.313,158.608l0.3,1.906l0.298,1.801l0.295,1.653l0.292,1.464l0.288,1.229l0.284,0.95l0.279,0.629l0.272,0.271 M160.71,154.623
	l0.302,2.011 M160.106,150.604l0.302,2.001 M160.408,152.605l0.302,2.018 M158.607,141.417l0.297,1.69 M159.804,148.64l0.302,1.965
	 M126.589,29.545l0.282,0.375 M154.312,126.817l0.276,0.358 M154.588,127.175l0.278,0.445 M154.866,127.621l0.279,0.531
	 M155.146,128.152l0.28,0.617 M155.426,128.769l0.282,0.703 M155.708,129.472l0.284,0.79 M155.992,130.262l0.285,0.877
	 M156.276,131.14l0.287,0.966 M152.954,126.389l0.269-0.104 M156.563,132.105l0.288,1.056 M153.492,126.278l0.271,0.088
	 M156.851,133.161l0.289,1.146 M154.037,126.547l0.275,0.27 M157.14,134.308l0.291,1.238 M157.43,135.546l0.292,1.33
	 M157.723,136.876l0.293,1.423 M158.016,138.299l0.295,1.514 M153.222,126.285l0.27-0.006 M158.311,139.812l0.296,1.604
	 M158.905,143.107l0.299,1.772 M153.764,126.367l0.273,0.181 M152.687,126.593l0.267-0.205 M159.204,144.88l0.3,1.848
	 M159.503,146.728l0.301,1.912 M151.383,129.27l0.256-0.768 M150.379,133.583l0.248-1.265 M148.937,143.415l0.236-1.848
	 M151.898,127.854l0.261-0.531 M150.876,131.177l0.252-1.016 M149.411,139.782l0.239-1.704 M152.159,127.322l0.263-0.419
	 M151.64,128.502l0.259-0.648 M151.129,130.161l0.254-0.891 M150.627,132.318l0.25-1.141 M149.65,138.078l0.241-1.608
	 M149.173,141.567l0.238-1.785 M149.891,136.47l0.243-1.501 M152.422,126.903l0.265-0.31 M148.231,149.103l0.235-1.895l0.235-1.905
	l0.235-1.888 M145.763,161.215l0.263-0.321 M147.28,155.966l0.241-1.548 M146.025,160.894l0.259-0.553 M147.996,150.956l0.235-1.854
	 M147.036,157.354l0.244-1.389 M146.284,160.341l0.255-0.781 M146.79,158.56l0.247-1.205 M147.521,154.418l0.239-1.68
	 M147.759,152.738l0.237-1.782 M146.539,159.56l0.25-1 M150.134,134.969l0.245-1.386 M134.412,118.457l0.309,1.896 M136.796,129.5
	l0.29,1 M135.326,123.568l0.298,1.377l0.296,1.26l0.293,1.165 M134.721,120.353l0.304,1.694 M137.665,132.447l0.289,0.97
	 M137.954,133.417l0.29,0.981 M137.086,130.501l0.29,0.978 M137.376,131.479l0.289,0.968 M139.697,139.713l0.292,1.174
	 M138.244,134.398l0.29,1.001 M138.533,135.399l0.29,1.026 M138.823,136.426l0.291,1.059 M139.114,137.484l0.292,1.095
	 M139.405,138.579l0.292,1.134 M135.025,122.047l0.301,1.521 M132.431,100.952l0.349,3.809l0.34,3.413l0.333,3.043l0.326,2.706
	l0.319,2.402l0.313,2.132 M128.579,46.127l0.388,5.522 M127.174,31.28l0.323,2.362 M128.202,41.179l0.376,4.949 M127.497,33.643
	l0.344,3.329 M131.332,87.021l0.375,5.06 M131.707,92.081l0.367,4.646l0.358,4.224 M128.967,51.649l0.396,5.908 M129.362,57.558
	l0.399,6.107l0.399,6.133 M130.161,69.798l0.396,6.01 M130.557,75.809l0.391,5.77 M127.841,36.972l0.361,4.207 M130.948,81.578
	l0.384,5.443 M126.871,29.92l0.303,1.36 M145.691,161.239l0.071-0.024 M123.405,72.729l0.212-2.829 M122.97,77.839l0.219-2.464
	 M125.02,46.061l0.199-3.531 M125.218,42.529l0.203-3.346l0.21-3.047l0.219-2.621l0.23-2.061l0.246-1.365 M124.43,56.889
	l0.197-3.578l0.196-3.63 M124.823,49.681l0.197-3.621 M123.825,66.891l0.205-3.183 M124.029,63.708l0.202-3.342 M124.231,60.366
	l0.199-3.477 M123.189,75.375l0.215-2.646 M123.617,69.9l0.208-3.009 M136.213,127.371l0.292,1.092 M122.802,79.568l0.168-1.729
	 M136.505,128.463l0.291,1.038 M144.102,158.71l0.285,0.869 M144.387,159.579l0.282,0.714l0.279,0.538 M143.232,155.388l0.292,1.204
	 M143.524,156.592l0.29,1.115l0.288,1.003 M144.949,160.831l0.275,0.343 M141.167,145.967l0.295,1.349l0.295,1.368 M142.349,151.433
	l0.295,1.356l0.294,1.324 M141.757,148.684l0.296,1.376 M142.053,150.06l0.295,1.373 M140.577,143.354l0.295,1.29l0.295,1.322
	 M139.99,140.887l0.293,1.214 M140.283,142.101l0.294,1.254 M142.938,154.113l0.293,1.274 M145.224,161.174l0.271,0.132
	 M120.356,95.189l0.25-1.002 M120.606,94.187l0.248-1.091 M122.802,79.568l-0.054,0.56 M120.104,96.109l0.251-0.92 M120.854,93.096
	l0.246-1.188 M117.785,101.752l0.261-0.458 M121.1,91.907l0.244-1.293 M118.567,100.283l0.259-0.564 M121.343,90.614l0.241-1.408
	 M119.084,99.109l0.257-0.66 M121.584,89.206l0.239-1.531 M119.597,97.733l0.254-0.778 M121.823,87.675l0.236-1.664
	 M118.307,100.807l0.26-0.523 M122.059,86.011l0.233-1.807 M119.852,96.955l0.253-0.846 M118.046,101.295l0.261-0.488
	 M119.341,98.449l0.256-0.716 M122.292,84.205l0.229-1.958 M122.521,82.247l0.227-2.119 M118.826,99.719l0.258-0.609
	 M115.684,104.886l0.263-0.391 M117.261,102.593l0.263-0.41 M117.523,102.184l0.262-0.431 M116.998,102.986l0.263-0.393
	 M116.472,103.742l0.263-0.375 M116.735,103.368l0.263-0.381 M115.946,104.496l0.263-0.379 M116.209,104.116l0.263-0.374
	 M114.899,106.204l0.261-0.472 M112.637,113.993l0.24-1.354 M113.368,110.396l0.25-0.925 M115.16,105.732l0.261-0.436
	 M114.64,106.721l0.26-0.517 M113.87,108.655l0.255-0.721l0.256-0.64 M114.381,107.294l0.258-0.573 M113.618,109.471l0.252-0.815
	 M115.421,105.296l0.262-0.41 M112.877,112.64l0.244-1.193 M113.121,111.446l0.247-1.05 M145.691,161.239l-0.196,0.066
	 M110.523,139.252l0.187-3.529l0.192-3.337l0.197-3.118l0.203-2.882l0.208-2.64l0.215-2.397l0.22-2.162l0.226-1.937l0.231-1.726
	l0.235-1.531 M110.327,143.219l0.014-0.285 M110.34,142.934l0.183-3.682 M97.704,124.128l0.282,0.426 M110.327,143.219l-0.167,3.497
	 M110.042,149.238l0.118-2.522 M98.27,125.061l0.286,0.587 M109.802,154.318l0.179-3.782 M110.042,149.238l-0.061,1.298
	 M108.362,172.893l0.237-1.317 M108.599,171.575l0.225-1.848 M108.824,169.728l0.213-2.344 M109.037,167.384l0.202-2.787
	 M109.239,164.597l0.194-3.161 M108.112,173.667l0.25-0.774 M109.433,161.436l0.187-3.455 M109.619,157.98l0.183-3.662
	 M105.729,164.186l0.323,2.208 M106.371,168.429l0.313,1.805 M106.989,171.743l0.297,1.154 M107.849,173.906l0.263-0.239
	 M106.684,170.233l0.306,1.51 M106.052,166.394l0.319,2.035 M107.573,173.636l0.275,0.271 M104.745,157.045l0.329,2.422l0.329,2.394
	 M104.087,152.255l0.329,2.377 M104.416,154.632l0.329,2.413 M103.112,145.548l0.323,2.15 M103.435,147.698l0.326,2.239
	 M103.761,149.938l0.327,2.317 M107.286,172.897l0.287,0.738 M105.402,161.86l0.326,2.325 M98.556,125.648l0.288,0.668
	 M101.532,136.367l0.311,1.618 M101.843,137.985l0.313,1.729 M99.425,127.903l0.294,0.923 M102.156,139.714l0.316,1.837
	 M100.016,129.84l0.298,1.106 M102.473,141.551l0.318,1.946 M100.615,132.149l0.303,1.302 M102.791,143.497l0.321,2.051
	 M101.224,134.856l0.308,1.511 M98.843,126.316l0.29,0.751 M100.918,133.451l0.306,1.405 M99.133,127.067l0.292,0.836
	 M100.314,130.946l0.301,1.203 M97.485,123.857l0.219,0.271 M97.986,124.555l0.284,0.506 M99.719,128.827l0.296,1.014
	 M126.326,30.091l0.263-0.545 M89.798,162.845l0.237-1.203 M22.149,151.016l0.259-0.321 M20.022,152.084l0.272,0.033
	 M20.564,152.101l0.269-0.066 M20.833,152.034l0.266-0.114 M21.889,151.303l0.26-0.287 M21.364,151.758l0.263-0.206 M20.294,152.117
	l0.27-0.017 M21.627,151.552l0.262-0.249 M23.179,149.561l0.256-0.418 M21.099,151.92l0.265-0.162 M22.666,150.341l0.257-0.379
	l0.256-0.401 M10.83,117.03l0.423,3.959 M24.455,147.401l0.255-0.428 M23.435,149.143l0.255-0.43l0.255-0.438l0.255-0.438
	 M24.2,147.837l0.255-0.436 M27.046,144.134l0.266-0.148 M25.997,145.103l0.261-0.294 M24.71,146.974l0.256-0.416 M26.258,144.809
	l0.261-0.262 M25.738,145.429l0.259-0.326 M24.966,146.558l0.257-0.398 M25.48,145.781l0.258-0.353 M26.519,144.547l0.263-0.226
	 M26.782,144.321l0.264-0.188 M25.223,146.159l0.257-0.378 M12.423,130.313l0.363,2.412 M22.408,150.694l0.258-0.354
	 M27.312,143.985l0.267-0.109 M97.485,123.857l-0.061-0.075 M95.792,123.505l0.266-0.183 M96.058,123.322l0.269-0.086
	 M96.326,123.236l0.271,0.007 M96.598,123.243l0.273,0.095 M95.267,124.183l0.261-0.393 M96.871,123.338l0.275,0.181
	 M97.146,123.519l0.278,0.264 M95.528,123.79l0.264-0.285 M94.255,126.947l0.248-0.883 M94.754,125.313l0.255-0.625 M95.009,124.688
	l0.258-0.505 M94.502,126.064l0.251-0.751 M94.2,127.177l0.055-0.229 M27.579,143.876l0.269-0.067 M90.266,160.184l0.225-1.685
	 M93.3,131.888l0.233-1.453 M93.533,130.435l0.237-1.306l0.24-1.162 M91.979,143.38l0.212-2.188 M92.625,137.096l0.222-1.872
	l0.225-1.738l0.229-1.598 M91.139,152.423l0.21-2.237 M91.349,150.186l0.21-2.276l0.209-2.28l0.211-2.249 M90.491,158.499
	l0.219-1.88l0.216-2.038 M90.926,154.581l0.212-2.158 M92.192,141.192l0.215-2.102l0.218-1.995 M94.2,127.177l-0.189,0.791
	 M80.925,134.774l0.291,0.707l0.293,0.789 M78.956,132.184l0.274,0.109 M79.23,132.293l0.276,0.199 M79.507,132.492l0.279,0.286
	 M79.786,132.778l0.281,0.373 M80.067,133.151l0.284,0.458 M80.351,133.608l0.286,0.542 M89.042,164.781l0.26-0.358l0.252-0.646
	 M89.554,163.776l0.245-0.932 M90.036,161.642l0.23-1.458 M87.337,161.557l0.299,1.071l0.293,0.893 M86.729,158.993l0.306,1.343
	 M87.035,160.336l0.303,1.221 M88.774,164.855l0.268-0.074 M86.419,157.558l0.309,1.436 M88.218,164.206l0.282,0.452l0.275,0.197
	 M84.857,149.812l0.313,1.558 M85.17,151.369l0.313,1.57 M84.234,146.793l0.311,1.489 M84.545,148.282l0.312,1.529 M87.93,163.521
	l0.288,0.686 M86.108,156.055l0.311,1.503 M85.483,152.939l0.313,1.568 M85.796,154.508l0.312,1.547 M81.508,136.271l0.295,0.868
	 M83.309,142.65l0.307,1.319 M81.803,137.139l0.297,0.949 M83.616,143.97l0.309,1.383 M83.003,141.398l0.305,1.252 M82.1,138.088
	l0.299,1.027 M82.701,140.22l0.303,1.179 M83.924,145.353l0.31,1.44 M80.637,134.15l0.288,0.624 M82.399,139.115l0.301,1.104
	 M72.39,157.685l0.245-0.855 M78.685,132.166l0.271,0.018 M77.626,133.044l0.26-0.366 M77.887,132.678l0.263-0.267 M78.15,132.411
	l0.266-0.17 M78.416,132.241l0.269-0.075 M76.863,134.75l0.251-0.671 M76.368,136.396l0.246-0.874 M76.614,135.522l0.249-0.772
	 M75.885,138.438l0.24-1.067 M76.125,137.37l0.243-0.974 M75.648,139.595l0.237-1.157 M77.114,134.079l0.254-0.568l0.258-0.467
	 M73.578,152.152l0.23-1.391 M74.72,144.941l0.229-1.422 M74.95,143.52l0.23-1.373 M73.808,150.762l0.229-1.437l0.228-1.463
	l0.228-1.468 M74.492,146.395l0.228-1.453 M73.113,154.708l0.234-1.233 M73.347,153.475l0.231-1.322 M72.635,156.829l0.241-0.997
	 M72.875,155.832l0.237-1.124 M75.18,142.146l0.233-1.312l0.235-1.239 M71.886,158.923l0.254-0.537 M72.141,158.386l0.249-0.701
	 M71.627,159.292l0.259-0.369 M69.39,156.668l0.293,0.775 M70.542,159.106l0.278,0.285 M69.973,158.119l0.287,0.559 M71.094,159.523
	l0.269-0.031 M68.196,152.864l0.301,1.025 M71.363,159.492l0.264-0.2 M69.094,155.807l0.295,0.861 M70.82,159.392l0.274,0.132
	 M70.26,158.678l0.282,0.429 M69.683,157.443l0.29,0.676 M68.497,153.89l0.3,0.985l0.298,0.932 M67.592,150.748l0.302,1.064
	l0.302,1.052 M66.987,148.623l0.302,1.058 M67.29,149.681l0.302,1.067 M42.22,144.177l0.253-0.512 M42.474,143.665l0.255-0.471
	 M41.968,144.727l0.252-0.55 M42.985,142.77l0.258-0.375 M43.244,142.395l0.26-0.324 M43.504,142.07l0.262-0.271 M43.766,141.799
	l0.264-0.215 M44.029,141.584l0.266-0.159 M44.295,141.425l0.268-0.103 M62.606,138.021l0.279,0.272 M64.023,140.085l0.29,0.613
	 M64.312,140.698l0.292,0.677 M62.329,137.821l0.277,0.2 M64.604,141.375l0.293,0.735 M61.512,137.666l0.27-0.023 M64.897,142.11
	l0.294,0.794 M62.054,137.694l0.275,0.127 M65.191,142.904l0.296,0.846 M63.167,138.639l0.284,0.414 M65.488,143.75l0.298,0.896
	 M63.736,139.536l0.287,0.549 M65.786,144.646l0.299,0.941 M61.244,137.767l0.268-0.101 M66.084,145.588l0.3,0.98 M61.157,137.825
	l0.087-0.059 M61.782,137.643l0.272,0.052 M63.45,139.053l0.286,0.483 M66.385,146.568l0.301,1.015 M66.686,147.583l0.302,1.04
	 M62.885,138.294l0.281,0.345 M55.538,154.265l0.25-0.647l0.247-0.728 M59.941,139.415l0.256-0.48 M60.197,138.935l0.258-0.406
	 M61.157,137.825l-0.178,0.118 M60.455,138.528l0.26-0.331 M60.715,138.197l0.263-0.254 M59.187,141.281l0.25-0.689 M59.436,140.592
	l0.251-0.623 M59.687,139.969l0.254-0.554 M58.694,142.841l0.246-0.808 M56.523,151.235l0.242-0.903l0.241-0.939 M57.966,145.531
	l0.241-0.934 M57.006,149.393l0.24-0.962 M57.246,148.431l0.24-0.972 M57.486,147.459l0.24-0.971 M57.726,146.488l0.241-0.957
	 M56.035,152.89l0.245-0.797l0.243-0.857 M58.208,144.598l0.243-0.899l0.244-0.857 M58.939,142.033l0.247-0.752 M46.488,142.205
	l0.282,0.345 M55.285,154.823l0.253-0.559 M52.869,155.312l0.281,0.335 M54.771,155.647l0.259-0.361l0.255-0.463 M53.149,155.647
	l0.278,0.248 M52.585,154.897l0.284,0.415 M51.43,152.618l0.292,0.646 M54.509,155.906l0.262-0.259 M51.721,153.264l0.29,0.601
	 M54.244,156.059l0.266-0.152 M51.137,151.939l0.292,0.679 M53.975,156.105l0.269-0.047 M52.299,154.412l0.286,0.485
	 M49.961,149.049l0.294,0.732l0.294,0.73l0.294,0.723 M49.373,147.608l0.294,0.714 M49.667,148.322l0.294,0.727 M48.496,145.597
	l0.292,0.644 M48.787,146.24l0.292,0.672 M49.08,146.912l0.293,0.696 M52.011,153.864l0.288,0.548 M50.844,151.234l0.293,0.705
	 M44.562,141.322l0.27-0.044 M47.915,144.412l0.29,0.574 M45.652,141.489l0.277,0.184 M48.205,144.986l0.291,0.61 M46.208,141.912
	l0.281,0.293 M45.376,141.362l0.275,0.127 M47.054,142.945l0.286,0.443 M44.832,141.278l0.271,0.013 M46.771,142.55l0.284,0.396
	 M47.34,143.389l0.287,0.49 M45.929,141.673l0.279,0.239 M45.104,141.291l0.273,0.071 M42.729,143.194l0.256-0.425 M47.626,143.879
	l0.289,0.533 M53.428,155.896l0.275,0.154l0.272,0.056 M40.033,149.632l0.19-0.481 M40.968,147.196l0.249-0.646l0.25-0.632
	l0.25-0.609 M40.223,149.15l0.249-0.647 M40.471,148.503l0.249-0.653l0.249-0.653 M41.717,145.31l0.251-0.583 M28.937,143.958
	l0.276,0.142 M40.033,149.632l-0.059,0.149 M28.39,143.8l0.273,0.059 M27.848,143.809l0.271-0.025 M39.473,150.97l0.251-0.579
	 M39.724,150.391l0.25-0.609 M36.319,153.675l0.275,0.127 M36.867,153.865l0.271-0.002 M37.935,153.454l0.261-0.271 M37.405,153.794
	l0.266-0.137 M39.221,151.512l0.252-0.542 M37.671,153.657l0.264-0.203 M38.967,152.01l0.253-0.498 M37.137,153.863l0.268-0.069
	 M38.712,152.458l0.255-0.448 M36.594,153.802l0.273,0.063 M38.196,153.184l0.259-0.333l0.257-0.393 M36.042,153.489l0.277,0.186
	 M31.468,146.553l0.287,0.441 M30.614,145.384l0.284,0.361 M35.482,152.955l0.281,0.292 M34.916,152.236l0.284,0.38 M33.482,149.933
	l0.288,0.496l0.288,0.483l0.287,0.467 M32.617,148.427l0.288,0.5l0.289,0.503 M33.194,149.43l0.289,0.503 M30.12,144.833
	l0.211,0.222 M31.754,146.994l0.287,0.462 M32.042,147.456l0.288,0.479 M30.897,145.745l0.285,0.391l0.286,0.417 M30.331,145.055
	l0.283,0.329 M32.329,147.936l0.288,0.491 M35.763,153.247l0.279,0.242 M35.2,152.616l0.283,0.339 M34.345,151.379l0.286,0.443
	 M29.491,144.281l0.279,0.221 M29.77,144.502l0.28,0.258 M30.12,144.833l-0.07-0.073 M29.398,144.221l0.092,0.061 M34.631,151.822
	l0.285,0.414 M29.398,144.221l-0.185-0.121 M28.118,143.783l0.271,0.017 M28.663,143.858l0.274,0.1 M17.198,148.99l0.291,0.531
	l0.289,0.481l0.287,0.432l0.285,0.384l0.284,0.336l0.281,0.286l0.28,0.236l0.278,0.187l0.275,0.136l0.274,0.085"/>
<path fill="none" stroke="#FF0000" stroke-width="2" stroke-miterlimit="10" d="M292.923,161.567l0.259,2.71l0.259,2.564l0.26,2.347
	l0.26,2.05l0.262,1.67 M291.887,150.405l0.26,2.75l0.259,2.802l0.259,2.819 M292.665,158.776l0.259,2.791 M291.627,147.735
	l0.26,2.67 M285.529,117.06l0.269,0.361 M285.797,117.421l0.269,0.429 M286.066,117.85l0.268,0.498 M286.333,118.347l0.268,0.567
	 M286.601,118.915l0.268,0.639 M286.869,119.553l0.268,0.713 M287.136,120.266l0.267,0.79 M287.403,121.056l0.268,0.87
	 M287.67,121.926l0.267,0.955 M287.937,122.881l0.266,1.044 M283.917,116.392l0.269-0.08 M288.203,123.926l0.267,1.138
	 M284.455,116.314l0.269,0.079 M288.469,125.064l0.266,1.237 M284.993,116.545l0.269,0.223 M288.735,126.301l0.265,1.342
	 M289,127.643l0.265,1.452 M289.264,129.095l0.265,1.567 M289.529,130.662l0.265,1.688 M289.793,132.35l0.264,1.812
	 M283.647,116.557l0.27-0.165 M290.057,134.162l0.263,1.941 M284.723,116.393l0.27,0.152 M290.32,136.104l0.263,2.071
	 M290.583,138.175l0.262,2.203 M290.844,140.378l0.262,2.332 M285.261,116.768l0.268,0.292 M291.106,142.71l0.261,2.455
	 M291.367,145.165l0.261,2.57 M284.185,116.312l0.27,0.002 M283.108,117.169l0.27-0.355 M280.946,124.479l0.271-1.422
	 M282.028,119.722l0.271-0.825 M279.863,131.809l0.271-2.075 M282.568,118.203l0.271-0.574 M281.487,121.794l0.271-1.109
	 M280.405,127.818l0.271-1.752 M279.321,136.39l0.271-2.356 M283.377,116.814l0.27-0.257 M282.838,117.629l0.27-0.46
	 M282.298,118.897l0.27-0.695 M281.757,120.685l0.271-0.963 M281.216,123.057l0.271-1.263 M280.675,126.066l0.271-1.586
	 M280.133,129.734l0.271-1.916 M279.591,134.033l0.271-2.224 M277.698,151.725l0.271-2.506l0.27-2.585l0.271-2.617l0.271-2.604
	l0.271-2.554l0.271-2.469"/>
<text transform="matrix(1 0 0 1 293.0571 57.0698)" font-family="'STIXGeneral-Italic'" font-size="21">x</text>
<path fill="none" stroke="#FF0000" stroke-width="2" stroke-miterlimit="10" d="M295.285,174.229l0.271-1.286 M302.552,98.545
	l0.273-0.946 M302.826,97.599l0.273-0.875 M302.278,99.581l0.274-1.036 M299.503,119.56l0.281-3.107 M298.084,139.285l0.284-4.42
	 M304.192,93.627l0.273-0.739l0.273-0.748 M304.739,92.141l0.273-0.766 M305.012,91.375l0.273-0.793 M302.003,100.726l0.274-1.145
	 M299.221,122.966l0.282-3.406 M303.099,96.723l0.273-0.82 M298.938,126.666l0.283-3.7 M303.646,95.123l0.273-0.754l0.272-0.741
	 M305.286,90.582l0.274-0.83 M305.56,89.752l0.273-0.874 M298.369,134.865l0.285-4.222 M303.373,95.903l0.273-0.78 M306.659,85.917
	l0.275-1.124l0.276-1.204l0.276-1.291 M305.833,88.878l0.274-0.925 M306.108,87.953l0.275-0.985 M306.383,86.968l0.275-1.051
	 M298.654,130.643l0.284-3.977 M301.729,102l0.274-1.274 M297.229,152.976l0.285-4.544l0.285-4.597l0.285-4.55 M296.383,165.158
	l0.28-3.703 M295.016,174.833l0.269-0.604 M296.664,161.455l0.282-4.1l0.283-4.38 M295.555,172.943l0.274-1.967 M295.83,170.977
	l0.275-2.616l0.278-3.202 M294.485,174.114l0.265,0.664 M301.177,105.026l0.276-1.601l0.275-1.426 M294.75,174.778l0.267,0.055
	 M300.9,106.825l0.277-1.799 M294.222,172.908l0.263,1.206 M300.623,108.846l0.277-2.021 M299.785,116.453l0.28-2.812
	 M300.065,113.641l0.279-2.53 M300.344,111.11l0.278-2.265"/>
<line fill="none" stroke="#000000" stroke-width="2" stroke-miterlimit="10" x1="307.844" y1="12.831" x2="306.928" y2="190.8"/>
<text transform="matrix(1 0 0 1 491.4224 272.6367)" font-family="'STIXGeneral-Italic'" font-size="21">z</text>
<line fill="none" stroke="#000000" stroke-width="2" stroke-miterlimit="10" x1="500.962" y1="251.524" x2="362.989" y2="265.341"/>
<text transform="matrix(1 0 0 1 309.1665 236.1445)" font-family="'STIXGeneral-Italic'" font-size="21">y</text>
<path fill="none" stroke="#000000" stroke-width="2" stroke-miterlimit="10" d="M401.954,212.074l8.646,4.323l9.56,4.151
	l10.404,3.852l11.12,3.403l11.632,2.789 M488.007,233.594l10.053-1.27 M387.433,203.319l6.805,4.367l7.716,4.388 M465.172,232.597
	l11.711,1.05 M380.064,197.878l1.436,1.162l5.934,4.279 M306.928,190.8l56.061,74.541"/>
<path fill="none" stroke="#000000" stroke-width="2" stroke-miterlimit="10" d="M349.03,120.66l-1.579-1.125 M339.037,113.547
	l0.713,1.148 M340.077,115.132l-0.327-0.436 M350.676,121.676l-1.646-1.017 M340.077,115.132l0.899,1.201 M341.202,116.587
	l-0.226-0.254 M352.385,122.594l-1.709-0.918 M341.202,116.587l1.095,1.23 M342.404,117.92l-0.107-0.103 M354.152,123.421
	l-1.767-0.827 M342.404,117.92l1.275,1.221 M355.975,124.167l-1.823-0.745 M343.679,119.142l0.021,0.021 M345.042,120.265
	l-1.342-1.103 M357.852,124.836l-1.877-0.67 M345.042,120.265l0.137,0.112 M346.458,121.282l-1.278-0.905 M359.783,125.438
	l-1.931-0.602 M346.458,121.282l0.269,0.19 M347.917,122.202l-1.191-0.729 M361.765,125.979l-1.982-0.541 M347.917,122.202
	l0.418,0.256 M349.415,123.03l-1.079-0.572 M363.799,126.465l-2.034-0.485 M349.415,123.03l0.59,0.312 M350.94,123.771l-0.936-0.429
	 M365.885,126.902l-2.086-0.438 M350.94,123.771l0.789,0.361 M352.479,124.429l-0.75-0.297 M374.757,128.285l-2.298-0.303
	l-2.244-0.327 M373.104,128.067l-0.183-0.005 M370.215,127.654l-2.191-0.358 M377.11,128.57l-2.353-0.286 M372.921,128.062
	l-0.342-0.009 M379.519,128.845l-2.409-0.275 M372.58,128.053l-0.394-0.01 M368.024,127.296l-2.139-0.394 M352.479,124.429
	l1.027,0.406 M360.558,126.77l-1.405-0.29l-1.934-0.476l-1.882-0.547l-1.831-0.622 M384.511,129.393l-2.525-0.276l-2.467-0.271
	 M401.117,131.744l-0.098-0.02 M401.019,131.724l-2.929-0.529 M398.09,131.195l-2.853-0.455 M395.238,130.74l-2.78-0.395
	 M360.558,126.77l0.58,0.12 M372.186,128.043l-0.32-0.008l-2.256-0.115l-2.2-0.171l-2.144-0.228l-2.091-0.286l-2.037-0.346
	 M389.745,129.998l-2.648-0.314 M396.867,141.147l-2.61,0.008 M394.256,141.155l-2.535,0.086 M399.175,141.216l-2.309-0.068
	 M389.26,141.397l-2.39,0.221l-2.316,0.281 M372.188,144.705l-1.796,0.647 M370.392,145.353l-1.716,0.702 M382.309,142.237
	l-2.172,0.392 M368.676,146.055l-1.634,0.759 M380.137,142.629l-2.099,0.443l-2.025,0.493 M376.013,143.565l-1.95,0.545
	 M384.554,141.899l-2.245,0.338 M391.721,141.241l-2.461,0.156 M374.063,144.11l-1.875,0.595 M364.037,148.516l-1.364,0.951
	 M367.042,146.813l-1.548,0.818 M397.854,147.664l-1.995,0.237 M385.55,150.626l-1.769,0.798 M393.612,148.273l-2.157,0.46
	 M391.455,148.733l-2.064,0.547l-1.97,0.631 M387.42,149.911l-1.87,0.715 M395.859,147.901l-2.247,0.372 M374.802,159.529
	l-0.69,1.566 M382.122,152.306l-1.548,0.969l-1.428,1.058l-1.3,1.15l-1.165,1.246l-1.019,1.347 M374.027,161.379l0.085-0.283
	 M383.782,151.424l-1.66,0.882 M375.663,158.075l-0.86,1.454 M361.87,150.118l0.803-0.651 M365.495,147.632l-1.458,0.884
	 M387.096,129.684l-2.585-0.291 M392.458,130.346l-2.713-0.348 M402.595,187.841l2.715,2.516 M391.79,185.909l2.729,2.864
	 M417.92,204.957l-2.196-1.098 M410.424,200.852l5.3,3.008 M383.727,171.198l0.503,2.132 M389.507,183.148l2.282,2.761
	 M385.032,175.593l1.127,2.392 M405.66,197.798l4.765,3.054 M386.159,177.984l1.482,2.521 M401.43,194.744l4.229,3.054
	 M384.23,173.33l0.802,2.263 M394.518,188.773l3.205,2.952l3.707,3.019 M383.621,170.266l0.106,0.933 M387.641,180.505l1.866,2.644
	 M402.042,201.988l-1.42-0.877 M391.059,194.074l4.46,3.49l5.103,3.547 M373.229,166.53l0.168,2.079 M375.635,175.733l1.43,2.684
	 M373.834,170.833l0.735,2.373 M387.207,190.677l3.853,3.397 M374.57,173.206l1.065,2.527 M383.924,187.397l3.282,3.279
	 M373.397,168.609l0.438,2.224 M381.167,184.254l2.757,3.144 M373.307,164.589l-0.078,1.941 M377.065,178.417l1.831,2.842
	l2.271,2.995 M374.027,161.379l-0.419,1.401 M373.608,162.78l-0.301,1.809 M359.015,174.104l1.618,2.944 M357.479,155.465
	l-0.65,1.498 M359.2,152.791l-0.926,1.286 M356.013,160.326l-0.129,1.885 M357.78,171.362l1.235,2.742 M355.969,164.247l0.324,2.196
	 M361.407,150.493l-1.16,1.105 M356.886,168.812l0.894,2.551 M365.222,183.565l3.085,3.575 M355.884,162.211l0.085,2.036
	 M360.633,177.049l2.051,3.152l2.538,3.364 M356.334,158.58l-0.321,1.746 M358.274,154.077l-0.795,1.388 M356.829,156.963
	l-0.494,1.617 M360.247,151.599l-1.047,1.192 M380.064,197.878l-3.687-2.982 M361.87,150.118l-0.463,0.375 M368.307,187.141
	l3.696,3.781l4.374,3.974 M356.293,166.443l0.593,2.368 M458.538,212.141l5.469,0.181 M482.311,216.481l4.62-1.963 M488.745,213.136
	l-1.813,1.383 M481.053,216.762l1.258-0.28 M495.699,219.501l2.38-1.392 M498.079,218.109l3.334-3.728 M501.711,213.562
	l-0.299,0.819 M447.009,210.396l5.814,1.087 M503.053,230.827l-4.993,1.497 M427.849,209.512l6.728,2.511 M448.917,216.023
	l7.34,1.325l7.221,0.77 M417.92,204.957l3.624,1.811 M481.053,216.762l-4.329,0.966 M421.544,206.768l6.305,2.744 M434.577,212.022
	l7.063,2.197l7.277,1.804 M463.478,218.118l6.896,0.144l6.351-0.534 M486.859,222.955l6.302-1.971 M495.699,219.501l-2.538,1.483
	 M444.567,220.185l8.925,1.993 M453.492,222.178l8.965,1.369 M462.457,223.547l8.746,0.642l8.237-0.176 M479.44,224.013l7.419-1.058
	 M427.641,214.777l8.254,2.904l8.672,2.503 M412.829,208.183l7.099,3.397 M419.927,211.58l7.714,3.197 M476.883,233.646
	l11.124-0.053 M406.389,204.67l6.439,3.513 M453.316,230.593l11.856,2.004 M402.042,201.988l4.348,2.682"/>
<path fill="none" stroke="#FF0000" stroke-width="1.5" stroke-miterlimit="10" d="M330.706,103.679l-4.666,0.391 M307.487,82.298
	l18.553,21.771"/>
<path fill="none" stroke="#000000" stroke-width="2" stroke-miterlimit="10" d="M336.559,107.964l0.225,0.78 M337.265,109.971
	l-0.481-1.227 M347.451,119.535l-1.508-1.242 M345.943,118.293l-1.429-1.37 M337.265,109.971l0.37,0.944 M339.037,113.547
	l-0.406-0.653l-0.995-1.979"/>
<line fill="none" stroke="#FF0000" stroke-width="1.5" stroke-miterlimit="10" x1="332.613" y1="103.52" x2="330.706" y2="103.679"/>
<line fill="none" stroke="#000000" stroke-width="2" stroke-miterlimit="10" x1="344.514" y1="116.923" x2="343.174" y2="115.414"/>
<line fill="none" stroke="#FF0000" stroke-width="1.5" stroke-miterlimit="10" x1="334.189" y1="103.387" x2="332.613" y2="103.52"/>
<path fill="none" stroke="#000000" stroke-width="2" stroke-miterlimit="10" d="M335.586,103.48l0.026,0.286 M335.995,105.804
	l-0.382-2.038 M343.174,115.414l-1.241-1.661 M335.995,105.804l0.104,0.562 M336.559,107.964l-0.46-1.598"/>
<line fill="none" stroke="#FF0000" stroke-width="1.5" stroke-miterlimit="10" x1="335.463" y1="103.281" x2="334.189" y2="103.387"/>
<path fill="none" stroke="#000000" stroke-width="2" stroke-miterlimit="10" d="M335.568,103.272l0.019,0.208 M341.933,113.753
	l-1.126-1.824"/>
<line fill="none" stroke="#FF0000" stroke-width="1.5" stroke-miterlimit="10" x1="336.458" y1="103.197" x2="335.463" y2="103.281"/>
<path fill="none" stroke="#000000" stroke-width="2" stroke-miterlimit="10" d="M338.061,93.438l0.781-3.616 M335.715,94.499
	l0.72-3.621 M336.435,90.878l1.166-3.902l1.686-4.186 M335.364,101l-0.007-0.068 M335.357,100.931l0.019-3.085l0.34-3.347
	 M341.144,79.169l-1.857,3.621 M340.807,111.93l-0.997-2.001 M335.568,103.272L335.364,101"/>
<line fill="none" stroke="#FF0000" stroke-width="1.5" stroke-miterlimit="10" x1="337.19" y1="103.136" x2="336.458" y2="103.197"/>
<path fill="none" stroke="#000000" stroke-width="2" stroke-miterlimit="10" d="M337.668,96.788l0.393-3.35 M339.81,109.929
	l-0.845-2.191"/>
<line fill="none" stroke="#FF0000" stroke-width="1.5" stroke-miterlimit="10" x1="337.667" y1="103.096" x2="337.19" y2="103.136"/>
<path fill="none" stroke="#000000" stroke-width="2" stroke-miterlimit="10" d="M337.608,99.88l0.061-3.092 M338.965,107.737
	l-0.67-2.396"/>
<line fill="none" stroke="#FF0000" stroke-width="1.5" stroke-miterlimit="10" x1="337.893" y1="103.077" x2="337.667" y2="103.096"/>
<path fill="none" stroke="#000000" stroke-width="2" stroke-miterlimit="10" d="M361.709,57.434l6.834-5.283 M371.367,48.672
	l2.115-1.439 M379.052,44.027l-5.57,3.206 M355.948,62.662l5.762-5.228 M371.367,48.672l-5.842,3.974 M364.74,53.274l0.785-0.627
	 M351.176,67.758l4.771-5.096 M364.74,53.274l-5.763,4.607 M347.299,72.666l3.877-4.908 M358.977,57.881l-0.241,0.193
	 M353.927,62.59l4.809-4.516 M344.22,77.346l3.079-4.681 M353.927,62.59l-0.884,0.83 M349.724,67.094l3.319-3.674 M341.843,81.774
	l2.377-4.428 M349.724,67.094l-1.369,1.516 M346.26,71.364l2.095-2.754 M340.078,85.935l1.766-4.161 M346.26,71.364l-1.693,2.226
	 M343.431,75.389l1.136-1.799 M338.842,89.823l1.235-3.888 M343.431,75.389l-1.854,2.936 M341.144,79.169l0.434-0.845
	 M338.295,105.342l-0.464-2.615l-0.224-2.847"/>
<line fill="none" stroke="#FF0000" stroke-width="1.5" stroke-miterlimit="10" x1="354.615" y1="101.677" x2="337.893" y2="103.077"/>
<line fill="none" stroke="#000000" stroke-miterlimit="10" x1="363.171" y1="82.916" x2="364.659" y2="79.656"/>
<path fill="none" stroke="#000000" stroke-width="2" stroke-miterlimit="10" d="M395.569,120.208l-2.655-0.766 M403.018,122.463
	l-1.885-0.6 M401.133,121.863l-2.825-0.854l-2.739-0.801 M376.566,113.781l-1.998-1.004 M390.339,118.695l-2.496-0.745l-2.418-0.758
	 M395.069,126.28l-2.864,0.49 M373.104,128.067l1.077,0.027 M376.557,128.096l-2.376-0.002 M392.205,126.77l-2.786,0.402
	 M398.012,125.694l-2.943,0.586 M389.418,127.172l-2.712,0.322 M378.995,128.04l-2.438,0.056 M401.04,125.001l-3.027,0.693
	 M381.498,127.924l-2.503,0.116 M402.581,124.599l-1.541,0.402 M386.707,127.495l-2.639,0.249l-2.57,0.181"/>
<line fill="none" stroke="#FF0000" stroke-width="1.5" stroke-miterlimit="10" x1="354.615" y1="101.677" x2="362.774" y2="100.994"/>
<line fill="none" stroke="#000000" stroke-width="2" stroke-miterlimit="10" x1="363.734" y1="102.917" x2="362.774" y2="100.994"/>
<line fill="none" stroke="#000000" stroke-width="8" stroke-linecap="round" stroke-miterlimit="10" x1="362.774" y1="100.994" x2="362.774" y2="100.994"/>
<path fill="none" stroke="#000000" stroke-width="2" stroke-miterlimit="10" d="M386.688,107.222l-1.989-0.626 M378.655,114.714
	l-2.089-0.933 M366.167,106.333l-1.296-1.639l-1.137-1.777 M374.568,112.776l-1.901-1.086 M380.83,115.586l-2.175-0.872
	 M385.425,117.191l-2.338-0.784 M367.606,107.843l-1.439-1.51 M383.087,116.408l-2.258-0.822 M369.176,109.232l-1.57-1.39
	 M392.914,119.442l-2.574-0.748 M372.667,111.69l-1.801-1.178l-1.689-1.279"/>
<path fill="none" stroke="#000000" stroke-miterlimit="10" d="M361.179,94.271l-0.012-2.579 M362.012,98.916l-0.541-2.239
	 M361.469,88.94l0.654-2.927"/>
<path fill="none" stroke="#000000" stroke-width="2" stroke-miterlimit="10" d="M398.634,101.763l-1.699-1.137 M382.812,105.847
	l-1.775-0.875 M406.057,107.637l-0.374,0.075l-2.633,0.399 M377.848,102.842l-1.393-1.261 M388.774,107.726l-2.086-0.503
	 M397.985,108.499l-2.424-0.004 M372.693,84.4l-0.526,2.077 M393.215,108.363l-2.265-0.257 M372.061,93.212l-0.239-2.102
	 M376.456,101.582l-1.242-1.395 M371.822,91.11l0.026-2.246 M379.378,103.972l-1.53-1.129 M373.24,96.983l-0.699-1.814
	 M384.699,106.596l-1.887-0.75 M372.541,95.169l-0.479-1.958 M390.951,108.106l-2.177-0.38 M381.037,104.972l-1.658-1
	 M395.561,108.495l-2.346-0.132 M374.136,98.655l-0.896-1.671 M403.05,108.111l-2.567,0.261l-2.498,0.126 M371.848,88.864
	l0.318-2.387 M375.213,100.187l-1.077-1.532"/>
<path fill="none" stroke="#000000" stroke-miterlimit="10" d="M380.295,61.619l5.046-3.699 M372.222,69.062l3.708-3.711
	 M366.631,76.246l2.506-3.54"/>
<path fill="none" stroke="#000000" stroke-width="2" stroke-miterlimit="10" d="M400.907,67.507l2.881-1.849 M403.788,65.658
	l3.145-1.734 M406.932,63.924l3.378-1.586 M410.31,62.338l3.574-1.404 M415.75,60.339l-1.866,0.595 M387.966,85.095l0.34-1.818
	 M395.359,99.475l-1.45-1.178 M387.979,88.521l-0.117-1.676 M390.388,94.492l-0.868-1.386 M388.821,91.65l-0.518-1.527
	 M392.592,97.08l-1.177-1.266 M406.323,106.341l-1.874-1.082 M400.454,102.902l-1.819-1.139 M404.449,105.259l-2.058-1.198
	 M387.862,86.844l0.104-1.75 M396.001,71.427l2.306-1.988 M388.303,90.123l-0.324-1.603 M393.996,73.444l2.006-2.017 M389.52,93.106
	l-0.699-1.456 M392.288,75.468l1.708-2.023 M391.416,95.814l-1.027-1.322 M390.875,77.478l1.413-2.01 M393.909,98.297l-1.316-1.217
	 M389.748,79.458l1.127-1.98 M396.935,100.626l-1.576-1.151 M388.895,81.395l0.853-1.937 M402.391,104.061l-1.938-1.159
	 M388.306,83.276l0.589-1.882 M398.307,69.439l2.6-1.933 M373.798,81.301l1.374-2.77"/>
<line fill="none" stroke="#000000" stroke-miterlimit="10" x1="391.076" y1="54.322" x2="397.483" y2="50.903"/>
<path fill="none" stroke="#000000" stroke-width="2" stroke-miterlimit="10" d="M393.024,60.699l4.724-2.837 M397.748,57.862
	l5.202-2.662 M402.95,55.2l5.635-2.422 M408.584,52.778l5.998-2.113 M417.921,49.743l-3.339,0.922 M385.097,66.667l3.707-3.015
	 M372.806,83.954l0.992-2.652 M381.899,69.699l3.198-3.032 M376.961,75.66l2.232-2.953 M379.194,72.707l2.705-3.008 M375.172,78.532
	l1.789-2.872 M372.693,84.4l0.113-0.446 M388.804,63.652l4.22-2.953"/>
<line fill="none" stroke="#000000" stroke-miterlimit="10" x1="404.519" y1="47.753" x2="412.106" y2="44.967"/>
<path fill="none" stroke="#000000" stroke-width="2" stroke-miterlimit="10" d="M417.921,49.743l2.932-0.811 M420.853,48.933
	l6.427-1.285 M427.28,47.648l6.442-0.773 M433.722,46.875l6.305-0.208 M463.846,54.827l2.322,3.328 M456.453,49.74l4.133,2.261
	 M440.027,46.667l6,0.397 M451.554,48.087l4.898,1.653 M466.168,58.154l1.36,3.749 M467.627,62.877l-0.099-0.974 M446.027,47.063
	l5.527,1.024 M436.276,58.081l3.229,0.663 M417.61,59.746l3.819-0.939 M449.613,74.49l-0.894,2.736 M448.719,77.227l-1.295,2.758
	 M429.086,57.793l3.691-0.026 M447.424,79.985l-1.647,2.74 M425.278,58.147l3.809-0.354 M445.777,82.725l-1.952,2.683
	 M432.778,57.767l3.498,0.314 M443.825,85.408l-2.205,2.595 M442.393,59.751l2.487,1.342 M441.62,88.003l-2.413,2.48
	 M446.917,62.748l1.549,1.939 M439.207,90.483l-2.576,2.345 M449.506,66.874l0.529,2.394 M421.429,58.807l3.849-0.66
	 M450.063,71.822l-0.45,2.668 M415.75,60.339l1.859-0.593 M444.88,61.093l2.036,1.654 M439.504,58.744l2.889,1.008 M431.143,97.052
	l-2.848,1.861 M448.465,64.687l1.041,2.187 M450.036,69.267l0.027,2.555 M413.923,105.63l-2.797,0.847l-2.749,0.692
	 M407.917,107.262l0.46-0.093 M406.323,106.341l0.308,0.178 M407.91,107.263l-1.279-0.744 M407.917,107.262l-1.86,0.375
	 M407.91,107.263l0.533,0.311 M416.762,104.625l-2.839,1.006 M408.443,107.574l0.451,0.262 M422.52,102.113l-2.889,1.34
	 M419.631,103.453l-2.869,1.171 M408.894,107.836l0.05,0.029 M410.149,108.581l-1.205-0.716 M425.414,100.6l-2.894,1.513
	 M433.358,110.934l-1.057,0.702 M432.301,111.636l-3.817,2.313 M423.047,116.951l0.007,0.004 M428.484,113.949l-3.744,2.067
	 M423.2,116.79l1.54-0.773 M416.811,112.714l-2.795-1.783 M414.016,110.931l-2.615-1.605 M410.149,108.581l1.252,0.745
	 M422.976,116.902l0.224-0.112 M423.047,116.951l-3.233-2.24 M419.814,114.711l-3.003-1.997 M422.976,116.902l-1.896,0.952
	 M406.38,123.533l0.975-0.288 M421.081,117.854l-3.57,1.624l-3.479,1.429l-3.385,1.251l-3.292,1.089 M423.054,116.956l0.007,0.004
	 M427.021,119.821l-0.428-0.318l-3.532-2.542 M403.018,122.463l1.035,0.33 M420.249,129.318l-3.377-1.586 M416.872,127.732
	l-3.403-1.471l-3.26-1.295 M406.301,123.556l0.079-0.023 M407.075,123.819l-3.021-1.026 M406.301,123.556l-2.148,0.633
	 M402.581,124.599l1.572-0.41 M410.208,124.966l-3.134-1.147 M415.733,135.649l-2.109-0.723 M407.126,133.07l-3.098-0.727
	 M401.117,131.744l2.912,0.599 M413.624,134.927l-3.302-1.003l-3.195-0.854 M402.317,141.401l-2.765-0.175 M410.806,142.559
	l-2.714-0.478 M405.163,141.682l-2.846-0.28 M399.175,141.216l0.377,0.011 M408.092,142.081l-2.93-0.399 M397.854,147.664l0.34-0.04
	 M407.286,147.495l-1.562-0.091 M405.723,147.404l-2.597-0.036 M403.126,147.368l-2.51,0.075 M400.617,147.443l-2.423,0.181
	 M401.802,152.505l-2.124,0.393 M399.678,152.897l-2.022,0.498 M396.612,153.722l1.044-0.326 M403.905,152.236l-2.103,0.269
	 M393.79,167.493l-0.319,1.561 M368.51,13.73l15.357-2.938 M396.612,153.722l-0.874,0.273 M395.738,153.995l-1.808,0.7
	 M385.74,160.986l-0.841,1.412 M383.621,170.266l-0.122-1.072 M392.237,155.494l-1.572,0.897 M386.748,159.683l-1.008,1.304
	 M389.219,157.388l-1.309,1.097 M383.521,167.315l-0.022,1.878 M387.911,158.484l-1.163,1.198 M383.774,165.559l-0.253,1.757
	 M390.665,156.392l-1.445,0.996 M384.899,162.398l-0.66,1.522l-0.465,1.638 M393.93,154.695l-1.693,0.799 M379.052,44.027
	l3.599-2.071 M387.852,39.453l-5.201,2.503 M368.543,52.151l7.969-5.24 M387.852,39.453l5.173-2.49 M397.777,35.091l-4.752,1.873
	 M376.512,46.911l9.13-5.076 M397.777,35.091l6.754-2.662 M404.531,32.429l12.485-3.884 M422.525,27.284l-5.509,1.261
	 M407.242,32.79l12.217-3.613 M385.642,41.835l10.272-4.763 M395.915,37.072l11.327-4.282 M422.259,28.579l-2.801,0.599"/>
<path fill="none" stroke="#000000" stroke-miterlimit="10" d="M420.128,42.646l8.304-1.752 M436.822,39.806l8.249-0.339"/>
<line fill="none" stroke="#000000" stroke-width="2" stroke-miterlimit="10" x1="460.585" y1="52.001" x2="463.846" y2="54.827"/>
<line fill="none" stroke="#000000" stroke-miterlimit="10" x1="452.932" y1="39.942" x2="460.15" y2="41.269"/>
<path fill="none" stroke="#000000" stroke-width="2" stroke-miterlimit="10" d="M436.63,92.828l-2.699,2.193 M422.259,28.579
	l10.046-2.148"/>
<path fill="none" stroke="#000000" stroke-miterlimit="10" d="M466.486,43.453l5.245,3.012 M476.149,50.928l-0.416-0.69"/>
<path fill="none" stroke="#000000" stroke-width="2" stroke-miterlimit="10" d="M467.627,62.877l0.316,3.103 M444.006,103.091
	l-3.916,3.125 M467.47,70.288l-1.276,4.44 M455.286,92.098l-3.617,3.921 M467.944,65.98l-0.474,4.308 M461.667,83.641l-3.015,4.316
	 M440.09,106.215l-3.913,2.846 M433.358,110.934l2.819-1.873 M464.221,79.208l-2.554,4.433 M448.662,136.634l-3.983-3.181
	l-5.235-4.139 M439.443,129.314l-4.719-3.677 M434.724,125.637l-4.263-3.257 M427.021,119.821l3.44,2.56 M420.249,129.318
	l0.19,0.089 M424.194,131.319l-3.755-1.912 M441.661,141.944l-4.793-3.163 M436.868,138.781l-4.489-2.806 M432.378,135.976
	l-4.215-2.478 M428.164,133.498l-3.97-2.179 M441.873,142.092l-0.212-0.147 M437.26,145.799l-0.805-0.482 M424.298,139.043
	l-3.701-1.58 M420.597,137.463l-3.554-1.365 M415.733,135.649l1.311,0.448 M436.456,145.316l-4.244-2.369 M432.211,142.947
	l-4.048-2.084 M428.164,140.863l-3.865-1.82 M424.203,146.353l-3.438-1.209 M432.263,149.815l-0.811-0.399 M427.763,147.771
	l-3.561-1.419 M420.765,145.144l-3.323-1.016 M417.442,144.128l-3.215-0.839 M414.227,143.289l-3.114-0.677 M410.806,142.559
	l0.307,0.054 M431.453,149.416l-3.689-1.645 M428.875,152.539l-2.416-0.936 M426.458,151.604l-3.253-1.102 M423.206,150.502
	l-3.151-0.914 M420.054,149.588l-3.053-0.739 M407.286,147.495l1.121,0.065 M414.044,148.271l-2.864-0.426 M411.18,147.846
	l-2.773-0.285 M417.001,148.849l-2.957-0.577 M425.14,154.63l-2.957-0.83 M419.315,153.139l-2.776-0.502 M416.539,152.637
	l-2.687-0.351 M422.183,153.8l-2.868-0.661 M411.257,152.076l-2.504-0.075 M425.943,154.896l-0.803-0.266 M421.759,157.804
	l-2.511-0.408 M412.248,157.012l-2.146,0.134 M416.825,157.131l-2.335-0.125 M414.49,157.006l-2.242,0.006 M406.113,157.774
	l-1.834,0.487 M410.102,157.146l-2.047,0.256 M422.206,157.899l-0.446-0.096 M419.249,157.396l-2.424-0.265 M408.055,157.401
	l-1.942,0.373 M404.279,158.262l-1.721,0.599 M402.558,158.86l-1.601,0.707 M419.186,160.327l-1.384-0.091l-2.086-0.012
	 M399.484,160.381l-1.34,0.921 M396.947,162.327l-1.045,1.132 M411.833,160.573l-1.788,0.354 M410.045,160.927l-1.678,0.468
	 M408.368,161.395l-1.561,0.581 M415.716,160.225l-1.991,0.113l-1.892,0.235 M405.369,162.665l-1.308,0.797l-1.169,0.904
	 M402.892,164.366l-1.022,1.008 M401.191,166.249l0.679-0.875 M406.807,161.976l-1.438,0.689 M395.019,164.696l-0.708,1.345
	l-0.521,1.452 M398.144,161.302l-1.197,1.025 M400.958,159.567l-1.474,0.813 M408.753,152.001l-2.411,0.05 M406.342,152.051
	l-2.317,0.17 M403.905,152.236l0.12-0.016 M413.852,152.286l-2.595-0.21 M414.249,163.238l-1.606,0.37 M412.642,163.608
	l-1.495,0.482 M415.866,162.996l-1.617,0.242 M407.401,166.181l-0.977,0.905 M409.77,164.682l-1.252,0.697 M405.599,168.091
	l-0.664,1.105 M408.518,165.379l-1.117,0.802 M404.935,169.196l-0.493,1.203 M404.067,172.48l0.065-0.782 M404.442,170.399
	l-0.31,1.299 M411.147,164.091l-1.377,0.591 M406.424,167.086l-0.825,1.005 M401.191,166.249l-0.186,0.237l-0.696,1.216
	l-0.518,1.319l-0.325,1.421l-0.119,1.521l0.101,1.622 M399.448,173.586l0.335,1.72 M399.941,175.797l-0.158-0.491 M393.498,172.504
	l0.382,1.89 M395.826,179.104l-0.348-0.61 M393.879,174.394l0.653,1.998l0.945,2.103 M393.47,169.054l-0.104,1.671l0.131,1.779
	 M395.902,163.459l-0.883,1.237 M433.931,95.021l-2.788,2.03 M428.295,98.913l-2.882,1.687 M422.525,27.284l7.705-1.764
	 M430.23,25.52l13.589-1.959 M443.819,23.561l13.513-0.702 M459.281,22.966l-1.949-0.107 M432.305,26.431l13.124-1.686
	 M459.281,22.966l10.961,0.604l11.747,2.221 M445.429,24.745l12.958-0.449 M491.53,29.358l-9.541-3.568 M458.387,24.296
	l12.287,0.925l11.086,2.38 M490.292,31.094l-8.532-3.492"/>
<line fill="none" stroke="#000000" stroke-miterlimit="10" x1="476.455" y1="51.436" x2="476.149" y2="50.928"/>
<path fill="none" stroke="#000000" stroke-width="2" stroke-miterlimit="10" d="M458.653,87.957l-3.367,4.141 M451.668,96.019
	l-3.783,3.671 M447.885,99.689l-3.879,3.401"/>
<line fill="none" stroke="#000000" stroke-miterlimit="10" x1="447.901" y1="111.082" x2="443.406" y2="114.702"/>
<line fill="none" stroke="#000000" stroke-width="2" stroke-miterlimit="10" x1="466.194" y1="74.729" x2="464.221" y2="79.208"/>
<path fill="none" stroke="#000000" stroke-miterlimit="10" d="M476.455,51.436l1.95,3.238 M478.652,70.639l-2.134,5.727
	 M457.047,102.743l-4.581,4.354 M473.56,82.069l-3.595,5.567 M479.734,59.648l0.044,5.371"/>
<path fill="none" stroke="#000000" stroke-width="2" stroke-miterlimit="10" d="M491.53,29.358l0.501,0.187 M499.917,34.768
	l5.428,6.536 M506.885,45.411l-1.541-4.106 M492.031,29.545l7.886,5.223 M490.292,31.094l0.856,0.351 M498.433,36.674l4.92,6.459
	 M504.882,47.736l-1.529-4.604 M491.149,31.444l7.284,5.229"/>
<line fill="none" stroke="#000000" stroke-miterlimit="10" x1="465.915" y1="92.978" x2="461.565" y2="98.028"/>
<path fill="none" stroke="#000000" stroke-width="2" stroke-miterlimit="10" d="M400.914,7.984l18.242-2.217l18.847-1.196
	 M518.875,214.911l-0.83-6.891 M518.044,208.021l-3.128-7.494 M517.211,220.96l1.663-6.049 M503.053,230.827l3.498-1.049
	 M513.045,225.965l4.166-5.005 M514.917,200.526l-5.072-7.852 M507.229,189.5l2.615,3.175 M506.551,229.778l6.494-3.813
	 M500.962,251.524l63.963-6.405 M521.914,44.174l-1.16,11.486 M383.868,10.792l17.046-2.808 M507.229,189.5l-3.948-4.795
	 M503.281,184.705l-7.558-7.88 M495.723,176.825l-8.078-7.623 M487.645,169.202l-8.189-7.237 M471.446,155.178l0.024,0.021
	 M479.456,161.965l-7.985-6.767 M468.011,161.825l2.253,1.858 M476.564,169.183l-6.3-5.499 M478.446,170.945l4.304,4.033
	 M502.982,205.445l-0.01-0.677 M501.277,199.157l-3.134-5.938 M498.143,193.219l-4.323-6.104 M493.82,187.114l-5.229-6.123
	 M488.591,180.991l-5.842-6.013 M502.972,204.769l-1.695-5.611 M491.628,195.653l-2.66-4.933 M492.931,207.384l0.646-2.696
	 M488.968,190.721l-3.563-5.051 M485.405,185.67l-4.271-5.062 M480.154,179.588l0.979,1.021 M493.577,204.688l-0.367-4.339
	 M493.209,200.349l-1.581-4.695 M484.005,199.079l-0.715-3.615 M478.446,170.945l-1.882-1.763 M476.356,175.634l-5.099-4.807
	 M471.257,170.827l-5.256-4.575 M465.806,166.093l0.195,0.159 M480.154,179.588l-3.798-3.954 M463.5,170.557l1.35,1.146
	 M479.371,187.62l-2.987-4.062 M476.383,183.559l-3.501-4.051 M472.882,179.508l-3.885-3.971 M468.998,175.537l-4.147-3.835
	 M483.291,195.464l-1.577-3.848 M481.713,191.616l-2.343-3.996 M474.889,188.093l-2.32-3.451 M476.682,191.6l-0.046-0.136
	 M462.017,173.427l1.116,0.979 M472.569,184.642l-2.797-3.469 M469.772,181.173l-3.177-3.43 M466.595,177.743l-3.462-3.338
	 M476.636,191.464l-1.747-3.371 M464.208,179.142l-2.938-2.934 M460.799,175.784l0.471,0.424 M477.444,209.694l3.031-1.952
	 M480.475,207.742l2.132-2.454 M482.607,205.288l1.181-2.909l0.218-3.3 M476.682,191.6l1.046,3.088 M478.098,197.698l-0.37-3.011
	 M469.158,185.147l-2.296-3.012 M466.862,182.136l-2.654-2.994 M477.238,201.389l0.467-0.957 M477.705,200.432l0.394-2.733
	 M472.377,191.022l-1.358-2.896 M473.606,211.113l3.838-1.419 M470.026,207.131l1.926-0.68 M471.952,206.451l2.649-1.601
	 M474.601,204.851l1.933-2.019 M477.238,201.389l-0.704,1.443 M470.07,202.417l1.728-1.712 M472.897,198.669l0.455-2.323
	l-0.182-2.565 M473.17,193.78l-0.793-2.758 M471.797,200.705l1.1-2.036 M471.019,188.127l-1.861-2.979 M467.913,192.291l-0.58-2.273
	 M467.333,190.018l-1.039-2.393 M466.293,187.625l-1.456-2.471 M464.837,185.154l-1.825-2.507 M463.012,182.647l-2.141-2.504
	 M459.353,178.583l1.519,1.561 M458.328,180.568l1.05,1.17 M468.272,203.473l1.798-1.056 M467.588,196.319l0.415-1.915
	 M465.979,198.69l0.686-0.688 M468.003,194.404l-0.091-2.113 M466.665,198.002l0.924-1.683 M464.448,192.133l-0.268-1.904
	 M464.024,194.613l0.271-0.73 M464.294,193.883l0.153-1.75 M463.509,188.203l-1.048-2.113 M462.461,186.09l-1.391-2.166
	 M461.071,183.924l-1.693-2.186 M464.18,190.229l-0.671-2.025 M460.699,187.681l-0.89-1.855 M459.809,185.825l-1.19-1.904
	 M457.416,182.333l1.203,1.588 M465.979,198.69l-0.73,0.733 M461.063,201.406l2.304-0.843l1.882-1.14 M460.799,198.184l0.506-0.25
	 M461.305,197.934l1.406-1.127 M462.711,196.807l1.002-1.357 M464.024,194.613l-0.311,0.836 M458.725,196.248l1.218-1.003l0.872-1.2
	l0.513-1.379l0.147-1.538 M461.475,191.128l-0.214-1.67l-0.562-1.777 M457.185,197.04l1.54-0.792 M449.299,198.042l1.679,0.057
	 M453.271,197.967l2.084-0.353 M455.355,197.614l1.83-0.574 M450.978,198.099l2.293-0.132 M460.799,198.184l-1.275,0.631
	 M448.468,199.649l1.06,0.134l2.826,0.136l2.645-0.111l2.407-0.367l2.118-0.626 M447.485,201.553l1.34,0.231l3.378,0.338
	l3.213,0.059l2.976-0.236 M458.391,201.944l2.672-0.538 M464.908,204.765l2.847-0.988 M468.272,203.473l-0.518,0.304
	 M457.932,205.613l3.674-0.237l3.302-0.611 M446.047,204.336l3.794,0.692l4.139,0.462 M453.98,205.49l3.952,0.123 M470.026,207.131
	l-1.366,0.481 M460.532,208.595l4.285-0.27l3.843-0.713 M444.859,206.637l1.321,0.332 M446.18,206.969l4.919,0.915l4.82,0.554
	 M455.919,208.438l4.612,0.157 M443.389,209.481l3.62,0.915 M464.006,212.321l5.073-0.335 M452.824,211.483l5.714,0.657
	 M469.08,211.986l4.526-0.873 M501.711,213.562l1.336-3.669 M502.982,205.445l0.065,4.448 M488.745,213.136l1.672-1.275
	 M490.417,211.86l2.233-3.304 M492.931,207.384l-0.281,1.173 M516.75,67.493l-6.069,11.746 M499.392,95.856l-3.941,5.296
	 M487.549,110.914l-7.523,8.842l-6.915,7.918 M466.917,134.706l-5.449,6.207 M458.391,144.467l3.076-3.554 M473.111,127.674
	l-6.194,7.032 M495.451,101.152l-7.901,9.761 M458.27,144.369l5.638,4.584 M471.446,155.178l-7.538-6.225 M468.011,161.825
	l-3.982-3.286 M464.029,158.539l-6.041-4.757 M453.399,150.319l4.589,3.463 M456.74,146.374l-4.06,4.793 M453.399,150.319
	l-0.013-0.01 M458.391,144.467l-1.651,1.907 M450.229,154.148l2.451-2.981 M468.677,120.545l-1.155,1.204l-5.637,5.614
	 M456.658,132.369l-4.808,4.446 M450.485,138.038l1.365-1.223 M461.885,127.363l-5.228,5.006 M448.833,136.696l1.38-1.198
	 M451.361,134.464l-1.147,1.034 M458.27,144.369l-1.376-1.119 M450.455,138.065l0.03-0.027 M456.894,143.25l-6.41-5.161
	 M448.842,136.778l1.642,1.311 M450.455,138.065l-3.005,2.691 M444.173,143.604l3.276-2.848 M442.312,142.257l3.499-2.936
	 M448.789,136.735l0.045-0.039 M448.842,136.778l-0.181-0.145 M448.789,136.735l-2.978,2.586 M453.386,150.31l-1.163-0.878
	l-5.447-3.942 M444.122,143.649l2.654,1.84 M444.173,143.604l-0.74,0.644 M440.253,146.938l3.18-2.689 M444.122,143.649l-1.9-1.316
	 M442.312,142.257l-0.545,0.457 M438.303,145.528l3.464-2.814 M442.221,142.333l-0.349-0.241 M455.515,157.969l-5.062-3.659
	 M465.806,166.093l-5.085-4.138 M460.721,161.955l-5.206-3.986 M450.224,154.154l0.229,0.155 M450.229,154.148l-1.006,1.224
	 M450.224,154.154l-0.023-0.017 M451.825,161.43l-4.301-2.931 M447.005,158.171l0.519,0.328 M446.167,159.237l0.132-0.174
	 M449.223,155.372l-2.925,3.691 M439.878,147.371l1.031,0.619 M450.201,154.138l-4.624-3.153 M445.577,150.984l-4.667-2.994
	 M447.005,158.171l-3.687-2.336 M439.232,153.437l-3.957-2.137 M435.089,151.209l0.186,0.091 M443.319,155.835l-4.087-2.398
	 M431.944,153.729l1.449-1.161 M439.798,147.323l0.08,0.048 M440.253,146.938l-0.482,0.408 M439.771,147.346l-3.337,2.757
	 M438.303,145.528l-0.247,0.201 M437.663,146.041l0.394-0.312 M439.798,147.323l-2.538-1.524 M435.077,151.202l0.013,0.007
	 M436.434,150.103l-3.041,2.465 M435.077,151.202l-2.432-1.198 M437.663,146.041l-3.01,2.377 M432.627,149.995l0.018,0.009
	 M429.142,152.644l2.389-1.815 M432.617,149.99l2.036-1.572 M432.627,149.995l-0.364-0.18 M432.617,149.99l-1.086,0.838
	 M428.875,152.539l0.939,0.364 M463.5,170.557l-2.951-2.505 M460.549,168.052l-4.365-3.433 M456.184,164.619l-4.359-3.189
	 M445.269,160.423l0.897-1.186 M455.698,168.162l-3.833-2.845 M462.017,173.427l-2.542-2.227 M459.475,171.2l-3.777-3.038
	 M445.028,160.742l0.241-0.319 M442.356,159.183l1.871,1.092 M451.865,165.317l-3.837-2.633 M445.006,160.77l3.021,1.915
	 M445.028,160.742l-0.381,0.503 M445.006,160.77l-0.779-0.495 M460.799,175.784l-2.678-2.41 M431.86,153.796l0.084-0.067
	 M433.274,154.413l-3.46-1.51 M444.647,161.245l-0.806,1.063 M443.423,162.893l1.162,0.678 M451.015,167.829l-3-2.076
	 M448.015,165.753l-3.43-2.183 M442.222,164.569l1.619-2.261 M442.356,159.183l-1.867-1.09 M440.489,158.093l-3.654-1.952
	 M436.834,156.141l-3.561-1.728 M437.826,159.801l-3.291-1.584 M434.535,158.217l-3.215-1.386 M429.118,155.992l2.202,0.839
	 M443.423,162.893l-2.242-1.308 M441.181,161.585l-3.355-1.784 M426.612,158.003l1.491-1.203 M431.86,153.796l-1.237,0.99
	l-2.52,2.014 M429.118,155.992l-0.932-0.354 M426.095,154.946l2.091,0.691 M424.296,156.312l1.75-1.328 M429.142,152.644
	l-0.474,0.359 M428.668,153.003l-2.622,1.98 M426.095,154.946l-0.152-0.051 M432.586,160.998l-2.815-1.044 M458.122,173.374
	l-3.295-2.703 M454.827,170.671l-3.385-2.547 M451.015,167.829l0.427,0.295 M459.353,178.583l-0.882-0.906 M428.904,159.678
	l0.867,0.276 M458.471,177.677l-2.606-2.396 M455.865,175.28l-2.761-2.298 M442.152,164.669l0.07-0.1 M453.104,172.982l-2.87-2.179
	 M450.234,170.804l-2.938-2.039 M444.909,167.248l2.387,1.517 M458.328,180.568l-0.902-1.005l-2.169-2.133 M441.676,165.344
	l0.118-0.177 M441.67,165.341l2.653,1.536 M444.909,167.248l-0.585-0.371 M441.676,165.344l-0.041,0.062 M442.152,164.669
	l-0.357,0.498 M441.67,165.341l-0.324-0.188 M455.256,177.431l-2.341-2.067 M441.346,165.152l-2.96-1.557 M438.386,163.596
	l-2.925-1.385 M435.461,162.211l-2.875-1.213 M440.594,166.962l1.041-1.556 M447.875,171.518l-2.631-1.745l-2.664-1.61
	 M452.916,175.363l-2.473-1.977 M450.443,173.387l-2.568-1.869 M435.889,164.779l1.354,0.599 M440.541,167.043l0.054-0.081
	 M442.58,168.162l-2.674-1.467 M440.036,167.808l0.07-0.114 M440.541,167.043l-0.435,0.65 M439.906,166.695l-2.662-1.317
	 M449.327,174.594l-2.285-1.668 M425.785,158.671l0.029-0.024 M426.612,158.003l-0.798,0.644 M422.228,157.904l2.124,0.458
	 M425.775,158.679l0.01-0.008 M428.904,159.678l-1.879-0.601 M425.716,158.728l0.059-0.049 M427.025,159.077l-2.673-0.715
	 M423.452,160.607l0.292-0.251 M425.716,158.728l-1.973,1.629 M423.648,156.805l-2.187,1.693 M422.228,157.904l-0.022-0.005
	 M424.296,156.312l-0.648,0.493 M419.201,160.328l0.276-0.234 M419.186,160.327l0.791,0.053 M442.436,170.003l-0.142-0.086
	 M442.294,169.917l-2.415-1.32 M439.627,168.473l0.252,0.124 M438.764,169.878l1.271-2.07 M435.889,164.779l-1.281-0.566
	 M434.608,164.213l-2.594-1.012 M432.014,163.201l-2.543-0.858 M423.436,160.621l0.016-0.014 M429.471,162.343l-2.481-0.708
	 M423.25,160.781l0.187-0.16 M422.237,160.657l-2.26-0.277 M426.99,161.635l-2.414-0.561 M423.196,160.828l0.054-0.047
	 M424.576,161.074l-2.339-0.417 M423.196,160.828l-0.765,0.657 M435.065,166.357l-2.368-0.913 M439.627,168.473l-2.163-1.063
	 M422.431,161.485l-0.553,0.476 M425.881,163.533l-2.146-0.365l-2.071-0.235 M432.697,165.444l-2.327-0.775 M428.095,164.033
	l-2.214-0.5 M420.863,162.89l0.801,0.043 M437.464,167.409l-2.399-1.052 M430.37,164.669l-2.274-0.636 M420.212,163.484
	l-1.474,1.465l-1.285,1.425l-1.097,1.4 M415.5,169.088l0.857-1.313 M421.878,161.961l-1.666,1.523 M416.552,162.658l1.135-1.043
	 M420.863,162.89l-1.189-0.063 M416.336,162.857l0.216-0.199 M419.673,162.826l-1.903,0.018 M416.221,162.962l0.115-0.104
	 M416.091,162.972l1.679-0.128 M416.221,162.962l-0.134,0.124l-1.411,1.438 M419.201,160.328l-1.514,1.287 M416.091,162.972
	l-0.085,0.007 M411.5,168.952l0.071-0.159 M412.416,167.364l-0.845,1.429 M414.676,164.523l-1.225,1.421 M416.006,162.979
	l-0.046,0.004 M415.866,162.996l0.095-0.014 M413.452,165.944l-1.036,1.42 M426.495,169.461l-1.452-0.049 M457.416,182.333
	l-0.257-0.338 M457.159,181.995l-1.694-1.919 M455.464,180.076l-1.894-1.889 M453.571,178.188l-2.058-1.834 M450.485,175.526
	l1.028,0.827 M453.618,187.458l-0.301-1.149 M442.436,170.003l2.253,1.359 M447.042,172.926l-2.353-1.563 M450.485,175.526
	l-1.158-0.933 M452.806,185.104l-0.708-1.242 M452.098,183.862l-0.891-1.264 M450.875,192.391l0.978-0.53 M451.852,191.86
	l0.782-0.659 M451.208,182.599l-1.057-1.27 M453.208,190.421l0.357-0.893 M450.151,181.329l-1.203-1.259 M453.703,188.536
	l-0.085-1.078 M448.948,180.07l-1.333-1.234 M453.566,189.528l0.137-0.992 M453.317,186.309l-0.511-1.204 M452.634,191.201
	l0.574-0.78 M447.615,178.836l-1.44-1.194 M446.02,177.526l0.154,0.115 M450.32,192.581l0.555-0.19 M448.369,185.749l-0.221-0.772
	 M446.02,177.526l-1.376-1.028 M444.324,176.282l0.32,0.216 M448.148,184.977l-0.354-0.807 M450.32,192.581l-0.6,0.205
	 M443.358,192.943l0.407,0.065 M443.765,193.009l1.641,0.144 M445.406,193.152l1.557,0.014l1.446-0.121 M448.409,193.045
	l1.312-0.259 M447.038,197.851l1.483,0.165 M449.299,198.042l-0.778-0.026 M446.796,189.165l0.594-0.388 M447.39,188.777
	l0.468-0.469 M447.858,188.309l0.336-0.544 M448.194,187.765l0.198-0.613 M448.392,187.151l0.059-0.675 M448.451,186.477
	l-0.082-0.728 M443.984,186.782l0.357-0.229 M447.793,184.17l-0.483-0.832 M446.772,182.585l0.538,0.753 M444.621,186.269
	l0.198-0.339 M446.772,182.585l-0.066-0.093 M446.042,181.702l0.664,0.79 M444.819,185.93l0.112-0.388 M444.341,186.554l0.279-0.285
	 M443.669,175.84l0.654,0.442 M445.991,181.643l-0.816-0.844 M444.239,179.946l0.029,0.023 M445.174,180.799l-0.906-0.829
	 M446.042,181.702l-0.051-0.06 M444.955,185.11l-0.064-0.47 M438.343,170.635l0.387-0.701 M438.764,169.878l-0.034,0.056
	 M428.011,169.611l-1.517-0.15 M443.669,175.84l-0.627-0.423 M443.042,175.417l-1.654-1.009 M439.916,173.599l1.473,0.81
	 M444.239,179.946l-0.956-0.781 M443.283,179.165l-1.052-0.771 M442.056,178.278l0.175,0.115 M444.736,184.14l-0.241-0.527
	 M444.931,185.542l0.023-0.432 M443.557,186.949l0.427-0.167 M438.024,171.215l0.319-0.58 M429.584,169.863l-1.573-0.252
	 M437.782,171.652l0.242-0.438 M431.208,170.218l-1.623-0.354 M437.411,172.384l0.22-0.457 M437.782,171.652l-0.151,0.274
	 M439.916,173.599l-0.217-0.12l-1.711-0.843l-1.717-0.751 M437.411,172.384l-0.637,1.325 M436.575,174.205l0.199-0.496
	 M434.561,171.229l-1.691-0.557 M432.87,170.673l-1.662-0.455 M436.271,171.885l-1.71-0.655 M430.525,173.779l-1.07-0.075
	 M428.928,173.704h0.526 M436.243,175.031l0.332-0.826 M433.972,174.455l-1.18-0.299 M442.056,178.278l-0.932-0.615
	 M432.792,174.156l-1.152-0.226 M439.974,176.979l-1.181-0.63 M431.64,173.931l-1.115-0.151 M441.125,177.663l-1.15-0.685
	 M436.208,175.118l0.034-0.087 M438.793,176.349l-1.201-0.571 M436.178,175.194l0.03-0.076 M436.027,175.139l0.355,0.13
	 M437.592,175.777l-1.21-0.509 M436.178,175.194l-0.046,0.113 M436.132,175.308l-0.45,1.439 M435.613,177.074l0.069-0.327
	 M436.027,175.139l-0.854-0.312 M435.172,174.827l-1.2-0.372 M438.352,178.361l-0.837-0.394 M444.495,183.612l-0.325-0.547
	 M443.283,181.942l-0.551-0.562 M442.732,181.38l-0.614-0.557 M433.327,176.695l-0.787-0.101 M441.447,180.281l-0.72-0.522
	 M432.54,176.595l-0.755-0.046 M442.118,180.823l-0.671-0.542 M431.785,176.549l-0.717,0.009 M440.727,179.759l-0.761-0.497
	 M443.764,182.507l-0.481-0.564 M439.966,179.262l-0.794-0.468l-0.82-0.433 M444.169,183.065l-0.405-0.559 M444.89,184.641
	l-0.154-0.501 M435.578,177.239l0.035-0.165 M435.493,177.214l0.325,0.098 M437.515,177.968l-0.848-0.351 M436.667,177.617
	l-0.85-0.306 M435.578,177.239l-0.174,0.81 M436,182.967l0.42,0.727 M435.29,180.302l0.133,0.975 M435.422,181.276l0.242,0.886
	l0.336,0.805 M435.404,178.049l-0.125,1.181l0.011,1.072 M435.493,177.214l-0.52-0.158 M434.973,177.056l-0.833-0.206
	 M434.14,176.85l-0.813-0.154 M443.067,187.053l0.49-0.104 M441.932,187.061l0.59,0.029 M442.522,187.09l0.545-0.037
	 M440.659,186.797l0.648,0.166l0.625,0.098 M436.911,184.347l0.548,0.582l0.595,0.512l0.63,0.442l0.651,0.374l0.663,0.305
	 M439.998,186.562l0.661,0.235 M446.086,189.468l0.71-0.303 M444.364,189.813l0.907-0.129 M445.271,189.685l0.815-0.217
	 M440.859,189.612l0.371,0.068 M441.23,189.681l1.099,0.128l1.049,0.046 M443.377,189.854l0.986-0.041 M436.42,183.693l0.49,0.653
	 M431.068,176.558l-0.673,0.063l-0.622,0.118l-0.567,0.171 M429.979,184.38l0.751,0.65 M427.585,178.105l-0.22,0.416
	 M428.732,183.069l0.579,0.654 M427.205,180.012l0.122,0.565 M427.845,181.787l0.397,0.635 M440.859,189.612l-0.76-0.14
	 M427.226,178.98l-0.055,0.498 M428.256,177.409l-0.372,0.324 M430.73,185.03l0.832,0.639 M429.206,176.91l-0.508,0.224
	 M429.311,183.724l0.668,0.656 M436.66,188.427l1.14,0.413 M428.243,182.422l0.489,0.647 M437.799,188.84l1.151,0.351
	 M427.54,181.171l0.306,0.616 M434.467,187.439l1.078,0.518 M427.171,179.479l0.033,0.533 M433.438,186.881l1.029,0.559
	 M427.366,178.521l-0.14,0.459 M432.466,186.288l0.972,0.593 M427.884,177.733l-0.299,0.372 M431.562,185.669l0.904,0.619
	 M435.545,187.957l1.114,0.47 M438.951,189.19l1.148,0.282 M433.575,189.854l1.624,0.747 M430.565,188.188l1.46,0.858
	 M443.358,192.943l-1.29-0.204 M435.199,190.602l1.683,0.673 M432.025,189.046l1.55,0.809 M436.881,191.274l1.72,0.589
	 M438.601,191.863l1.737,0.491l1.729,0.385 M444.656,197.496l1.291,0.233 M427.327,180.577l0.213,0.594 M424.963,183.529
	l0.871,0.946 M425.834,184.476l1,0.948l1.127,0.941 M423.145,180.785l0.474,0.892 M423.619,181.677l0.606,0.917l0.738,0.936
	 M427.961,186.365l1.245,0.925 M447.038,197.851l-1.091-0.121 M428.698,177.134l-0.441,0.275 M428.435,173.705l-0.961,0.075
	 M427.474,173.78l-0.895,0.149l-0.822,0.223 M428.928,173.704l-0.493,0.001 M424.354,174.812l-0.568,0.433 M422.5,178.329
	l0.089,0.777l0.214,0.82 M425.757,174.152l-0.744,0.295 M422.681,176.923l-0.149,0.677 M422.532,177.6l-0.032,0.729
	 M423.786,175.244l-0.472,0.498l-0.37,0.561 M422.944,176.303l-0.263,0.62 M425.013,174.447l-0.659,0.364 M425.042,169.412
	l-1.379,0.051 M423.664,169.463l-1.298,0.148 M422.366,169.611l-1.212,0.245 M421.154,169.856l-1.116,0.339 M419.082,170.603
	l0.956-0.407 M422.802,179.927l0.343,0.858 M417.326,171.76l-0.667,0.694 M415.375,176.024l0.062,1.072l0.229,1.137
	 M416.659,172.454l-0.536,0.777 M418.116,171.149l-0.79,0.61 M416.123,173.231l-0.397,0.856 M419.022,170.628l-0.906,0.521
	 M415.725,174.088l-0.252,0.932 M419.082,170.603l-0.06,0.025 M415.473,175.02l-0.099,1.005 M415.5,169.088l-0.052,0.078
	l-0.72,1.394l-0.528,1.404 M413.93,173.119l0.27-1.155 M415.716,178.377l-0.05-0.144 M413.93,173.119l-0.062,0.268 M413.868,173.387
	l-0.132,1.445l0.073,1.474 M413.984,177.232l-0.175-0.927 M411.5,168.952l-0.578,1.29 M410.198,174.731l0.03-1.502 M410.921,170.242
	l-0.45,1.477l-0.243,1.511 M429.207,187.29l1.358,0.897 M428.217,191.382l2.255,1.238 M416.073,179.427l0.586,1.246
	 M444.656,197.496l-1.354-0.244 M419.556,184.642l1.354,1.369 M426.121,190.085l2.097,1.297 M422.458,187.383l1.739,1.363
	 M437.978,195.79l2.654,0.81 M424.198,188.746l1.923,1.339 M435.379,194.844l2.599,0.946 M420.91,186.011l1.549,1.372
	 M416.659,180.673l0.773,1.29 M418.397,183.289l1.159,1.353 M415.716,178.377l0.356,1.05 M430.472,192.62l2.396,1.16l2.512,1.063
	 M422.587,189.05l1.806,1.351l2.286,1.507l2.479,1.441 M430.839,194.207l-1.681-0.858 M417.432,181.963l0.965,1.326
	 M418.829,185.665l1.631,1.599 M422.587,189.05l-0.271-0.203 M420.459,187.264l1.857,1.583 M413.984,177.232l0.108,0.574
	 M415.31,180.893l0.944,1.578 M414.092,177.807l0.498,1.53 M416.254,182.471l1.172,1.593l1.402,1.602 M420.647,190.179l2.428,1.73
	 M414.59,179.337l0.72,1.556 M410.803,177.995l0.652,1.669 M410.197,174.777l0.189,1.588 M413.496,183.106l1.4,1.761l1.658,1.773
	l1.918,1.776l2.175,1.762 M411.456,179.664l0.896,1.706 M410.198,174.731l-0.001,0.046 M410.386,176.365l0.417,1.63
	 M424.116,192.564l-1.041-0.655 M412.351,181.37l1.145,1.736 M406.805,181.354l1.323,1.874 M404.016,173.092l0.092,1.484
	 M404.419,176.149l0.544,1.658 M408.128,183.229l1.606,1.929 M405.754,179.544l1.051,1.811 M409.735,185.157l1.899,1.971
	 M404.963,177.808l0.791,1.736 M411.634,187.128l2.2,1.997 M404.108,174.576l0.312,1.573 M404.067,172.48l-0.051,0.611
	 M399.941,175.797l0.429,1.324l0.854,1.906 M415.501,190.46l-1.667-1.335 M401.224,179.027l1.138,1.991l1.439,2.069l1.756,2.137
	 M405.557,185.225l2.085,2.191 M409.307,188.946l-1.665-1.53 M395.826,179.104l0.909,1.595 M401.939,187.146l-1.666-1.764
	 M396.735,180.699l1.592,2.299l1.946,2.385 M440.632,196.6l2.67,0.652 M437.534,197.07l2.997,0.965 M440.531,198.035l3.031,0.787
	l3.017,0.59 M431.813,194.704l2.803,1.249 M448.468,199.649l-1.89-0.237 M434.616,195.953l2.918,1.117 M447.485,201.553
	l-2.135-0.367 M430.839,194.207l0.974,0.497 M428.631,195.192l3.091,1.506 M424.116,192.564l1.626,1.023 M441.845,200.351
	l3.505,0.835 M425.742,193.588l2.89,1.604 M431.722,196.698l3.259,1.381 M415.501,190.46l0.837,0.67 M434.981,198.079l3.391,1.227
	 M438.372,199.306l3.474,1.045 M429.268,198.758l3.867,1.661 M446.047,204.336l-0.438-0.08 M433.135,200.419l4.05,1.495l4.18,1.291
	l4.244,1.051 M416.338,191.13l2.806,1.992 M419.144,193.122l3.102,1.954l3.382,1.889 M425.627,196.965l3.641,1.793 M409.307,188.946
	l0.763,0.701 M431.807,202.491l4.645,1.735l4.816,1.508 M412.846,191.898l3.13,2.248 M423.268,198.519l4.129,2.056 M415.976,194.146
	l3.478,2.217 M427.397,200.574l4.41,1.917 M419.454,196.363l3.814,2.155 M410.07,189.647l2.776,2.251 M408.433,192.907l3.539,2.562
	 M401.939,187.146l0.656,0.694 M411.972,195.47l3.956,2.542 M444.859,206.637l-3.591-0.902 M443.389,209.481l-2.166-0.547
	 M420.295,200.496l4.757,2.386l5.111,2.237l5.414,2.036l5.646,1.779 M405.31,190.356l3.123,2.551 M415.928,198.012l4.367,2.484
	 M421.461,158.498l-1.984,1.596 M510.681,79.238l-7.336,11.304 M499.392,95.856l3.953-5.313 M468.677,120.545l4.849-5.053
	 M479.801,108.578l-6.275,6.915 M451.361,134.464l3.634-3.273 M520.753,55.66l-4.003,11.833 M506.885,45.411l1.318,3.511
	 M508.204,48.921l0.387,8.409 M508.393,58.303l0.197-0.973 M504.882,47.736l0.949,2.856 M508.393,58.303l-1.612,7.915
	 M506.781,66.218l-3.603,9.06 M501.719,77.927l1.459-2.649 M505.832,50.592l0.146,8.184l-1.915,8.611 M501.719,77.927l-3.474,6.308
	 M498.246,84.235l-5.799,8.635 M492.447,92.87l-6.258,8.149 M486.189,101.019l-6.388,7.559 M495.64,84.774l-5.646,8.317
	 M489.995,93.092l-6.081,7.848 M460.163,126.348l-5.168,4.843 M471.583,114.888l-5.876,6.037 M465.707,120.925l-5.544,5.423
	 M477.702,108.222l-6.119,6.666 M504.062,67.387l-3.59,8.751l-4.832,8.637 M483.914,100.94l-6.212,7.282"/>
<path fill="none" stroke="#FF0000" stroke-width="2" stroke-miterlimit="10" d="M2.226,14.709l0.332,1.428 M1.671,14.653
	l0.263-0.354 M2.558,16.138l0.378,2.622 M0.659,17.061l0.276-0.004 M0.936,17.056l0.25-0.665 M1.186,16.392l0.24-0.925
	 M1.934,14.299l0.292,0.411 M1.426,15.466l0.245-0.813 M3.363,22.657l0.476,5.151 M4.192,32.101l-0.354-4.292 M2.936,18.759
	l0.427,3.898"/>
<path fill="none" stroke="#000000" stroke-width="2" stroke-miterlimit="10" d="M456.731,4.78l17.773,1.926 M474.504,6.706
	l15.927,3.847 M490.431,10.553l13.23,5.836 M503.662,16.389l9.857,7.734 M513.519,24.123l6.095,9.387 M519.614,33.51l2.3,10.664
	 M307.895,3.115l0.016-3.11 M438.002,4.57l18.729,0.21 M307.844,12.831l0.051-9.715"/>
<g>
	<g>
		<line fill="none" stroke="#000000" stroke-width="2" stroke-miterlimit="10" x1="103.782" y1="205.39" x2="185.125" y2="205.39"/>
		<g>
			<path d="M194.782,205.39c-4.544,1.686-10.181,4.562-13.676,7.609l2.752-7.609l-2.752-7.607
				C184.601,200.829,190.238,203.705,194.782,205.39z"/>
		</g>
	</g>
</g>
</svg>
