<?xml version="1.0" encoding="utf-8"?>
<!-- Generator: Adobe Illustrator 15.0.0, SVG Export Plug-In . SVG Version: 6.00 Build 0)  -->
<!DOCTYPE svg PUBLIC "-//W3C//DTD SVG 1.1//EN" "http://www.w3.org/Graphics/SVG/1.1/DTD/svg11.dtd">
<svg version="1.1" id="Layer_1" xmlns="http://www.w3.org/2000/svg" xmlns:xlink="http://www.w3.org/1999/xlink" x="0px" y="0px"
	 width="391.587px" height="190.066px" viewBox="0 0 391.587 190.066" enable-background="new 0 0 391.587 190.066"
	 xml:space="preserve">
<line fill="none" stroke="#FF0000" stroke-miterlimit="10" x1="170.312" y1="55.139" x2="171.5" y2="55.203"/>
<line fill="none" stroke="#FF0000" stroke-miterlimit="10" x1="171.89" y1="55.54" x2="188.567" y2="56.472"/>
<g>
	<g>
		<polyline fill="none" stroke="#737373" stroke-miterlimit="10" points="151.173,61.641 151.928,60.264 152.09,59.866 		"/>
		<polyline fill="none" stroke="#737373" stroke-miterlimit="10" stroke-dasharray="3.9734,3.9734" points="153.126,56.049 
			153.2,55.525 153.221,53.74 152.996,51.854 152.498,49.871 151.696,47.797 150.558,45.645 149.052,43.424 147.147,41.155 
			144.814,38.857 142.031,36.559 138.782,34.29 135.059,32.084 130.871,29.986 129.506,29.412 129.417,29.374 125.642,27.829 
			121.204,26.285 115.833,24.781 112.597,24.088 110.209,23.576 104.442,22.719 98.662,22.257 94.464,22.237 93.014,22.23 
			90.032,22.475 87.654,22.67 82.74,23.599 78.417,25.019 74.81,26.921 72.94,28.496 72.013,29.276 70.079,32.037 69.017,35.14 
			68.792,38.509 69.337,42.063 70.555,45.717 72.33,49.39 74.549,53.009 77.097,56.514 79.874,59.856 82.793,63.002 85.785,65.929 
			85.827,65.967 		"/>
		<line fill="none" stroke="#737373" stroke-miterlimit="10" x1="87.307" y1="67.292" x2="88.797" y2="68.626"/>
	</g>
</g>
<line fill="none" stroke="#010101" stroke-width="1.5" stroke-miterlimit="10" x1="40.077" y1="19.451" x2="38.181" y2="25.895"/>
<line fill="none" stroke="#010101" stroke-miterlimit="10" x1="43.269" y1="164.035" x2="21.726" y2="159.661"/>
<line fill="none" stroke="#010101" stroke-miterlimit="10" x1="43.269" y1="164.035" x2="0.1" y2="155.271"/>
<path fill="none" stroke="#010101" stroke-width="1.5" stroke-miterlimit="10" d="M35.499,152.885l-2.107-3.15 M42.061,131.237
	l-0.439,0.44 M33.392,149.735l-0.319-3.833 M39.338,155.248l-3.839-2.363 M33.073,145.902l1.399-4.383 M42.983,156.265l-3.645-1.017
	 M34.472,141.519l2.939-4.789 M37.411,136.73l4.21-5.053"/>
<path fill="none" stroke="#010101" stroke-width="1.5" stroke-miterlimit="10" d="M46.436,126.843l-4.375,4.394 M38.181,25.895
	l0.261,7.077"/>
<path fill="none" stroke="#010101" stroke-width="1.5" stroke-miterlimit="10" d="M56.263,122.786l4.457-4.075 M43.564,141.542
	l0.636-3.188 M44.201,138.354l1.76-3.612l2.722-3.86 M48.683,130.882l3.501-4.013l4.08-4.083"/>
<path fill="none" stroke="#010101" stroke-width="1.5" stroke-miterlimit="10" d="M54.687,128.56l2.879-3.361 M61.467,118.067
	l-0.748,0.644"/>
<path fill="none" stroke="#010101" stroke-miterlimit="10" d="M44.629,164.312l-1.361-0.276 M44.629,164.312l-1.361-0.276"/>
<path fill="none" stroke="#010101" stroke-width="1.5" stroke-miterlimit="10" d="M85.101,122.803l-0.353,0.022 M81.282,123.526
	l-0.047-0.22 M81.245,123.048l-0.009,0.258 M77.934,123.259l-0.218,0.561 M77.632,124.216l0.083-0.396 M73.567,123.537l-0.54,0.89
	 M72.701,125.148l0.327-0.722 M71.965,123.639l-0.594,0.947 M85.488,122.73l-0.387,0.073 M81.451,123.949l-0.131-0.246
	 M81.282,123.526l0.038,0.178 M77.632,124.216l-0.066,0.32 M77.573,125.12l-0.007-0.584 M72.191,126.746l0.001-0.023l0.297-1.104
	 M72.701,125.148l-0.212,0.47 M85.9,122.605l-0.412,0.125 M81.451,123.949l0.053,0.099 M81.755,124.306l-0.25-0.257 M77.573,125.12
	v0.064 M77.841,125.911l-0.102-0.154l-0.167-0.573 M72.191,126.746l-0.041,0.979 M87.211,121.918L86.77,122.2l-0.439,0.229
	 M86.33,122.429l-0.43,0.176 M83.157,124.837l-0.54-0.105 M82.618,124.732l-0.459-0.167 M81.755,124.306l0.03,0.031 M82.158,124.565
	l-0.373-0.229 M83.423,124.855l-0.266-0.018 M79.911,127.159l-0.753-0.208 M77.841,125.911l0.221,0.335 M78.538,126.646
	l-0.476-0.399 M80.376,127.218l-0.466-0.059 M79.157,126.951l-0.62-0.305 M75.856,130.724l-0.106-0.011l-1.194-0.299l-0.974-0.454
	 M73.582,129.96l-0.733-0.605 M72.369,128.606l-0.219-0.882 M71.371,124.585l-0.23,0.369 M70.669,125.952l0.471-0.998
	 M70.912,122.735l-0.311,0.37 M69.675,124.397l0.926-1.292 M70.387,120.624l-0.74,0.754 M68.546,122.635l1.102-1.257
	 M72.849,129.354l-0.479-0.749 M71.321,130.904l-0.45-0.36 M70.871,130.544l-0.548-0.844l-0.242-0.999l0.061-1.136l0.359-1.256
	 M70.669,125.952l-0.168,0.357 M67.881,130.934l-0.184-0.427 M67.697,130.507l-0.093-1.23l0.265-1.38l0.606-1.507l0.921-1.606
	 M69.675,124.397l-0.278,0.387 M64.319,129.224l0.802-1.821 M66.309,125.465l1.526-2.019 M63.945,130.968l-0.003-0.073
	 M68.546,122.635l-0.711,0.811 M63.941,130.895l0.378-1.671 M65.121,127.403l1.188-1.938 M61.051,130.993l0.245-0.866l1.054-2.126
	l1.498-2.251 M63.848,125.75l1.879-2.335 M66.634,122.43l-0.907,0.985 M57.672,131.022l1.443-2.526 M59.652,127.767l-0.536,0.729
	 M78.697,130.841l-1.557,0.013 M74.223,132.042l-1.382-0.319 M71.321,130.904l0.395,0.317 M72.841,131.723l-1.125-0.501
	 M75.83,132.18l-1.606-0.138 M67.881,130.934l0.274,0.632 M80.788,131.698l-1.213,0.223 M79.575,131.921l-1.948,0.216l-1.797,0.042
	 M79.642,133.337l-2.041,0.321l-2.206,0.175 M75.396,133.834l-2.01-0.03l-1.767-0.243l-1.483-0.457 M77.908,135.815l-1.702,0.279
	 M70.136,133.104l-1.163-0.667 M68.973,132.437l-0.817-0.87 M70.992,136.322l-2.19-0.273 M63.945,130.968l0.069,1.417
	 M65.539,134.714l-0.992-1.048l-0.534-1.281 M68.802,136.049l-1.834-0.537 M66.968,135.512l-1.429-0.798 M62.071,136.28
	l-0.815-0.928l-0.535-1.512l0.02-1.753 M61.051,130.993l-0.311,1.094 M57.672,131.022l-0.004,0.007 M56.799,136.256l-0.197-0.758
	l0.208-2.118l0.857-2.351 M51.134,134.278l-0.292,0.572 M50.482,136.226l0.36-1.376 M76.206,136.095l-2.725,0.239 M83.301,136.38
	l0.161-0.046 M73.481,136.334l-2.489-0.012 M66.082,138.179l-2.114-0.639 M62.071,136.28l0.275,0.313 M63.968,137.54l-1.622-0.947
	 M83.301,136.38l-1.716,0.499l-3.492,0.806 M78.093,137.685l-3.379,0.555 M71.53,138.52l-2.904-0.016 M68.626,138.504l-2.544-0.325
	 M58.243,138.853l-1.165-1.518 M74.714,138.24l-3.184,0.28 M78.509,139.902l-1.773,0.405 M68.944,141.272l-3.436-0.042
	 M62.521,140.815l-2.447-0.795l-1.831-1.167 M56.799,136.256l0.279,1.08 M65.509,141.231l-2.988-0.416 M51.402,142.157l-1.113-2.063
	 M76.736,140.307l-4.013,0.648l-3.778,0.317 M64.268,145.717l-4.283-0.153l-3.654-0.646 M50.482,136.226l-0.369,1.412
	 M50.29,140.094l-0.177-2.456 M71.365,145.049l-2.337,0.348 M53.436,143.777l-2.034-1.62 M69.027,145.397l-4.76,0.32
	 M56.331,144.918l-2.895-1.141 M48.82,148.521l-2.953-1.742l-1.771-2.32l-0.547-2.835 M64.653,149.885l-1.239,0.139l-5.639,0.118
	l-4.931-0.496 M52.844,149.646l-4.024-1.125 M54.36,157.301l-2.923,0.084 M51.437,157.385l-6.697-0.63 M43.564,141.542l-0.016,0.082
	 M42.983,156.265l1.756,0.49"/>
<line fill="none" stroke="#010101" stroke-width="1.5" stroke-miterlimit="10" x1="71.691" y1="119.292" x2="73.913" y2="117.22"/>
<line fill="none" stroke="#010101" stroke-width="1.5" stroke-miterlimit="10" x1="76.261" y1="115.187" x2="78.69" y2="113.215"/>
<path fill="none" stroke="#010101" stroke-width="1.5" stroke-miterlimit="10" d="M70.912,122.735l1.14-1.356 M70.387,120.624
	l1.304-1.332 M73.913,117.22l2.348-2.033"/>
<path fill="none" stroke="#010101" stroke-width="1.5" stroke-miterlimit="10" d="M71.965,123.639l0.072-0.116 M75.618,117.807
	l-0.089,0.079 M72.051,121.379l1.656-1.748l1.822-1.745"/>
<path fill="none" stroke="#010101" stroke-width="1.5" stroke-miterlimit="10" d="M72.037,123.522l1.128-1.486 M75.618,117.807
	l1.86-1.641 M77.478,116.167l2.041-1.674"/>
<path fill="none" stroke="#010101" stroke-width="1.5" stroke-miterlimit="10" d="M73.165,122.037l1.329-1.519l1.499-1.53
	l1.636-1.522l1.743-1.495 M79.371,115.971l1.821-1.451"/>
<path fill="none" stroke="#010101" stroke-width="1.5" stroke-miterlimit="10" d="M83.75,111.346l2.141-1.445 M86.506,109.513
	l-0.615,0.388 M79.519,114.492l2.099-1.612 M81.618,112.88l2.132-1.535 M82.918,113.238l-1.726,1.282"/>
<path fill="none" stroke="#010101" stroke-width="1.5" stroke-miterlimit="10" d="M89.639,117.333l-0.004,0.268 M84.749,122.826
	l-0.312-0.027 M85.085,119.531l0.42-0.403 M83.955,122.602l-0.159-0.165 M83.796,122.437l-0.101-0.207 M84.712,119.93l0.373-0.399
	 M84.123,120.699l0.267-0.378 M86.466,118.328l0.53-0.387 M83.766,121.396l0.149-0.337 M85.505,119.128l0.461-0.402 M83.679,121.707
	l0.086-0.311 M85.967,118.726l0.5-0.397 M83.657,121.986l0.022-0.279 M84.39,120.321l0.322-0.391 M83.915,121.059l0.208-0.359
	 M86.236,117.061l-0.125,0.085 M83.309,119.519l0.62-0.606l0.68-0.602l0.73-0.59l0.772-0.574 M83.695,122.23l-0.039-0.245
	 M81.826,121.401l0.059-0.106l0.395-0.578 M82.279,120.717l0.477-0.595l0.552-0.604 M84.17,122.723l-0.215-0.121 M81.826,121.401
	l-0.248,0.448 M81.526,121.978l0.052-0.129 M84.437,122.798l-0.267-0.075 M81.245,123.048l0.006-0.188 M81.25,122.861l0.116-0.488
	 M81.526,121.978l-0.16,0.396 M79.105,121.295l-0.058,0.072 M77.934,123.259l0.083-0.213l0.447-0.821 M78.464,122.225l0.583-0.858
	 M73.567,123.537l0.225-0.37l0.968-1.31 M74.761,121.857l1.148-1.34 M75.909,120.517l1.303-1.353 M91.037,104.806l-0.115,0.064
	 M86.223,107.778l-0.042-0.074 M83.643,109.536l2.465-1.678 M88.539,106.3l2.383-1.429 M86.226,107.782l-0.002-0.003
	 M86.108,107.857l2.431-1.558 M86.226,107.782l0.723,1.271"/>
<path fill="none" stroke="#010101" stroke-width="1.5" stroke-miterlimit="10" d="M88.128,117.212l0.592-0.334 M89.639,117.333
	l0.009-0.579"/>
<path fill="none" stroke="#010101" stroke-width="1.5" stroke-miterlimit="10" d="M89.634,117.6l-0.103,0.766 M89.618,116.43
	l0.03,0.324"/>
<path fill="none" stroke="#010101" stroke-width="1.5" stroke-miterlimit="10" d="M89.531,118.366l-0.181,0.692 M89.351,119.059
	l-0.249,0.625"/>
<path fill="none" stroke="#010101" stroke-width="1.5" stroke-miterlimit="10" d="M89.102,119.684l-0.304,0.562 M89.618,116.43
	l-0.005-0.058 M89.32,116.569l0.604-0.282 M89.924,116.287l0.603-0.252 M88.72,116.878l0.6-0.309"/>
<path fill="none" stroke="#010101" stroke-width="1.5" stroke-miterlimit="10" d="M87.553,117.568l0.576-0.355 M91.123,115.817
	l0.584-0.185"/>
<path fill="none" stroke="#010101" stroke-width="1.5" stroke-miterlimit="10" d="M86.997,117.941l0.556-0.374 M92.094,115.531
	l-0.387,0.101 M89.613,116.372l-0.017-0.175 M90.527,116.035l0.596-0.218"/>
<line fill="none" stroke="#010101" stroke-width="1.5" stroke-miterlimit="10" x1="86.236" y1="117.061" x2="86.917" y2="116.596"/>
<path fill="none" stroke="#010101" stroke-width="1.5" stroke-miterlimit="10" d="M80.571,119.587l0.916-0.9l0.998-0.893
	 M79.105,121.295l0.649-0.811 M79.754,120.484l0.817-0.897 M86.917,116.596l0.832-0.523 M91.174,114.356l0.844-0.318
	 M92.019,114.038l0.827-0.269 M93.438,113.609l-0.593,0.16 M89.43,115.146l-0.022-0.113 M89.457,115.133l0.861-0.411
	 M90.318,114.722l0.856-0.366 M87.749,116.073l0.85-0.489 M88.598,115.584l0.858-0.452 M89.43,115.146l0.131,0.67 M89.596,116.196
	l-0.035-0.38"/>
<line fill="none" stroke="#010101" stroke-width="1.5" stroke-miterlimit="10" x1="82.485" y1="117.794" x2="83.553" y2="116.92"/>
<line fill="none" stroke="#010101" stroke-width="1.5" stroke-miterlimit="10" x1="83.553" y1="116.92" x2="84.676" y2="116.072"/>
<path fill="none" stroke="#010101" stroke-width="1.5" stroke-miterlimit="10" d="M77.211,119.164l1.431-1.348 M80.636,116.121
	l-0.46,0.368 M78.643,117.815l1.534-1.327 M84.676,116.072l1.166-0.813 M88.929,113.364l-0.076-0.206 M87.038,114.488l1.213-0.721
	 M91.901,111.952l1.19-0.476 M93.091,111.477l1.165-0.405 M95.459,110.719l-0.071,0.017 M94.256,111.071l1.133-0.335
	 M85.842,115.259l1.196-0.771 M90.692,112.495l1.209-0.543 M88.939,113.392l-0.01-0.028 M88.251,113.767l1.221-0.666
	 M89.472,113.101l1.22-0.606 M89.408,115.032l-0.05-0.255 M88.939,113.392l0.086,0.23l0.333,1.155"/>
<path fill="none" stroke="#010101" stroke-width="1.5" stroke-miterlimit="10" d="M92.216,121.928l-0.713,0.447 M91.503,122.375
	l-0.751,0.428 M86.72,124.444l-0.793,0.194 M90.751,122.804l-0.781,0.401l-0.804,0.37 M89.167,123.575l-0.816,0.333 M88.351,123.908
	l-0.819,0.292 M96.227,121.106L95.38,121.8 M95.309,121.853l0.071-0.053 M87.532,124.199l-0.812,0.245 M95.309,121.853l-0.857,0.633
	 M94.452,122.486l-1.005,0.672 M93.186,123.316l0.261-0.158 M85.695,124.68l0.231-0.042 M90.062,125.009l-1.214,0.533
	 M88.848,125.542l-1.232,0.476l-1.236,0.412 M93.186,123.316l-0.813,0.493 M92.373,123.809l-1.132,0.62l-1.179,0.58 M84.07,127.005
	l1.087-0.237 M86.379,126.429l-1.222,0.339 M98.578,125.443l-1.977,1.273 M99.833,122.696l-0.623,0.533 M98.16,123.161l-0.21,0.163
	l-1.435,0.998 M96.515,124.321l-1.554,0.977 M87.845,128.718l-1.902,0.663 M93.3,126.24l-1.753,0.894 M85.943,129.38l-1.897,0.556
	 M84.046,129.936l-1.862,0.437 M91.547,127.133l-1.826,0.831 M81.652,130.463l0.532-0.09 M89.722,127.964l-1.876,0.754
	 M86.313,130.201l-0.397,0.146l-2.156,0.666 M83.759,131.013l-2.127,0.53 M94.961,125.298L93.3,126.24 M99.21,123.229l-1.544,1.171
	 M97.667,124.4l-1.69,1.143l-1.824,1.103 M92.21,127.693l-2.037,0.977 M86.313,130.201l1.751-0.641 M90.173,128.67l-2.109,0.891
	 M94.152,126.646l-1.941,1.047 M96.602,126.716l-2.13,1.228 M90.412,129.926l1.795-0.818 M94.471,127.943l-2.264,1.164
	 M80.788,131.698l0.844-0.156 M89.833,130.189l-2.451,0.979 M87.383,131.169l-2.493,0.856l-2.492,0.713l-2.445,0.55 M90.412,129.926
	l-0.579,0.264 M79.642,133.337l0.311-0.049 M88.003,133.062l-2.869,0.991 M77.908,135.815l1.192-0.195 M85.134,134.053l-3.037,0.879
	l-2.997,0.688 M88.797,120.245l-0.351,0.503 M85.695,124.68l-0.532,0.097l-0.724,0.081 M84.145,124.868l0.295-0.009 M82.832,127.201
	l-1.067,0.082 M81.576,127.279l0.188,0.003 M84.07,127.005l-0.101,0.022 M83.969,127.027l-1.138,0.173 M81.652,130.463l-1.262,0.214
	 M80.39,130.677l-1.693,0.164 M88.446,120.748l-0.388,0.445l-0.416,0.39 M83.423,124.855l0.346,0.023 M84.145,124.868l-0.376,0.011
	 M80.376,127.218l0.409,0.052 M81.576,127.279l-0.791-0.01 M75.856,130.724l1.284,0.13 M87.643,121.583l-0.432,0.335
	 M91.037,104.806l0.713-0.398 M90.126,107.317l2.071-1.126 M92.197,106.19l2.025-1.011 M95.356,104.667l-1.134,0.513
	 M87.024,109.185l0.997-0.629l2.105-1.239 M86.949,109.052l0.126,0.223 M87.535,110.173l-0.46-0.898 M87.024,109.185l-0.519,0.328
	 M84.969,111.806l1.915-1.241l1.91-1.151 M90.685,108.358l1.863-0.955 M92.548,107.404l1.826-0.851 M82.918,113.238l0.148-0.11
	 M94.375,106.553l1.783-0.746 M88.793,109.414l1.892-1.056 M96.158,105.807l1.735-0.639 M98.715,104.907l-0.822,0.261
	 M87.949,110.995l-0.045-0.102 M87.535,110.173l0.369,0.72 M83.066,113.128l1.903-1.322 M88.612,110.628l1.718-0.949
	 M93.696,108.055l1.633-0.67 M95.329,107.384l1.591-0.574 M83.458,113.955l1.704-1.182 M96.92,106.811l1.545-0.477 M81.789,115.198
	l1.668-1.243 M98.539,106.316l-0.074,0.018 M85.162,112.773l1.724-1.111 M90.33,109.68l1.698-0.859 M92.027,108.821l1.669-0.766
	 M87.96,111.019l-0.011-0.024 M86.886,111.662l1.726-1.034 M88.853,113.158l-0.306-0.824 M87.96,111.019l0.586,1.315
	 M80.636,116.121l1.153-0.923"/>
<path fill="none" stroke="#010101" stroke-width="1.5" stroke-miterlimit="10" d="M96.157,117.802l-0.186,0.414 M95.971,118.216
	l-0.252,0.434"/>
<path fill="none" stroke="#010101" stroke-width="1.5" stroke-miterlimit="10" d="M96.278,117.411l-0.121,0.391 M95.402,119.101
	l-0.382,0.464 M96.334,117.047l-0.057,0.364 M95.719,118.65l-0.317,0.451 M96.329,116.711l0.006,0.335 M95.021,119.564l-0.444,0.473
	 M96.135,116.135l0.126,0.272 M94.069,120.515l-0.564,0.477 M92.885,121.465l-0.669,0.463 M95.953,115.898l0.183,0.237
	 M95.094,115.408l0.335,0.125 M93.505,120.992l-0.62,0.473 M95.429,115.533l0.288,0.164 M94.576,120.037l-0.507,0.478
	 M94.715,115.322l0.379,0.086 M96.261,116.407l0.067,0.305 M92.094,115.531l0.181-0.047"/>
<line fill="none" stroke="#010101" stroke-width="1.5" stroke-miterlimit="10" x1="98.704" y1="118.4" x2="98.225" y2="119.054"/>
<path fill="none" stroke="#010101" stroke-width="1.5" stroke-miterlimit="10" d="M98.771,118.292l-0.066,0.107 M98.225,119.054
	l-0.573,0.673"/>
<path fill="none" stroke="#010101" stroke-width="1.5" stroke-miterlimit="10" d="M99.381,117.166l-0.291,0.603 M99.696,115.873
	l-0.007,0.188 M99.688,116.06l-0.108,0.535 M98.771,118.292l0.319-0.523 M95.717,115.697l0.236,0.201 M97.652,119.728l-0.667,0.686
	 M96.985,120.413l-0.758,0.693"/>
<line fill="none" stroke="#010101" stroke-width="1.5" stroke-miterlimit="10" x1="99.58" y1="116.595" x2="99.381" y2="117.166"/>
<path fill="none" stroke="#010101" stroke-width="1.5" stroke-miterlimit="10" d="M103.111,118.375l-0.755,0.953 M102.356,119.328
	l-0.894,0.98"/>
<path fill="none" stroke="#010101" stroke-width="1.5" stroke-miterlimit="10" d="M103.728,117.454l-0.617,0.921 M101.462,120.308
	l-1.035,0.998"/>
<path fill="none" stroke="#010101" stroke-width="1.5" stroke-miterlimit="10" d="M103.252,119.166l-0.373,0.494 M104.646,115.43
	l-0.085,0.302l-0.351,0.839l-0.482,0.882 M99.68,115.356l0.029,0.208 M99.696,115.873l0.014-0.309 M94.294,115.276l0.421,0.046
	 M99.833,122.696l0.764-0.653 M101.955,120.7l-0.134,0.151 M101.821,120.851l-1.225,1.192 M100.427,121.306l-1.171,1.008
	 M98.16,123.161l1.096-0.846"/>
<path fill="none" stroke="#010101" stroke-width="1.5" stroke-miterlimit="10" d="M101.955,120.7l0.924-1.04 M104.491,117.309
	l-0.723,1.169 M103.252,119.166l0.517-0.688"/>
<path fill="none" stroke="#010101" stroke-width="1.5" stroke-miterlimit="10" d="M105.322,119.443l-0.607,0.741 M105.293,115.44
	l-0.247,0.716l-0.555,1.152"/>
<path fill="none" stroke="#010101" stroke-width="1.5" stroke-miterlimit="10" d="M106.659,117.603l-0.879,1.281 M104.714,120.185
	l-1.256,1.316 M107.352,116.347l-0.693,1.256 M105.322,119.443l0.458-0.56"/>
<path fill="none" stroke="#010101" stroke-width="1.5" stroke-miterlimit="10" d="M66.634,122.43l1.284-1.395 M68.51,120.456
	l-0.592,0.58 M61.106,125.797l-0.03,0.036 M59.652,127.767l1.424-1.935 M51.134,134.278l1.042-2.037 M78.69,113.215l2.471-1.889
	 M108.427,95.406l-0.458,0.108 M103.772,96.816l2.131-0.714 M105.903,96.103l2.066-0.588 M98.694,98.938l0.602-0.29 M99.296,98.648
	l2.275-0.985 M101.571,97.663l2.201-0.847 M99.364,99.514l-0.835-0.719 M98.694,98.938l-1.085,0.521 M107.713,98.148l1.812-0.296
	 M109.525,97.853l1.749-0.191 M111.273,97.661l1.686-0.092 M112.959,97.569l1.624,0.002 M114.583,97.572l1.558,0.093
	 M116.141,97.665l1.493,0.179 M117.634,97.844l1.423,0.263 M120.407,98.45l1.274,0.421 M121.681,98.872l1.193,0.499 M123.981,99.945
	l1.016,0.651 M125.691,101.146l-0.693-0.551 M106.016,98.517l1.697-0.369 M115.135,101.996l1.108,0.423 M104.383,98.947l1.458-0.393
	 M106.016,98.517l-0.175,0.038 M113.942,101.657l1.193,0.338 M116.244,102.418l1.018,0.506 M117.262,102.924l0.922,0.588
	 M99.364,99.514l0.515,0.443 M100.271,100.304l-0.392-0.346 M98.05,101.238l-1.282-1.173 M97.708,101.382l2.131-0.896
	 M118.184,103.512l0.819,0.669 M119.003,104.181l0.708,0.75 M104.383,98.947l-0.478,0.129 M119.711,104.932l0.589,0.832
	 M101.905,99.718l2-0.642 M100.289,100.319l-0.017-0.015 M99.84,100.485l2.065-0.767 M101.86,101.724l-0.449-0.414 M100.289,100.319
	l1.123,0.992 M99.633,102.732l-0.084-0.083 M91.75,104.408l1.497-0.835 M93.248,103.573l2.263-1.163 M95.511,102.411l2.198-1.029
	 M98.05,101.238l0.045,0.042 M98.096,101.279l1.453,1.369 M95.356,104.667l0.843-0.381 M120.411,105.981l-0.11-0.217
	 M106.851,101.315l1.557-0.121 M111.321,101.243l1.349,0.163 M108.408,101.194l1.491-0.023 M109.898,101.171l1.422,0.072
	 M112.669,101.406l1.272,0.251 M102.279,102.11l-0.419-0.386 M103.542,101.864l1.685-0.327 M105.228,101.537l1.623-0.222
	 M99.751,102.849l-0.119-0.117 M96.199,104.285l1.923-0.777 M99.812,102.909l-0.061-0.06 M98.122,103.508l1.866-0.661
	 M102.314,102.143l-0.035-0.033 M99.988,102.847l1.808-0.547 M102.337,102.165l-0.023-0.022 M101.795,102.3l1.747-0.436
	 M103.932,103.706l0.352-0.053 M110.802,103.95l1.073,0.327 M111.875,104.277l0.985,0.412 M105.728,103.526l1.378-0.032
	 M112.86,104.689l0.892,0.495 M104.283,103.653l1.444-0.127 M107.106,103.495l1.308,0.062 M109.647,103.709l1.155,0.241
	 M113.752,105.184l0.792,0.577 M114.858,106.063l-0.314-0.302 M108.414,103.556l1.234,0.153 M102.337,102.165l0.449,0.414
	l1.222,1.203 M105.452,105.39l-0.373-0.453 M104.008,103.782l1.071,1.156 M101.062,104.163l-0.222-0.236 M99.812,102.909
	l1.029,1.018 M98.715,104.907l0.861-0.273 M103.932,103.706l-1.157,0.173 M101.123,104.227l0.082-0.022 M101.205,104.205l1.57-0.326
	 M101.983,105.141l-0.006-0.006 M101.062,104.163l0.915,0.972 M101.123,104.227l-1.546,0.407 M105.337,105.382l1.177,0.084
	 M116.659,109.415l-0.096-0.541 M114.858,106.063l0.371,0.356 M115.229,106.419l0.571,0.738 M116.139,107.779l-0.339-0.622
	 M107.617,105.638l1.023,0.256 M116.139,107.779l0.107,0.197 M116.246,107.977l0.317,0.897 M112.365,108.405l0.422,0.738
	 M106.514,105.466l1.103,0.171 M111.826,107.745l0.54,0.661 M108.64,105.894l0.938,0.341 M113.165,112.615l0.103-0.807
	 M110.426,106.658l0.751,0.503 M111.177,107.162l0.649,0.583 M109.578,106.235l0.848,0.423 M113.084,109.957l0.163,0.89
	 M113.247,110.847l0.02,0.962 M112.787,109.144l0.297,0.813 M106.779,107.166l0.626,1.097 M105.452,105.39l0.551,0.67
	 M108.364,111.597l0.001,1.147 M108.366,112.744l-0.165,1.173 M106.003,106.061l0.775,1.105 M108.088,114.319l0.113-0.402
	 M107.405,108.262l0.475,1.099 M107.88,109.361l0.321,1.109 M108.201,110.47l0.163,1.126 M105.735,112.814v-0.007 M102.326,105.544
	l0.447-0.062 M102.773,105.482l1.315-0.096l1.249-0.005 M101.983,105.141l0.978,1.147 M103.795,107.404l0.687,1.091
	 M104.482,108.495l0.539,1.077 M105.021,109.572l0.39,1.073 M102.961,106.289l0.834,1.116 M98.539,106.316l1.419-0.361l1.437-0.284
	 M105.411,110.645l0.239,1.077 M105.649,111.721l0.086,1.085 M102.326,105.544l-0.931,0.127 M103.232,110.985l0.518,0.378
	 M97.534,110.285l1.001-0.116 M105.735,112.814l-0.07,1.092 M105.546,114.489l0.12-0.583 M104.512,112.315l0.232,0.569
	 M104.744,112.884l0.126,0.629 M95.459,110.719l1.023-0.246 M99.482,110.126l0.889,0.03 M101.194,110.258l0.756,0.172
	 M104.871,113.514l0.016,0.686 M102.631,110.674l0.602,0.311 M104.84,114.536l0.046-0.336 M101.95,110.431l0.681,0.243
	 M103.75,111.363l0.428,0.444 M100.371,110.156l0.823,0.102 M96.483,110.474l1.051-0.189 M98.535,110.168l0.947-0.042
	 M104.178,111.808l0.334,0.507 M97.127,113.272l0.555,0.107 M93.649,113.552l0.774-0.165 M98.612,113.754l0.368,0.265
	 M94.424,113.387l0.74-0.111 M98.98,114.019l0.297,0.315 M95.865,113.22l0.656-0.001 M99.277,114.334l0.223,0.364 M95.164,113.276
	l0.701-0.056 M96.521,113.219l0.606,0.053 M98.178,113.54l0.434,0.214 M99.566,114.887l-0.066-0.188 M93.438,113.609l0.211-0.057
	 M97.682,113.379l0.496,0.161 M93.343,115.301l0.493-0.033 M92.275,115.484l0.547-0.111 M92.822,115.374l0.521-0.072
	 M107.715,115.476l0.149-0.358 M108.088,114.319l-0.224,0.798 M105.293,115.44l0.143-0.418 M105.546,114.489l-0.11,0.533
	 M104.84,114.536l-0.057,0.405 M104.646,115.43l0.138-0.49 M99.68,115.356l-0.035-0.248 M99.566,114.887l0.079,0.221
	 M93.836,115.269l0.458,0.007 M107.715,115.476l-0.363,0.871 M102.015,122.822l-1.629,1.318"/>
<path fill="none" stroke="#010101" stroke-width="1.5" stroke-miterlimit="10" d="M57.566,125.199l3.333-3.417l3.646-3.412
	l3.832-3.356 M52.176,132.241l0.225-0.44l2.285-3.241 M81.161,111.326l2.482-1.791"/>
<line fill="none" stroke="#010101" stroke-width="1.5" stroke-miterlimit="10" x1="61.106" y1="125.797" x2="63.46" y2="123.088"/>
<line fill="none" stroke="#010101" stroke-width="1.5" stroke-miterlimit="10" x1="66.174" y1="120.312" x2="69.126" y2="117.547"/>
<line fill="none" stroke="#010101" stroke-width="1.5" stroke-miterlimit="10" x1="69.126" y1="117.547" x2="72.231" y2="114.832"/>
<line fill="none" stroke="#010101" stroke-width="1.5" stroke-miterlimit="10" x1="63.46" y1="123.088" x2="66.174" y2="120.312"/>
<line fill="none" stroke="#010101" stroke-width="1.5" stroke-miterlimit="10" x1="72.956" y1="116.289" x2="75.673" y2="113.985"/>
<polyline fill="none" stroke="#010101" stroke-width="1.5" stroke-miterlimit="10" points="68.51,120.456 70.35,118.649 
	72.956,116.289 "/>
<line fill="none" stroke="#010101" stroke-width="1.5" stroke-miterlimit="10" x1="76.624" y1="113.225" x2="75.673" y2="113.985"/>
<path fill="none" stroke="#010101" stroke-width="1.5" stroke-miterlimit="10" d="M72.231,114.832l3.182-2.632l3.199-2.522
	 M85.551,106.597l1.191-0.815 M86.742,105.782l2.665-1.724 M89.407,104.058l2.592-1.577 M91.999,102.481l2.513-1.427 M96.634,99.94
	l-2.123,1.114 M86.181,107.704l-0.144-0.252 M84.646,105.214l0.117,0.177 M85.521,106.617l0.03-0.021 M84.763,105.392l1.275,2.06
	 M76.624,113.225l1.826-1.461 M78.45,111.764l2.792-2.118 M85.521,106.617l-1.506,1.03 M81.242,109.646l2.772-1.999"/>
<path fill="none" stroke="#010101" stroke-width="1.5" stroke-miterlimit="10" d="M78.612,109.678l3.167-2.391 M84.646,105.214
	l-0.003-0.005 M81.778,107.287l3.101-2.242"/>
<path fill="none" stroke="#010101" stroke-width="1.5" stroke-miterlimit="10" d="M127.814,89.792l1.688,0.138 M130.635,90.058
	l-1.133-0.127 M126.082,89.707l1.733,0.085 M130.371,96.862l-0.959-0.463 M113.798,94.43l1.827-0.158 M122.368,94.496l1.54,0.246
	 M123.908,94.742l1.477,0.315 M113.449,94.477l0.35-0.047 M125.384,95.058l1.413,0.382 M115.625,94.272l1.771-0.067 M117.396,94.205
	l1.715,0.019 M120.769,94.322l1.6,0.174 M126.797,95.439l1.343,0.448 M128.14,95.887l1.271,0.512 M119.111,94.224l1.657,0.098
	 M122.875,99.37l1.107,0.575 M103.46,94.145l0.326-0.147l2.324-0.939 M108.868,92.1l-0.509,0.157 M108.427,95.406l1.544-0.363
	 M109.972,95.043l1.942-0.359 M113.449,94.477l-1.535,0.208 M119.057,98.107l1.351,0.343 M98.888,96.327l2.494-1.242
	 M72.292,111.747l-0.012,0.009 M68.377,115.014l3.904-3.258 M103.46,94.145l-2.079,0.94 M96.908,97.4l1.979-1.074 M98.529,98.795
	l-0.346-0.297 M96.901,97.404l0.007-0.004 M96.883,97.39l1.3,1.108 M96.901,97.404l-0.604,0.328 M96.634,99.94l0.31-0.163
	 M97.609,99.458l-0.666,0.319 M95.016,98.479l1.459,1.317 M96.768,100.065l-0.293-0.269 M84.643,105.209l-0.321-0.485
	 M84.879,105.045l3.012-2.082 M87.892,102.963l2.909-1.915 M90.801,101.049l2.802-1.744"/>
<path fill="none" stroke="#010101" stroke-width="1.5" stroke-miterlimit="10" d="M134.283,90.617l1.496,0.313 M110.541,91.583
	l2.122-0.554 M136.625,91.136l-0.847-0.207 M108.868,92.1l1.672-0.516 M116.737,90.238l1.961-0.255 M112.662,91.029l2.064-0.445
	 M120.613,89.809l1.868-0.099 M122.481,89.709l1.823-0.032 M124.304,89.678l1.777,0.029 M114.726,90.584l2.011-0.346
	 M118.699,89.982l1.915-0.174 M130.635,90.058l0.507,0.058 M131.143,90.115l1.594,0.229l1.546,0.272"/>
<path fill="none" stroke="#010101" stroke-width="1.5" stroke-miterlimit="10" d="M103.458,121.5l-1.444,1.322 M142.79,79.99
	l0.375-0.052 M150.316,78.602l-0.646,0.156 M143.165,79.938l1.67-0.255l1.642-0.279l1.612-0.307l1.582-0.34 M143.448,79.982
	l1.688-0.099 M149.43,79.414l-1.018,0.146 M145.137,79.883l1.654-0.141l1.622-0.184 M142.746,80.006l0.703-0.023"/>
<path fill="none" stroke="#010101" stroke-width="1.5" stroke-miterlimit="10" d="M125.691,101.146l0.223,0.177 M125.914,101.323
	l0.81,0.805 M126.724,102.128l0.697,0.884l0.572,0.965 M128.08,104.188l-0.088-0.211 M121.262,109.1l-0.003-0.347 M120.761,106.677
	l0.323,0.996 M121.084,107.673l0.174,1.079 M120.411,105.981l0.351,0.696 M116.492,112.537l0.129-0.497 M116.659,109.415
	l0.078,0.437 M116.737,109.851l0.023,1.055 M116.761,110.906l-0.14,1.133 M113.135,112.843l-0.294,1.105 M112.841,113.948
	l-0.465,1.172 M112.054,115.734l0.322-0.614 M113.165,112.615l-0.029,0.228"/>
<line fill="none" stroke="#010101" stroke-width="1.5" stroke-miterlimit="10" x1="130.606" y1="96.976" x2="131.719" y2="97.619"/>
<line fill="none" stroke="#010101" stroke-width="1.5" stroke-miterlimit="10" x1="130.371" y1="96.862" x2="130.606" y2="96.976"/>
<path fill="none" stroke="#010101" stroke-width="1.5" stroke-miterlimit="10" d="M131.719,97.619l1.026,0.709 M132.746,98.328
	l0.932,0.778"/>
<path fill="none" stroke="#010101" stroke-width="1.5" stroke-miterlimit="10" d="M100.386,124.141l-1.808,1.302 M167.218,71.288
	l-0.791,0.819 M161.173,74.3l1.266-0.854 M163.527,72.603l-1.089,0.844 M154.235,77.499l1.459-0.516 M151.223,78.381l1.522-0.418
	 M155.694,76.983l1.426-0.572 M159.861,75.075l1.312-0.774 M157.12,76.411l1.389-0.634 M150.316,78.602l0.906-0.22 M152.745,77.963
	l1.49-0.465 M149.43,79.414l0.569-0.082l1.557-0.273 M158.509,75.777l1.353-0.702 M162.844,74.882l1.244-0.835 M164.088,74.047
	l1.197-0.922 M165.285,73.125l1.142-1.018 M157.467,77.462l1.398-0.542 M158.865,76.921l1.362-0.607 M156.037,77.944l1.43-0.481
	 M160.228,76.313l1.327-0.678 M154.574,78.368l1.463-0.424 M161.555,75.635l1.289-0.753 M151.556,79.059l1.524-0.32l1.494-0.371
	 M141.23,92.579l1.219,0.514 M143.066,93.391l-0.616-0.298 M139.951,92.107l1.279,0.472 M137.223,91.283l1.392,0.392
	 M138.615,91.675l1.336,0.432 M136.625,91.136l0.598,0.146 M134.28,99.721l-0.603-0.615"/>
<line fill="none" stroke="#010101" stroke-miterlimit="10" x1="68.424" y1="169.143" x2="44.629" y2="164.312"/>
<line fill="none" stroke="#010101" stroke-miterlimit="10" x1="68.424" y1="169.143" x2="44.629" y2="164.312"/>
<path fill="none" stroke="#010101" stroke-width="1.5" stroke-miterlimit="10" d="M109.016,119.941l-0.411,0.461 M93.938,130.542
	l-2.837,1.289 M88.003,133.062l0.148-0.052 M91.101,131.831l-2.949,1.179 M96.627,129.17l-2.688,1.372 M103.744,126.95l-2.588,1.647
	 M101.156,128.598l-2.847,1.629 M98.309,130.227l-3.062,1.571l-3.249,1.482l-3.395,1.363l-3.491,1.211 M83.462,136.333l1.649-0.479
	 M99.987,131.839l-3.072,1.576 M78.509,139.902l2.367-0.541 M89.155,136.735l-4.109,1.421l-4.169,1.205 M96.915,133.415
	l-3.784,1.726 M93.131,135.141l-3.976,1.594 M71.365,145.049l2.744-0.408 M79.354,143.497l-5.246,1.145 M95.138,138.149
	l-0.364,0.163 M94.773,138.312l-4.975,1.96l-5.173,1.748 M84.625,142.021l-5.271,1.476 M88.787,144.494l-6.371,1.998
	 M82.416,146.491l-6.472,1.64l-6.401,1.203 M90.849,143.729l-2.062,0.765 M64.653,149.885l4.889-0.551 M84.269,152.292l-8.303,2.183
	 M75.965,154.475l-8.572,1.686l-8.288,1.003 M54.36,157.301l4.746-0.137"/>
<path fill="none" stroke="#010101" stroke-width="1.5" stroke-miterlimit="10" d="M108.605,120.402l-1.46,1.438 M109.016,119.941
	l0.835-0.938"/>
<path fill="none" stroke="#010101" stroke-width="1.5" stroke-miterlimit="10" d="M121.202,121.582l-1.186,1.172 M95.138,138.149
	l4.336-1.951 M100.695,139.752l-5.78,2.469 M90.849,143.729l4.066-1.508 M120.493,136.73l-5.944,3.32 M114.549,140.05l-6.624,3.298
	 M107.925,143.348l-7.271,3.196 M84.269,152.292l0.251-0.066 M100.655,146.544l-7.843,2.997l-8.292,2.685 M110.89,117.652
	l-1.038,1.351 M105.468,123.307l-1.895,1.482 M101.461,126.272l-2.32,1.467l-2.514,1.43 M107.146,121.84l-1.678,1.467
	 M103.573,124.789l-2.112,1.483 M112.054,115.734l-0.326,0.622l-0.838,1.296"/>
<path fill="none" stroke="#010101" stroke-width="1.5" stroke-miterlimit="10" d="M122.438,120.32l-0.304,0.342 M114.698,127.152
	l-3.23,2.272 M111.468,129.424l-3.62,2.288 M120.017,122.753l-2.474,2.168l-2.845,2.23 M121.202,121.582l0.931-0.919"/>
<line fill="none" stroke="#010101" stroke-width="1.5" stroke-miterlimit="10" x1="107.848" y1="131.712" x2="103.843" y2="133.983"/>
<path fill="none" stroke="#010101" stroke-width="1.5" stroke-miterlimit="10" d="M99.987,131.839l0.474-0.244 M106.054,137.156
	l-5.358,2.596 M125.693,124.092l-2.983,2.5 M122.71,126.592l-3.44,2.584 M126.392,123.437l-0.699,0.656 M115.352,131.822
	l-4.406,2.673 M110.946,134.496l-4.892,2.661 M119.27,129.177l-3.918,2.646 M103.843,133.983l-4.369,2.216"/>
<line fill="none" stroke="#010101" stroke-width="1.5" stroke-miterlimit="10" x1="113.069" y1="118.812" x2="111.705" y2="120.362"/>
<path fill="none" stroke="#010101" stroke-width="1.5" stroke-miterlimit="10" d="M111.705,120.362l-1.607,1.599 M114.2,117.321
	l-1.131,1.491 M110.098,121.961l-1.856,1.638"/>
<path fill="none" stroke="#010101" stroke-width="1.5" stroke-miterlimit="10" d="M116.307,113.25l-0.5,1.286l-0.698,1.358
	l-0.909,1.428 M108.241,123.599l-2.11,1.664 M116.492,112.537l-0.185,0.713 M103.744,126.95l0.023-0.015 M106.131,125.263
	l-2.363,1.673"/>
<line fill="none" stroke="#010101" stroke-width="1.5" stroke-miterlimit="10" x1="115.667" y1="120.385" x2="113.873" y2="122.178"/>
<path fill="none" stroke="#010101" stroke-width="1.5" stroke-miterlimit="10" d="M117.184,118.655l-1.517,1.73 M113.873,122.178
	l-2.083,1.846"/>
<path fill="none" stroke="#010101" stroke-width="1.5" stroke-miterlimit="10" d="M118.436,116.996l-1.251,1.659 M111.79,124.024
	l-2.382,1.885"/>
<path fill="none" stroke="#010101" stroke-width="1.5" stroke-miterlimit="10" d="M119.439,115.415l-1.003,1.582 M109.407,125.909
	l-2.686,1.905"/>
<path fill="none" stroke="#010101" stroke-width="1.5" stroke-miterlimit="10" d="M120.209,113.914l-0.77,1.5 M106.722,127.814
	l-2.986,1.905 M121.11,111.164l-0.35,1.333"/>
<line fill="none" stroke="#010101" stroke-width="1.5" stroke-miterlimit="10" x1="120.76" y1="112.497" x2="120.209" y2="113.914"/>
<line fill="none" stroke="#010101" stroke-width="1.5" stroke-miterlimit="10" x1="103.736" y1="129.719" x2="100.461" y2="131.596"/>
<line fill="none" stroke="#010101" stroke-width="1.5" stroke-miterlimit="10" x1="121.271" y1="109.916" x2="121.11" y2="111.164"/>
<path fill="none" stroke="#010101" stroke-width="1.5" stroke-miterlimit="10" d="M128.853,107.385l-0.042,1.316l-0.232,1.411
	 M128.08,104.188l0.35,0.838 M127.475,113.23l-0.911,1.709 M126.564,114.94l-1.179,1.811 M128.14,111.622l-0.665,1.608
	 M122.438,120.32l1.478-1.661 M128.579,110.113l-0.438,1.509 M125.385,116.75l-1.47,1.909 M128.43,105.026l0.291,1.135
	 M128.721,106.161l0.132,1.224 M121.262,109.1l0.009,0.816"/>
<line fill="none" stroke="#010101" stroke-width="1.5" stroke-miterlimit="10" x1="132.191" y1="117.242" x2="130.403" y2="119.408"/>
<line fill="none" stroke="#010101" stroke-width="1.5" stroke-miterlimit="10" x1="126.392" y1="123.437" x2="128.248" y2="121.694"/>
<path fill="none" stroke="#010101" stroke-width="1.5" stroke-miterlimit="10" d="M130.403,119.408l-2.156,2.286 M134.785,113.277
	l-1.144,1.921 M133.641,115.199l-1.45,2.043 M136.265,109.792l-0.614,1.684l-0.866,1.801"/>
<line fill="none" stroke="#010101" stroke-width="1.5" stroke-miterlimit="10" x1="136.651" y1="108.222" x2="136.265" y2="109.792"/>
<line fill="none" stroke="#010101" stroke-width="1.5" stroke-miterlimit="10" x1="136.83" y1="106.759" x2="136.651" y2="108.222"/>
<line fill="none" stroke="#010101" stroke-width="1.5" stroke-miterlimit="10" x1="136.821" y1="105.398" x2="136.83" y2="106.759"/>
<line fill="none" stroke="#010101" stroke-width="1.5" stroke-miterlimit="10" x1="139.289" y1="122.85" x2="137.787" y2="124.279"/>
<path fill="none" stroke="#010101" stroke-width="1.5" stroke-miterlimit="10" d="M134.364,127.198l-3.994,3.065 M130.371,130.263
	l-4.611,3.188 M139.289,122.85l1.398-1.331 M136.643,104.135l0.179,1.264"/>
<path fill="none" stroke="#010101" stroke-width="1.5" stroke-miterlimit="10" d="M137.787,124.279l-3.423,2.919 M149.777,108.386
	l-0.732,1.804 M149.045,110.19l-0.996,1.949 M146.754,114.24l-1.629,2.261 M145.125,116.501l-2.007,2.425 M144.694,94.255
	l1.02,0.653 M145.714,94.908l0.944,0.706 M143.605,93.651l1.089,0.604 M146.658,95.614l0.864,0.762 M150.601,102.432l0.064,1.316
	 M150.665,103.749l-0.102,1.426 M148.299,97.2l0.685,0.89 M150.563,105.174l-0.289,1.542 M149.565,99.051l0.471,1.04
	 M150.274,106.717l-0.497,1.669 M148.983,98.089l0.582,0.961 M150.036,100.09l0.35,1.125 M147.521,96.376l0.777,0.823
	 M148.049,112.139l-1.295,2.101 M143.066,93.391l0.54,0.26 M150.386,101.215l0.215,1.217 M134.28,99.721l0.229,0.234l0.722,0.923
	 M135.231,100.878l0.604,1.001 M135.835,101.879l0.475,1.084 M143.118,118.926l-2.43,2.593 M136.31,102.964l0.333,1.171"/>
<line fill="none" stroke="#010101" stroke-width="1.5" stroke-miterlimit="10" x1="125.76" y1="133.452" x2="120.493" y2="136.73"/>
<line fill="none" stroke="#010101" stroke-miterlimit="10" x1="132.348" y1="182.121" x2="188.333" y2="130.619"/>
<line fill="none" stroke="#010101" stroke-miterlimit="10" x1="135.597" y1="179.132" x2="185.677" y2="133.061"/>
<line fill="none" stroke="#010101" stroke-miterlimit="10" x1="160.869" y1="190.066" x2="160.869" y2="190.066"/>
<line fill="none" stroke="#010101" stroke-miterlimit="10" x1="68.424" y1="169.143" x2="132.348" y2="182.121"/>
<line fill="none" stroke="#010101" stroke-miterlimit="10" x1="68.424" y1="169.143" x2="92.628" y2="174.056"/>
<path fill="none" stroke="#010101" stroke-width="1.5" stroke-miterlimit="10" d="M46.436,126.843l0.351-0.352 M93.603,99.305
	l2.693-1.573"/>
<polyline fill="none" stroke="#010101" stroke-width="1.5" stroke-miterlimit="10" points="72.292,111.747 76.167,108.632 
	79.967,105.669 "/>
<line fill="none" stroke="#010101" stroke-width="1.5" stroke-miterlimit="10" x1="83.284" y1="103.155" x2="79.967" y2="105.669"/>
<line fill="none" stroke="#010101" stroke-width="1.5" stroke-miterlimit="10" x1="74.66" y1="107.109" x2="79.088" y2="103.591"/>
<path fill="none" stroke="#010101" stroke-width="1.5" stroke-miterlimit="10" d="M70.058,110.825l4.603-3.716 M81.201,101.932
	l-2.113,1.659"/>
<polyline fill="none" stroke="#010101" stroke-width="1.5" stroke-miterlimit="10" points="61.467,118.067 65.37,114.706 
	70.058,110.825 "/>
<path fill="none" stroke="#010101" stroke-width="1.5" stroke-miterlimit="10" d="M43.902,47.992l4.258,7.434 M75.246,102.715
	l-2.952,2.39 M40.502,40.427l3.4,7.565 M106.11,93.058l2.249-0.801 M96.883,97.39l-0.567-0.484 M96.019,96.653l0.297,0.253
	 M52.571,121.285l6.089-5.133 M58.66,116.151l6.12-4.987 M72.293,105.105l-1.576,1.276 M64.78,111.164l5.938-4.783 M46.787,126.491
	l5.785-5.207 M95.016,98.479l-0.339-0.305 M93.847,97.427l0.83,0.748 M88.518,99.325l-1.373,0.979 M83.287,103.153l0.349-0.264
	 M83.636,102.889l3.509-2.585 M82.19,101.579l1.03,1.479 M83.284,103.155l0.002-0.002 M84.321,104.724l-1.102-1.667"/>
<path fill="none" stroke="#010101" stroke-width="1.5" stroke-miterlimit="10" d="M77.882,100.561l-1.56,1.282 M75.246,102.715
	l1.077-0.872"/>
<path fill="none" stroke="#010101" stroke-width="1.5" stroke-miterlimit="10" d="M79.254,99.433l-1.372,1.128 M48.161,55.426
	l4.679,7.105"/>
<path fill="none" stroke="#010101" stroke-width="1.5" stroke-miterlimit="10" d="M79.923,98.883l-0.669,0.549 M81.838,101.431
	l-0.637,0.5 M52.839,62.531l4.752,6.639"/>
<path fill="none" stroke="#010101" stroke-width="1.5" stroke-miterlimit="10" d="M75.736,92.807L73.665,90.1 M70.263,85.713
	l3.402,4.387 M57.592,69.17l4.58,6.093"/>
<path fill="none" stroke="#010101" stroke-width="1.5" stroke-miterlimit="10" d="M50.939,40.409l1.938,5.56 M56.03,55.02
	l-2.288-3.788 M52.101,47.854l1.642,3.379 M50.1,35.025l0.839,5.383 M52.101,47.854l-1.166-2.397 M49.508,41.175l1.427,4.281
	 M50.584,29.986L50.1,35.025 M49.508,41.175l-0.488-1.464 M48.392,35.044l0.628,4.667 M52.551,25.45l-1.967,4.536 M50.986,24.761
	l-2.05,4.247 M48.392,35.044l-0.117-0.875 M48.937,29.008l-0.662,5.161 M38.441,32.972l2.061,7.455 M102.215,90.434l2.594-1.397
	 M104.809,89.037l2.49-1.229 M107.299,87.808l2.398-1.074 M109.698,86.733l2.321-0.934 M113.344,85.325l-1.325,0.475 M94.391,95.263
	l2.259-1.482l2.851-1.77 M99.501,92.011l2.714-1.577 M96.019,96.653l-1.751-1.497 M93.954,94.883l0.314,0.272 M92.686,96.381
	l-0.563-0.512 M94.391,95.263l-0.743,0.487 M88.518,99.325l1.965-1.401 M92.705,96.398l0.944-0.648 M92.686,96.381l0.003,0.003
	 M93.847,97.427l-1.157-1.042 M92.705,96.398l-2.222,1.526 M62.171,75.263l4.251,5.513 M66.422,80.776l3.84,4.937 M75.736,92.807
	l0.897,1.173 M76.633,93.979l2.559,3.419 M80.14,98.705l-0.947-1.307 M80.281,98.588l-0.358,0.295 M82.016,101.292l0.229-0.179
	 M80.14,98.705l1.235,1.703 M82,101.305l-0.625-0.896 M82.016,101.292l-0.178,0.14 M82,101.305l0.19,0.274"/>
<path fill="none" stroke="#010101" stroke-width="1.5" stroke-miterlimit="10" d="M75.146,79.222l-2.611-2.828 M61.129,62.562
	l3.719,4.829l3.904,4.705l3.782,4.298 M52.876,45.969l2.773,5.576 M61.129,62.562l-0.199-0.258 M56.03,55.02l1.129,1.869
	l3.771,5.415"/>
<path fill="none" stroke="#010101" stroke-width="1.5" stroke-miterlimit="10" d="M92.248,93.406l2.088-1.57 M94.336,91.836
	l3.19-2.334 M97.526,89.502l2.981-2.103 M116.297,76.278l1.437,0.465 M118.325,76.914l-0.591-0.17 M108.452,82.352l2.394-1.319
	 M100.507,87.4l2.798-1.882 M103.305,85.518l2.64-1.677 M105.944,83.841l2.507-1.489 M119.328,77.202l-1.003-0.289 M115.369,78.831
	l2.154-0.92l2.097-0.823 M119.62,77.088l2.046-0.744 M113.147,79.865l2.222-1.035 M121.666,76.344l1.999-0.679 M125.236,75.159
	l-1.572,0.506 M119.328,77.202l0.674,0.193 M122.021,77.908l-2.019-0.512 M110.846,81.033l2.301-1.167 M93.954,94.883l-1.926-1.667
	 M92.248,93.406l-0.003,0.001 M89.586,91.057l2.442,2.16 M92.245,93.408l-0.039,0.03 M86.929,88.643l2.657,2.415 M89.399,90.887
	l-0.041,0.035 M92.206,93.438l-0.092,0.069 M84.047,85.94l2.882,2.703 M89.359,90.922l-0.1,0.085 M92.114,93.506l-0.162,0.122
	 M80.938,82.915l3.109,3.025 M89.259,91.008l-0.176,0.152 M91.952,93.628l-0.248,0.186 M77.601,79.538l3.337,3.377 M89.083,91.16
	l-0.277,0.238 M91.705,93.813l-0.361,0.271 M55.65,51.545l3.347,5.451l3.685,5.215l3.829,4.898l3.825,4.532l3.719,4.144
	 M74.055,75.784l3.546,3.754 M79.486,83.778l3.116,3.125 M88.004,92.086l-2.534-2.395 M82.602,86.903l2.868,2.788 M75.146,79.222
	l0.979,1.061l3.361,3.495 M80.281,98.588l1.223-1.005 M81.503,97.583l4.716-3.963 M88.805,91.398l-2.585,2.223 M90.697,94.574
	l0.213-0.163 M91.344,94.085l-0.434,0.326 M92.123,95.869l-1.621-1.473 M90.697,94.574l-0.001,0.001 M88.004,92.086l0.096,0.09
	 M88.1,92.177l2.402,2.22 M82.245,101.112l1.043-0.819 M90.695,94.576l-3.464,2.655 M83.288,100.293l3.943-3.062"/>
<path fill="none" stroke="#010101" stroke-width="1.5" stroke-miterlimit="10" d="M99.986,81.527l-2.287,2.05 M89.399,90.887
	l1.073-0.923l3.812-3.346l3.415-3.042 M138.412,63.38l1.255-0.732"/>
<path fill="none" stroke="#010101" stroke-width="1.5" stroke-miterlimit="10" d="M101.595,80.087l-0.832,0.743 M99.986,81.527
	l0.777-0.697"/>
<path fill="none" stroke="#010101" stroke-width="1.5" stroke-miterlimit="10" d="M105.576,71.776l2.536,1.257 M109.158,73.502
	l-1.047-0.469 M108.989,73.642l1.486-1.229 M118.89,66.271l-1.12,0.737 M114.327,69.429l1.766-1.269 M116.093,68.16l1.677-1.151
	 M110.475,72.412l1.986-1.574l1.866-1.41 M109.158,73.502l1.439,0.645l2.434,0.982 M116.297,76.278l-0.887-0.287 M113.032,75.129
	l2.378,0.862 M100.379,68.795l2.616,1.572 M102.996,70.367l2.58,1.41 M108.989,73.642l-0.563,0.466 M97.74,67.053l2.639,1.742
	 M108.426,74.107l-0.082,0.067 M107.986,74.482l0.359-0.308 M97.296,66.731l0.444,0.322 M103.529,78.36l2.513-2.211 M107.986,74.482
	l-1.944,1.667 M101.595,80.087l1.935-1.727"/>
<path fill="none" stroke="#010101" stroke-width="1.5" stroke-miterlimit="10" d="M122.17,65.923l1.858,0.147 M124.029,66.07
	l1.816,0.054 M119.891,65.613l0.384,0.068l1.896,0.242 M119.904,65.616l-0.534,0.34 M132.618,65.444l1.552-0.387l1.487-0.473
	 M135.657,64.584l1.415-0.559 M137.072,64.025l1.34-0.646 M139.667,62.647l1.165-0.82 M125.845,66.124l1.771-0.038"/>
<path fill="none" stroke="#010101" stroke-width="1.5" stroke-miterlimit="10" d="M127.616,66.086l1.721-0.127 M129.337,65.959
	l1.669-0.214l1.612-0.301"/>
<path fill="none" stroke="#010101" stroke-width="1.5" stroke-miterlimit="10" d="M122.361,64.063l1.395-0.873 M119.891,65.613
	l-0.005-0.001 M118.89,66.271l0.48-0.315 M120.899,64.98l1.462-0.917 M142.849,59.918l0.831-1.09 M145.302,55.012l0.196-1.45
	 M143.68,58.828l0.696-1.182 M145.499,53.562l-0.006-1.536 M145.492,52.026l-0.229-1.617 M145.104,49.836l0.16,0.573
	 M119.904,65.616l0.995-0.636"/>
<path fill="none" stroke="#010101" stroke-width="1.5" stroke-miterlimit="10" d="M123.756,63.19l1.33-0.845 M125.086,62.346
	l1.261-0.829"/>
<path fill="none" stroke="#010101" stroke-width="1.5" stroke-miterlimit="10" d="M127.535,60.691l1.113-0.833 M128.647,59.858
	l1.03-0.848"/>
<path fill="none" stroke="#010101" stroke-width="1.5" stroke-miterlimit="10" d="M120.307,36.404l-2.403-0.93 M102.135,33.092
	l-2.433,0.268 M129.611,42.244l-1.454-1.268 M115.372,34.669l-2.628-0.665 M112.744,34.004l-2.683-0.504 M126.491,39.741
	l-1.872-1.186 M92.264,36.491l-1.108,1.252 M89.883,42.323l0.241,1.713 M100.481,57.371l1.906,1.335 M93.835,51.088l1.462,1.689
	 M96.911,54.397l1.737,1.535 M91.488,47.575l1.066,1.772 M119.885,65.612l-1.542-0.273 M90.388,39.149l-0.422,1.535 M126.347,61.517
	l1.188-0.826 M102.387,58.706l1.958,1.225 M116.382,64.896l1.961,0.444 M98.648,55.932l1.833,1.439 M114.395,64.347l1.987,0.549
	 M95.297,52.777l1.613,1.62 M110.372,62.92l2.018,0.769 M92.554,49.347l1.281,1.741 M90.125,44.036l0.543,1.76 M108.352,62.038
	l2.021,0.882 M89.966,40.684l-0.083,1.639 M91.156,37.743l-0.768,1.406 M106.338,61.042l2.014,0.997 M112.39,63.689l2.005,0.657
	 M104.345,59.931l1.993,1.111 M90.668,45.796l0.82,1.779 M80.946,50.224l1.917,2.81 M97.296,66.731l-2.201-1.596 M92.468,63.04
	l2.627,2.095 M82.863,53.034l2.171,2.713 M85.034,55.748l2.36,2.586l2.494,2.436 M78.985,46.461l0.371,0.896l1.591,2.867
	 M89.888,60.77l2.58,2.27"/>
<path fill="none" stroke="#010101" stroke-width="1.5" stroke-miterlimit="10" d="M93.7,35.412l-1.436,1.079 M117.904,35.475
	l-2.532-0.806 M107.366,33.171l-2.659-0.14 M104.707,33.031l-2.572,0.061 M110.061,33.5l-2.695-0.329 M99.702,33.359l-2.246,0.479
	 M97.456,33.838l-2.015,0.686 M95.441,34.524L93.7,35.412 M130.621,58.14l0.847-0.9"/>
<path fill="none" stroke="#010101" stroke-width="1.5" stroke-miterlimit="10" d="M88.872,27.524l-3.368,1.098 M85.504,28.622
	l-2.857,1.457 M92.667,26.794l-3.794,0.729 M98.625,26.428l-1.834,0.003 M82.646,30.079l-2.282,1.794 M96.79,26.432l-4.124,0.363
	 M80.365,31.874l-1.664,2.1 M78.985,46.461l-0.82-1.98 M78.701,33.974l-1.03,2.363 M77.67,36.337l-0.408,2.577l0.183,2.734
	 M77.445,41.647l0.719,2.833"/>
<line fill="none" stroke="#010101" stroke-width="1.5" stroke-miterlimit="10" x1="130.851" y1="43.531" x2="129.611" y2="42.244"/>
<path fill="none" stroke="#010101" stroke-width="1.5" stroke-miterlimit="10" d="M102.369,26.515l-1.234-0.091 M98.625,26.428
	l2.51-0.004 M122.553,37.437l-2.246-1.033"/>
<path fill="none" stroke="#010101" stroke-width="1.5" stroke-miterlimit="10" d="M128.157,40.976l-1.666-1.235 M133.738,53.263
	l0.24-1.099 M134.067,51.024l-0.073-1.18"/>
<path fill="none" stroke="#010101" stroke-width="1.5" stroke-miterlimit="10" d="M102.369,26.515l3.228,0.237 M114.471,28.303
	l-4.398-0.915 M110.073,27.389l-4.476-0.637 M120.006,29.901l-1.297-0.441 M118.709,29.46l-4.238-1.157 M124.62,38.556l-2.067-1.119
	"/>
<path fill="none" stroke="#010101" stroke-width="1.5" stroke-miterlimit="10" d="M123.026,30.95l-0.305-0.126 M131.88,44.824
	l-1.029-1.292"/>
<path fill="none" stroke="#010101" stroke-width="1.5" stroke-miterlimit="10" d="M132.701,46.11l-0.821-1.287 M120.006,29.901
	l2.714,0.922"/>
<path fill="none" stroke="#010101" stroke-width="1.5" stroke-miterlimit="10" d="M133.321,47.381l-0.621-1.271 M123.026,30.95
	l2.843,1.168"/>
<path fill="none" stroke="#010101" stroke-width="1.5" stroke-miterlimit="10" d="M133.749,48.628l-0.428-1.247 M128.506,33.36
	l-2.052-1.002 M125.869,32.118l0.585,0.24"/>
<line fill="none" stroke="#010101" stroke-width="1.5" stroke-miterlimit="10" x1="128.506" y1="33.36" x2="129.87" y2="34.026"/>
<line fill="none" stroke="#010101" stroke-width="1.5" stroke-miterlimit="10" x1="130.926" y1="34.634" x2="129.87" y2="34.026"/>
<path fill="none" stroke="#010101" stroke-width="1.5" stroke-miterlimit="10" d="M129.678,59.01l0.943-0.871 M131.468,57.24
	l0.745-0.935 M138.022,39.51l-2.36-1.877 M135.663,37.633l-2.719-1.838 M130.926,34.634l2.018,1.161 M133.994,49.844l-0.245-1.216
	 M133.978,52.164l0.09-1.14"/>
<path fill="none" stroke="#010101" stroke-width="1.5" stroke-miterlimit="10" d="M74.818,14.471l-7.431,1.554 M145.104,49.836
	l-0.313-1.119 M144.052,46.958l-1.026-1.814 M143.025,45.144l-1.335-1.857 M144.791,48.717l-0.739-1.759 M132.212,56.305
	l0.632-0.973 M132.845,55.333l0.512-1.014 M133.356,54.319l0.381-1.056 M56.057,21.552l-3.506,3.898 M113.639,16.504l-4.057-0.852"
	/>
<path fill="none" stroke="#010101" stroke-width="1.5" stroke-miterlimit="10" d="M83.058,13.712l-8.24,0.758 M100.729,14.375
	l-8.933-0.673 M66.43,15.243l-6.035,2.068 M60.395,17.311l-5.388,3.15 M54.714,20.76l0.292-0.299 M67.387,16.024l-6.333,2.366
	 M54.714,20.76l-3.55,3.633 M50.986,24.761l0.178-0.368 M61.054,18.391l-4.997,3.162"/>
<line fill="none" stroke="#010101" stroke-width="1.5" stroke-miterlimit="10" x1="73.968" y1="13.722" x2="67.151" y2="14.997"/>
<path fill="none" stroke="#010101" stroke-width="1.5" stroke-miterlimit="10" d="M91.013,12.975l-7.351-0.096l-8.651,0.648
	 M73.968,13.722l1.042-0.195 M91.796,13.703l-8.738,0.01 M66.43,15.243l0.721-0.247"/>
<path fill="none" stroke="#010101" stroke-width="1.5" stroke-miterlimit="10" d="M102.032,13.81l-9.258-0.812 M112.637,15.558
	l-1.481-0.328 M111.155,15.23l-9.123-1.42 M91.013,12.975l1.762,0.023 M109.582,15.652l-8.853-1.277 M141.896,60.917l0.953-1"/>
<path fill="none" stroke="#010101" stroke-width="1.5" stroke-miterlimit="10" d="M122.765,82.744l2.018-0.38l1.982-0.33
	 M126.764,82.034l1.948-0.29 M140.832,61.827l1.064-0.91"/>
<path fill="none" stroke="#010101" stroke-width="1.5" stroke-miterlimit="10" d="M128.712,81.745l1.915-0.259 M130.627,81.486
	l1.883-0.235 M134.339,81.033l-1.829,0.217"/>
<path fill="none" stroke="#010101" stroke-width="1.5" stroke-miterlimit="10" d="M120.709,83.185l2.056-0.441 M113.344,85.325
	l0.928-0.333 M116.467,84.295l2.144-0.598 M118.611,83.698l2.098-0.513 M114.272,84.992l2.195-0.696"/>
<path fill="none" stroke="#010101" stroke-width="1.5" stroke-miterlimit="10" d="M122.021,77.908l0.196,0.049 M134.841,79.864
	l-0.392-0.024 M132.528,79.674l1.921,0.166 M122.217,77.957l2.162,0.479l2.109,0.405 M126.488,78.842l2.061,0.337"/>
<polyline fill="none" stroke="#010101" stroke-width="1.5" stroke-miterlimit="10" points="128.548,79.179 130.561,79.455 
	132.528,79.674 "/>
<path fill="none" stroke="#010101" stroke-width="1.5" stroke-miterlimit="10" d="M127.537,74.44l1.875-0.572l1.836-0.562
	 M125.236,75.159l0.385-0.124 M125.621,75.035l1.916-0.595"/>
<path fill="none" stroke="#010101" stroke-width="1.5" stroke-miterlimit="10" d="M145.657,67.176l1.294-0.943l1.21-1.02
	 M138.765,70.72l1.018-0.414 M139.783,70.307l1.561-0.699l1.502-0.75l1.44-0.809l1.371-0.872 M165.719,70.526l-0.91,0.946
	 M163.527,72.603l0.124-0.097l1.157-1.034 M136.328,79.958l1.838,0.071 M138.166,80.029l1.799,0.027l1.76-0.016 M142.654,80.009
	l0.136-0.019 M142.746,80.006l-1.021,0.034 M142.654,80.009l-1.19,0.166 M134.841,79.864l1.487,0.093 M137.974,80.609l1.76-0.213
	 M139.733,80.396l1.73-0.222 M134.339,81.033l0.022-0.003 M134.361,81.03l1.821-0.211l1.791-0.209 M144.376,57.646l0.546-1.272
	 M144.922,56.375l0.38-1.362 M131.248,73.306l1.795-0.562 M138.765,70.72l-0.596,0.242 M133.043,72.745l1.754-0.572l1.709-0.591
	l1.663-0.619"/>
<line fill="none" stroke="#010101" stroke-width="1.5" stroke-miterlimit="10" x1="148.161" y1="65.213" x2="149.275" y2="64.112"/>
<line fill="none" stroke="#010101" stroke-width="1.5" stroke-miterlimit="10" x1="149.275" y1="64.112" x2="150.284" y2="62.922"/>
<line fill="none" stroke="#010101" stroke-width="1.5" stroke-miterlimit="10" x1="150.284" y1="62.922" x2="151.173" y2="61.641"/>
<line fill="none" stroke="#010101" stroke-width="4" stroke-linecap="round" stroke-miterlimit="10" x1="151.173" y1="61.641" x2="151.173" y2="61.641"/>
<line fill="none" stroke="#FF0000" stroke-miterlimit="10" x1="156.011" y1="59.52" x2="151.173" y2="61.641"/>
<line fill="none" stroke="#010101" stroke-width="1.5" stroke-miterlimit="10" x1="140.028" y1="41.402" x2="138.022" y2="39.51"/>
<g>
	<g>
		
			<line fill="none" stroke="#BFBEBE" stroke-miterlimit="10" stroke-dasharray="0.6313" x1="125.642" y1="27.829" x2="126.238" y2="28.037"/>
		
			<line fill="none" stroke="#BFBEBE" stroke-miterlimit="10" stroke-dasharray="3.4482" x1="129.417" y1="29.374" x2="126.238" y2="28.037"/>
	</g>
</g>
<path fill="none" stroke="#010101" stroke-width="1.5" stroke-miterlimit="10" d="M112.637,15.558l5.706,1.262 M113.639,16.504
	l4.485,0.941 M119.142,17.727l-1.018-0.281"/>
<line fill="none" stroke="#010101" stroke-width="1.5" stroke-miterlimit="10" x1="141.69" y1="43.287" x2="140.028" y2="41.402"/>
<line fill="none" stroke="#010101" stroke-width="1.5" stroke-miterlimit="10" x1="129.346" y1="20.762" x2="126.172" y2="19.666"/>
<path fill="none" stroke="#010101" stroke-width="1.5" stroke-miterlimit="10" d="M119.142,17.727l7.03,1.939 M139.488,24.702
	l-5.895-2.475 M129.346,20.762l4.248,1.465"/>
<line fill="none" stroke="#010101" stroke-width="1.5" stroke-miterlimit="10" x1="139.488" y1="24.702" x2="140.303" y2="25.044"/>
<line fill="none" stroke="#010101" stroke-width="1.5" stroke-miterlimit="10" x1="151.447" y1="31.146" x2="146.258" y2="28.041"/>
<line fill="none" stroke="#FF0000" stroke-miterlimit="10" x1="170.228" y1="55.135" x2="166.472" y2="54.934"/>
<line fill="none" stroke="#010101" stroke-width="1.5" stroke-miterlimit="10" x1="170.451" y1="56.785" x2="170.133" y2="54.438"/>
<line fill="none" stroke="#FF0000" stroke-miterlimit="10" x1="170.228" y1="55.135" x2="170.312" y2="55.139"/>
<line fill="none" stroke="#010101" stroke-width="1.5" stroke-miterlimit="10" x1="170.497" y1="58.976" x2="170.451" y2="56.785"/>
<line fill="none" stroke="#FF0000" stroke-miterlimit="10" x1="156.011" y1="59.52" x2="166.472" y2="54.934"/>
<path fill="none" stroke="#010101" stroke-width="1.5" stroke-miterlimit="10" d="M170.133,54.438l-0.639-2.5 M170.308,61.015
	l0.189-2.039 M169.494,51.938l-1.008-2.649"/>
<path fill="none" stroke="#010101" stroke-width="1.5" stroke-miterlimit="10" d="M135.638,22.218l-7.527-2.691 M128.111,19.527
	l-8.203-2.36 M157.987,34.706l-4.414-3.24 M165.141,43.583l-2.46-3.024 M118.342,16.82l1.566,0.347 M162.681,40.558l-3.065-3.105
	 M148.389,28.263l-5.979-3.106 M142.409,25.157l-6.771-2.939 M153.573,31.466l-5.185-3.203 M146.258,28.041l-5.955-2.997
	 M159.615,37.453l-3.729-3.151 M155.887,34.301l-4.439-3.155 M165.719,70.526l0.182-0.188"/>
<path fill="none" stroke="#010101" stroke-width="1.5" stroke-miterlimit="10" d="M161.674,37.93l-3.687-3.224 M171.685,54.305
	l-0.397-1.691 M171.287,52.614l-0.956-2.67 M168.953,47.124l-1.859-2.956 M163.804,40.165l0.886,0.93 M167.094,44.168l-2.404-3.074
	 M170.331,49.944l-1.378-2.82 M168.486,49.29l-1.431-2.79 M163.804,40.165l-2.13-2.235 M167.056,46.5l-1.915-2.917"/>
<path fill="none" stroke="#010101" stroke-width="1.5" stroke-miterlimit="10" d="M170.974,65.345l0.571-1.74 M171.545,63.605
	l0.408-1.887 M169.438,68.416l0.826-1.469 M170.265,66.946l0.709-1.601 M168.516,69.76l0.923-1.345 M172.169,59.68l-0.012-2.196
	 M169.921,62.905l0.387-1.89 M167.218,71.288l0.289-0.3 M167.507,70.988l1.009-1.228 M165.9,70.338l1.014-1.241 M166.914,69.097
	l0.927-1.357 M167.841,67.74l0.822-1.479 M168.663,66.261l0.7-1.61 M169.363,64.651l0.558-1.747"/>
<line fill="none" stroke="#FF0000" stroke-miterlimit="10" x1="171.89" y1="55.224" x2="171.5" y2="55.203"/>
<path fill="none" stroke="#010101" stroke-width="1.5" stroke-miterlimit="10" d="M172.157,57.484l-0.278-2.355 M171.953,61.719
	l0.216-2.039 M171.685,54.305l0.194,0.824"/>
<path fill="none" stroke="#010101" stroke-width="1.5" stroke-miterlimit="10" d="M141.696,2.232l-11.098-0.543 M130.598,1.688
	L118.69,1.107 M118.69,1.107L106.274,0.75"/>
<line fill="none" stroke="#010101" stroke-width="1.5" stroke-miterlimit="10" x1="151.705" y1="2.438" x2="141.696" y2="2.232"/>
<line fill="none" stroke="#010101" stroke-width="1.5" stroke-miterlimit="10" x1="44.313" y1="13.854" x2="40.077" y2="19.451"/>
<line fill="none" stroke="#010101" stroke-width="1.5" stroke-miterlimit="10" x1="50.862" y1="9.246" x2="44.313" y2="13.854"/>
<path fill="none" stroke="#010101" stroke-width="1.5" stroke-miterlimit="10" d="M81.4,1.593L69.832,3.164 M69.832,3.164
	L59.496,5.688"/>
<line fill="none" stroke="#010101" stroke-width="1.5" stroke-miterlimit="10" x1="59.496" y1="5.688" x2="50.862" y2="9.246"/>
<line fill="none" stroke="#010101" stroke-width="1.5" stroke-miterlimit="10" x1="106.274" y1="0.75" x2="93.705" y2="0.845"/>
<line fill="none" stroke="#010101" stroke-width="1.5" stroke-miterlimit="10" x1="93.705" y1="0.845" x2="81.4" y2="1.593"/>
<polyline fill="none" stroke="#FF0000" stroke-width="1.5" stroke-linecap="round" stroke-linejoin="round" stroke-miterlimit="10" points="
	390.837,7.73 390.656,7.73 390.475,7.275 390.292,6.645 390.116,6.093 389.934,5.851 389.75,6.136 389.57,7.118 389.388,8.917 
	389.212,11.592 389.029,15.137 388.845,19.459 388.665,24.43 388.483,29.861 388.307,35.553 388.124,41.324 387.943,47.003 
	387.758,52.465 387.578,57.599 387.402,62.358 387.218,66.71 387.037,70.644 386.856,74.179 386.68,77.331 386.497,80.124 
	386.315,82.604 386.131,84.798 385.951,86.731 385.775,88.447 385.591,89.962 385.41,91.309 385.229,92.502 385.047,93.576 
	384.87,94.534 384.688,95.4 384.504,96.182 384.324,96.891 384.142,97.54 383.966,98.133 383.783,98.679 383.602,99.177 
	383.417,99.631 383.243,100.049 383.061,100.431 382.877,100.776 382.697,101.092 382.512,101.371 382.336,101.607 382.156,101.819 
	381.974,101.989 381.791,102.128 381.61,102.226 381.434,102.292 381.25,102.316 381.069,102.31 380.888,102.268 380.709,102.189 
	380.529,102.074 380.345,101.929 380.164,101.758 379.983,101.553 379.804,101.329 379.624,101.08 379.442,100.813 379.258,100.534 
	379.078,100.238 378.902,99.935 378.717,99.625 378.537,99.315 378.356,99.007 378.171,98.709 377.996,98.419 377.815,98.133 
	377.631,97.867 377.45,97.625 377.274,97.395 377.09,97.188 376.91,97.006 376.728,96.849 376.544,96.715 376.369,96.612 
	376.188,96.539 376.004,96.498 375.823,96.479 375.639,96.498 375.463,96.539 375.283,96.618 375.101,96.722 374.917,96.849 
	374.734,97.013 374.558,97.2 374.376,97.413 374.196,97.649 374.012,97.91 373.836,98.194 373.656,98.492 373.474,98.813 
	373.291,99.14 373.109,99.485 372.931,99.843 372.75,100.201 372.569,100.564 372.385,100.922 372.204,101.28 372.028,101.631 
	371.844,101.965 371.664,102.286 371.48,102.583 371.304,102.856 371.123,103.104 370.942,103.317 370.758,103.493 370.577,103.626 
	370.401,103.723 370.217,103.771 370.037,103.771 369.852,103.723 369.671,103.632 369.496,103.486 369.315,103.298 369.13,103.068 
	368.95,102.79 368.766,102.474 368.59,102.122 368.409,101.734 368.225,101.329 368.044,100.897 367.869,100.449 367.687,99.994 
	367.503,99.528 367.32,99.067 367.139,98.613 366.963,98.165 366.782,97.734 366.598,97.321 366.417,96.934 366.233,96.57 
	366.057,96.242 365.876,95.946 365.696,95.678 365.511,95.449 365.328,95.26 365.155,95.109 364.974,95 364.79,94.933 
	364.606,94.902 364.43,94.915 364.25,94.97 364.068,95.066 363.884,95.2 363.704,95.37 363.528,95.582 363.344,95.83 
	363.163,96.115 362.979,96.437 362.798,96.788 362.623,97.169 362.439,97.583 362.257,98.018 362.077,98.485 361.901,98.964 
	361.717,99.467 361.536,99.977 361.352,100.498 361.171,101.025 360.996,101.546 360.811,102.068 360.63,102.571 360.449,103.062 
	360.265,103.522 360.089,103.959 359.906,104.353 359.725,104.705 359.543,105.001 359.363,105.244 359.184,105.426 
	359.003,105.542 358.82,105.583 358.638,105.553 358.462,105.444 358.282,105.262 358.098,105.008 357.914,104.68 357.733,104.286 
	357.557,103.826 357.376,103.311 357.192,102.747 357.011,102.141 356.831,101.498 356.655,100.831 356.47,100.146 356.29,99.455 
	356.106,98.771 355.924,98.092 355.749,97.431 355.565,96.793 355.384,96.188 355.203,95.613 355.025,95.085 354.843,94.594 
	354.663,94.157 354.479,93.763 354.297,93.424 354.122,93.139 353.938,92.909 353.757,92.733 353.576,92.612 353.392,92.539 
	353.216,92.526 353.036,92.569 352.851,92.661 352.67,92.806 352.492,93.005 352.311,93.254 352.13,93.551 351.949,93.897 
	351.765,94.29 351.589,94.733 351.406,95.218 351.224,95.74 351.043,96.31 350.86,96.915 350.684,97.558 350.5,98.23 
	350.319,98.934 350.138,99.662 349.957,100.407 349.779,101.165 349.597,101.929 349.417,102.692 349.233,103.444 349.057,104.183 
	348.875,104.886 348.692,105.56 348.511,106.178 348.327,106.735 348.151,107.22 347.97,107.626 347.79,107.936 347.605,108.142 
	347.424,108.238 347.246,108.221 347.065,108.081 346.883,107.82 346.703,107.438 346.519,106.941 346.343,106.329 346.162,105.62 
	345.978,104.82 345.797,103.947 345.622,103.001 345.438,102.014 345.256,100.996 345.073,99.952 344.892,98.909 344.716,97.879 
	344.535,96.866 344.351,95.891 344.167,94.964 343.986,94.085 343.81,93.266 343.629,92.509 343.446,91.817 343.264,91.206 
	343.086,90.659 342.905,90.181 342.724,89.782 342.542,89.454 342.359,89.199 342.183,89.011 342.002,88.896 341.819,88.848 
	341.637,88.859 341.454,88.945 341.278,89.084 341.097,89.29 340.914,89.562 340.732,89.89 340.551,90.278 340.375,90.727 
	340.192,91.23 340.01,91.793 339.827,92.412 339.651,93.09 339.47,93.824 339.289,94.617 339.105,95.461 338.921,96.352 
	338.746,97.297 338.564,98.286 338.383,99.315 338.2,100.382 338.018,101.474 337.842,102.59 337.659,103.716 337.478,104.838 
	337.296,105.947 337.113,107.026 336.937,108.057 336.753,109.021 336.573,109.899 336.391,110.669 336.215,111.312 
	336.032,111.809 335.851,112.137 335.667,112.282 335.486,112.227 335.31,111.973 335.129,111.518 334.945,110.851 334.764,109.99 
	334.581,108.954 334.405,107.748 334.223,106.408 334.04,104.953 333.859,103.413 333.683,101.819 333.5,100.201 333.318,98.577 
	333.137,96.977 332.954,95.425 332.778,93.933 332.596,92.515 332.413,91.187 332.232,89.957 332.05,88.823 331.875,87.798 
	331.691,86.871 331.507,86.053 331.326,85.331 331.145,84.707 330.969,84.18 330.786,83.737 330.605,83.386 330.42,83.113 
	330.245,82.914 330.064,82.786 329.882,82.725 329.699,82.737 329.518,82.804 329.342,82.938 329.159,83.125 328.977,83.374 
	328.793,83.682 328.613,84.041 328.437,84.464 328.253,84.938 328.072,85.478 327.888,86.071 327.708,86.731 327.532,87.453 
	327.35,88.242 327.167,89.096 326.986,90.029 326.81,91.029 326.625,92.108 326.445,93.26 326.261,94.49 326.08,95.806 
	325.904,97.193 325.72,98.661 325.54,100.194 325.358,101.801 325.174,103.456 324.999,105.16 324.815,106.887 324.636,108.626 
	324.453,110.342 324.272,112.015 324.093,113.604 323.913,115.064 323.731,116.361 323.55,117.452 323.372,118.283 323.191,118.822 
	323.007,119.016 322.826,118.846 322.645,118.295 322.469,117.349 322.285,116.028 322.101,114.349 321.92,112.354 321.739,110.088 
	321.564,107.621 321.379,105.001 321.199,102.304 321.017,99.583 320.839,96.886 320.658,94.266 320.474,91.757 320.293,89.393 
	320.112,87.181 319.936,85.138 319.752,83.27 319.572,81.574 319.388,80.046 319.207,78.682 319.031,77.463 318.847,76.385 
	318.667,75.433 318.485,74.59 318.301,73.851 318.125,73.202 317.945,72.632 317.76,72.123 317.58,71.675 317.404,71.274 
	317.22,70.917 317.039,70.583 316.858,70.281 316.674,69.995 316.499,69.723 316.317,69.462 316.136,69.202 315.953,68.941 
	315.769,68.674 315.593,68.401 315.412,68.11 315.231,67.813 315.047,67.492 314.866,67.153 314.69,66.789 314.506,66.395 
	314.326,65.971 314.141,65.504 313.965,65.007 313.785,64.461 313.604,63.867 313.419,63.225 313.239,62.527 313.06,61.764 
	312.879,60.927 312.698,60.024 312.514,59.042 312.333,57.969 312.158,56.806 311.976,55.544 311.792,54.175 311.612,52.695 
	311.433,51.095 311.252,49.374 311.071,47.531 310.887,45.555 310.707,43.463 310.531,41.245 310.347,38.923 310.166,36.505 
	309.985,34.026 309.801,31.504 309.625,29 309.444,26.558 309.26,24.242 309.08,22.138 308.895,20.332 308.719,18.914 
	308.539,17.974 308.355,17.598 308.173,17.859 307.998,18.805 307.817,20.436 307.633,22.739 307.452,25.654 307.268,29.085 
	307.092,32.916 306.912,37.026 306.728,41.281 306.546,45.561 306.366,49.762 306.19,53.799 306.006,57.618 305.822,61.175 
	305.641,64.443 305.46,67.419 305.285,70.105 305.1,72.517 304.919,74.669 304.736,76.584 304.563,78.288 304.378,79.797 
	304.198,81.143 304.014,82.349 303.831,83.428 303.657,84.41 303.473,85.308 303.292,86.138 303.109,86.914 302.927,87.653 
	302.751,88.369 302.571,89.065 302.387,89.757 302.203,90.454 302.03,91.15 301.846,91.866 301.666,92.599 301.482,93.357 
	301.3,94.139 301.125,94.951 300.944,95.794 300.759,96.661 300.576,97.558 300.395,98.479 300.219,99.431 300.039,100.395 
	299.854,101.377 299.673,102.359 299.49,103.347 299.314,104.322 299.132,105.269 298.952,106.184 298.768,107.05 298.592,107.851 
	298.409,108.578 298.227,109.203 298.046,109.718 297.863,110.105 297.687,110.354 297.505,110.451 297.322,110.391 
	297.141,110.167 296.959,109.772 296.784,109.214 296.6,108.5 296.419,107.645 296.235,106.65 296.054,105.547 295.878,104.347 
	295.695,103.074 295.513,101.753 295.333,100.407 295.157,99.049 294.973,97.703 294.79,96.388 294.608,95.121 294.427,93.909 
	294.251,92.77 294.068,91.702 293.886,90.72 293.706,89.823 293.522,89.017 293.346,88.296 293.162,87.666 292.981,87.126 
	292.8,86.671 292.625,86.295 292.441,85.998 292.259,85.786 292.076,85.641 291.894,85.568 291.718,85.568 291.538,85.634 
	291.354,85.768 291.172,85.962 290.989,86.217 290.813,86.538 290.632,86.919 290.449,87.362 290.267,87.866 290.083,88.429 
	289.908,89.054 289.727,89.745 289.545,90.502 289.362,91.321 289.186,92.206 289.005,93.151 288.822,94.169 288.64,95.254 
	288.459,96.4 288.281,97.606 288.1,98.874 287.918,100.201 287.735,101.571 287.551,102.977 287.378,104.408 287.194,105.856 
	287.013,107.299 286.83,108.717 286.648,110.088 286.472,111.385 286.292,112.573 286.108,113.627 285.926,114.519 285.749,115.203 
	285.567,115.658 285.386,115.852 285.205,115.773 285.021,115.403 284.845,114.73 284.662,113.773 284.483,112.53 284.299,111.039 
	284.116,109.323 283.94,107.433 283.759,105.396 283.575,103.268 283.394,101.085 283.218,98.904 283.035,96.745 282.853,94.648 
	282.672,92.642 282.489,90.739 282.313,88.962 282.131,87.319 281.948,85.817 281.767,84.446 281.583,83.209 281.408,82.113 
	281.226,81.137 281.045,80.276 280.862,79.53 280.68,78.882 280.504,78.33 280.321,77.864 280.137,77.476 279.958,77.154 
	279.781,76.899 279.599,76.7 279.416,76.555 279.234,76.451 279.05,76.396 278.877,76.378 278.694,76.396 278.513,76.451 
	278.329,76.536 278.148,76.657 277.972,76.803 277.791,76.979 277.607,77.19 277.423,77.427 277.243,77.7 277.067,78.003 
	276.885,78.342 276.702,78.718 276.521,79.13 276.345,79.591 276.162,80.088 275.98,80.64 275.799,81.24 275.616,81.895 
	275.44,82.61 275.258,83.392 275.075,84.247 274.894,85.18 274.709,86.192 274.534,87.295 274.353,88.496 274.169,89.793 
	273.988,91.206 273.812,92.727 273.631,94.369 273.448,96.133 273.266,98.025 273.083,100.038 272.907,102.177 272.723,104.432 
	272.544,106.784 272.361,109.221 272.177,111.718 272.001,114.228 271.821,116.707 271.636,119.101 271.456,121.332 
	271.275,123.326 271.099,124.987 270.916,126.224 270.734,126.951 270.55,127.085 270.377,126.569 270.193,125.363 270.009,123.478 
	269.829,120.944 269.647,117.828 269.472,114.245 269.288,110.312 269.107,106.147 268.923,101.886 268.742,97.643 268.566,93.509 
	268.385,89.562 268.202,85.853 268.02,82.416 267.836,79.271 267.661,76.415 267.48,73.838 267.296,71.535 267.115,69.48 
	266.939,67.655 266.755,66.031 266.575,64.588 266.393,63.297 266.209,62.146 266.034,61.109 265.853,60.164 265.668,59.296 
	265.488,58.491 265.307,57.727 265.131,56.999 264.947,56.29 264.763,55.599 264.583,54.908 264.407,54.211 264.223,53.508 
	264.042,52.78 263.861,52.041 263.679,51.271 263.501,50.471 263.32,49.647 263.136,48.792 262.956,47.907 262.774,46.997 
	262.595,46.052 262.415,45.095 262.234,44.112 262.049,43.119 261.869,42.118 261.693,41.123 261.509,40.142 261.328,39.184 
	261.147,38.269 260.971,37.408 260.788,36.614 260.606,35.911 260.422,35.305 260.242,34.813 260.063,34.456 259.882,34.25 
	259.701,34.196 259.52,34.304 259.336,34.583 259.161,35.032 258.979,35.644 258.795,36.414 258.615,37.329 258.433,38.378 
	258.255,39.529 258.074,40.771 257.893,42.081 257.711,43.433 257.534,44.809 257.349,46.185 257.168,47.543 256.988,48.864 
	256.806,50.131 256.627,51.338 256.447,52.471 256.265,53.526 256.082,54.496 255.901,55.375 255.722,56.168 255.542,56.866 
	255.36,57.478 255.179,58 255,58.436 254.82,58.793 254.636,59.067 254.455,59.267 254.274,59.394 254.095,59.442 253.915,59.43 
	253.733,59.345 253.549,59.2 253.369,58.993 253.193,58.721 253.008,58.387 252.828,57.994 252.647,57.539 252.465,57.017 
	252.287,56.441 252.106,55.799 251.922,55.096 251.739,54.326 251.563,53.496 251.381,52.592 251.201,51.623 251.019,50.592 
	250.835,49.489 250.66,48.325 250.479,47.095 250.297,45.803 250.114,44.458 249.93,43.07 249.754,41.64 249.574,40.178 
	249.392,38.711 249.208,37.25 249.025,35.808 248.852,34.425 248.667,33.116 248.484,31.916 248.303,30.861 248.127,29.977 
	247.947,29.297 247.765,28.861 247.582,28.691 247.398,28.8 247.222,29.219 247.043,29.934 246.86,30.946 246.676,32.243 
	246.493,33.795 246.319,35.571 246.135,37.523 245.955,39.608 245.771,41.791 245.589,44.009 245.414,46.234 245.23,48.422 
	245.049,50.543 244.868,52.568 244.692,54.483 244.508,56.266 244.325,57.915 244.146,59.423 243.962,60.794 243.787,62.024 
	243.603,63.122 243.421,64.097 243.238,64.952 243.057,65.692 242.884,66.334 242.7,66.886 242.516,67.353 242.335,67.747 
	242.16,68.068 241.978,68.329 241.794,68.534 241.611,68.692 241.43,68.802 241.254,68.868 241.07,68.898 240.889,68.898 
	240.708,68.862 240.524,68.795 240.351,68.704 240.167,68.577 239.984,68.432 239.802,68.256 239.622,68.05 239.446,67.819 
	239.262,67.559 239.079,67.262 238.897,66.941 238.721,66.583 238.541,66.188 238.357,65.753 238.175,65.273 237.992,64.751 
	237.816,64.183 237.635,63.558 237.454,62.873 237.27,62.121 237.089,61.309 236.914,60.412 236.73,59.442 236.545,58.381 
	236.365,57.229 236.184,55.981 236.008,54.617 235.824,53.144 235.643,51.55 235.462,49.828 235.287,47.979 235.102,45.998 
	234.921,43.888 234.738,41.651 234.556,39.293 234.38,36.839 234.2,34.304 234.016,31.722 233.834,29.14 233.651,26.606 
	233.475,24.188 233.294,21.969 233.111,20.035 232.929,18.484 232.753,17.416 232.57,16.92 232.389,17.071 232.208,17.932 
	232.027,19.513 231.848,21.799 231.665,24.732 231.483,28.224 231.302,32.146 231.122,36.372 230.943,40.766 230.761,45.191 
	230.578,49.543 230.397,53.732 230.215,57.696 230.04,61.382 229.856,64.776 229.675,67.862 229.494,70.65 229.316,73.147 
	229.132,75.372 228.951,77.354 228.77,79.112 228.588,80.677 228.411,82.064 228.229,83.301 228.048,84.416 227.867,85.422 
	227.683,86.338 227.507,87.186 227.324,87.974 227.142,88.726 226.961,89.441 226.781,90.145 226.602,90.829 226.421,91.514 
	226.237,92.206 226.056,92.909 225.88,93.618 225.697,94.352 225.515,95.103 225.334,95.873 225.151,96.673 224.975,97.485 
	224.793,98.328 224.613,99.182 224.429,100.049 224.246,100.934 224.07,101.819 223.888,102.698 223.708,103.571 223.524,104.42 
	223.348,105.238 223.164,106.014 222.983,106.735 222.802,107.39 222.621,107.966 222.442,108.451 222.261,108.827 222.081,109.081 
	221.896,109.214 221.715,109.214 221.537,109.075 221.356,108.79 221.174,108.365 220.991,107.808 220.81,107.117 220.634,106.311 
	220.453,105.402 220.269,104.402 220.088,103.329 219.91,102.201 219.729,101.043 219.548,99.861 219.366,98.679 219.182,97.51 
	219.006,96.376 218.824,95.278 218.644,94.236 218.46,93.254 218.278,92.345 218.101,91.502 217.919,90.739 217.738,90.053 
	217.556,89.454 217.374,88.926 217.198,88.483 217.014,88.114 216.833,87.823 216.65,87.604 216.475,87.466 216.292,87.393 
	216.11,87.386 215.928,87.447 215.746,87.574 215.57,87.769 215.388,88.023 215.207,88.338 215.024,88.72 214.841,89.156 
	214.666,89.66 214.482,90.217 214.3,90.842 214.12,91.526 213.943,92.266 213.76,93.072 213.578,93.933 213.395,94.854 
	213.214,95.836 213.039,96.873 212.856,97.964 212.673,99.104 212.49,100.286 212.307,101.505 212.133,102.752 211.952,104.014 
	211.768,105.28 211.585,106.541 211.404,107.772 211.228,108.954 211.046,110.063 210.864,111.081 210.68,111.979 210.506,112.73 
	210.323,113.306 210.143,113.694 209.96,113.87 209.776,113.815 209.601,113.512 209.419,112.973 209.236,112.185 209.055,111.173 
	208.872,109.942 208.696,108.523 208.514,106.947 208.332,105.25 208.148,103.456 207.967,101.607 207.792,99.734 207.61,97.879 
	207.426,96.054 207.244,94.296 207.068,92.618 206.887,91.035 206.706,89.556 206.522,88.198 206.339,86.95 206.164,85.829 
	205.98,84.816 205.8,83.925 205.618,83.138 205.436,82.458 205.26,81.876 205.076,81.385 204.894,80.979 204.712,80.658 
	204.538,80.41 204.354,80.227 204.172,80.113 203.989,80.063 203.808,80.063 203.631,80.124 203.45,80.234 203.267,80.397 
	203.085,80.61 202.903,80.87 202.726,81.173 202.545,81.531 202.362,81.937 202.181,82.398 201.999,82.906 201.822,83.47 
	201.641,84.089 201.458,84.774 201.276,85.52 201.1,86.332 200.917,87.217 200.734,88.174 200.553,89.211 200.373,90.332 
	200.196,91.538 200.012,92.836 199.83,94.224 199.648,95.709 199.468,97.286 199.291,98.958 199.108,100.716 198.926,102.565 
	198.743,104.48 198.562,106.457 198.386,108.469 198.204,110.5 198.021,112.513 197.839,114.464 197.664,116.313 197.479,118.009 
	197.298,119.495 197.118,120.701 196.935,121.574 196.758,122.06 196.576,122.102 196.395,121.671 196.213,120.744 196.03,119.325 
	195.854,117.446 195.671,115.143 195.489,112.476 195.307,109.536 195.131,106.39 194.948,103.134 194.767,99.843 194.585,96.594 
	194.402,93.442 194.226,90.429 194.044,87.599 193.862,84.968 193.681,82.549 193.497,80.349 193.32,78.354 193.139,76.56 
	192.959,74.96 192.775,73.535 192.593,72.262 192.416,71.135 192.235,70.128 192.054,69.231 191.871,68.426 191.694,67.698 
	191.512,67.032 191.329,66.413 191.148,65.837 190.967,65.292 190.79,64.764 190.607,64.243 190.425,63.722 190.243,63.2 
	190.061,62.661 189.885,62.109 189.704,61.527 189.521,60.915 189.339,60.266 189.156,59.575 188.98,58.836 188.799,58.047 
	188.616,57.206 188.435,56.302 "/>
<g>
	<g>
		
			<line fill="none" stroke="#010101" stroke-linecap="round" stroke-linejoin="round" x1="261.927" y1="137.091" x2="291.294" y2="137.091"/>
		<g>
			<path fill="#010101" d="M258.306,137.091c1.704,0.632,3.818,1.711,5.129,2.854l-1.032-2.854l1.032-2.853
				C262.125,135.38,260.01,136.459,258.306,137.091z"/>
		</g>
	</g>
</g>
<text transform="matrix(1 0 0 1 295.0972 140.7305)" fill="#010101" font-family="'Helvetica'" font-size="12">time</text>
<rect x="189.987" y="30.446" fill="none" width="14.333" height="13"/>
<text transform="matrix(1 0 0 1 189.9873 39.0859)" fill="#ED1F24" font-family="'Helvetica-Oblique'" font-size="12">x</text>
<line fill="none" stroke="#000000" stroke-miterlimit="10" x1="188.333" y1="130.619" x2="188.333" y2="3.64"/>
<rect x="167.218" y="155.348" fill="none" width="14.333" height="13"/>
<text transform="matrix(1 0 0 1 167.2178 163.9878)" fill="#231F20" font-family="'Helvetica-Oblique'" font-size="12">y</text>
<rect x="48.483" y="172.632" fill="none" width="14.333" height="13"/>
<text transform="matrix(1 0 0 1 48.4834 181.2715)" fill="#231F20" font-family="'Helvetica-Oblique'" font-size="12">z</text>
</svg>
